<svg xmlns="http://www.w3.org/2000/svg" viewBox="0 0 355.4 216.1" enable-background="new 0 0 355.4 216.1"><path fill="#DFEAF1" d="M7 10.7h46.4v2H7zM106.3 0h30.8v2h-30.8zM53.8 31.6h28.4v2H53.8zM0 181.8h28.4v2H0zm58.8 11.5h28.4v2H58.8zm-41.9 20.6h19.4v2H16.9zM302.8 64.3h28.4v2h-28.4zM269 6.5h41.4v2H269zm52 136.1h34.4v2H321zm-51.4 71.5H304v2h-34.4z"/><path fill="#A7A9AC" d="M31.1 48.5c0 2.2-1.8 4-4 4s-4-1.8-4-4 1.8-4 4-4 4 1.8 4 4M36.2 58.2c0-1.9-1.6-3.5-3.5-3.5H21.6c-1.9 0-3.5 1.6-3.5 3.5v15.2c0 .8.6 1.4 1.4 1.4h.2c.8 0 1.4-.6 1.4-1.4V62.6c.1 0 .3 0 .4 0h.3v32.9c0 1.3 1 2.3 2.3 2.3 1.3 0 2.3-1 2.3-2.3V74.9h1.3v20.6c0 1.3 1 2.3 2.3 2.3 1.3 0 2.3-1 2.3-2.3V62.6h.3c.1 0 .3 0 .4 0v10.9c0 .8.6 1.4 1.4 1.4h.2c.8 0 1.4-.6 1.4-1.4V58.2zM56 48.5c0 2.2-1.8 4-4 4s-4-1.8-4-4 1.8-4 4-4 4 1.8 4 4M61.2 58.2c0-1.9-1.6-3.5-3.5-3.5H46.5c-1.9 0-3.5 1.6-3.5 3.5v15.2c0 .8.6 1.4 1.4 1.4h.2c.8 0 1.4-.6 1.4-1.4V62.6c.1 0 .3 0 .4 0h.3v32.9c0 1.3 1 2.3 2.3 2.3 1.3 0 2.3-1 2.3-2.3V74.9h1.3v20.6c0 1.3 1 2.3 2.3 2.3 1.3 0 2.3-1 2.3-2.3V62.6h.3c.1 0 .3 0 .4 0v10.9c0 .8.6 1.4 1.4 1.4h.2c.8 0 1.4-.6 1.4-1.4V58.2zm19.7-9.7c0 2.2-1.8 4-4 4s-4-1.8-4-4 1.8-4 4-4c2.3 0 4 1.8 4 4M86.1 58.2c0-1.9-1.6-3.5-3.5-3.5H71.4c-1.9 0-3.5 1.6-3.5 3.5v15.2c0 .8.6 1.4 1.4 1.4h.2c.8 0 1.4-.6 1.4-1.4V62.6c.1 0 .3 0 .4 0h.3v32.9c0 1.3 1 2.3 2.3 2.3 1.3 0 2.3-1 2.3-2.3V74.9h1.3v20.6c0 1.3 1 2.3 2.3 2.3 1.3 0 2.3-1 2.3-2.3V62.6h.3c.1 0 .3 0 .4 0v10.9c0 .8.6 1.4 1.4 1.4h.2c.8 0 1.4-.6 1.4-1.4V58.2zm-55 57c0 2.2-1.8 4-4 4s-4-1.8-4-4 1.8-4 4-4c2.2.1 4 1.8 4 4M36.2 125c0-1.9-1.6-3.5-3.5-3.5H21.6c-1.9 0-3.5 1.6-3.5 3.5v15.2c0 .8.6 1.4 1.4 1.4h.2c.8 0 1.4-.6 1.4-1.4v-10.9c.1 0 .3 0 .4 0h.3v32.9c0 1.3 1 2.3 2.3 2.3 1.3 0 2.3-1 2.3-2.3v-20.6h1.3v20.6c0 1.3 1 2.3 2.3 2.3 1.3 0 2.3-1 2.3-2.3v-32.8h.3c.1 0 .3 0 .4 0v10.9c0 .8.6 1.4 1.4 1.4h.2c.8 0 1.4-.6 1.4-1.4V125zm19.8-9.8c0 2.2-1.8 4-4 4s-4-1.8-4-4 1.8-4 4-4c2.2.1 4 1.8 4 4M61.2 125c0-1.9-1.6-3.5-3.5-3.5H46.5c-1.9 0-3.5 1.6-3.5 3.5v15.2c0 .8.6 1.4 1.4 1.4h.2c.8 0 1.4-.6 1.4-1.4v-10.9c.1 0 .3 0 .4 0h.3v32.9c0 1.3 1 2.3 2.3 2.3 1.3 0 2.3-1 2.3-2.3v-20.6h1.3v20.6c0 1.3 1 2.3 2.3 2.3 1.3 0 2.3-1 2.3-2.3v-32.8h.3c.1 0 .3 0 .4 0v10.9c0 .8.6 1.4 1.4 1.4h.2c.8 0 1.4-.6 1.4-1.4V125zm19.7-9.8c0 2.2-1.8 4-4 4s-4-1.8-4-4 1.8-4 4-4c2.3.1 4 1.8 4 4"/><path fill="#A7A9AC" d="M86.1 125c0-1.9-1.6-3.5-3.5-3.5H71.4c-1.9 0-3.5 1.6-3.5 3.5v15.2c0 .8.6 1.4 1.4 1.4h.2c.8 0 1.4-.6 1.4-1.4v-10.9c.1 0 .3 0 .4 0h.3v32.9c0 1.3 1 2.3 2.3 2.3 1.3 0 2.3-1 2.3-2.3v-20.6h1.3v20.6c0 1.3 1 2.3 2.3 2.3 1.3 0 2.3-1 2.3-2.3v-32.8h.3c.1 0 .3 0 .4 0v10.9c0 .8.6 1.4 1.4 1.4h.2c.8 0 1.4-.6 1.4-1.4V125z"/><path fill="#6593AE" d="M240.7 39.4h9.1v6.1l18.2-7.7-18.2-7.7v6.2h-9.1z"/><path fill="#fff" d="M166.8 11.7h62.6v52.2h-62.6z"/><path fill="#325163" d="M229.9 64.4h-63.6V11.2h63.6v53.2zm-62.6-1h61.6V12.2h-61.6v51.2z"/><path fill="#fff" d="M166.8 11.7h62.6v7.7h-62.6z"/><path fill="#325163" d="M229.9 20h-63.6v-8.7h63.6V20zm-62.6-1h61.6v-6.7h-61.6V19zm14.5-4.3c.2.2.4.6.4.9 0 .3-.1.7-.4.9-.2.2-.6.4-.9.4-.3 0-.7-.1-.9-.4-.2-.2-.4-.6-.4-.9 0-.3.1-.7.4-.9.2-.2.6-.4.9-.4.4 0 .7.1.9.4m-4.4 0c.2.2.4.6.4.9 0 .3-.1.7-.4.9-.2.2-.6.4-.9.4-.3 0-.7-.1-.9-.4-.2-.2-.4-.6-.4-.9s.1-.7.4-.9c.2-.2.6-.4.9-.4.3 0 .7.1.9.4m-4.4 0c.2.2.4.6.4.9 0 .3-.1.7-.4.9-.2.2-.6.4-.9.4-.3 0-.7-.1-.9-.4-.2-.2-.4-.6-.4-.9 0-.3.1-.7.4-.9.2-.2.6-.4.9-.4.3 0 .7.1.9.4"/><path fill="#DFEAF1" d="M170.8 23.8h53.5v7h-53.5z"/><path fill="#D1D3D4" d="M170.8 34.3h27.3v24.6h-27.3zm32.1 0h21.4v10.1h-21.4zm0 14.5h21.4v10.1h-21.4z"/><path fill="#6593AE" d="M240.7 111.9h9.1v6.1l18.2-7.7-18.2-7.7v6.2h-9.1z"/><path fill="#fff" d="M166.8 84.3h62.6v52.2h-62.6z"/><path fill="#325163" d="M229.9 136.9h-63.6V83.8h63.6v53.1zm-62.6-1h61.6V84.8h-61.6v51.1z"/><path fill="#fff" d="M166.8 84.3h62.6V92h-62.6z"/><path fill="#325163" d="M229.9 92.5h-63.6v-8.7h63.6v8.7zm-62.6-1h61.6v-6.7h-61.6v6.7zm14.5-4.3c.2.2.4.6.4.9 0 .3-.1.7-.4.9-.2.2-.6.4-.9.4-.3 0-.7-.1-.9-.4-.2-.2-.4-.6-.4-.9 0-.3.1-.7.4-.9.2-.2.6-.4.9-.4.4 0 .7.2.9.4m-4.4 0c.2.2.4.6.4.9 0 .3-.1.7-.4.9-.2.2-.6.4-.9.4-.3 0-.7-.1-.9-.4-.2-.2-.4-.6-.4-.9s.1-.7.4-.9c.2-.2.6-.4.9-.4.3 0 .7.2.9.4m-4.4 0c.2.2.4.6.4.9 0 .3-.1.7-.4.9-.2.2-.6.4-.9.4-.3 0-.7-.1-.9-.4-.2-.2-.4-.6-.4-.9 0-.3.1-.7.4-.9.2-.2.6-.4.9-.4.3 0 .7.2.9.4"/><path fill="#325163" d="M170.8 96.4h53.5v7h-53.5z"/><path fill="#D1D3D4" d="M170.8 106.8h27.3v24.6h-27.3zm32.1 0h21.4V117h-21.4zm0 14.5h21.4v10.2h-21.4z"/><path fill="#6593AE" d="M240.7 184.4h9.1v6.1l18.2-7.7-18.2-7.7v6.2h-9.1z"/><path fill="#fff" d="M166.8 156.8h62.6V209h-62.6z"/><path fill="#325163" d="M229.9 209.4h-63.6v-53.2h63.6v53.2zm-62.6-1h61.6v-51.2h-61.6v51.2z"/><path fill="#fff" d="M166.8 156.8h62.6v7.7h-62.6z"/><path fill="#325163" d="M229.9 165h-63.6v-8.7h63.6v8.7zm-62.6-1h61.6v-6.7h-61.6v6.7zm14.5-4.3c.2.2.4.6.4.9 0 .3-.1.7-.4.9-.2.2-.6.4-.9.4-.3 0-.7-.1-.9-.4-.2-.2-.4-.6-.4-.9 0-.3.1-.7.4-.9.2-.2.6-.4.9-.4.4 0 .7.2.9.4m-4.4 0c.2.2.4.6.4.9 0 .3-.1.7-.4.9-.2.2-.6.4-.9.4-.3 0-.7-.1-.9-.4-.2-.2-.4-.6-.4-.9 0-.3.1-.7.4-.9.2-.2.6-.4.9-.4.3 0 .7.2.9.4m-4.4 0c.2.2.4.6.4.9 0 .3-.1.7-.4.9-.2.2-.6.4-.9.4-.3 0-.7-.1-.9-.4-.2-.2-.4-.6-.4-.9 0-.3.1-.7.4-.9.2-.2.6-.4.9-.4.3 0 .7.2.9.4"/><path fill="#939598" d="M170.8 168.9h53.5v7h-53.5z"/><path fill="#D1D3D4" d="M170.8 179.4h27.3V204h-27.3zm32.1 0h21.4v10.1h-21.4zm0 14.4h21.4v10.1h-21.4z"/><path fill="#DFEAF1" d="M116.4 77.2h-16.1v-2h16.1c1 0 1.8-.8 1.8-1.8v-15c0-2.1 1.7-3.8 3.8-3.8h16c1 0 1.8-.8 1.8-1.8V42.2c0-2.1 1.7-3.8 3.8-3.8h15.3v2h-15.3c-1 0-1.8.8-1.8 1.8V53c0 2.1-1.7 3.8-3.8 3.8h-16.1c-1 0-1.8.8-1.8 1.8v15c.1 2-1.6 3.6-3.7 3.6"/><path fill="#DFEAF1" d="M158.8 181.3h-15.3c-2.1 0-3.8-1.7-3.8-3.8v-10.9c0-1-.8-1.8-1.8-1.8h-16.1c-2.1 0-3.8-1.7-3.8-3.8v-15c0-1-.8-1.8-1.8-1.8h-16.1v-2h16.1c2.1 0 3.8 1.7 3.8 3.8v15c0 1 .8 1.8 1.8 1.8H138c2.1 0 3.8 1.7 3.8 3.8v10.9c0 1 .8 1.8 1.8 1.8h15.3v2zm-58.5-72h58.5v2h-58.5z"/><path fill="#A9B5BC" d="M284.6 41.3h2.6v-7.5H285v-1.3c1.1-.2 1.9-.5 2.6-.9h1.5v9.8h2.3V43h-6.9v-1.7zm8.3.3l1-1.3c.7.6 1.5 1.2 2.7 1.2 1.3 0 2.2-.8 2.2-2.2 0-1.4-.8-2.1-2.1-2.1-.7 0-1.2.2-1.8.6l-1-.6.3-5.7h6.1v1.7H296l-.2 2.8c.5-.2.9-.4 1.5-.4 2 0 3.6 1.1 3.6 3.6s-1.9 3.9-4 3.9c-1.9.1-3.1-.6-4-1.5M302.6 45.1c1.2-.4 1.8-1.3 1.8-2.2h-.2c-.7 0-1.3-.5-1.3-1.3s.6-1.3 1.4-1.3c1 0 1.5.8 1.5 2.1 0 1.8-1 3.1-2.8 3.7l-.4-1zm4.5-3.5l1-1.3c.7.6 1.5 1.2 2.7 1.2 1.3 0 2.2-.8 2.2-2.2 0-1.4-.8-2.1-2.1-2.1-.7 0-1.2.2-1.8.6l-1-.6.3-5.7h6.1v1.7h-4.3L310 36c.5-.2.9-.4 1.5-.4 2 0 3.6 1.1 3.6 3.6s-1.9 3.9-4 3.9c-1.9.1-3.1-.6-4-1.5m9.4-6.9c0-2.4 1.2-3.7 2.8-3.7 1.7 0 2.8 1.3 2.8 3.7 0 2.4-1.2 3.7-2.8 3.7-1.7.1-2.8-1.3-2.8-3.7m4.1 0c0-1.8-.6-2.5-1.3-2.5-.8 0-1.3.7-1.3 2.5s.6 2.5 1.3 2.5c.7.1 1.3-.7 1.3-2.5m5.5-3.7h1.3L321 43.2h-1.3l6.4-12.2zm-1.2 8.5c0-2.4 1.2-3.7 2.8-3.7 1.7 0 2.8 1.4 2.8 3.7 0 2.4-1.2 3.7-2.8 3.7-1.6 0-2.8-1.4-2.8-3.7m4.1 0c0-1.8-.6-2.5-1.3-2.5-.8 0-1.3.7-1.3 2.5s.6 2.5 1.3 2.5c.8 0 1.3-.8 1.3-2.5"/><path fill="#6593AE" d="M284 109.8c0-4.3 2.2-6.2 4.6-6.2 1.5 0 2.6.6 3.3 1.4l-1.4 1.6c-.4-.4-1.1-.8-1.8-.8-1.3 0-2.3.9-2.4 3.6.6-.8 1.6-1.2 2.3-1.2 2 0 3.4 1.1 3.4 3.5s-1.7 3.8-3.8 3.8c-2.1-.1-4.2-1.7-4.2-5.7m5.7 1.8c0-1.2-.6-1.7-1.5-1.7-.6 0-1.3.3-1.7 1.1.2 1.8 1 2.4 1.8 2.4s1.4-.5 1.4-1.8m3.8-1.8c0-4.3 2.2-6.2 4.6-6.2 1.5 0 2.6.6 3.3 1.4l-1.4 1.6c-.4-.4-1.1-.8-1.8-.8-1.3 0-2.3.9-2.4 3.6.6-.8 1.6-1.2 2.3-1.2 2 0 3.4 1.1 3.4 3.5s-1.7 3.8-3.8 3.8c-2.1-.1-4.2-1.7-4.2-5.7m5.7 1.8c0-1.2-.6-1.7-1.5-1.7-.6 0-1.3.3-1.7 1.1.2 1.8 1 2.4 1.8 2.4s1.4-.5 1.4-1.8M303.1 117.3c1.3-.5 2.1-1.3 2-2.2h-.1c-.8 0-1.6-.5-1.6-1.5 0-.9.7-1.5 1.7-1.5 1.2 0 1.8.9 1.8 2.5 0 2-1.1 3.5-3.2 4.1l-.6-1.4zm5-3.5l1.2-1.7c.7.6 1.5 1.1 2.5 1.1 1.2 0 1.9-.6 1.9-1.8 0-1.2-.7-1.8-1.8-1.8-.7 0-1 .1-1.7.6l-1.2-.8.3-5.8h6.5v2.2h-4.2l-.2 2.1c.4-.2.8-.3 1.3-.3 2 0 3.6 1.1 3.6 3.5 0 2.5-2 4-4.2 4-1.9.3-3.1-.4-4-1.3m9.5-6.8c0-2.3 1.2-3.7 2.9-3.7s2.9 1.4 2.9 3.7c0 2.4-1.2 3.7-2.9 3.7-1.6 0-2.9-1.4-2.9-3.7m4 0c0-1.7-.5-2.2-1.1-2.2-.6 0-1.1.6-1.1 2.2 0 1.7.5 2.3 1.1 2.3.7-.1 1.1-.7 1.1-2.3m5.7-3.7h1.5l-6.3 12.2H321l6.3-12.2zm-1 8.4c0-2.3 1.2-3.7 2.9-3.7s2.9 1.4 2.9 3.7c0 2.4-1.2 3.7-2.9 3.7s-2.9-1.4-2.9-3.7m4 0c0-1.7-.5-2.2-1.1-2.2-.6 0-1.1.6-1.1 2.2 0 1.7.5 2.3 1.1 2.3.6 0 1.1-.6 1.1-2.3"/><path fill="#A9B5BC" d="M284.6 185.7h2.6v-7.5H285v-1.3c1.1-.2 1.9-.5 2.6-.9h1.5v9.8h2.3v1.7h-6.9v-1.8zm8.6-1.2c0-1.4 1-2.4 2.1-2.9v-.1c-.9-.6-1.6-1.5-1.6-2.7 0-1.9 1.5-3 3.5-3 2.1 0 3.4 1.2 3.4 3.1 0 1.1-.8 2.1-1.5 2.6v.1c1.1.6 2 1.4 2 3 0 1.8-1.5 3.1-3.9 3.1-2.3 0-4-1.3-4-3.2m5.9 0c0-1.2-1.2-1.7-2.8-2.3-.7.5-1.2 1.3-1.2 2.1 0 1.1.9 1.9 2.1 1.9 1.1 0 1.9-.7 1.9-1.7m-.3-5.5c0-1-.6-1.7-1.7-1.7-.9 0-1.6.6-1.6 1.6 0 1.2 1 1.7 2.3 2.2.7-.7 1-1.4 1-2.1M302.6 189.6c1.2-.5 1.8-1.3 1.8-2.2h-.2c-.7 0-1.3-.5-1.3-1.3s.6-1.3 1.4-1.3c1 0 1.5.8 1.5 2.1 0 1.8-1 3.1-2.8 3.7l-.4-1zm4.5-3.5l1-1.3c.7.6 1.5 1.2 2.7 1.2 1.3 0 2.2-.8 2.2-2.2 0-1.4-.8-2.1-2.1-2.1-.7 0-1.2.2-1.8.6l-1-.6.3-5.7h6.1v1.7h-4.3l-.2 2.8c.5-.2.9-.4 1.5-.4 2 0 3.6 1.1 3.6 3.6s-1.9 3.9-4 3.9c-1.9.1-3.1-.7-4-1.5m9.4-6.9c0-2.4 1.2-3.7 2.8-3.7 1.7 0 2.8 1.4 2.8 3.7 0 2.4-1.2 3.7-2.8 3.7-1.7 0-2.8-1.4-2.8-3.7m4.1 0c0-1.8-.6-2.5-1.3-2.5-.8 0-1.3.7-1.3 2.5s.6 2.5 1.3 2.5c.7 0 1.3-.8 1.3-2.5m5.5-3.8h1.3l-6.4 12.2h-1.3l6.4-12.2zm-1.2 8.5c0-2.4 1.2-3.7 2.8-3.7 1.7 0 2.8 1.4 2.8 3.7 0 2.4-1.2 3.7-2.8 3.7-1.6.1-2.8-1.3-2.8-3.7m4.1 0c0-1.8-.6-2.5-1.3-2.5-.8 0-1.3.7-1.3 2.5s.6 2.5 1.3 2.5c.8 0 1.3-.7 1.3-2.5"/><path fill="#6593AE" d="M194.5 28.9h6.4l7.3 23.5h-5.6l-1.4-5.6H194l-1.4 5.6h-5.4l7.3-23.5zm.6 13.8h5l-.5-2.2c-.6-2.3-1.3-5.1-1.9-7.6h-.1c-.6 2.5-1.2 5.2-1.8 7.6l-.7 2.2zm-5 58.6h8c4.9 0 8.6 1.3 8.6 5.8 0 2.1-1.2 4.4-3.1 5.1v.1c2.4.6 4.2 2.4 4.2 5.5 0 4.8-4 6.9-9.1 6.9H190v-23.4zm7.8 9.4c2.6 0 3.7-1.1 3.7-2.8 0-1.8-1.2-2.5-3.7-2.5h-2.5v5.3h2.5zm.5 10c2.9 0 4.4-1 4.4-3.2 0-2.1-1.4-2.9-4.4-2.9h-3v6h3zm-9.4 65.2c0-7.8 5.1-12.3 11.1-12.3 3 0 5.5 1.4 7.1 3.1l-2.8 3.4c-1.2-1.1-2.4-1.9-4.1-1.9-3.2 0-5.8 2.8-5.8 7.6s2.2 7.6 5.7 7.6c1.9 0 3.4-1 4.6-2.2l2.8 3.3c-1.9 2.3-4.5 3.5-7.6 3.5-6-.1-11-4.2-11-12.1"/></svg>