<svg xmlns="http://www.w3.org/2000/svg" width="24" height="14.6" viewBox="0 10.7 24 14.6" enable-background="new 0 10.7 24 14.6"><path fill="#A7A9AC" d="M2.1 14c0 .1-.1.3-.3.3s-.2-.2-.2-.3.1-.3.3-.3.2.1.2.3M2.4 14.6c0-.1-.1-.2-.2-.2h-.7c-.1 0-.2.1-.2.2v1c0 .1 0 .1.1.1s.1 0 .1-.1v-.7 2.2c0 .1.1.2.2.2s.2-.1.2-.2v-1.4H2v1.4c0 .1.1.2.2.2s.2-.1.2-.2v-2.2.7c0 .1 0 .1.1.1s.1 0 .1-.1l-.2-1zm1.4-.6c0 .1-.1.3-.3.3s-.3-.2-.3-.3.1-.3.3-.3.3.1.3.3M4.1 14.6c0-.1-.1-.2-.2-.2h-.8c-.1 0-.2.1-.2.2v1c0 .1 0 .1.1.1s.1 0 .1-.1v-.7 2.2c0 .1.1.2.2.2s.2-.1.2-.2v-1.4h.1v1.4c0 .1.1.2.2.2s.2-.1.2-.2v-2.2.7c0 .1 0 .1.1.1s.1 0 .1-.1l-.1-1zm1.4-.6c0 .1-.1.3-.3.3s-.3-.2-.3-.3.1-.3.3-.3c.1 0 .3.1.3.3M5.8 14.6c0-.1-.1-.2-.2-.2h-.8c-.1 0-.2.1-.2.2v1c0 .1 0 .1.1.1s.1 0 .1-.1v-.7 2.2c0 .1.1.2.2.2s.2-.1.2-.2v-1.4h.1v1.4c0 .1.1.2.2.2s.2-.1.2-.2v-2.2.7c0 .1 0 .1.1.1s.1 0 .1-.1l-.1-1zm-3.7 3.9c0 .1-.1.3-.3.3s-.3-.1-.3-.3.1-.3.3-.3c.2 0 .3.1.3.3M2.4 19.1c0-.1-.1-.2-.2-.2h-.7c-.1 0-.2.1-.2.2v1c0 .1 0 .1.1.1s.1 0 .1-.1v-.7 2.2c0 .1.1.2.2.2s.2-.1.2-.2v-1.4H2v1.4c0 .1.1.2.2.2s.2-.1.2-.2v-2.2.7c0 .1 0 .1.1.1s.1 0 .1-.1l-.2-1zm1.4-.6c0 .1-.1.3-.3.3s-.3-.1-.3-.3.1-.3.3-.3c.2 0 .3.1.3.3M4.1 19.1c0-.1-.1-.2-.2-.2h-.8c-.1 0-.2.1-.2.2v1c0 .1 0 .1.1.1s.1 0 .1-.1v-.7 2.2c0 .1.1.2.2.2s.2-.1.2-.2v-1.4h.1v1.4c0 .1.1.2.2.2s.2-.1.2-.2v-2.2.7c0 .1 0 .1.1.1s.1 0 .1-.1l-.1-1zm1.4-.6c0 .1-.1.3-.3.3s-.3-.1-.3-.3.1-.3.3-.3c.1 0 .3.1.3.3"/><path fill="#A7A9AC" d="M5.8 19.1c0-.1-.1-.2-.2-.2h-.8c-.1 0-.2.1-.2.2v1c0 .1 0 .1.1.1s.1 0 .1-.1v-.7 2.2c0 .1.1.2.2.2s.2-.1.2-.2v-1.4h.1v1.4c0 .1.1.2.2.2s.2-.1.2-.2v-2.2.7c0 .1 0 .1.1.1s.1 0 .1-.1l-.1-1z"/><path fill="#6593AE" d="M16.3 13.4h.6v.4l1.2-.5-1.2-.5v.4h-.6v.2z"/><path fill="#fff" d="M11.3 11.5h4.2V15h-4.2v-3.5z"/><path fill="#325163" d="M15.5 15.1h-4.3v-3.6h4.3v3.6zm-4.2-.1h4.2v-3.5h-4.2V15z"/><path fill="#fff" d="M11.3 11.5h4.2v.5h-4.2v-.5z"/><path fill="#325163" d="M15.5 12.1h-4.3v-.6h4.3v.6zm-4.2-.1h4.2v-.5h-4.2v.5zm1-.3c0 .1 0 .1 0 .1s0 0-.1 0c0 0 0 0-.1 0 0 0 0 0 0-.1s0 0 0-.1c.1.1.1.1.2.1-.1 0 0 0 0 0m-.3 0c0 .1 0 .1 0 .1s0 0-.1 0c0 0 0 0-.1 0 0 0 0 0 0-.1s0 0 0-.1c.1.1.1.1.2.1-.1 0 0 0 0 0m-.3 0c0 .1 0 .1 0 .1s0 0-.1 0c0 0 0 0-.1 0 0 0 0 0 0-.1s0 0 0-.1c.1.1.1.1.2.1-.1 0 0 0 0 0"/><path fill="#DFEAF1" d="M11.5 12.3h3.6v.5h-3.6v-.5z"/><path fill="#D1D3D4" d="M11.5 13h1.8v1.7h-1.8V13zm2.2 0h1.4v.7h-1.4V13zm0 1h1.4v.7h-1.4V14z"/><path fill="#6593AE" d="M16.3 18.3h.6v.4l1.2-.5-1.2-.5v.4h-.6v.2z"/><path fill="#fff" d="M11.3 16.4h4.2v3.5h-4.2v-3.5z"/><path fill="#325163" d="M15.5 19.9h-4.3v-3.6h4.3v3.6zm-4.2 0h4.2v-3.5h-4.2v3.5z"/><path fill="#fff" d="M11.3 16.4h4.2v.5h-4.2v-.5z"/><path fill="#325163" d="M15.5 16.9h-4.3v-.6h4.3v.6zm-4.2 0h4.2v-.5h-4.2v.5zm1-.3c0 .1 0 .1 0 .1s0 0-.1 0c0 0 0 0-.1 0 0 0 0 0 0-.1 0 0 0 0 0-.1.1.1.1.1.2.1-.1 0 0 0 0 0m-.3 0c0 .1 0 .1 0 .1s0 0-.1 0c0 0 0 0-.1 0 0 0 0 0 0-.1 0 0 0 0 0-.1.1.1.1.1.2.1-.1 0 0 0 0 0m-.3 0c0 .1 0 .1 0 .1s0 0-.1 0c0 0 0 0-.1 0 0 0 0 0 0-.1 0 0 0 0 0-.1.1.1.1.1.2.1-.1 0 0 0 0 0"/><path fill="#325163" d="M11.5 17.2h3.6v.5h-3.6v-.5z"/><path fill="#D1D3D4" d="M11.5 17.9h1.8v1.7h-1.8v-1.7zm2.2 0h1.4v.7h-1.4v-.7zm0 1h1.4v.7h-1.4v-.7z"/><path fill="#6593AE" d="M16.3 23.2h.6v.4l1.2-.5-1.2-.5v.4h-.6v.2z"/><path fill="#fff" d="M11.3 21.3h4.2v3.5h-4.2v-3.5z"/><path fill="#325163" d="M15.5 24.8h-4.3v-3.6h4.3v3.6zm-4.2 0h4.2v-3.5h-4.2v3.5z"/><path fill="#fff" d="M11.3 21.3h4.2v.5h-4.2v-.5z"/><path fill="#325163" d="M15.5 21.8h-4.3v-.6h4.3v.6zm-4.2 0h4.2v-.5h-4.2v.5zm1-.3c0 .1 0 .1 0 .1s0 0-.1 0c0 0 0 0-.1 0 0 0 0 0 0-.1s0 0 0-.1c.1.1.1.1.2.1-.1 0 0 0 0 0m-.3 0c0 .1 0 .1 0 .1s0 0-.1 0c0 0 0 0-.1 0 0 0 0 0 0-.1s0 0 0-.1c.1.1.1.1.2.1-.1 0 0 0 0 0m-.3 0c0 .1 0 .1 0 .1s0 0-.1 0c0 0 0 0-.1 0 0 0 0 0 0-.1s0 0 0-.1c.1.1.1.1.2.1-.1 0 0 0 0 0"/><path fill="#939598" d="M11.5 22.1h3.6v.5h-3.6v-.5z"/><path fill="#D1D3D4" d="M11.5 22.8h1.8v1.7h-1.8v-1.7zm2.2 0h1.4v.7h-1.4v-.7zm0 1h1.4v.7h-1.4v-.7z"/><g fill="#fff"><path d="M1.1 25.1h1.3v.1H1.1zM.5 11.4h3.1v.1H.5zM3.6 12.8h1.9v.1H3.6zM4 23.8h1.9v.1H4zM0 23h1.9v.1H0zM7.2 10.7h2.1v.1H7.2zM18.2 25.2h2.3v.1h-2.3zM20.4 15h1.9v.1h-1.9zM18.2 11.1H21v.1h-2.8zM21.7 20.3H24v.1h-2.3zM9.4 13.6v.7c0 .1-.1.1-.1.1H8.2c-.1 0-.3.1-.3.3v1c0 .1-.1.1-.1.1h-1v.1h1.1c.1 0 .3-.1.2-.2v-1c0-.1.1-.1.1-.1h1.1c.1 0 .3-.1.3-.3v-.7c0-.1.1-.1.1-.1h1v-.1h-1c-.1-.1-.3 0-.3.2zM9.6 22.7V22c0-.1-.1-.3-.3-.3H8.2c-.1 0-.1-.1-.1-.1v-1c0-.1-.1-.3-.3-.3h-1v.1h1.1c.1 0 .1.1.1.1v1c0 .1.1.3.3.3h1.1c.1 0 .1.1.1.1v.7c0 .1.1.3.3.3h1v-.1h-1c-.2 0-.2 0-.2-.1zM6.8 18.1h4v.1h-4z"/></g><path fill="#A9B5BC" d="M19.2 13.5h.2V13h-.1v-.1c.1 0 .1 0 .2-.1h.1v.7h.2v.1h-.5l-.1-.1zm.6 0c.1 0 .2 0 .2 0 .1 0 .1-.1.1-.1 0-.1-.1-.1-.1-.1s-.1 0-.1 0h-.1v-.4h.4v.1H20v.2s.1 0 .1 0c.1 0 .2.1.2.2 0 .2-.1.3-.3.3-.1-.1-.2-.1-.2-.2M20.4 13.7c.1 0 .1-.1.1-.1s-.1 0-.1-.1 0-.1.1-.1.1.1.1.1c.1.2 0 .3-.2.2zm.3-.2c.1 0 .2 0 .2 0 .1 0 .1-.1.1-.1 0-.1-.1-.1-.1-.1s-.1 0-.1 0h-.1v-.4h.4v.1h-.3v.2s.1 0 .1 0c.1 0 .2.1.2.2 0 .2-.1.3-.3.3.1-.1 0-.1-.1-.2m.7-.5c0-.2.1-.2.2-.2s.2.1.2.2-.1.2-.2.2c-.2.1-.2 0-.2-.2m.2 0c0-.1 0-.2-.1-.2s-.1 0-.1.2 0 .2.1.2.1 0 .1-.2m.4-.2l-.3.8h-.1l.4-.8zm-.1.6c0-.2.1-.2.2-.2s.2.1.2.2c0 .2-.1.2-.2.2s-.2-.1-.2-.2m.3 0c0-.1 0-.2-.1-.2s-.1 0-.1.2c0 .1 0 .2.1.2.1-.1.1-.1.1-.2"/><path fill="#6593AE" d="M19.2 18.1c0-.3.1-.4.3-.4.1 0 .2 0 .2.1l-.1.1s-.1-.1-.1-.1c-.1 0-.2.1-.2.2 0-.1.1-.1.2-.1s.2.1.2.2-.1.3-.3.3c-.1.1-.2 0-.2-.3m.4.1c0-.1 0-.1-.1-.1 0 0-.1 0-.1.1s.1.2.1.2.1-.1.1-.2m.2-.1c0-.3.1-.4.3-.4.1 0 .2 0 .2.1l-.1.1s-.1-.1-.1-.1c-.1 0-.2.1-.2.2 0-.1.1-.1.2-.1s.2.1.2.2-.1.3-.3.3c0 .1-.2 0-.2-.3m.4.1c0-.1 0-.1-.1-.1 0 0-.1 0-.1.1s.1.2.1.2c.1 0 .1-.1.1-.2M20.5 18.6c.1 0 .1-.1.1-.1-.1 0-.1 0-.1-.1s0-.1.1-.1.1.1.1.2 0 .2-.2.1c0 .1 0 0 0 0zm.3-.2l.1-.1s.1.1.2.1.1 0 .1-.1 0-.1-.1-.1c0 0-.1 0-.1 0l-.1-.1v-.4h.4v.1H21v.1s.1 0 .1 0c.1 0 .2.1.2.2 0 .2-.1.3-.3.3-.1.1-.1 0-.2 0m.6-.5c0-.2.1-.2.2-.2s.2.1.2.2c0 .2-.1.2-.2.2-.1.1-.2 0-.2-.2m.3 0c0-.1 0-.1-.1-.1s-.1 0-.1.1 0 .2.1.2.1-.1.1-.2m.4-.2h.1l-.4.8h-.1s.4-.8.4-.8zm-.1.5c0-.2.1-.2.2-.2s.2.1.2.2c0 .2-.1.2-.2.2-.1.1-.2 0-.2-.2m.3 0c0-.1 0-.1-.1-.1s-.1 0-.1.1 0 .2.1.2.1 0 .1-.2"/><path fill="#A9B5BC" d="M19.2 23.2h.2v-.5h-.1v-.1c.1 0 .1 0 .2-.1h.1v.7h.2v.1h-.5l-.1-.1zm.6 0c0-.1.1-.2.1-.2-.1 0-.1-.1-.1-.2s.1-.2.2-.2.2.1.2.2-.1.1-.1.2c.1 0 .1.1.1.2s-.1.2-.3.2c0 0-.1-.1-.1-.2m.4 0c0-.1-.1-.1-.2-.2 0 0-.1.1-.1.1 0 .1.1.1.1.1.1.1.2 0 .2 0m0-.4c0-.1 0-.1-.1-.1s-.1 0-.1.1.1.1.2.1c0 0 0-.1 0-.1M20.4 23.5c.1 0 .1-.1.1-.1s-.1 0-.1-.1 0-.1.1-.1.1.1.1.1c.1.1 0 .2-.2.2zm.3-.2c.1 0 .2 0 .2 0 .1 0 .1-.1.1-.1s.1-.2 0-.2c0 0-.1 0-.1 0h-.1v-.4h.4v.1h-.3v.2s.1 0 .1 0c.1 0 .2.1.2.2s-.1.3-.3.3c0 0-.1-.1-.2-.1m.7-.5c0-.2.1-.2.2-.2s.2.1.2.2c0 .2-.1.2-.2.2-.2.1-.2 0-.2-.2m.2 0c0-.1 0-.2-.1-.2s-.1 0-.1.2 0 .2.1.2.1-.1.1-.2m.4-.3l-.3.8h-.1l.4-.8zm-.1.6c0-.2.1-.2.2-.2s.2.1.2.2c0 .2-.1.2-.2.2-.1.1-.2 0-.2-.2m.3 0c0-.1 0-.2-.1-.2s-.1 0-.1.2 0 .2.1.2.1-.1.1-.2"/><path fill="#6593AE" d="M13.1 12.7h.4l.5 1.6h-.4l-.1-.4H13v.3h-.4s.5-1.5.5-1.5zm.1.9h.3v-.1c0-.2-.1-.3-.1-.5 0 .2-.1.4-.1.5l-.1.1zm-.4 3.9h.5c.3 0 .6.1.6.4 0 .1-.1.3-.2.3.2 0 .3.2.3.4 0 .3-.3.5-.6.5h-.6v-1.6zm.6.7c.2 0 .2-.1.2-.2s-.1-.2-.2-.2h-.2v.4h.2zm0 .7c.2 0 .3-.1.3-.2s-.1-.2-.3-.2h-.2v.4h.2zm-.6 4.4c0-.5.3-.8.7-.8.2 0 .4.1.5.2l-.2.2c-.1-.1-.2-.1-.3-.1-.2 0-.4.2-.4.5s.1.5.4.5c.1 0 .2-.1.3-.1l.2.2c-.1.2-.3.2-.5.2-.4 0-.7-.3-.7-.8"/></svg>