<svg xmlns="http://www.w3.org/2000/svg" xmlns:xlink="http://www.w3.org/1999/xlink" viewBox="0 0 359.7 208.9" enable-background="new 0 0 359.7 208.9"><path fill="#F1F2F2" d="M101.5 16.6c0-.3 0-.5 0-.8 0-4.9-4-8.9-8.9-8.9-.7 0-1.3.1-1.9.2C88.3 3.1 84 .5 79 .5c-7.3 0-13.2 5.7-13.6 12.9-1-.3-2.1-.4-3.2-.4-6.5 0-11.8 5.3-11.8 11.8 0 6.5 5.3 11.8 11.8 11.8.6 0 1.3-.1 1.9-.2h32.7c5.8 0 10.5-4.7 10.5-10.5 0-4.1-2.4-7.6-5.8-9.3"/><path fill="#325163" d="M62.2 37.1c-6.8 0-12.3-5.5-12.3-12.3 0-6.8 5.5-12.3 12.3-12.3.9 0 1.8.1 2.7.3.7-7.3 6.8-12.8 14-12.8 4.9 0 9.3 2.5 11.9 6.6.6-.1 1.1-.2 1.7-.2 5.2 0 9.4 4.2 9.4 9.4 0 .2 0 .3 0 .5 3.6 1.9 5.8 5.6 5.8 9.7 0 6-4.9 11-11 11H64.1c-.6 0-1.3.1-1.9.1m0-23.7c-6.2 0-11.3 5.1-11.3 11.3S56 36.1 62.2 36.1c.6 0 1.1-.1 1.8-.2h32.8c5.5 0 10-4.5 10-10 0-3.8-2.1-7.2-5.5-8.9l-.3-.2v-.3c0-.2 0-.5 0-.7 0-5.2-4.8-9.4-10.2-8.2l-.4.1-.2-.3C87.8 3.4 83.6 1 78.9 1c-7 0-12.7 5.4-13.1 12.4v.6l-.6-.2c-1-.2-2-.4-3-.4"/><path fill="#F1F2F2" d="M286.5 186.9c0-.3 0-.5 0-.8 0-5.1 4.1-9.3 9.3-9.3.7 0 1.4.1 2 .2 2.5-4.1 7-6.9 12.2-6.9 7.6 0 13.7 5.9 14.2 13.4 1-.3 2.1-.5 3.3-.5 6.8 0 12.3 5.5 12.3 12.3 0 6.8-5.5 12.3-12.3 12.3-.7 0-1.3-.1-2-.2h-34.1c-6 0-10.9-4.9-10.9-10.9-.1-4.1 2.4-7.8 6-9.6"/><path fill="#325163" d="M327.3 208.2c-.6 0-1.3-.1-2-.2h-34c-6.3 0-11.4-5.1-11.4-11.4 0-4.2 2.3-8.1 6-10 0-.2 0-.3 0-.5 0-5.4 4.4-9.8 9.8-9.8.6 0 1.2.1 1.8.2 2.7-4.3 7.3-6.8 12.4-6.8 7.6 0 13.9 5.8 14.6 13.3.9-.2 1.9-.3 2.8-.3 7.1 0 12.8 5.7 12.8 12.8 0 7-5.7 12.7-12.8 12.7m-31.6-30.8c-4.8 0-8.8 3.9-8.8 8.8 0 .3 0 .5 0 .7v.3l-.3.2c-3.6 1.8-5.8 5.3-5.8 9.3 0 5.7 4.7 10.4 10.4 10.4h34.1c.8.1 1.4.2 2 .2 6.5 0 11.8-5.3 11.8-11.8s-5.3-11.8-11.8-11.8c-1 0-2.1.1-3.1.4l-.6.2v-.6c-.4-7.2-6.4-12.9-13.7-12.9-4.8 0-9.2 2.5-11.7 6.7l-.2.3-.4-.1c-.6-.3-1.3-.3-1.9-.3"/><path fill="#DFEAF1" d="M67 146H29.4c-2.4 0-4.3-1.9-4.3-4.3v-36c0-1.3-1-2.3-2.3-2.3H0v-2h22.7c2.4 0 4.3 1.9 4.3 4.3v36c0 1.3 1 2.3 2.3 2.3H67c1.3 0 2.3-1.1 2.3-2.3V91.9c0-2.4 1.9-4.3 4.3-4.3 1.3 0 2.3-1 2.3-2.3v-24c0-2.4 1.9-4.3 4.3-4.3h231.1c1.3 0 2.3-1 2.3-2.3V36.1c0-2.4 1.9-4.3 4.3-4.3h20.6c2.4 0 4.3 1.9 4.3 4.3v54.3c0 1.3 1 2.3 2.3 2.3h14.2v2h-14.2c-2.4 0-4.3-1.9-4.3-4.3V36.1c0-1.3-1-2.3-2.3-2.3h-20.6c-1.3 0-2.3 1-2.3 2.3v18.5c0 2.4-1.9 4.3-4.3 4.3H80.4c-1.3 0-2.3 1.1-2.3 2.3v24c0 2.4-1.9 4.3-4.3 4.3-1.3 0-2.3 1-2.3 2.3v49.8c-.1 2.5-2.1 4.4-4.5 4.4"/><path fill="#F1F2F2" d="M219.8 179.1H175c-1.6 11.7-2 24.4-11.7 29.3h68.3c-9.8-4.9-10.2-17.6-11.8-29.3"/><path fill="#325163" d="M233.7 208.9h-72.5l1.9-.9c8.4-4.2 9.7-14.7 10.9-24.8.2-1.4.3-2.8.5-4.1l.1-.4h45.7l.1.4c.2 1.4.4 2.8.5 4.1 1.3 10.1 2.6 20.6 10.9 24.8l1.9.9zm-68.6-1h64.6c-7.4-4.9-8.6-14.9-9.8-24.6-.2-1.2-.3-2.5-.5-3.7h-43.9c-.2 1.2-.3 2.5-.5 3.7-1.3 9.7-2.5 19.7-9.9 24.6"/><path fill="#F1F2F2" d="M298 179.6H96.5c-4.3 0-7.8-3.5-7.8-7.8V32.9c0-4.3 3.5-7.8 7.8-7.8H298c4.3 0 7.8 3.5 7.8 7.8v138.9c0 4.2-3.5 7.8-7.8 7.8"/><path fill="#325163" d="M298 180.1H96.5c-4.6 0-8.3-3.7-8.3-8.3V32.9c0-4.6 3.7-8.3 8.3-8.3H298c4.6 0 8.3 3.7 8.3 8.3v138.9c0 4.5-3.7 8.3-8.3 8.3M96.5 25.6c-4 0-7.3 3.3-7.3 7.3v138.9c0 4 3.3 7.3 7.3 7.3H298c4 0 7.3-3.3 7.3-7.3V32.9c0-4-3.3-7.3-7.3-7.3H96.5z"/><path fill="#fff" d="M291.9 155.5H102.6c-2.2 0-3.9-1.8-3.9-3.9V39c0-2.2 1.8-3.9 3.9-3.9H292c2.2 0 3.9 1.8 3.9 3.9v112.5c0 2.2-1.8 4-4 4"/><path fill="#325163" d="M291.9 156H102.6c-2.4 0-4.4-2-4.4-4.4V39c0-2.4 2-4.4 4.4-4.4H292c2.4 0 4.4 2 4.4 4.4v112.5c0 2.5-2 4.5-4.5 4.5M102.6 35.6c-1.9 0-3.4 1.5-3.4 3.4v112.5c0 1.9 1.5 3.4 3.4 3.4H292c1.9 0 3.4-1.5 3.4-3.4V39c0-1.9-1.5-3.4-3.4-3.4H102.6zm6.2 9.5h52.9v11.5h-52.9z"/><path fill="#F1F2F2" d="M171.4 45.1h115.4v11.5H171.4z"/><g opacity=".35"><defs><path id="a" d="M102.3 117.8H168v61.3h-65.7z"/></defs><clipPath id="b"><use xlink:href="#a" overflow="visible"/></clipPath><path fill="#BAC6CE" d="M102.3 117.8l65.7 61.3h-65.7z" clip-path="url(#b)"/></g><g opacity=".35"><defs><path id="c" d="M176.7 179.1h54.9v29.3h-54.9z"/></defs><clipPath id="d"><use xlink:href="#c" overflow="visible"/></clipPath><path fill="#BAC6CE" d="M231.5 208.4c-9.7-4.9-10.1-17.6-11.7-29.3h-43.1l31.4 29.3h23.4z" clip-path="url(#d)"/></g><path fill="#DFEAF1" d="M108.8 64.8h178v31h-178z"/><path fill="#6593AE" d="M108.8 104h52.9v24.5h-52.9zm62.6 0h52.9v24.5h-52.9zm62.5 0h52.9v24.5h-52.9z"/><path fill="#BCBEC0" d="M108.8 134.5h178v3.8h-178zm0 6.7h178v3.8h-178z"/><path fill="#BAC1C6" d="M98.5 208.4H54.8c-2.1 0-3.7-1.7-3.7-3.7v-86c0-2.1 1.7-3.7 3.7-3.7h43.7c2.1 0 3.7 1.7 3.7 3.7v86c.1 2-1.6 3.7-3.7 3.7"/><path fill="#325163" d="M98.5 208.9H54.8c-2.3 0-4.2-1.9-4.2-4.2v-86c0-2.3 1.9-4.2 4.2-4.2h43.7c2.3 0 4.2 1.9 4.2 4.2v86c.1 2.3-1.8 4.2-4.2 4.2m-43.7-93.5c-1.8 0-3.2 1.5-3.2 3.2v86c0 1.8 1.5 3.2 3.2 3.2h43.7c1.8 0 3.2-1.5 3.2-3.2v-86c0-1.8-1.5-3.2-3.2-3.2H54.8z"/><path fill="#fff" d="M55.9 128.5h41.5v66.4H55.9z"/><path fill="#325163" d="M97.9 195.4H55.4V128h42.5v67.4zm-41.5-1h40.5V129H56.4v65.4zm2.7-62.6h35.8v5.5H59.1z"/><path fill="#BCBEC0" d="M59.1 183.5h35.8v2.8H59.1zm0 5.5h35.8v2.8H59.1z"/><path fill="#DFEAF1" d="M59.1 140.1h35.8V151H59.1z"/><path fill="#6593AE" d="M59.1 153.8h35.8v27H59.1z"/><path fill="#DFEAF1" d="M331.9 123.7c-1.4 0-2.8-.5-3.8-1.5-1.1-1-1.6-2.4-1.6-3.9v-23c0-1.9-1.5-3.4-3.4-3.4h-10.8v-2h10.8c3 0 5.4 2.4 5.4 5.4v23.1c0 .9.4 1.8 1 2.4.7.6 1.6 1 2.5 1l21.6-.5v2l-21.6.5c0-.1 0-.1-.1-.1"/><path fill="#DFEAF1" d="M15.2 88.6H53v2H15.2zM0 73.6h21.8v2H0zm56.1-28.9H81v2H56.1zM176.8 8.1h54.7v2h-54.7zm135.5 128.3h21.8v2h-21.8zM290.5 1.6h21.8v2h-21.8zm-272.3 173H40v2H18.2zm305.1-18.3h32.8v2h-32.8z"/><path fill="#F1F2F2" d="M33.5 52.6c0-.1 0-.3 0-.4 0-2.6-2.1-4.8-4.8-4.8-.4 0-.7 0-1 .1-1.3-2.1-3.7-3.5-6.3-3.5-3.9 0-7.1 3.1-7.3 6.9-.5-.2-1.1-.2-1.7-.2C8.8 50.7 6 53.5 6 57s2.8 6.4 6.4 6.4c.3 0 .7 0 1-.1H31c3.1 0 5.6-2.5 5.6-5.6 0-2.2-1.3-4.1-3.1-5.1"/><path fill="#325163" d="M12.4 63.9c-3.8 0-6.9-3.1-6.9-6.9s3.1-6.9 6.9-6.9c.4 0 .8 0 1.3.1.5-3.9 3.8-6.8 7.8-6.8 2.7 0 5.1 1.3 6.5 3.5 3.2-.5 6.1 2 6.1 5.2 0 0 0 .1 0 .1 1.9 1.1 3.1 3.1 3.1 5.3 0 3.4-2.7 6.1-6.1 6.1H13.4c-.3.2-.7.3-1 .3m0-12.7c-3.2 0-5.9 2.6-5.9 5.9S9.1 63 12.4 63c.3 0 .6 0 .9-.1H31c2.8 0 5.1-2.3 5.1-5.1 0-2-1.1-3.7-2.9-4.6l-.3-.2v-.3c0-.1 0-.2 0-.4 0-2.7-2.5-4.8-5.2-4.2l-.4.1-.2-.3c-1.3-2.1-3.4-3.3-5.9-3.3-3.6 0-6.6 2.8-6.8 6.4v.6l-.6-.2c-.4-.2-.9-.2-1.4-.2"/></svg>