<svg xmlns="http://www.w3.org/2000/svg" width="24" height="13.9" xmlns:xlink="http://www.w3.org/1999/xlink" viewBox="0 11 24 13.9" enable-background="new 0 11 24 13.9"><path fill="#F1F2F2" d="M6.8 12.1c0-.4-.3-.6-.6-.6 0 0-.1 0-.1 0-.2-.3-.4-.4-.8-.4-.5 0-.9.4-.9.9-.1 0-.1 0-.2 0-.4 0-.8.4-.8.8s.4.8.8.8c0 0 .1 0 .1 0h2.2c.4 0 .7-.3.7-.7 0-.4-.2-.6-.4-.8"/><path fill="#325163" d="M4.2 13.5c-.5 0-.8-.4-.8-.8 0-.5.4-.8.8-.8.1 0 .1 0 .2 0 0-.5.5-.9.9-.9.3 0 .6.2.8.4 0 0 .1 0 .1 0 .3 0 .6.3.6.6.2.1.4.4.4.6 0 .4-.3.7-.7.7H4.3c-.1.2-.1.2-.1.2m0-1.6c-.4 0-.8.3-.8.8s.3.8.8.8c0 0 .1 0 .1 0h2.2c.4 0 .7-.3.7-.7 0-.3-.1-.5-.4-.6 0-.3-.3-.6-.7-.5-.2-.3-.4-.4-.8-.4-.5 0-.8.4-.9.8-.1-.2-.2-.2-.2-.2"/><path fill="#F1F2F2" d="M19.1 23.5c0-.4.3-.7.6-.7 0 0 .1 0 .1 0 .2-.3.5-.5.8-.5.5 0 .9.4.9.9.1 0 .1 0 .2 0 .5 0 .8.4.8.8 0 .5-.4.8-.8.8 0 0-.1 0-.1 0h-2.3c-.4 0-.7-.3-.7-.7.1-.2.3-.5.5-.6"/><path fill="#325163" d="M21.8 24.9s-.1 0-.1 0h-2.3c-.4 0-.8-.3-.8-.8 0-.3.2-.5.4-.7 0-.4.3-.7.7-.7 0 0 .1 0 .1 0 .2-.3.5-.5.8-.5.5 0 .9.4 1 .9.1 0 .1 0 .2 0 .5 0 .9.4.9.9s-.4.9-.9.9m-2.1-2c-.3 0-.6.3-.6.6-.2.1-.4.4-.4.6 0 .4.3.7.7.7h2.3c.1 0 .1 0 .1 0 .4 0 .8-.4.8-.8s-.4-.8-.8-.8c-.1 0-.1 0-.2 0 0-.5-.4-.9-.9-.9-.3 0-.6.2-.8.4-.1.2-.1.2-.2.2"/><path fill="#fff" d="M4.5 20.8H2c-.2 0-.3-.1-.3-.3v-2.4c0-.1-.1-.2-.2-.2H0v-.1h1.5c.2 0 .3.1.3.3v2.4c0 .1.1.2.2.2h2.5c.1 0 .2-.1.2-.2v-3.3c0-.2.1-.3.3-.3.1 0 .2-.1.2-.2v-1.6c0-.2.1-.3.3-.3h15.4c.1 0 .2-.1.2-.2v-1.2c0-.2.1-.3.3-.3h1.4c.2 0 .3.1.3.3V17c0 .1.1.2.2.2h.7v.1h-1c-.2 0-.3-.1-.3-.3v-3.6c0-.1-.1-.2-.2-.2h-1.4c-.1 0-.2.1-.2.2v1.2c0 .2-.1.3-.3.3H5.4c-.1 0-.2.1-.2.2v1.6c0 .2-.1.3-.3.3-.1 0-.2.1-.2.2v3.3c.1.1-.1.3-.2.3"/><path fill="#F1F2F2" d="M14.7 23h-3c-.1.8-.1 1.6-.8 2h4.6c-.7-.4-.7-1.2-.8-2"/><path fill="#325163" d="M15.6 25h-4.8l.1-.1c.6-.3.6-1 .7-1.7 0-.1 0-.2 0-.3h3c0 .1 0 .2 0 .3.1.7.2 1.4.7 1.7.2 0 .3.1.3.1zm-4.6-.1h4.3c-.5-.3-.6-1-.7-1.6 0-.1 0-.2 0-.2h-2.9c0 .1 0 .2 0 .2-.1.6-.2 1.3-.7 1.6"/><path fill="#F1F2F2" d="M19.9 23H6.4c-.3 0-.5-.2-.5-.5v-9.3c0-.3.2-.5.5-.5h13.4c.3 0 .5.2.5.5v9.3c.1.3-.1.5-.4.5"/><path fill="#325163" d="M19.9 23H6.4c-.3 0-.6-.2-.6-.6v-9.3c0-.3.2-.6.6-.6h13.4c.3 0 .6.2.6.6v9.3c0 .4-.2.6-.5.6M6.4 12.7c-.2 0-.4.3-.4.5v9.3c0 .3.2.5.4.5h13.4c.3 0 .5-.2.5-.5v-9.3c0-.3-.2-.5-.5-.5.1 0-13.4 0-13.4 0z"/><path fill="#fff" d="M19.5 21.4H6.8c-.1 0-.3-.1-.3-.3v-7.5c0-.1.1-.3.3-.3h12.6c.1 0 .3.1.3.3v7.5c0 .2-.1.3-.2.3"/><path fill="#325163" d="M19.5 21.4H6.8c-.2 0-.3-.1-.3-.3v-7.5c0-.2.1-.3.3-.3h12.6c.2 0 .3.1.3.3v7.5c.1.2-.1.3-.2.3m-12.7-8c-.1 0-.2.1-.2.2v7.5c0 .1.1.2.2.2h12.6c.1 0 .2-.1.2-.2v-7.5c0-.1-.1-.2-.2-.2H6.8zm.5.6h3.5v.8H7.3V14z"/><path fill="#F1F2F2" d="M11.4 14h7.7v.8h-7.7V14z"/><g opacity=".35"><defs><path id="a" d="M6.8 18.9h4.4V23H6.8z"/></defs><clipPath id="b"><use xlink:href="#a" overflow="visible"/></clipPath><path fill="#BAC6CE" d="M6.8 18.9l4.4 4.1H6.8v-4.1z" clip-path="url(#b)"/></g><g opacity=".35"><defs><path id="c" d="M11.8 23h3.7v2h-3.7z"/></defs><clipPath id="d"><use xlink:href="#c" overflow="visible"/></clipPath><path fill="#BAC6CE" d="M15.4 24.9c-.6-.3-.7-1.2-.8-2h-2.9l2.1 2h1.6z" clip-path="url(#d)"/></g><path fill="#DFEAF1" d="M7.3 15.4h11.9v2.1H7.3v-2.1z"/><path fill="#6593AE" d="M7.3 18h3.5v1.6H7.3V18zm4.1 0H15v1.6h-3.5V18zm4.2 0h3.5v1.6h-3.5V18z"/><path fill="#BCBEC0" d="M7.3 20h11.9v.3H7.3V20zm0 .5h11.9v.3H7.3v-.3z"/><path fill="#BAC1C6" d="M6.6 24.9H3.7c-.1 0-.2-.1-.2-.2V19c0-.1.1-.2.2-.2h2.9c.1 0 .2.1.2.2v5.7c0 .1-.1.2-.2.2"/><path fill="#325163" d="M6.6 25H3.7c-.2 0-.3-.1-.3-.3V19c0-.2.1-.3.3-.3h2.9c.2 0 .3.1.3.3v5.7c0 .1-.2.3-.3.3m-2.9-6.3c-.1 0-.2.1-.2.2v5.7c0 .1.1.2.2.2h2.9c.1 0 .2-.1.2-.2v-5.7c0-.1-.1-.2-.2-.2H3.7z"/><path fill="#fff" d="M3.7 19.6h2.8V24H3.7v-4.4z"/><path fill="#325163" d="M6.5 24.1H3.7v-4.5h2.8v4.5zM3.8 24h2.7v-4.4H3.8V24zm.1-4.2h2.4v.4H3.9v-.4z"/><path fill="#BCBEC0" d="M3.9 23.3h2.4v.2H3.9v-.2zm0 .3h2.4v.2H3.9v-.2z"/><path fill="#DFEAF1" d="M3.9 20.4h2.4v.7H3.9v-.7z"/><path fill="#6593AE" d="M3.9 21.3h2.4v1.8H3.9v-1.8z"/><path fill="#fff" d="M22.1 19.3c-.1 0-.2 0-.3-.1-.1-.1-.1-.2-.1-.3v-1.5c0-.1-.1-.2-.2-.2h-.7V17h.7c.2 0 .4.2.4.4v1.5c0 .1 0 .1.1.2 0 0 .1.1.2.1h1.4v.1h-1.5c.1 0 .1 0 0 0"/><path fill="#fff" d="M1 16.9h2.5v.1H1v-.1zm-1-1h1.5v.1H0v-.1zM3.7 14h1.7v.1H3.7V14zm8.1-2.4h3.6v.1h-3.6v-.1zm9 8.5h1.5v.1h-1.5v-.1zm-1.4-9h1.5v.1h-1.5v-.1zM1.2 22.7h1.5v.1H1.2v-.1zm20.4-1.2h2.2v.1h-2.2v-.1z"/><path fill="#F1F2F2" d="M2.2 14.5c0-.2-.1-.3-.3-.3 0 0 0 0-.1 0 0-.1-.2-.2-.4-.2-.3 0-.5.2-.5.5 0 0-.1 0-.1 0-.2 0-.4.2-.4.4s.2.4.4.4c0 0 0 0 .1 0h1.2c.2 0 .4-.2.4-.4-.1-.2-.1-.3-.3-.4"/><path fill="#325163" d="M.8 15.3c-.3 0-.5-.2-.5-.5s.2-.5.5-.5c0 0 .1 0 .1 0 0-.3.3-.5.5-.5s.3.1.4.2c.2 0 .4.1.4.3.1.1.2.2.2.4s-.2.4-.4.4l-1.2.2c.1 0 0 0 0 0m0-.9c-.2 0-.4.2-.4.4s.2.4.4.4c0 0 0 0 .1 0h1.2c.2 0 .3-.2.3-.3 0-.1-.1-.2-.2-.3 0-.2-.2-.3-.3-.3-.2-.2-.3-.3-.5-.3s-.4.2-.4.4H.8c.1 0 .1 0 0 0"/></svg>