<svg xmlns="http://www.w3.org/2000/svg" viewBox="0 0 358.7 207.9" enable-background="new 0 0 358.7 207.9"><path fill="#DFEAF1" d="M67.2 193.5H89v2H67.2zm169 14.4h-10.8c-3 0-5.4-2.4-5.4-5.4v-23.1c0-.9-.4-1.8-1-2.4-.7-.6-1.5-1-2.5-1l-21.6.5v-2l21.6-.5c1.5 0 2.9.5 3.9 1.5 1.1 1 1.6 2.4 1.6 3.9v23.1c0 1.9 1.5 3.4 3.4 3.4h10.8v2zm-9.1-180.8h-24.4v-2h24.4c2.7 0 4.9-2.2 4.9-4.9V6.9c0-3.8 3.1-6.9 6.9-6.9h38.3c3.8 0 6.9 3.1 6.9 6.9v2.5c0 2.7 2.2 4.9 4.9 4.9h16v2h-16c-3.8 0-6.9-3.1-6.9-6.9V6.9c0-2.7-2.2-4.9-4.9-4.9h-38.3c-2.7 0-4.9 2.2-4.9 4.9v13.3c0 3.8-3.1 6.9-6.9 6.9M140.4 59h-11.7c-3.8 0-6.9-3.1-6.9-6.9V35.2c0-2.7-2.2-4.9-4.9-4.9h-14.1c-3.8 0-6.9-3.1-6.9-6.9V10.1c0-2.7-2.2-4.9-4.9-4.9H49.8v-2h41.3c3.8 0 6.9 3.1 6.9 6.9v13.3c0 2.7 2.2 4.9 4.9 4.9H117c3.8 0 6.9 3.1 6.9 6.9v16.9c0 2.7 2.2 4.9 4.9 4.9h11.7v2zm134.8 50h-21.4v-2h21.4c2.8 0 5.1-2.4 5.1-5.4V87.9c0-4.1 3.2-7.4 7.1-7.4h9.3c3.9 0 7.1 3.3 7.1 7.4 0 3 2.3 5.4 5.1 5.4l30.8-.4v2l-30.8.4c-3.9 0-7.1-3.3-7.1-7.4 0-3-2.3-5.4-5.1-5.4h-9.3c-2.8 0-5.1 2.4-5.1 5.4v13.7c0 4.1-3.2 7.4-7.1 7.4M52.6 151.3H24.9v-2h27.7c2.8 0 5.1-2.4 5.1-5.4v-29.5c0-4.1 3.2-7.4 7.1-7.4h39.8v2H64.7c-2.8 0-5.1 2.4-5.1 5.4v29.5c0 4.1-3.1 7.4-7 7.4"/><path fill="#DFEAF1" d="M0 131h32v2H0zm280.5-11.3h22.2v2h-22.2zm46.2 21.7h32v2h-32zm-36 11.2h20.2v2h-20.2zM15.2 167h19.3v2H15.2zm22.2-75.3h16v2h-16zm4.5-29.2h54.7v2H41.9zm245.6 106.9h54.7v2h-54.7zM4.4 43.5h41v2h-41zM155.2 9.9h41v2h-41zM85.7 133.2h21.8v2H85.7zm81-83.3h56v2h-56zM312 39h45.8v2H312zm14.7 33.3h32v2h-32z"/><path fill="#F1F2F2" d="M296.6 148.5c2.2-1.5 4.8-2.5 7.5-3.1l1.2-5.3h5.6l1.2 5.3c2.7.5 5.3 1.6 7.5 3.1l4.6-2.9 4 4-2.9 4.6c1.5 2.2 2.6 4.8 3.1 7.5l5.3 1.2v5.6l-5.3 1.2c-.5 2.7-1.6 5.2-3.1 7.5l2.9 4.6-4 4-4.6-2.9c-2.2 1.5-4.8 2.6-7.5 3.1l-1.2 5.3h-5.6l-1.2-5.3c-2.7-.5-5.3-1.6-7.5-3.1l-4.6 2.9-4-4 2.9-4.6c-1.5-2.2-2.5-4.8-3.1-7.5l-5.3-1.2v-5.6l5.3-1.2c.5-2.7 1.6-5.2 3.1-7.5l-2.9-4.6 4-4 4.6 2.9zm19.2 17.2c0-4.2-3.4-7.7-7.7-7.7s-7.7 3.4-7.7 7.7 3.4 7.7 7.7 7.7 7.7-3.4 7.7-7.7"/><path fill="#325163" d="M296.6 149v-.5h-.5.5v-.5.5h.5zm14.7 42.9h-6.4l-1.2-5.4c-2.5-.5-4.9-1.5-7.1-2.9l-4.7 2.9-4.5-4.5 2.9-4.7c-1.4-2.1-2.4-4.5-2.9-7.1L282 169v-6.4l5.4-1.2c.5-2.5 1.5-4.9 2.9-7l-2.9-4.7 4.5-4.6 4.7 2.9c2.2-1.4 4.6-2.4 7-2.9l1.3-5.4h6.4l1.3 5.4c2.5.5 4.9 1.5 7 2.9l4.7-2.9 4.5 4.5-2.9 4.7c1.4 2.2 2.4 4.5 2.9 7.1l5.4 1.2v6.4l-5.4 1.2c-.5 2.5-1.5 4.9-2.9 7.1l2.9 4.7-4.6 4.5-4.7-2.9c-2.2 1.4-4.5 2.4-7.1 2.9l-1.1 5.4zm-5.6-1h4.8l1.2-5.2.3-.1c2.6-.5 5.1-1.5 7.3-3l.3-.2 4.6 2.9 3.4-3.4-2.9-4.6.2-.3c1.5-2.2 2.5-4.7 3-7.3l.1-.3 5.2-1.2v-4.8l-5.2-1.2-.1-.3c-.5-2.6-1.6-5.1-3-7.3l-.2-.3 2.9-4.6-3.4-3.4-4.6 2.9-.3-.2c-2.2-1.5-4.7-2.5-7.3-3v-.5l-.4.1-1.1-5h-4.8l-1.1 5-.4-.1.1.5c-2.6.5-5.1 1.5-7.3 3l-.3.2-4.6-2.9-3.4 3.4 2.9 4.6-.2.3c-1.5 2.2-2.5 4.7-3 7.3l-.1.3-5.3 1.2v4.8l5.3 1.2.1.3c.5 2.6 1.5 5.1 3 7.3l.2.3-2.9 4.6 3.4 3.4 4.6-2.9.3.2c2.2 1.5 4.7 2.5 7.3 3l.3.1 1.1 5.2zm2.4-17c-4.5 0-8.2-3.7-8.2-8.2 0-4.5 3.7-8.2 8.2-8.2 4.5 0 8.2 3.7 8.2 8.2 0 4.5-3.7 8.2-8.2 8.2m0-15.4c-4 0-7.2 3.2-7.2 7.2s3.2 7.2 7.2 7.2 7.2-3.2 7.2-7.2c0-3.9-3.3-7.2-7.2-7.2m-14.2 7.2h-1c0-4.1 1.6-7.9 4.5-10.7 2.9-2.9 6.7-4.5 10.7-4.5v1c-3.8 0-7.4 1.5-10 4.2-2.7 2.7-4.2 6.2-4.2 10"/><path fill="#F1F2F2" d="M99 61.1c-.2.9-.5 1.8-1.1 2.6l1 1.6-1.4 1.4-1.6-1c-.8.5-1.7.9-2.6 1.1l-.3 1.7h-2l-.4-1.8c-.9-.2-1.8-.5-2.6-1.1l-1.6 1-1.4-1.4 1-1.6c-.5-.8-.9-1.7-1.1-2.6l-1.8-.4v-1.9l1.8-.4c.2-.9.5-1.8 1.1-2.6l-1-1.6 1.4-1.4 1.6 1c.8-.5 1.7-.9 2.6-1.1l.4-1.8h2l.4 1.8c.9.2 1.8.5 2.6 1.1l1.6-1 1.4 1.4-1 1.6c.5.8.9 1.7 1.1 2.6l1.8.4v1.9l-1.9.5zm-8.9.5c1 1 2.7 1 3.7 0s1-2.7 0-3.7-2.7-1-3.7 0-1 2.6 0 3.7"/><path fill="#325163" d="M98.6 61.4v-.7l.4.4.3-.4-.3.4.3.3-.3-.3zM93.4 69h-2.7l-.4-1.9c-.8-.2-1.5-.5-2.2-.9l-1.7 1-1.9-1.9 1-1.7c-.4-.7-.7-1.4-.9-2.2l-1.9-.4v-2.7l1.9-.4c.2-.8.5-1.5.9-2.2l-1-1.7 1.9-1.9 1.7 1c.7-.4 1.4-.7 2.2-.9l.4-1.9h2.7l.4 1.9c.8.2 1.5.5 2.1.9l1.7-1 1.9 1.9-1 1.7c.4.7.7 1.4.9 2.1l1.9.4v2.7l-1.9.4c-.2.8-.5 1.5-.9 2.2l1 1.7-1.9 1.9-1.7-1c-.7.4-1.4.7-2.2.9l-.3 2zm-2-1h1.1l.4-1.8.3-.1c.9-.2 1.7-.5 2.4-1l.3-.2 1.5 1 .8-.8-1-1.5.2-.3c.5-.7.8-1.5 1-2.4l.1-.3 1.8-.4v-1.1l-1.8-.4-.1-.3c-.2-.9-.5-1.7-1-2.4l-.2-.3 1-1.5-.8-.8-1.5 1-.3-.2c-.7-.5-1.5-.8-2.4-1l-.2-.1-.4-1.8h-1.1l-.5 1.8-.3.1c-.9.2-1.7.5-2.4 1l-.3.2-1.5-1-.8.8.9 1.5-.1.3c-.5.7-.8 1.5-1 2.4l-.1.3-1.8.4v1.1l1.8.4.1.3c.2.9.5 1.7 1 2.4l.2.3-1 1.5.8.8 1.5-1 .3.2c.7.5 1.5.8 2.4 1l.3.1.4 1.8zm.6-5.2c-.8 0-1.6-.3-2.2-.9-.6-.6-.9-1.4-.9-2.2 0-.8.3-1.6.9-2.2.6-.6 1.4-.9 2.2-.9.8 0 1.6.3 2.2.9.6.6.9 1.4.9 2.2 0 .8-.3 1.6-.9 2.2-.6.6-1.4.9-2.2.9zm0-5.2c-.6 0-1.1.2-1.5.6-.4.4-.6.9-.6 1.5s.2 1.1.6 1.5c.4.4.9.6 1.5.6s1.1-.2 1.5-.6c.4-.4.6-.9.6-1.5s-.2-1.1-.6-1.5c-.4-.4-.9-.6-1.5-.6z"/><path fill="#F1F2F2" d="M74.1 40.6c-.4 2.2-1.3 4.3-2.6 6.2l2.4 3.9-3.3 3.3-3.9-2.4c-1.9 1.3-4 2.2-6.2 2.6l-1 4.4h-4.7l-1-4.4c-2.2-.4-4.3-1.3-6.2-2.6L43.7 54l-3.3-3.3 2.4-3.9c-1.3-1.9-2.1-4-2.6-6.2l-4.4-1v-4.7l4.4-1c.4-2.2 1.3-4.3 2.6-6.2l-2.4-3.9 3.3-3.3 3.9 2.4c1.9-1.3 4.1-2.1 6.2-2.6l1-4.4h4.7l1 4.4c2.2.4 4.3 1.3 6.2 2.6l3.9-2.4 3.3 3.3-2.4 3.9c1.3 1.9 2.1 4 2.6 6.2l4.5 1v4.7l-4.5 1zm-21.5 1.2c2.5 2.5 6.6 2.5 9.1 0s2.5-6.5 0-9.1c-2.5-2.5-6.6-2.5-9.1 0s-2.5 6.6 0 9.1"/><path fill="#325163" d="M73.7 41v-.7l.4.3-.4.4zm.4-.4l.3-.3-.3.3zM59.9 59.1h-5.5l-1-4.5c-2.1-.4-4-1.3-5.8-2.4l-3.9 2.4-3.9-3.9 2.4-3.9c-1.1-1.8-2-3.7-2.4-5.8l-4.5-1v-5.5l4.5-1c.4-2.1 1.3-4 2.4-5.8l-2.4-3.9 3.9-3.9 3.9 2.4c1.8-1.2 3.8-2 5.8-2.4l1.1-4.5H60l1 4.5c2.1.4 4 1.3 5.8 2.4l3.9-2.5 3.9 3.9-2.5 3.9c1.1 1.8 1.9 3.7 2.4 5.8l4.5 1v5.5l-4.5 1c-.5 2.1-1.3 4-2.4 5.8l2.5 3.9-3.9 3.9-3.9-2.5C65 53.2 63 54 61 54.4l-1.1 4.7zm-4.7-1h3.9l1-4.4.3-.1c2.2-.4 4.2-1.3 6-2.5l.3-.2 3.8 2.4 2.8-2.8-2.4-3.8.2-.3c1.2-1.8 2.1-3.9 2.5-6l.1-.3 4.4-1v-3.9l-4.4-1-.1-.2c-.4-2.2-1.3-4.2-2.5-6l-.2-.3 2.4-3.8-2.8-2.8-3.8 2.4-.3-.2c-1.9-1.2-3.9-2.1-6-2.5l-.3-.1-1-4.4h-3.9l-1 4.4-.3.1c-2.2.4-4.2 1.3-6.1 2.5l-.3.2-3.8-2.4-2.7 2.8 2.4 3.8-.2.3c-1.2 1.8-2.1 3.9-2.5 6l-.1.3-4.4 1v3.9l4.4 1 .1.3c.4 2.2 1.3 4.2 2.5 6.1l.2.3-2.4 3.8 2.8 2.8 3.8-2.4.3.2c1.9 1.2 3.9 2.1 6.1 2.5l.3.1.9 4.2zm1.9-13.9c-1.8 0-3.5-.7-4.9-2-1.3-1.3-2-3-2-4.9 0-1.8.7-3.6 2-4.9 2.7-2.7 7.1-2.7 9.8 0 2.7 2.7 2.7 7.1 0 9.8-1.3 1.3-3.1 2-4.9 2m0-12.8c-1.5 0-3 .6-4.2 1.7-1.1 1.1-1.7 2.6-1.7 4.2s.6 3.1 1.7 4.2c2.3 2.3 6 2.3 8.4 0 2.3-2.3 2.3-6 0-8.3-1.2-1.3-2.7-1.8-4.2-1.8"/><path fill="#DFEAF1" d="M126.1 199.9h38.1v2h-38.1z"/><path fill="#6593AE" d="M100.9 169.2h156.7v7H100.9z"/><path fill="#C3D1D8" d="M100.9 164.5h13.2V121l-13.2 13.2z"/><path fill="#325163" d="M114.6 165h-14.2v-31l14.2-14.2V165zm-13.2-1h12.2v-41.8l-12.2 12.2V164z"/><path fill="#C3D1D8" d="M118.8 164.5h13.3V103l-13.3 13.3z"/><path fill="#325163" d="M132.6 165h-14.2v-48.9l14.2-14.2V165zm-13.3-1h12.2v-59.8l-12.2 12.2V164z"/><path fill="#C3D1D8" d="M136.8 98.3v66.2H150v-71l-4.2-4.2z"/><path fill="#325163" d="M150.5 165h-14.2V98.1l9.5-9.5 4.7 4.7V165zm-13.2-1h12.2V93.7l-3.7-3.7-8.5 8.5V164z"/><path fill="#C3D1D8" d="M154.7 164.5H168v-53l-13.3-13.3z"/><path fill="#325163" d="M168.5 165h-14.2V97l14.2 14.2V165zm-13.3-1h12.2v-52.3l-12.2-12.2V164z"/><path fill="#C3D1D8" d="M172.7 116.2v48.3h13.2v-48.2l-6.6 6.5z"/><path fill="#325163" d="M186.4 165h-14.2v-50l7.2 7.2 7.1-7.1V165zm-13.2-1h12.2v-46.5l-6.1 6.1-6.2-6.2V164z"/><path fill="#C3D1D8" d="M190.6 164.5h13.2V98.3l-13.2 13.3z"/><path fill="#325163" d="M204.3 165h-14.2v-53.6l14.2-14.2V165zm-13.2-1h12.2V99.5l-12.2 12.2V164z"/><path fill="#C3D1D8" d="M208.5 164.5h13.3V80.4l-13.3 13.2z"/><path fill="#325163" d="M222.3 165H208V93.4l14.2-14.2V165zm-13.3-1h12.2V81.6L209 93.8V164z"/><path fill="#C3D1D8" d="M226.5 164.5h13.2V62.4l-13.2 13.3z"/><path fill="#325163" d="M240.2 165H226V75.5l14.2-14.2V165zm-13.2-1h12.2V63.7L227 75.9V164z"/><path fill="#C3D1D8" d="M251.1 51.1l-6.7 6.6v106.8h13.3V57.7z"/><path fill="#325163" d="M258.2 165H244V57.5l7.1-7.1 7.1 7.1V165zm-13.3-1h12.2V57.9l-6.1-6.1-6.1 6.1V164z"/><path fill="#6593AE" d="M257.6 51l-.1-18.1-18.1-.1 6.6 6.5-66.7 66.7-33.5-33.6-44.9 44.9v10.2l44.9-44.9 33.5 33.5L251 44.4z"/></svg>