<svg xmlns="http://www.w3.org/2000/svg" width="24" height="13.9" viewBox="0 11 24 13.9" enable-background="new 0 11 24 13.9"><path fill="#fff" d="M4.5 24H6v.1H4.5V24zm11.3 1h-.7c-.2 0-.4-.2-.4-.4V23c0-.1 0-.1-.1-.2 0 0-.1-.1-.2-.1H13v-.1h1.4c.1 0 .2 0 .3.1.1.1.1.2.1.3v1.5c0 .1.1.2.2.2h.7v.3zm-.6-12.1h-1.6v-.1h1.6c.2 0 .3-.1.3-.3v-.9c0-.3.2-.5.5-.5h2.6c.3 0 .5.2.5.5v.2c0 .2.1.3.3.3h1.1v.1h-1.1c-.3 0-.5-.2-.5-.5v-.2c0-.2-.1-.3-.3-.3H16c-.2 0-.3.1-.3.3v.9c0 .3-.3.5-.5.5M9.4 15h-.8c-.3 0-.5-.2-.5-.5v-1.1c0-.2-.1-.3-.3-.3h-.9c-.3 0-.5-.2-.5-.5v-.9c0-.2-.1-.3-.3-.3H3.3v-.1h2.8c.3 0 .5.2.5.5v.9c0 .2.1.3.3.3h.9c.3 0 .5.2.5.5v1.1c0 .2.1.3.3.3h.8v.1zm9 3.3H17v-.1h1.4c.2 0 .3-.2.3-.4v-.9c0-.3.2-.5.5-.5h.6c.3 0 .5.2.5.5 0 .2.2.4.3.4h2.1v.1h-2.1c-.3 0-.5-.2-.5-.5 0-.2-.2-.4-.3-.4h-.6c-.2 0-.3.2-.3.4v.9c0 .3-.2.5-.5.5M3.5 21.2H1.7V21h1.9c.2 0 .3-.2.3-.4v-2c0-.3.2-.5.5-.5H7v.1H4.3c-.2 0-.3.2-.3.4v2c0 .3-.2.6-.5.6"/><path fill="#fff" d="M0 19.8h2.1v.1H0v-.1zm18.8-.7h1.5v.1h-1.5v-.1zm3.1 1.4H24v.1h-2.1v-.1zm-2.4.8h1.4v.1h-1.4v-.1zM1 22.2h1.3v.1H1v-.1zm1.5-5h1.1v.1H2.5v-.1zm.3-2h3.7v.1H2.8v-.1zm16.4 7.2h3.7v.1h-3.7v-.1zM.3 14H3v.1H.3V14zm10.1-2.3h2.7v.1h-2.7v-.1zM5.7 20h1.5v.1H5.7V20zm5.5-5.6h3.7v.1h-3.7v-.1zm9.7-.7H24v.1h-3.1v-.1zm1 2.2H24v.1h-2.1v-.1z"/><path fill="#F1F2F2" d="M19.8 21c.1-.1.3-.2.5-.2l.1-.4h.4l.1.4c.2 0 .4.1.5.2l.3-.2.3.3-.2.3c.1.1.2.3.2.5l.4.1v.4H22c0 .2-.1.3-.2.5l.2.3-.3.3-.3-.2c-.1.1-.3.2-.5.2l-.1.4h-.4l-.1-.4c-.2 0-.4-.1-.5-.2l-.3.2-.3-.3.2-.3c-.1-.1-.2-.3-.2-.5l-.4-.1v-.4l.4-.1c0-.2.1-.3.2-.5l-.2-.3.3-.3.3.3zm1.3 1.1c0-.3-.2-.5-.5-.5s-.5.2-.5.5.2.5.5.5.5-.2.5-.5"/><path fill="#325163" d="M19.8 21zm1 2.9h-.4l-.1-.4c-.2 0-.3-.1-.5-.2l-.3.2-.3-.3.2-.3c-.1-.1-.2-.3-.2-.5l-.4-.1v-.4l.4-.1c0-.2.1-.3.2-.5l-.2-.3.3-.3.3.2c.1-.1.3-.2.5-.2l.1-.4h.4l.1.4c.2 0 .3.1.5.2l.3-.2.3.3-.2.3c.1.1.2.3.2.5l.4.1v.4l-.4.1c0 .2-.1.3-.2.5l.2.3-.3.3-.3-.2c-.1.1-.3.2-.5.2 0 0-.1.4-.1.4zm-.3-.1h.3l.1-.3c.2 0 .3-.1.5-.2l.3.2.2-.2-.2-.3c.1-.1.2-.3.2-.5l.3-.1V22l-.3-.1c0-.2-.1-.3-.2-.5l.2-.3-.2-.2-.3.1c-.1-.1-.3-.2-.5-.2l-.1-.3h-.3l-.1.3c-.2 0-.3.1-.5.2l-.3-.2-.2.2.2.3c-.1.1-.2.3-.2.5l-.5.2v.3l.4.1c0 .2.1.3.2.5l-.2.3.2.2.3-.2c.1.1.3.2.5.2l.2.4zm.1-1.1c-.3 0-.5-.2-.5-.5s.2-.5.5-.5.5.2.5.5-.2.5-.5.5m0-1.1c-.3 0-.5.2-.5.5s.2.5.5.5.5-.2.5-.5c0-.2-.2-.5-.5-.5m-.9.5c-.1-.3 0-.5.2-.7.2-.2.4-.3.7-.3v.1c-.3 0-.5.1-.7.3-.1.1-.2.4-.2.6"/><path fill="#F1F2F2" d="M6.6 15.1c0 .1 0 .1-.1.2l.1.1-.1.1-.1-.1c-.1 0-.1.1-.2.1v.1h-.1v-.1c-.1 0-.1 0-.2-.1l-.1.1-.1-.1.1-.1c0-.1-.1-.1-.1-.2h-.1V15h.1c0-.1 0-.1.1-.2l-.1-.1.1-.1.1.1c.1 0 .1-.1.2-.1v-.1h.1v.1c.1 0 .1 0 .2.1l.1-.1.1.1-.1.1c0 .1.1.1.1.2h.1v.1c.1 0-.1 0-.1 0zm-.6.1c.1.1.2.1.2 0 .1-.1.1-.2 0-.2s-.2-.1-.2 0 0 .1 0 .2"/><path fill="#325163" d="M6.6 15.2zm-.4.5h-.1v-.1c-.1 0-.1 0-.1-.1l-.1.1-.1-.1.1-.1s0-.1-.1-.1h-.1v-.2h.1c0-.1 0-.1.1-.1l-.1-.1.1-.1.1.1s.1 0 .1-.1v-.1h.2v.1c.1 0 .1 0 .1.1l.1-.1.1.1-.1.1s0 .1.1.1h.1v.2h-.1c0 .1 0 .1-.1.1l.1.1-.1.1-.1-.1s-.1 0-.1.1c0-.1-.1.1-.1.1zm-.1-.1l.1-.1c.1 0 .1 0 .2-.1l.1.1.1-.1-.1-.1s.1-.1.1-.2h.1V15h-.1c0-.1 0-.1-.1-.2l.1-.1-.1-.1-.1.1s-.1-.1-.2-.1v-.1h-.1v.1c-.1 0-.1 0-.2.1l-.1-.1-.1.1.1.1s-.1.1-.1.2h-.1v.1h.1c0 .1 0 .1.1.2l-.1.1.1.1.1-.1s.1.1.2.1c0 0 0 .1 0 .1zm.1-.4c-.1 0-.1 0-.1-.1 0 0-.1-.1-.1-.1s0-.1.1-.1c0 0 .1-.1.1-.1.1 0 .1 0 .1.1 0 0 .1.1.1.1s0 .1-.1.1c0 .1-.1.1-.1.1zm0-.3s-.1 0-.1 0C6 15 6 15 6 15s0 .1 0 .1.1 0 .1 0 .1 0 .1 0 0-.1 0-.1 0-.1 0-.1z"/><path fill="#F1F2F2" d="M5 13.8c0 .1-.1.3-.2.4l.2.3-.2.2-.3-.2c-.1.1-.3.1-.4.2L4 15h-.3l-.1-.3c-.1 0-.3-.1-.4-.2l-.3.2-.2-.2.2-.3c-.1-.1-.1-.3-.2-.4l-.3-.1v-.3l.3-.1c0-.1.1-.3.2-.4l-.2-.3.2-.2.3.2c.1-.1.3-.1.4-.2l.1-.3H4v.3c.1 0 .3.1.4.2l.3-.2.2.2-.2.3c.2.1.2.3.3.4l.3.1v.3s-.3.1-.3.1zm-1.5 0c.2.2.5.2.6 0s.2-.4 0-.6c-.2-.2-.4-.2-.6 0s-.1.5 0 .6"/><path fill="#325163" d="M4.9 13.8zm.1 0zM4 15h-.4l-.1-.3c-.1 0-.3-.1-.4-.2l-.3.2-.3-.3.2-.3c-.1-.1-.1-.2-.2-.4l-.3-.1v-.4l.3-.1c0-.1.1-.3.2-.4l-.2-.3.3-.3.3.2c.1-.1.3-.1.4-.2l.1-.3H4l.1.3c.1 0 .3.1.4.2l.3-.2.2.5-.2.3c.1.1.2.2.2.4l.3.1v.4H5c0 .1-.1.3-.2.4l.2.2-.3.3-.3-.2c-.1.1-.3.1-.4.2.1 0 0 .3 0 .3zm-.3-.1H4v-.3c.1 0 .3-.1.4-.2l.3.2.2-.2-.2-.3c.1-.1.1-.3.2-.4l.3-.1v-.3l-.3-.1c0-.1-.1-.3-.2-.4l.2-.3-.2-.2-.3.2c-.1-.1-.3-.1-.4-.2v-.2h-.3l-.1.3c-.1 0-.3.1-.4.2l-.3-.2-.2.2.2.3c-.1.1-.1.3-.2.4l-.3.1v.3l.3.1c0 .1.1.3.2.4l-.2.3.2.2.3-.2c.1.1.3.1.4.2 0 0 .1.2.1.2zm.1-.9c-.1 0-.2 0-.3-.1-.1-.1-.1-.2-.1-.3 0-.1 0-.2.1-.3.2-.3.5-.3.6-.1.2.2.2.5 0 .7 0 .1-.2.1-.3.1m0-.9c-.1 0-.2 0-.3.1-.1.1-.1.2-.1.3 0 .1 0 .2.1.3.2.2.4.2.6 0 .2-.2.2-.4 0-.6-.1 0-.2-.1-.3-.1"/><path fill="#fff" d="M8.4 24.4H11v.1H8.4v-.1z"/><path fill="#6593AE" d="M6.8 22.4h10.5v.5H6.8v-.5z"/><path fill="#C3D1D8" d="M6.8 22.1h.9v-2.9l-.9.8v2.1z"/><path fill="#325163" d="M7.7 22.1h-1V20l1-1v3.1zm-.9-.1h.8v-2.8l-.8.8v2z"/><path fill="#C3D1D8" d="M7.9 22.1h.9V18l-.9.9v3.2z"/><path fill="#325163" d="M8.9 22.1h-1v-3.3l1-1v4.3zM8 22h.8v-4l-.8.8V22z"/><path fill="#C3D1D8" d="M9.2 17.6V22h.8v-4.8l-.2-.2-.6.6z"/><path fill="#325163" d="M10.1 22.1h-1v-4.5l.7-.6.3.3v4.8zm-.9-.1h.8v-4.7l-.2-.2-.6.6V22z"/><path fill="#C3D1D8" d="M10.4 22.1h.9v-3.5l-.9-.9v4.4z"/><path fill="#325163" d="M11.3 22.1h-1v-4.5l1 1v3.5zm-.9-.1h.8v-3.5l-.8-.8V22z"/><path fill="#C3D1D8" d="M11.6 18.8V22h.9v-3.2l-.5.5-.4-.5z"/><path fill="#325163" d="M12.5 22.1h-1v-3.3l.5.5.5-.5v3.3zm-.9-.1h.8v-3.1l-.4.4-.4-.4V22z"/><path fill="#C3D1D8" d="M12.8 22.1h.9v-4.4l-.9.9v3.5z"/><path fill="#325163" d="M13.7 22.1h-1v-3.6l1-1v4.6zm-.9-.1h.8v-4.3l-.8.8V22z"/><path fill="#C3D1D8" d="M14 22.1h.9v-5.6l-.9.8v4.8z"/><path fill="#325163" d="M14.9 22.1h-1v-4.8l1-1v5.8zM14 22h.8v-5.5l-.8.8V22z"/><path fill="#C3D1D8" d="M15.2 22.1h.8v-6.8l-.9.9v5.9z"/><path fill="#325163" d="M16.1 22.1h-1v-6l1-1v7zm-.9-.1h.8v-6.7l-.8.8V22z"/><path fill="#C3D1D8" d="M16.8 14.5l-.4.4V22h.9v-7.1l-.5-.4z"/><path fill="#325163" d="M17.3 22.1h-1v-7.2l.5-.5.5.5v7.2zm-.9-.1h.8v-7.1l-.4-.4-.4.4s0 7.1 0 7.1z"/><path fill="#6593AE" d="M17.2 14.5v-1.2H16l.4.4-4.4 4.4-2.2-2.2-3 3v.7l3-3 2.2 2.2 4.8-4.8.4.5z"/></svg>