<svg xmlns="http://www.w3.org/2000/svg" width="171.9" height="98.5"><path fill="#DFE9F1" d="M19.9 70.4H10c-1.1 0-2.1-.9-2.1-2.1V42.4c0-.6-.5-1.1-1.1-1.1H0v-1h6.8c1.1 0 2.1.9 2.1 2.1v25.9c0 .6.5 1.1 1.1 1.1h9.9c.6 0 1.1-.5 1.1-1.1v-8.9c0-1.1.9-2.1 2.1-2.1h110.4c.6 0 1.1-.5 1.1-1.1V44.9c0-1.1.9-2.1 2.1-2.1.6 0 1.1-.5 1.1-1.1V17.9c0-1.1.9-2.1 2.1-2.1h18c1.1 0 2.1.9 2.1 2.1v17.2c0 .6.5 1.1 1.1 1.1H172v1h-11c-1.1 0-2.1-.9-2.1-2.1V17.9c0-.6-.5-1.1-1.1-1.1h-18c-.6 0-1.1.5-1.1 1.1v23.8c0 1.1-.9 2.1-2.1 2.1-.6 0-1.1.5-1.1 1.1v11.5c0 1.1-.9 2.1-2.1 2.1H23c-.6 0-1.1.5-1.1 1.1v8.9c0 1-.9 1.9-2 1.9zM123.4 14.4h-18.3c-1.8 0-3.3-1.6-3.3-3.6V3.6c0-1.5-1-2.7-2.3-2.7H87.9V0h11.6c1.8 0 3.3 1.6 3.3 3.6v7.2c0 1.5 1 2.7 2.3 2.7h18.3c1.3 0 2.3-1.2 2.3-2.7V9.4c0-2 1.5-3.6 3.3-3.6h7.7v1H129c-1.3 0-2.3 1.2-2.3 2.7v1.4c0 1.9-1.5 3.5-3.3 3.5zM152 54.4h18v1h-18zM9.5 19.6h18v1h-18zM49.3 4.8h19v1h-19zM7.2 77.3h26.7v1H7.2zM69.8 95.7h16.8v1H69.8zM152.6 2.6h16.8v1h-16.8zM136.7 72.5H152v1h-15.3z"/><path fill="#6593AE" d="M39.6 39.8c-.9 0-1.8-.1-2.7-.2l.1-.5c1.5.2 3.2.2 4.7.1v.5c-.7.1-1.4.1-2.1.1zm6.8-1.1l-.2-.4c1.5-.5 2.9-1.3 4.2-2.1l.3.4c-1.4.8-2.8 1.5-4.3 2.1zm-14.2-.3c-1.5-.6-2.9-1.4-4.2-2.3l.3-.4c1.3.9 2.7 1.7 4.1 2.3l-.2.4zm22.1-5.1l-.4-.3c1.1-1.2 2-2.5 2.7-3.9l.4.2c-.7 1.5-1.6 2.8-2.7 4zm-29.9-.5c-1-1.2-1.9-2.6-2.6-4l.4-.2c.7 1.4 1.6 2.7 2.6 3.9l-.4.3zm34.4-8l-.5-.1c.4-1.5.6-3.1.6-4.7h.5c0 1.7-.2 3.3-.6 4.8zm-38.6-.6c-.3-1.4-.4-2.7-.4-4.1 0-.2 0-.4 0-.7h.5c0 .2 0 .4 0 .6 0 1.4.1 2.7.4 4l-.5.2zm38.4-7.6c-.3-1.5-.7-3.1-1.4-4.5l.4-.2c.7 1.5 1.1 3 1.4 4.6l-.4.1zM21 14.8l-.5-.1c.4-1.5 1.1-3 1.9-4.4l.4.2c-.8 1.3-1.4 2.7-1.8 4.3zm33.8-6.7c-1-1.2-2.1-2.4-3.3-3.3l.3-.4c1.3 1 2.4 2.1 3.4 3.4l-.4.3zM25.7 6.7l-.3-.3c1.1-1.2 2.4-2.2 3.7-3l.3.4c-1.4.7-2.7 1.7-3.7 2.9zm21.7-4.3c-1.4-.6-3-1.1-4.5-1.4l.1-.5c1.6.3 3.1.7 4.6 1.4l-.2.5zm-13.8-.7l-.1-.5C35 .7 36.6.4 38.2.3v.5c-1.6.1-3.1.4-4.6.9zM142.2 98.5c-.6 0-1.2-.1-1.8-.2l.1-.5c1.5.3 3.1.2 4.6-.4l.2.4c-1.1.5-2.1.7-3.1.7zm-6-2.6c-1.1-1.2-1.9-2.7-2.1-4.4l.5-.1c.2 1.5.9 3 2 4.1l-.4.4zm12.8-1l-.4-.3c.9-1.3 1.3-2.8 1.3-4.4 0-.8-.1-1.6-.4-2.4l.5-.1c.3.8.4 1.7.4 2.5 0 1.7-.5 3.3-1.4 4.7zm-13.9-8l-.4-.2c.7-1.5 1.8-2.7 3.3-3.6l.2.4c-1.3.9-2.4 2-3.1 3.4zm11.8-2.8c-1.2-1-2.7-1.5-4.3-1.6V82c1.7.1 3.2.7 4.5 1.7l-.2.4z"/><path fill="#BAC1C6" d="M127.6 82.8H44.4c-1.8 0-3.2-1.4-3.2-3.2l.2-52.3c0-1.8 1.4-3.2 3.2-3.2h83.2c1.8 0 3.2 1.4 3.2 3.2l-.2 52.3c0 1.7-1.4 3.2-3.2 3.2z"/><path fill="#325163" d="M127.6 83H44.4c-1.9 0-3.5-1.5-3.5-3.5l.2-52.3c0-1.9 1.5-3.5 3.5-3.5h83.2c1.9 0 3.5 1.5 3.5 3.5l-.2 52.3c0 2-1.6 3.5-3.5 3.5zm-83-58.7c-1.6 0-3 1.3-3 3l-.2 52.3c0 1.6 1.3 3 3 3h83.2c1.6 0 3-1.3 3-3l.2-52.3c0-1.6-1.3-3-3-3H44.6z"/><path fill="#fff" d="M125.2 77.9H47c-.9 0-1.6-.7-1.6-1.6V29.8c0-.9.7-1.6 1.6-1.6h78.2c.9 0 1.6.7 1.6 1.6v46.5c0 .9-.7 1.6-1.6 1.6z"/><path fill="#325163" d="M125.2 78.2H47c-1 0-1.9-.8-1.9-1.9V29.8c0-1 .8-1.9 1.9-1.9h78.2c1 0 1.9.8 1.9 1.9v46.5c0 1-.8 1.9-1.9 1.9zM47 28.4c-.8 0-1.4.6-1.4 1.4v46.5c0 .8.6 1.4 1.4 1.4h78.2c.8 0 1.4-.6 1.4-1.4V29.8c0-.8-.6-1.4-1.4-1.4H47z"/><path fill="#E6E7E8" d="M140.8 88H31.4c-.8 0-1.5-.7-1.5-1.5v-3.8c0-.8.7-1.5 1.5-1.5h109.5c.8 0 1.5.7 1.5 1.5v3.8c-.1.9-.7 1.5-1.6 1.5z"/><path fill="#325163" d="M140.8 88.3H31.4c-.9 0-1.7-.8-1.7-1.7v-3.8c0-.9.8-1.7 1.7-1.7h109.5c.9 0 1.7.8 1.7 1.7v3.8c0 .9-.8 1.7-1.8 1.7zM31.4 81.5c-.7 0-1.2.6-1.2 1.2v3.8c0 .7.6 1.2 1.2 1.2h109.5c.7 0 1.2-.6 1.2-1.2v-3.8c0-.7-.6-1.2-1.2-1.2H31.4z"/><path fill="#C3D0D8" d="M89.4 32.4h33.2v9.2H89.4z"/><path fill="#D1D3D4" d="M89.4 44.1h33.2V46H89.4zM89.4 48.3h33.2v1.9H89.4zM89.4 52.4h17.5v1.9H89.4z"/><circle cx="104.5" cy="64.6" r="8.4" fill="#E6E7E8"/><circle cx="104.5" cy="64.6" r="5.9" fill="#A7A9AC"/><circle cx="104.5" cy="64.6" r="3.2"/><path fill="#325163" d="M50.3 32.4h34.8v4.9H50.3z"/><circle cx="53.1" cy="34.9" r=".5" fill="#fff"/><circle cx="54.8" cy="34.9" r=".5" fill="#fff"/><circle cx="56.4" cy="34.9" r=".5" fill="#fff"/><path fill="#D1D3D4" d="M50.3 37.3h34.8v34.8H50.3z"/><path fill="#fff" d="M77.8 67.5c-.2-.8-.9-1.5-1.8-1.8l-1.3-.5c-.2 2.5 0 4.8.7 7H79l-1.2-4.7zM73.2 64.5L72 64c-.3-.1-.6-.2-.8-.2v-4.3c1.1-1 1.8-2.3 1.8-3.9v-3.2c0-2.9-2.3-5.2-5.2-5.2-2.9 0-5.2 2.3-5.2 5.2v3.2c0 1.5.7 2.9 1.8 3.9v4.3c-.3 0-.6.1-.9.2l-.9.4-.5.2c3.7 5.6 7.4 5.6 11.1-.1zM60.7 65.2l-1.2.5c-.9.4-1.6 1.1-1.8 1.8l-1.2 4.6h3.4c.9-2 1.1-4.3.8-6.9z"/><path fill="#6593AE" d="M75.4 72.1c-.7-2.2-.9-4.5-.7-7l-.7-.3-.7-.3c-.1.1-.1.2-.2.3-.1.1-.1.2-.2.2-.1.1-.1.2-.2.2-.1.1-.1.2-.2.2-.1.1-.1.2-.2.2-.1.1-.1.1-.2.2s-.1.1-.2.2-.1.1-.2.2-.1.1-.2.2-.1.1-.2.2-.1.1-.2.2-.1.1-.2.2-.1.1-.2.2-.1.1-.2.2-.1.1-.2.1-.1.1-.2.1-.1.1-.2.1-.1.1-.2.1-.1.1-.2.1-.1.1-.2.1-.1.1-.2.1-.1.1-.2.1-.1.1-.2.1-.1.1-.2.1-.1 0-.2.1c-.1 0-.1 0-.2.1-.1 0-.1 0-.2 0s-.1 0-.2 0-.1 0-.2 0-.1 0-.2 0-.1 0-.2 0-.1 0-.2 0-.1 0-.2 0-.1 0-.2 0-.1 0-.2 0-.1 0-.2 0-.1 0-.2 0-.1 0-.2 0-.1 0-.2-.1c-.1 0-.1 0-.2-.1-.1 0-.1 0-.2-.1-.1 0-.1 0-.2-.1-.1 0-.1-.1-.2-.1s-.1-.1-.2-.1-.1-.1-.2-.1-.1-.1-.2-.1-.1-.1-.2-.1-.1-.1-.2-.1-.1-.1-.2-.1-.1-.1-.2-.1-.1-.1-.2-.2-.1-.1-.2-.2c1.2.1 1.2 0 1.1 0-.1-.1-.1-.1-.2-.2s-.1-.1-.2-.2-.1-.1-.2-.2-.1-.1-.2-.2-.1-.1-.2-.2-.1-.1-.2-.2-.1-.2-.2-.2c-.1-.1-.1-.2-.2-.2-.1-.1-.1-.2-.2-.2-.1-.1-.1-.2-.2-.2-.1-.1-.1-.2-.2-.3l-.7.3-.7.3c.2 2.5 0 4.8-.7 7h15.7z"/><path d="M76 59.9l-1.7-9.8c-.5-2.7-3.1-5.7-5.8-5.2-.3 0-.5.1-.7.2-.2-.1-.5-.2-.7-.2-2.7-.5-5.3 2.5-5.8 5.2l-1.7 9.8c-.3 1.9.5 3.8 2 4.9 0 0 2.5-1 2.8-1v-4.3c-1.1-1-1.8-2.3-1.8-3.9v-3.3h2l.5-1.9.4 1.8h4l.2-.8.2.7h3.2v3.4c0 1.5-.7 2.9-1.8 3.9v4.3c.3 0 2.8 1 2.8 1 1.4-.9 2.2-2.8 1.9-4.8z"/><path fill="#6593AE" d="M114.2 73l-3-3 2.7-1.5-9.4-4.2 4.2 9.4 1.4-2.7 3.1 3.1z"/></svg>