<svg xmlns="http://www.w3.org/2000/svg" viewBox="0 0 359.7 206.1" enable-background="new 0 0 359.7 206.1"><path fill="#fff" d="M41.5 147.4H20.9c-2.4 0-4.3-1.9-4.3-4.3V88.8c0-1.3-1-2.3-2.3-2.3H0v-2h14.3c2.4 0 4.3 1.9 4.3 4.3V143c0 1.3 1 2.3 2.3 2.3h20.6c1.3 0 2.3-1 2.3-2.3v-18.5c0-2.4 1.9-4.3 4.3-4.3h231.1c1.3 0 2.3-1 2.3-2.3v-24c0-2.4 1.9-4.3 4.3-4.3 1.3 0 2.3-1 2.3-2.3V37.4c0-2.4 1.9-4.3 4.3-4.3H330c2.4 0 4.3 1.9 4.3 4.3v36c0 1.3 1.1 2.3 2.3 2.3h22.7v2h-22.7c-2.4 0-4.3-1.9-4.3-4.3v-36c0-1.3-1-2.3-2.3-2.3h-37.6c-1.3 0-2.3 1.1-2.3 2.3v49.8c0 2.4-1.9 4.3-4.3 4.3-1.3 0-2.3 1.1-2.3 2.3v24c0 2.4-1.9 4.3-4.3 4.3h-231c-1.3 0-2.3 1.1-2.3 2.3V143c0 2.4-2 4.4-4.4 4.4M258.2 30.1H220c-3.8 0-6.9-3.4-6.9-7.6v-15c0-3.1-2.2-5.6-4.9-5.6h-24.4V0h24.4c3.8 0 6.9 3.4 6.9 7.6v15c0 3.1 2.2 5.6 4.9 5.6h38.3c2.7 0 4.9-2.5 4.9-5.6v-2.8c0-4.2 3.1-7.6 6.9-7.6h16v2h-16c-2.7 0-4.9 2.5-4.9 5.6v2.8c-.1 4.1-3.2 7.5-7 7.5"/><path fill="#fff" d="M318.1 113.8h37.8v2h-37.8zM19.8 41.1h37.8v2H19.8zm83.3-31.2h39.7v2h-39.7z"/><path fill="#DFEAF1" d="M15.1 161.6h56v2h-56z"/><path fill="#fff" d="M146.1 200.2h35.2v2h-35.2zM319.4 5.4h35.2v2h-35.2zM286 151.8h32v2h-32z"/><path fill="#6593AE" d="M82.8 83.4c-1.9 0-3.8-.1-5.7-.4l.1-1c3.2.4 6.6.5 9.8.2l.1 1c-1.4.1-2.8.2-4.3.2M97 80.9l-.3-.9c3.1-1.1 6-2.6 8.8-4.5l.6.8c-2.9 1.9-5.9 3.4-9.1 4.6m-29.7-.5c-3.1-1.3-6.1-2.9-8.8-4.9l.6-.8c2.7 1.9 5.6 3.5 8.6 4.8l-.4.9zm46.3-10.7l-.7-.7c2.2-2.5 4.1-5.2 5.7-8.1l.9.5c-1.7 3-3.6 5.7-5.9 8.3m-62.5-1.1c-2.2-2.6-4-5.4-5.5-8.5l.9-.4c1.4 3 3.3 5.7 5.4 8.2l-.8.7zM123 52l-1-.2c.8-3.2 1.2-6.5 1.2-9.8h1c0 3.3-.4 6.7-1.2 10m-80.7-1.4c-.6-2.8-.9-5.8-.9-8.7 0-.5 0-.9 0-1.4h1c0 .4 0 .9 0 1.3 0 2.9.3 5.7.9 8.5l-1 .3zm80.3-15.8c-.6-3.2-1.6-6.4-2.9-9.4l.9-.4c1.4 3.1 2.4 6.3 3 9.6l-1 .2zm-78.7-3.9l-1-.3c.9-3.2 2.2-6.4 3.9-9.3l.9.5c-1.6 2.8-2.9 5.9-3.8 9.1M114.6 17c-2-2.6-4.4-4.9-7-6.9l.6-.8c2.7 2.1 5.1 4.5 7.2 7.1l-.8.6zm-60.9-3.1l-.7-.7c2.3-2.4 5-4.6 7.8-6.4l.5.8c-2.8 1.8-5.3 3.9-7.6 6.3M99.2 5c-3-1.3-6.2-2.3-9.4-2.9l.2-1c3.3.6 6.6 1.6 9.7 2.9l-.5 1zm-29-1.5l-.3-1c3.2-1 6.5-1.7 9.9-1.9l.1 1c-3.3.3-6.6.9-9.7 1.9"/><path fill="#6593AE" d="M297.5 206.1c-1.3 0-2.5-.1-3.8-.4l.2-1c3.1.7 6.5.4 9.5-.8l.4.9c-2 .9-4.1 1.3-6.3 1.3m-12.6-5.4c-2.4-2.5-3.9-5.7-4.5-9.1l1-.2c.5 3.2 2 6.2 4.2 8.6l-.7.7zm26.9-2.2l-.8-.6c1.8-2.7 2.8-5.9 2.8-9.1 0-1.7-.3-3.4-.8-5l1-.3c.6 1.7.8 3.5.8 5.3-.1 3.5-1.1 6.9-3 9.7m-29-16.6l-.9-.4c1.5-3.1 3.8-5.7 6.8-7.5l.5.9c-2.8 1.6-5 4.1-6.4 7m24.6-5.9c-2.6-2-5.7-3.2-8.9-3.4l.1-1c3.5.2 6.7 1.5 9.5 3.6l-.7.8z"/><path fill="#BAC1C6" d="M267 173.2H92.9c-3.7 0-6.7-3-6.7-6.7l.4-109.4c0-3.7 3-6.7 6.7-6.7h174.1c3.7 0 6.7 3 6.7 6.7l-.4 109.4c0 3.7-3 6.7-6.7 6.7"/><path fill="#325163" d="M267 173.7H92.9c-4 0-7.2-3.2-7.2-7.2l.4-109.4c0-4 3.2-7.2 7.2-7.2h174.1c4 0 7.2 3.2 7.2 7.2l-.4 109.4c0 4-3.2 7.2-7.2 7.2M93.3 50.8c-3.4 0-6.2 2.8-6.2 6.2l-.4 109.4c0 3.4 2.8 6.2 6.2 6.2H267c3.4 0 6.2-2.8 6.2-6.2l.4-109.4c0-3.4-2.8-6.2-6.2-6.2H93.3z"/><path fill="#fff" d="M262 163H98.3c-1.9 0-3.4-1.5-3.4-3.4V62.3c0-1.9 1.5-3.4 3.4-3.4H262c1.9 0 3.4 1.5 3.4 3.4v97.3c0 1.9-1.5 3.4-3.4 3.4"/><path fill="#325163" d="M262 163.5H98.3c-2.2 0-3.9-1.7-3.9-3.9V62.3c0-2.1 1.7-3.9 3.9-3.9H262c2.1 0 3.9 1.7 3.9 3.9v97.3c0 2.2-1.7 3.9-3.9 3.9M98.3 59.4c-1.6 0-2.9 1.3-2.9 2.9v97.3c0 1.6 1.3 2.9 2.9 2.9H262c1.6 0 2.9-1.3 2.9-2.9V62.3c0-1.6-1.3-2.9-2.9-2.9H98.3z"/><path fill="#E6E7E8" d="M294.7 184.2H65.6c-1.7 0-3.1-1.4-3.1-3.1v-7.9c0-1.7 1.4-3.1 3.1-3.1h229.1c1.7 0 3.1 1.4 3.1 3.1v7.9c0 1.7-1.4 3.1-3.1 3.1"/><path fill="#325163" d="M294.7 184.7H65.6c-2 0-3.6-1.6-3.6-3.6v-7.9c0-2 1.6-3.6 3.6-3.6h229.1c2 0 3.6 1.6 3.6 3.6v7.9c0 2-1.6 3.6-3.6 3.6M65.6 170.6c-1.4 0-2.6 1.2-2.6 2.6v7.9c0 1.4 1.2 2.6 2.6 2.6h229.1c1.4 0 2.6-1.2 2.6-2.6v-7.9c0-1.4-1.2-2.6-2.6-2.6H65.6z"/><path fill="#C3D1D8" d="M187 67.8h69.4v19.1H187z"/><path fill="#D1D3D4" d="M187 92.4h69.4v4H187zm0 8.6h69.4v4H187zm0 8.6h36.5v4H187z"/><path fill="#E6E7E8" d="M236.2 135.3c0 9.7-7.8 17.5-17.5 17.5s-17.5-7.8-17.5-17.5 7.8-17.5 17.5-17.5c9.6-.1 17.5 7.8 17.5 17.5"/><path fill="#A7A9AC" d="M231 135.3c0 6.8-5.5 12.4-12.4 12.4-6.8 0-12.4-5.5-12.4-12.4 0-6.8 5.5-12.4 12.4-12.4s12.4 5.5 12.4 12.4"/><path d="M225.3 135.3c0 3.7-3 6.7-6.7 6.7s-6.7-3-6.7-6.7 3-6.7 6.7-6.7 6.7 3 6.7 6.7"/><path fill="#325163" d="M105.3 67.8h72.9V78h-72.9z"/><path fill="#fff" d="M112.1 73c0 .6-.5 1.1-1.1 1.1-.6 0-1.1-.5-1.1-1.1 0-.6.5-1.1 1.1-1.1.6 0 1.1.4 1.1 1.1m3.6 0c0 .6-.5 1.1-1.1 1.1s-1.1-.5-1.1-1.1c0-.6.5-1.1 1.1-1.1s1.1.4 1.1 1.1m3.5 0c0 .6-.5 1.1-1.1 1.1s-1.1-.5-1.1-1.1c0-.6.5-1.1 1.1-1.1s1.1.4 1.1 1.1"/><path fill="#D1D3D4" d="M105.3 78.1h72.9V151h-72.9z"/><path fill="#fff" d="M162.7 141.3c-.5-1.6-2-3.1-3.8-3.9l-2.6-1.1c-.4 5.2-.1 10.1 1.5 14.7h7.5l-2.6-9.7zm-9.5-6.3l-2.5-1c-.6-.2-1.2-.4-1.8-.4v-9c2.3-2 3.7-4.9 3.7-8.1v-6.6c0-6-4.9-10.9-10.9-10.9s-10.9 4.9-10.9 10.9v6.6c0 3.2 1.4 6.1 3.7 8.1v9c-.6.1-1.2.2-1.8.4l-1.8.7-1 .4c7.8 11.8 15.6 11.7 23.3-.1m-26.1 1.3l-2.5 1c-1.9.8-3.3 2.2-3.8 3.9l-2.5 9.7h7.1c1.7-4.2 2.2-9.1 1.7-14.6"/><path fill="#6593AE" d="M157.7 151c-1.5-4.6-1.9-9.5-1.5-14.7l-1.5-.6-1.5-.6c-.1.2-.3.4-.4.6-.1.2-.2.3-.3.5-.1.2-.3.4-.4.5-.1.2-.2.3-.3.5-.1.2-.3.3-.4.5-.1.1-.2.3-.3.4-.1.2-.3.3-.4.5-.1.1-.2.3-.3.4-.1.1-.3.3-.4.4-.1.1-.2.3-.4.4-.1.1-.3.3-.4.4-.1.1-.2.2-.4.3-.1.1-.3.2-.4.3-.1.1-.2.2-.4.3-.1.1-.2.2-.4.3-.1.1-.2.2-.4.3-.1.1-.2.2-.4.3-.1.1-.2.2-.4.3-.1.1-.2.2-.4.2-.1.1-.2.1-.4.2-.1.1-.2.1-.4.2-.1.1-.2.1-.4.2-.1.1-.2.1-.4.2-.1.1-.2.1-.4.2-.1 0-.2.1-.4.1-.1 0-.2.1-.4.1-.1 0-.2.1-.4.1-.1 0-.2.1-.4.1-.1 0-.2 0-.4.1-.1 0-.2 0-.4 0-.1 0-.2 0-.4 0-.1 0-.2 0-.4 0s-.2 0-.4 0c-.1 0-.2 0-.4 0-.1 0-.2 0-.4 0-.1 0-.2 0-.4-.1-.1 0-.2-.1-.4-.1-.1 0-.2-.1-.4-.1-.1 0-.2-.1-.4-.1-.1 0-.2-.1-.4-.1-.1 0-.2-.1-.4-.2-.1-.1-.2-.1-.4-.2-.1-.1-.2-.1-.4-.2-.1-.1-.2-.1-.4-.2-.1-.1-.2-.1-.4-.2-.1-.1-.2-.1-.4-.2-.1-.1-.2-.2-.4-.3-.1-.1-.2-.2-.4-.3-.1-.1-.2-.2-.4-.3-.1-.1-.2-.2-.4-.3-.1-.1-.2-.2-.4-.3-.1-.1-.3-.2-.4-.3-.1-.1-.2-.2-.3-.3-.1-.1-.3-.2-.4-.4-.1-.1-.2-.3-.4-.4-.1-.1-.3-.3-.4-.4-.1-.1-.2-.3-.3-.4-.1-.1-.3-.3-.4-.5-.1-.1-.2-.3-.3-.4-.1-.2-.3-.3-.4-.5-.1-.2-.2-.3-.3-.5-.1-.2-.3-.3-.4-.5-.1-.2-.2-.3-.3-.5-.1-.2-.3-.4-.4-.6l-1.5.6-1.5.6c.4 5.2.1 10.1-1.5 14.7h33.7z"/><path d="M159 125.4l-3.6-20.5c-1-5.6-6.4-12-12.1-11-.5.1-1.1.2-1.6.4-.5-.2-1-.3-1.6-.4-5.6-1-11.1 5.3-12.1 11l-3.6 20.5c-.7 4.1 1.1 8 4.2 10.3 0 0 5.2-2 5.8-2.1v-9c-2.3-2-3.7-4.9-3.7-8.1v-6.8h4.2l.9-3.9.7 3.8h8.4l.5-1.7.4 1.6h6.6v7c0 3.2-1.4 6.1-3.7 8.1v9c.6.1 5.8 2.1 5.8 2.1 3.4-2.3 5.2-6.2 4.5-10.3"/><path fill="#6593AE" d="M239 152.8l-6.4-6.4 5.6-3.1-19.6-8.7 8.7 19.6 3.1-5.6 6.5 6.4z"/></svg>