<svg xmlns="http://www.w3.org/2000/svg" width="171.9" height="94.7"><path fill="#DFE9F1" d="M119.4 93.7h26.7v1h-26.7zM32 72H14c-1.1 0-2-1-2-2.1V52.7c0-.6-.5-1.1-1.1-1.1H0v-1h10.9c1.1 0 2.1.9 2.1 2.1v17.2c0 .6.5 1.1 1.1 1.1h18c.6 0 1.1-.5 1.1-1.1V46.1c0-1.1.9-2.1 2.1-2.1.6 0 1.1-.5 1.1-1.1V31.5c0-1.1.9-2.1 2.1-2.1h110.4c.6 0 1.1-.5 1.1-1.1v-8.9c0-1.1.9-2.1 2.1-2.1h9.9c1.1 0 2.1.9 2.1 2.1v25.9c0 .6.5 1.1 1.1 1.1h6.8v1h-6.8c-1.1 0-2.1-.9-2.1-2.1V19.4c0-.6-.5-1.1-1.1-1.1h-10c-.6 0-1.1.5-1.1 1.1v8.9c0 1.1-.9 2.1-2.1 2.1H38.4c-.6 0-1.1.5-1.1 1.1V43c0 1.1-.9 2.1-2.1 2.1-.6 0-1.1.5-1.1 1.1V70c0 1-.9 2-2.1 2zM122.5 65.2c-.7 0-1.3-.3-1.8-.7-.5-.5-.8-1.1-.8-1.9v-11c0-.9-.7-1.6-1.6-1.6h-5.1v-1h5.1c1.4 0 2.6 1.2 2.6 2.6v11c0 .4.2.9.5 1.2.3.3.7.5 1.2.5l10.3-.2v1l-10.4.1zM45.6 59.4h18v1h-18zM12.5 30.4h10.4v1H12.5zM24.7 10.5h11.9v1H24.7zM101 0h26.2v1H101zM6.3 1h26.1v1H6.3zM139.1 51.1h10.4v1h-10.4zM23.3 93.7h24.1v1H23.3zM148.4 75.6h15.7v1h-15.7z"/><path fill="#F1F2F2" d="M103.4 74.7l-3.7-1.5c-.8-.3-1.7-.5-2.6-.6V59.4c3.3-2.9 5-7 5-11.7l.1-15c0-8.8-5.8-15.9-14.6-15.9h-1.4c-8.8 0-15.9 7.2-15.9 15.9l.2 14.8c0 4.7 2.1 9 5.4 11.9v13.2c-.9.1-1.8.3-2.6.6l-2.6 1.1-1.5.6 34.2-.2z"/><path fill="#325163" d="M68.2 75.2l5.2-2.2c.7-.3 1.5-.5 2.5-.6V59.5c-3.4-3.1-5.4-7.5-5.4-12l-.2-14.8c0-8.9 7.3-16.2 16.2-16.2h1.4c8.6 0 14.8 6.8 14.8 16.2l-.1 15c0 4.8-1.7 8.9-5 11.8v12.9c.9.1 1.8.3 2.5.6l4.8 2-36.7.2zM86.4 17c-8.7 0-15.7 7-15.7 15.7l.2 14.8c0 4.5 1.9 8.7 5.3 11.7l.1.1v13.5h-.2c-1 .1-1.8.3-2.5.6l-3 1.2 31.6-.2-2.6-1.1c-.7-.3-1.5-.5-2.5-.6h-.2V59.3l.1-.1c3.2-2.9 5-6.9 5-11.5l.1-15c0-9.1-6-15.7-14.3-15.7h-1.4z"/><path fill="#DFE9F1" d="M135.8 24.7v31.4c0 .6-.5 1-1 1h-3.9c-.6 0-1-.5-1-1V24.7c0-.6.5-1 1-1h3.9c.5 0 1 .5 1 1z"/><path fill="#90989F" d="M132.8 57.2h1.9c.6 0 1-.5 1-1V24.7c0-.6-.5-1-1-1h-1.9v33.5z"/><path fill="#C3D0D8" d="M129.9 52.8h3.5"/><path fill="#325163" d="M129.9 52.6h3.5v.5h-3.5z"/><path fill="#C3D0D8" d="M129.9 48.7h3.5"/><path fill="#325163" d="M129.9 48.5h3.5v.5h-3.5z"/><path fill="#C3D0D8" d="M129.9 44.6h3.5"/><path fill="#325163" d="M129.9 44.3h3.5v.5h-3.5z"/><path fill="#C3D0D8" d="M129.9 40.5h3.5"/><path fill="#325163" d="M129.9 40.2h3.5v.5h-3.5z"/><path fill="#C3D0D8" d="M129.9 36.3h3.5"/><path fill="#325163" d="M129.9 36.1h3.5v.5h-3.5z"/><path fill="#C3D0D8" d="M129.9 32.2h3.5"/><path fill="#325163" d="M129.9 32h3.5v.5h-3.5z"/><path fill="#C3D0D8" d="M129.9 28.1h3.5"/><path fill="#325163" d="M129.9 27.8h3.5v.5h-3.5zM134.7 57.4h-3.9c-.7 0-1.3-.6-1.3-1.3V24.7c0-.7.6-1.3 1.3-1.3h3.9c.7 0 1.3.6 1.3 1.3v31.4c0 .8-.6 1.3-1.3 1.3zM130.9 24c-.4 0-.8.3-.8.8v31.4c0 .4.3.8.8.8h3.9c.4 0 .8-.3.8-.8V24.7c0-.4-.3-.8-.8-.8h-3.9z"/><path fill="#BCBEC0" d="M36.8 31.1h5.5v22.4h-5.5z"/><path fill="#325163" d="M42.6 53.7h-6V30.8h6v22.9zm-5.5-.5h5V31.3h-5v21.9z"/><path fill="#97999C" d="M39.6 31.1h2.8v22.4h-2.8z"/><path fill="#325163" d="M42.6 53.7h-6V30.8h6v22.9zm-5.5-.5h5V31.3h-5v21.9z"/><path fill="#6593AE" d="M36.8 53.5h5.5v3.7h-5.5z"/><path fill="#325163" d="M42.6 57.4h-6v-4.2h6v4.2zm-5.5-.5h5v-3.2h-5v3.2z"/><path fill="#486B7F" d="M39.6 53.5h2.7v3.7h-2.7z"/><path fill="#325163" d="M42.6 57.4h-6v-4.2h6v4.2zm-5.5-.5h5v-3.2h-5v3.2z"/><path fill="#fff" d="M39.6 23.5l2.7 7.6h-5.4z"/><path fill="#325163" d="M42.6 31.3h-6.1l3-8.5 3.1 8.5zm-5.4-.5h4.7l-2.4-6.6-2.3 6.6z"/><path fill="#DCDDDE" d="M39.6 23.5l2.7 7.6h-2.8z"/><path fill="#325163" d="M39.6 23.4l.9 2.6h-1.8z"/><path fill="#1D3645" d="M39.6 23.4l1 2.6h-1z"/><path fill="#325163" d="M42.6 31.3h-6.1l3-8.5 3.1 8.5zm-5.4-.5h4.7l-2.4-6.6-2.3 6.6z"/><path fill="#F1F2F2" d="M102.2 71.4c-3.1-.8-5.8-1.9-7.6-3.3l-8.5 10.6L77.6 68c-1.9 1.5-4.5 2.5-7.6 3.3 2.3 2.3 8.3 7.3 16.3 7.3 7.9 0 13.7-4.9 15.9-7.2z"/><path fill="#325163" d="M86.1 79l-.1-.1c-8-.1-14-5.2-16.2-7.3l-.3-.3.4-.1c3.5-.9 5.9-2 7.5-3.3l.2-.1.1.2L86 78.4l8.5-10.6.2.1c1.7 1.3 4.1 2.4 7.5 3.3l.4.1-.3.3c-2.1 2.2-8 7.3-16.2 7.3v.1zm8.5-10.6l-8 10c7.4-.1 12.9-4.7 15.2-6.9-3.2-.9-5.5-1.9-7.2-3.1zm-24.2 3.1c2.3 2.2 7.8 6.7 15.2 6.9l-8-10c-1.7 1.2-4 2.2-7.2 3.1zM114.9 69.6c-4.1-.7-7.9-1.3-11.3-2.2-2.4 2.3-8.6 7.3-17.1 7.3-8.6 0-14.9-5-17.4-7.3-3.3.8-7.2 1.5-11.3 2.2-13.9 2.3-10.8 17-10.8 17h78.7s3.1-14.7-10.8-17zM125.9 86.8h-79v-.2c0-.1-1.4-6.9 2.1-12 1.9-2.8 4.9-4.6 8.9-5.2 4.1-.7 7.9-1.3 11.2-2.2h.1l.1.1c2.3 2.2 8.7 7.2 17.2 7.2s14.7-5 17-7.2l.1-.1h.1c3.3.8 7.2 1.5 11.3 2.2 4 .7 7 2.4 8.9 5.2 3.5 5.1 2.1 11.9 2.1 12l-.1.2zm-78.6-.5h78.3c.2-1.1 1-7-2-11.5-1.8-2.7-4.7-4.4-8.6-5-4-.7-7.8-1.3-11.2-2.1-2.4 2.3-8.6 7.2-17.2 7.2s-15-5-17.5-7.2c-3.3.8-7.1 1.5-11.2 2.1-3.9.7-6.8 2.3-8.6 5-3 4.5-2.2 10.4-2 11.5z"/><path fill="#F1F2F2" d="M74.8 62.4l-5.2 4.9 6.3 9.7 4.1-7.7z"/><path fill="#325163" d="M75.9 77.5l-6.6-10.2 5.5-5.2 5.4 7.3-4.3 8.1zm-6-10.2l6 9.2 3.8-7.2-4.9-6.6-4.9 4.6z"/><path fill="#F1F2F2" d="M97.9 62.4l5.4 4.9-7 10.3-3.5-8.3z"/><path fill="#325163" d="M96.3 78.1l-3.8-8.8 5.3-7.2 5.8 5.2-7.3 10.8zm-3.2-8.8l3.3 7.8 6.7-9.8-5.1-4.6-4.9 6.6z"/><path fill="#1A1A1A" d="M103.3 23.8c-.4-10.5-10.3-9.5-10.3-9.5-18.8-7.3-23.8 9.5-23.8 9.5-.6 7.9.5 12.8 1.1 14.6 0 0 0-.1 0-.1.1-.4.1-.6.1-.6s.1.2.2.5c.1-5 .8-9 .8-9 8.7 2.4 15.2-.5 18.6-2.8 2-1.4 3-1 3-1 9-2.9 9.6 8.2 9.5 12.5 0 0 .1 0 .1-.1.1-.1.3-.2.4-.2 0 0 0 .1 0 .2 2.1-6.8.3-14 .3-14z"/><path fill="#325163" d="M96.3 36.1c-6.1 0-9.1 1.5-9.1 1.5h-1.6s-3-1.5-9.1-1.5-6.7.6-6.7.6v1.9c.8 0 1 2.6 1 2.6.5 3.5 3.8 3.9 3.8 3.9s2.4 0 5.4 0c3 0 4-2.5 4.9-4.3.9-1.7 1.7-1.5 1.7-1.5s.8-.2 1.7 1.5c.9 1.7 1.9 4.3 4.9 4.3 3 0 5.4 0 5.4 0s3.3-.4 3.8-3.9c0 0 .2-2.6 1-2.6v-1.9c-.3 0-1-.6-7.1-.6zm-12.6 4.7c-1.3 2.8-1.1 3.7-7 3.7-6 0-5.4-3.9-5.4-5.9 0-2 4.9-2 4.9-2 7.3 0 8.8 1.3 7.5 4.2zm12.4 3.7c-6 0-5.7-.9-7-3.7-1.3-2.8.2-4.2 7.6-4.2 0 0 4.9 0 4.9 2-.1 2 .4 5.9-5.5 5.9z"/></svg>