<svg xmlns="http://www.w3.org/2000/svg" viewBox="0 0 359.7 198.1" enable-background="new 0 0 359.7 198.1"><path fill="#fff" d="M249.9 196.1h56v2h-56zM67 150.6H29.4c-2.4 0-4.3-1.9-4.3-4.3v-36c0-1.3-1-2.3-2.3-2.3H0v-2h22.7c2.4 0 4.3 1.9 4.3 4.3v36c0 1.3 1.1 2.3 2.3 2.3H67c1.3 0 2.3-1.1 2.3-2.3V96.5c0-2.4 1.9-4.3 4.3-4.3 1.3 0 2.3-1 2.3-2.3v-24c0-2.4 1.9-4.3 4.3-4.3h231.1c1.3 0 2.3-1 2.3-2.3V40.6c0-2.4 1.9-4.3 4.3-4.3h20.6c2.4 0 4.3 1.9 4.3 4.3v54.3c0 1.3 1 2.3 2.3 2.3h14.2v2h-14.2c-2.4 0-4.3-1.9-4.3-4.3V40.6c0-1.3-1-2.3-2.3-2.3h-20.6c-1.3 0-2.3 1-2.3 2.3v18.5c0 2.4-1.9 4.3-4.3 4.3H80.4c-1.3 0-2.3 1-2.3 2.3v24c0 2.4-1.9 4.3-4.3 4.3-1.3 0-2.3 1.1-2.3 2.3v49.8c-.1 2.6-2.1 4.5-4.5 4.5m189.2-14.1c-1.4 0-2.8-.5-3.8-1.5-1.1-1-1.6-2.4-1.6-3.9V108c0-1.9-1.5-3.4-3.4-3.4h-10.7v-2h10.7c3 0 5.4 2.4 5.4 5.4v23.1c0 .9.4 1.8 1 2.4.7.6 1.5 1 2.5 1l21.6-.5v2l-21.6.5s0 0-.1 0"/><path fill="#fff" d="M95.5 124.3h37.8v2H95.5zM26.2 63.6H48v2H26.2zm25.4-41.7h24.9v2H51.6zM211.2 0h54.7v2h-54.7zm-198 2h54.7v2H13.2zm277.9 105h21.8v2h-21.8zM48.7 196.1h50.4v2H48.7zm261.9-37.8h32.8v2h-32.8z"/><path fill="#F1F2F2" d="M216.4 156.4l-7.7-3.2c-1.7-.7-3.6-1.1-5.4-1.3v-27.6c6.9-6.1 10.5-14.6 10.5-24.5l.3-31.5C214.1 50 202 35 183.7 35h-2.9c-18.3 0-33.4 15-33.4 33.4l.5 31c0 9.9 4.4 18.8 11.3 24.9v27.6c-1.9.2-3.7.6-5.4 1.3l-5.5 2.3-3 1.3 71.1-.4z"/><path fill="#325163" d="M142.6 157.3l11-4.5c1.5-.6 3.2-1 5.1-1.3v-26.9c-7.2-6.5-11.3-15.6-11.3-25.2l-.5-31c0-18.7 15.2-33.9 33.9-33.9h2.9c17.9 0 31 14.2 31 33.9l-.3 31.5c0 10-3.6 18.5-10.5 24.7v26.9c2 .3 3.7.7 5.1 1.3l10 4.1-76.4.4zm38.2-121.8c-18.1 0-32.9 14.7-32.9 32.9l.5 31c0 9.3 4.1 18.3 11.1 24.6l.2.1v28.3l-.4.1c-2.1.3-3.8.7-5.3 1.3l-6.2 2.6 66.2-.4-5.4-2.2c-1.5-.6-3.2-1-5.3-1.3l-.4-.1v-28.3l.2-.1c6.8-6 10.4-14.4 10.4-24.1l.3-31.5c0-19-12.6-32.8-30-32.8h-3z"/><path fill="#DFEAF1" d="M284.1 51.8v65.8c0 1.2-1 2.1-2.1 2.1h-8.1c-1.2 0-2.1-1-2.1-2.1V51.8c0-1.2 1-2.1 2.1-2.1h8.1c1.1-.1 2.1.9 2.1 2.1"/><path fill="#90989F" d="M277.9 119.6h4c1.2 0 2.1-1 2.1-2.1V51.8c0-1.2-1-2.1-2.1-2.1h-4v69.9z"/><path fill="#C3D1D8" d="M271.7 110.6h7.4"/><path fill="#325163" d="M271.7 110.1h7.4v1h-7.4z"/><path fill="#C3D1D8" d="M271.7 101.9h7.4"/><path fill="#325163" d="M271.7 101.4h7.4v1h-7.4z"/><path fill="#C3D1D8" d="M271.7 93.3h7.4"/><path fill="#325163" d="M271.7 92.8h7.4v1h-7.4z"/><path fill="#C3D1D8" d="M271.7 84.6h7.4"/><path fill="#325163" d="M271.7 84.1h7.4v1h-7.4z"/><path fill="#C3D1D8" d="M271.7 76h7.4"/><path fill="#325163" d="M271.7 75.5h7.4v1h-7.4z"/><path fill="#C3D1D8" d="M271.7 67.4h7.4"/><path fill="#325163" d="M271.7 66.9h7.4v1h-7.4z"/><path fill="#C3D1D8" d="M271.7 58.7h7.4"/><path fill="#325163" d="M271.7 58.2h7.4v1h-7.4zm10.2 61.9h-8.1c-1.4 0-2.6-1.2-2.6-2.6V51.8c0-1.4 1.2-2.6 2.6-2.6h8.1c1.4 0 2.6 1.2 2.6 2.6v65.8c.1 1.4-1.1 2.5-2.6 2.5m-8-70c-.9 0-1.6.7-1.6 1.6v65.8c0 .9.7 1.6 1.6 1.6h8.1c.9 0 1.6-.7 1.6-1.6V51.8c0-.9-.7-1.6-1.6-1.6h-8.1z"/><path fill="#BCBEC0" d="M77.1 65h11.5v46.9H77.1z"/><path fill="#325163" d="M89.1 112.4H76.6V64.5h12.5v47.9zm-11.5-1h10.5V65.5H77.6v45.9z"/><path fill="#97999C" d="M82.8 65h5.8v46.9h-5.8z"/><path fill="#325163" d="M89.1 112.4H76.6V64.5h12.5v47.9zm-11.5-1h10.5V65.5H77.6v45.9z"/><path fill="#6593AE" d="M77.1 111.9h11.5v7.8H77.1z"/><path fill="#325163" d="M89.1 120.1H76.6v-8.8h12.5v8.8zm-11.5-1h10.5v-6.8H77.6v6.8z"/><path fill="#486B7F" d="M82.8 111.9h5.8v7.8h-5.8z"/><path fill="#325163" d="M89.1 120.1H76.6v-8.8h12.5v8.8zm-11.5-1h10.5v-6.8H77.6v6.8z"/><path fill="#fff" d="M82.8 49.2L88.5 65H77.2z"/><path fill="#325163" d="M89.2 65.5H76.5l6.4-17.8 6.3 17.8zm-11.3-1h9.9l-4.9-13.9-5 13.9z"/><path fill="#DCDDDE" d="M82.8 49.2L88.5 65h-5.8z"/><path fill="#325163" d="M82.8 49l2 5.4h-3.9z"/><path fill="#1D3645" d="M82.9 49l2 5.4h-2.1z"/><path fill="#325163" d="M89.2 65.5H76.5l6.4-17.8 6.3 17.8zm-11.3-1h9.9l-4.9-13.9-5 13.9z"/><path fill="#F1F2F2" d="M213.9 149.3c-6.5-1.8-12.1-3.9-15.9-7l-17.8 22.2-17.8-22.2c-3.9 3-9.4 5.2-16 7 4.8 4.8 17.3 15.2 34 15.2 16.7.1 28.8-10.4 33.5-15.2"/><path fill="#325163" d="M180.1 165.4l-.2-.3c-16.8-.2-29.3-10.8-33.9-15.4l-.6-.6.8-.2c7.3-2 12.3-4.2 15.8-6.9l.4-.3.3.4 17.4 21.7 17.7-22.1.4.3c3.5 2.7 8.5 4.9 15.8 6.9l.8.2-.6.6c-4.5 4.6-16.8 15.4-33.8 15.4l-.3.3zm17.9-22.3l-16.8 21c15.6-.3 27-9.7 31.7-14.5-6.7-1.9-11.4-4-14.9-6.5m-50.6 6.5c4.9 4.7 16.4 13.9 31.7 14.4l-16.8-21c-3.5 2.6-8.2 4.7-14.9 6.6m93-4c-8.5-1.4-16.6-2.8-23.6-4.6-5 4.8-17.9 15.2-35.8 15.2s-31.2-10.4-36.4-15.2c-7 1.8-15.1 3.1-23.6 4.5-29 4.9-22.6 35.5-22.6 35.5H263c.1.1 6.5-30.5-22.6-35.4m23.1 36H98.1l-.1-.4c0-.1-2.9-14.5 4.3-25.1 4-5.9 10.3-9.5 18.7-10.9 8.5-1.4 16.5-2.8 23.5-4.5l.3-.1.2.2c4.9 4.5 18.2 15.1 36 15.1s30.7-10.5 35.5-15.1l.2-.2.3.1c7 1.8 15 3.1 23.6 4.5 8.4 1.4 14.7 5.1 18.7 10.9 7.3 10.6 4.4 25 4.3 25.1l-.1.4zm-164.6-1h163.7c.4-2.4 2.1-14.7-4.3-24-3.8-5.6-9.9-9.2-18-10.5-8.4-1.4-16.4-2.7-23.4-4.5-5 4.7-18 15.2-36 15.2s-31.4-10.5-36.5-15.2c-7 1.7-14.9 3.1-23.3 4.5-8.1 1.4-14.2 4.9-18 10.5-6.3 9.4-4.6 21.7-4.2 24"/><path fill="#F1F2F2" d="M156.5 130.5l-10.9 10.3 13.2 20.3 8.5-16.1z"/><path fill="#325163" d="M158.8 162.1L145 140.8l11.6-11L168 145l-9.2 17.1zm-12.5-21.2l12.5 19.2 8-15-10.3-13.8-10.2 9.6z"/><path fill="#F1F2F2" d="M204.8 130.5l11.4 10.3-14.7 21.6-7.3-17.4z"/><path fill="#325163" d="M201.4 163.4l-7.9-18.4 11.1-15.2 12.2 11-15.4 22.6zm-6.7-18.3l6.9 16.2 13.9-20.4-10.7-9.6-10.1 13.8z"/><path fill="#414042" d="M216.1 49.7c-.7-21.8-21.5-19.9-21.5-19.9-39.3-15.1-49.8 19.9-49.8 19.9-1.3 16.6 1.1 26.8 2.3 30.6 0-.1 0-.1 0-.2.1-.8.2-1.3.2-1.3s.2.3.4 1c.2-10.4 1.6-18.8 1.6-18.8 18.2 5 31.8-1.1 38.9-5.9 4.4-2.9 6.4-1.9 6.4-1.9 18.8-6.1 20 17.2 19.8 26.1.1 0 .1-.1.2-.1.3-.2.6-.3.9-.4 0 0 0 .2 0 .5 4.4-14.3.6-29.6.6-29.6"/><path fill="#325163" d="M201.6 75.4c-12.7 0-19.1 3.1-19.1 3.1h-3.4s-6.4-3.1-19.1-3.1c-12.7 0-14.1 1.3-14.1 1.3v4c1.7 0 2 5.5 2 5.5 1 7.3 7.9 8.1 7.9 8.1H167c6.2 0 8.4-5.3 10.2-8.9 1.8-3.6 3.5-3.1 3.5-3.1s1.7-.5 3.5 3.1 4 8.9 10.2 8.9h11.2s6.9-.8 7.9-8.1c0 0 .3-5.5 2-5.5v-4c.1.1-1.2-1.3-13.9-1.3m-26.4 9.9c-2.7 6-2.2 7.8-14.7 7.8s-11.3-8.2-11.3-12.4c0-4.2 10.2-4.2 10.2-4.2 15.3 0 18.5 2.8 15.8 8.8m25.8 7.8c-12.5 0-12-1.9-14.7-7.8-2.7-6 .5-8.8 15.8-8.8 0 0 10.2 0 10.2 4.2 0 4.3 1.2 12.4-11.3 12.4"/></svg>