<svg xmlns="http://www.w3.org/2000/svg" width="171.9" height="95.4"><path fill="#DFE9F1" d="M19.9 71.3H10c-1.1 0-2.1-.9-2.1-2.1V43.3c0-.6-.5-1.1-1.1-1.1H0v-1h6.8c1.1 0 2.1.9 2.1 2.1v25.9c0 .6.5 1.1 1.1 1.1h9.9c.6 0 1.1-.5 1.1-1.1v-8.9c0-1.1.9-2.1 2.1-2.1h110.4c.6 0 1.1-.5 1.1-1.1V45.7c0-1.1.9-2.1 2.1-2.1.6 0 1.1-.5 1.1-1.1V18.8c0-1.1.9-2.1 2.1-2.1h18c1.1 0 2.1.9 2.1 2.1V36c0 .6.5 1.1 1.1 1.1H172v1h-11c-1.1 0-2.1-.9-2.1-2.1V18.8c0-.6-.5-1.1-1.1-1.1h-18c-.6 0-1.1.5-1.1 1.1v23.8c0 1.1-.9 2.1-2.1 2.1-.6 0-1.1.5-1.1 1.1v11.5c0 1.1-.9 2.1-2.1 2.1H23c-.6 0-1.1.5-1.1 1.1v8.9c0 1-.9 1.9-2 1.9zM130.5 95.4h-5.1c-1.4 0-2.6-1.2-2.6-2.6v-11c0-.4-.2-.9-.5-1.2-.3-.3-.7-.5-1.2-.5l-10.3.2v-1l10.3-.2c.7 0 1.4.2 1.9.7.5.5.8 1.1.8 1.8v11c0 .9.7 1.6 1.6 1.6h5.1v1.2zM133.6 89.3H144v1h-10.4zM7.6 25.9h17v1h-17zM20.8 11.1h15.7v1H20.8z"/><path fill="#F1F2F2" d="M112.8 75.9H93.3c-.8 5.1-1 10.7-5.3 12.8h29.9c-4.2-2.1-4.4-7.7-5.1-12.8z"/><path fill="#325163" d="M119 88.9H87l.9-.5c3.6-1.8 4.2-6.2 4.8-10.8.1-.6.2-1.2.2-1.8v-.2h20v.2c.1.6.2 1.2.2 1.8.6 4.6 1.1 9 4.8 10.8l1.1.5zm-30.1-.4H117c-3.2-2.2-3.7-6.5-4.3-10.8-.1-.5-.1-1.1-.2-1.6H93.4c-.1.5-.1 1.1-.2 1.6-.5 4.2-1.1 8.6-4.3 10.8z"/><path fill="#BAC6CE" d="M117.9 88.7c-4.3-2.1-4.4-7.7-5.1-12.8H94l13.7 12.8h10.2z" opacity=".35"/><path fill="#F1F2F2" d="M147 76.1H58.8c-1.9 0-3.4-1.5-3.4-3.4V11.8c0-1.9 1.5-3.4 3.4-3.4H147c1.9 0 3.4 1.5 3.4 3.4v60.8c.1 1.9-1.5 3.5-3.4 3.5z"/><path fill="#325163" d="M147 76.3H58.8c-2 0-3.6-1.6-3.6-3.6V11.8c0-2 1.6-3.6 3.6-3.6H147c2 0 3.6 1.6 3.6 3.6v60.8c.1 2.1-1.5 3.7-3.6 3.7zM58.8 8.7c-1.7 0-3.2 1.4-3.2 3.2v60.8c0 1.7 1.4 3.2 3.2 3.2H147c1.7 0 3.2-1.4 3.2-3.2V11.8c0-1.7-1.4-3.2-3.2-3.2H58.8z"/><path fill="#fff" d="M144.4 65.5H61.5c-.9 0-1.7-.8-1.7-1.7V14.5c0-.9.8-1.7 1.7-1.7h82.9c.9 0 1.7.8 1.7 1.7v49.3c0 .9-.8 1.7-1.7 1.7z"/><path fill="#325163" d="M144.4 65.8H61.5c-1.1 0-2-.9-2-2V14.5c0-1.1.9-2 2-2h82.9c1.1 0 2 .9 2 2v49.3c0 1.1-.9 2-2 2zM61.5 13c-.8 0-1.5.7-1.5 1.5v49.3c0 .8.7 1.5 1.5 1.5h82.9c.8 0 1.5-.7 1.5-1.5V14.5c0-.8-.7-1.5-1.5-1.5H61.5zM62.8 16.7H86v5H62.8z"/><path fill="#E6E7E8" d="M91.6 17.2h50.6v5H91.6z"/><path fill="#DFE9F1" d="M64.2 25.8h77.9v13.6H64.2z"/><path fill="#6593AE" d="M62.8 42.5H86v10.7H62.8zM126.5 2.5h2.4V3h-2.4zM121.8 3h-4.7v-.5h4.7V3zm-9.3 0h-4.7v-.5h4.7V3zm-9.4 0h-4.7v-.5h4.7V3zm-9.3 0h-4.7v-.5h4.7V3zm-9.3 0h-4.7v-.5h4.7V3zm-9.4 0h-4.7v-.5h4.7V3zm-9.3 0h-4.7v-.5h4.7V3zm-9.3 0h-4.7v-.5h4.7V3zm-9.3 0h-4.7v-.5h4.7V3zM35.4 2.5h2.4V3h-2.4zM126.5 69.2h2.4v.5h-2.4zM121.8 69.7h-4.7v-.5h4.7v.5zm-9.3 0h-4.7v-.5h4.7v.5zm-9.4 0h-4.7v-.5h4.7v.5zm-9.3 0h-4.7v-.5h4.7v.5zm-9.3 0h-4.7v-.5h4.7v.5zm-9.4 0h-4.7v-.5h4.7v.5zm-9.3 0h-4.7v-.5h4.7v.5zm-9.3 0h-4.7v-.5h4.7v.5zm-9.3 0h-4.7v-.5h4.7v.5zM35.4 69.2h2.4v.5h-2.4zM124 69.8h.5v2.4h-.5zM124.5 65.3h-.5v-4.5h.5v4.5zm0-9h-.5v-4.5h.5v4.5zm0-9h-.5v-4.5h.5v4.5zm0-9h-.5v-4.5h.5v4.5zm0-8.9h-.5v-4.5h.5v4.5zm0-9h-.5v-4.5h.5v4.5zm0-9h-.5V6.9h.5v4.5zM124 0h.5v2.4h-.5zM39.8 69.8h.5v2.4h-.5zM40.3 65.3h-.5v-4.5h.5v4.5zm0-9h-.5v-4.5h.5v4.5zm0-9h-.5v-4.5h.5v4.5zm0-9h-.5v-4.5h.5v4.5zm0-8.9h-.5v-4.5h.5v4.5zm0-9h-.5v-4.5h.5v4.5zm0-9h-.5V6.9h.5v4.5zM39.8 0h.5v2.4h-.5z"/><path fill="#BAC1C6" d="M65 85H27.1c-1.5 0-2.8-1.2-2.8-2.8V27.5c0-1.5 1.2-2.8 2.8-2.8H65c1.5 0 2.8 1.2 2.8 2.8v54.8c0 1.5-1.3 2.7-2.8 2.7z"/><path fill="#325163" d="M65 85.2H27.1c-1.7 0-3-1.3-3-3V27.5c0-1.7 1.3-3 3-3H65c1.7 0 3 1.3 3 3v54.8c0 1.6-1.3 2.9-3 2.9zM27.1 24.9c-1.4 0-2.5 1.1-2.5 2.5v54.8c0 1.4 1.1 2.5 2.5 2.5H65c1.4 0 2.5-1.1 2.5-2.5V27.5c0-1.4-1.1-2.5-2.5-2.5H27.1z"/><path fill="#fff" d="M26.2 30.6h39.7v48.5H26.2z"/><path fill="#325163" d="M66.2 79.3H26V30.4h40.2v48.9zm-39.8-.5h39.3v-48H26.4v48z"/><path fill="#BAC6CE" d="M67.8 29.2l50.6 46.6H67.8z" opacity=".35"/><path fill="#325163" d="M29.1 33.3h16.3v4.1H29.1z"/><path fill="#E6E7E8" d="M47.2 34.8h16.3v4.1H47.2z"/><path fill="#DFE9F1" d="M29.1 39h16.3v9.3H29.1z"/><path fill="#6593AE" d="M29.1 50.2h34.3v14H29.1z"/><path fill="#BCBEC0" d="M29.1 66.3h34.3v1.5H29.1zM29.1 69.2h34.3v1.5H29.1zM29.1 72h34.3v1.5H29.1zM29.1 74.9h34.3v1.5H29.1z"/><path fill="#DFE9F1" d="M47.2 40.5h16.3v9.3H47.2z"/><path fill="#6593AE" d="M119 43h23.2v10.7H119zM91.6 43h23.2v10.7H91.6z"/><path fill="#BCBEC0" d="M64.2 56.3h77.9V58H64.2zM64.2 59.3h77.9V61H64.2z"/><path fill="#BAC1C6" d="M78.4 93.2H59.3c-.9 0-1.6-.7-1.6-1.6V53.9c0-.9.7-1.6 1.6-1.6h19.1c.9 0 1.6.7 1.6 1.6v37.7c.1.9-.7 1.6-1.6 1.6z"/><path fill="#325163" d="M78.4 93.5H59.3c-1 0-1.9-.8-1.9-1.9V53.9c0-1 .8-1.9 1.9-1.9h19.1c1 0 1.9.8 1.9 1.9v37.7c0 1-.8 1.9-1.9 1.9zm-19.1-41c-.8 0-1.4.6-1.4 1.4v37.7c0 .8.6 1.4 1.4 1.4h19.1c.8 0 1.4-.6 1.4-1.4V53.9c0-.8-.6-1.4-1.4-1.4H59.3z"/><path fill="#fff" d="M59.8 58.2H78v29.1H59.8z"/><path fill="#325163" d="M78.2 87.5H59.6V58h18.6v29.5zM60 87.1h17.7V58.5H60v28.6zM61.2 59.7h15.7v2.4H61.2z"/><path fill="#BCBEC0" d="M61.2 82.3h15.7v1.2H61.2zM61.2 84.7h15.7v1.2H61.2z"/><path fill="#DFE9F1" d="M61.2 63.3h15.7v4.8H61.2z"/><path fill="#6593AE" d="M61.2 69.3h15.7v11.8H61.2z"/></svg>