<svg xmlns="http://www.w3.org/2000/svg" xmlns:xlink="http://www.w3.org/1999/xlink" viewBox="0 0 359.7 199.6" enable-background="new 0 0 359.7 199.6"><path fill="#fff" d="M41.5 149.2H20.9c-2.4 0-4.3-1.9-4.3-4.3V90.6c0-1.3-1-2.3-2.3-2.3H0v-2h14.2c2.4 0 4.3 1.9 4.3 4.3v54.3c0 1.3 1.1 2.3 2.3 2.3h20.6c1.3 0 2.3-1 2.3-2.3v-18.5c0-2.4 1.9-4.3 4.3-4.3h231.1c1.3 0 2.3-1.1 2.3-2.3v-24c0-2.4 1.9-4.3 4.3-4.3 1.3 0 2.3-1 2.3-2.3v-50c0-2.4 1.9-4.3 4.3-4.3h37.6c2.4 0 4.3 1.9 4.3 4.3v36c0 1.3 1 2.3 2.3 2.3h22.7v2h-22.7c-2.4 0-4.3-1.9-4.3-4.3v-36c0-1.3-1.1-2.3-2.3-2.3h-37.6c-1.3 0-2.3 1.1-2.3 2.3V89c0 2.4-1.9 4.3-4.3 4.3-1.3 0-2.3 1.1-2.3 2.3v24c0 2.4-1.9 4.3-4.3 4.3H48.2c-1.3 0-2.3 1-2.3 2.3v18.5c0 2.6-2 4.5-4.4 4.5"/><path fill="#fff" d="M273 199.6h-10.8c-3 0-5.4-2.4-5.4-5.4v-23.1c0-.9-.4-1.8-1-2.4-.7-.6-1.5-1-2.5-1l-21.6.5v-2l21.6-.5c1.5 0 2.9.5 3.9 1.5 1.1 1 1.6 2.4 1.6 3.9v23.1c0 1.9 1.5 3.4 3.4 3.4H273v2zm6.6-12.7h21.8v2h-21.8zM15.8 54.2h35.6v2H15.8zm27.6-31.1h32.8v2H43.4z"/><path fill="#F1F2F2" d="M236 158.8h-41c-1.5 10.7-1.8 22.4-10.8 26.8h62.6c-8.9-4.5-9.3-16.1-10.8-26.8"/><path fill="#325163" d="M248.9 186.1h-66.8l1.9-.9c7.6-3.8 8.8-13 10-22.7.2-1.3.3-2.5.5-3.8l.1-.4h41.9l.1.4c.2 1.3.3 2.5.5 3.8 1.2 9.7 2.4 18.8 10 22.7l1.8.9zm-62.8-1H245c-6.7-4.5-7.8-13.6-8.9-22.5-.1-1.1-.3-2.2-.4-3.3h-40.2c-.2 1.1-.3 2.2-.4 3.3-1.2 8.9-2.4 18-9 22.5"/><g opacity=".35"><defs><path id="a" d="M196.5 158.8h50.3v26.8h-50.3z"/></defs><clipPath id="b"><use xlink:href="#a" overflow="visible"/></clipPath><path fill="#BAC6CE" d="M246.8 185.6c-8.9-4.5-9.3-16.1-10.8-26.8h-39.5l28.8 26.8h21.5z" clip-path="url(#b)"/></g><path fill="#F1F2F2" d="M307.7 159.2H123.1c-3.9 0-7.1-3.2-7.1-7.1V24.7c0-3.9 3.2-7.1 7.1-7.1h184.6c3.9 0 7.1 3.2 7.1 7.1V152c0 3.9-3.2 7.2-7.1 7.2"/><path fill="#325163" d="M307.7 159.7H123.1c-4.2 0-7.6-3.4-7.6-7.6V24.7c0-4.2 3.4-7.6 7.6-7.6h184.6c4.2 0 7.6 3.4 7.6 7.6V152c0 4.2-3.4 7.7-7.6 7.7M123.1 18.1c-3.7 0-6.6 3-6.6 6.6V152c0 3.7 3 6.6 6.6 6.6h184.6c3.7 0 6.6-3 6.6-6.6V24.7c0-3.7-3-6.6-6.6-6.6H123.1z"/><path fill="#fff" d="M302.1 137.1H128.6c-2 0-3.6-1.6-3.6-3.6V30.4c0-2 1.6-3.6 3.6-3.6h173.5c2 0 3.6 1.6 3.6 3.6v103.1c0 2-1.6 3.6-3.6 3.6"/><path fill="#325163" d="M302.1 137.6H128.6c-2.3 0-4.1-1.8-4.1-4.1V30.4c0-2.3 1.8-4.1 4.1-4.1h173.5c2.3 0 4.1 1.8 4.1 4.1v103.1c0 2.2-1.8 4.1-4.1 4.1M128.6 27.3c-1.7 0-3.1 1.4-3.1 3.1v103.1c0 1.7 1.4 3.1 3.1 3.1h173.5c1.7 0 3.1-1.4 3.1-3.1V30.4c0-1.7-1.4-3.1-3.1-3.1H128.6zm2.7 7.7h48.5v10.5h-48.5z"/><path fill="#E6E7E8" d="M191.6 36h105.8v10.5H191.6z"/><path fill="#DFEAF1" d="M134.3 54h163.1v28.4H134.3z"/><path fill="#6593AE" d="M131.3 88.9h48.5v22.4h-48.5zM264.6 5.2h5v1h-5zm-9.7 1h-9.8v-1h9.8v1zm-19.6 0h-9.8v-1h9.8v1zm-19.5 0H206v-1h9.8v1zm-19.5 0h-9.8v-1h9.8v1zm-19.5 0H167v-1h9.8v1zm-19.6 0h-9.8v-1h9.8v1zm-19.5 0H128v-1h9.8v1zm-19.5 0h-9.8v-1h9.8v1zm-19.5 0h-9.8v-1h9.8v1zm-24.6-1h5v1h-5zm190.5 139.6h5v1h-5zm-9.7 1h-9.8v-1h9.8v1zm-19.6 0h-9.8v-1h9.8v1zm-19.5 0H206v-1h9.8v1zm-19.5 0h-9.8v-1h9.8v1zm-19.5 0H167v-1h9.8v1zm-19.6 0h-9.8v-1h9.8v1zm-19.5 0H128v-1h9.8v1zm-19.5 0h-9.8v-1h9.8v1zm-19.5 0h-9.8v-1h9.8v1zm-24.6-1h5v1h-5zm185.3 1.2h1v5h-1zm1-9.4h-1v-9.4h1v9.4zm0-18.8h-1v-9.4h1v9.4zm0-18.8h-1v-9.4h1V99zm0-18.8h-1v-9.4h1v9.4zm0-18.8h-1V52h1v9.4zm0-18.8h-1v-9.4h1v9.4zm0-18.8h-1v-9.4h1v9.4zm-1-23.8h1v5h-1zM83.3 146h1v5h-1zm1-9.4h-1v-9.4h1v9.4zm0-18.8h-1v-9.4h1v9.4zm0-18.8h-1v-9.4h1V99zm0-18.8h-1v-9.4h1v9.4zm0-18.8h-1V52h1v9.4zm0-18.8h-1v-9.4h1v9.4zm0-18.8h-1v-9.4h1v9.4zM83.3 0h1v5h-1z"/><path fill="#BAC1C6" d="M136 177.8H56.8c-3.2 0-5.8-2.6-5.8-5.8V57.5c0-3.2 2.6-5.8 5.8-5.8H136c3.2 0 5.8 2.6 5.8 5.8v114.6c0 3.1-2.6 5.7-5.8 5.7"/><path fill="#325163" d="M136 178.3H56.8c-3.5 0-6.3-2.8-6.3-6.3V57.5c0-3.5 2.8-6.3 6.3-6.3H136c3.5 0 6.3 2.8 6.3 6.3v114.6c0 3.4-2.8 6.2-6.3 6.2M56.8 52.2c-2.9 0-5.3 2.4-5.3 5.3v114.6c0 2.9 2.4 5.3 5.3 5.3H136c2.9 0 5.3-2.4 5.3-5.3V57.5c0-2.9-2.4-5.3-5.3-5.3H56.8z"/><path fill="#fff" d="M54.8 64.1h83.1v101.4H54.8z"/><path fill="#325163" d="M138.5 166H54.3V63.6h84.1V166zm-83.2-1h82.1V64.6H55.3V165z"/><g opacity=".35"><defs><path id="c" d="M141.8 61.2h105.9v97.3H141.8z"/></defs><clipPath id="d"><use xlink:href="#c" overflow="visible"/></clipPath><path fill="#BAC6CE" d="M141.8 61.2l105.9 97.3H141.8z" clip-path="url(#d)"/></g><path fill="#325163" d="M60.9 69.7h34v8.5h-34z"/><path fill="#E6E7E8" d="M98.7 72.7h34v8.5h-34z"/><path fill="#DFEAF1" d="M60.9 81.7h34v19.4h-34z"/><path fill="#6593AE" d="M60.9 105.1h71.8v29.4H60.9z"/><path fill="#BCBEC0" d="M60.9 138.8h71.8v3.2H60.9zm0 6h71.8v3.2H60.9zm0 6h71.8v3.2H60.9zm0 6h71.8v3.2H60.9z"/><path fill="#DFEAF1" d="M98.7 84.7h34v19.4h-34z"/><path fill="#6593AE" d="M248.9 89.9h48.5v22.4h-48.5zm-57.3 0h48.5v22.4h-48.5z"/><path fill="#BCBEC0" d="M134.3 117.8h163.1v3.5H134.3zm0 6.3h163.1v3.5H134.3z"/><path fill="#BAC1C6" d="M164.1 195.1H124c-1.9 0-3.4-1.5-3.4-3.4v-78.8c0-1.9 1.5-3.4 3.4-3.4h40.1c1.9 0 3.4 1.5 3.4 3.4v78.8c.1 1.8-1.5 3.4-3.4 3.4"/><path fill="#325163" d="M164.1 195.6H124c-2.2 0-3.9-1.8-3.9-3.9v-78.8c0-2.2 1.8-3.9 3.9-3.9h40.1c2.2 0 3.9 1.8 3.9 3.9v78.8c.1 2.1-1.7 3.9-3.9 3.9m-40-85.7c-1.6 0-2.9 1.3-2.9 2.9v78.8c0 1.6 1.3 2.9 2.9 2.9h40.1c1.6 0 2.9-1.3 2.9-2.9v-78.8c0-1.6-1.3-2.9-2.9-2.9h-40.1z"/><path fill="#fff" d="M125.1 121.8h38v60.9h-38z"/><path fill="#325163" d="M163.6 183.2h-39v-61.9h39v61.9zm-38-1h37v-59.9h-37v59.9zm2.4-57.3h32.8v5.1H128z"/><path fill="#BCBEC0" d="M128 172.2h32.8v2.5H128zm0 5h32.8v2.5H128z"/><path fill="#DFEAF1" d="M128 132.4h32.8v10H128z"/><path fill="#6593AE" d="M128 145h32.8v24.7H128z"/></svg>