<svg xmlns="http://www.w3.org/2000/svg" viewBox="0 0 359.7 203.6" enable-background="new 0 0 359.7 203.6"><path fill="#DFEAF1" d="M35 68.2h54.7v2H35zM67 158H29.4c-2.4 0-4.3-1.9-4.3-4.3v-36c0-1.3-1-2.3-2.3-2.3H0v-2h22.7c2.4 0 4.3 1.9 4.3 4.3v36c0 1.3 1 2.3 2.3 2.3H67c1.3 0 2.3-1 2.3-2.3v-49.8c0-2.4 1.9-4.3 4.3-4.3 1.3 0 2.3-1 2.3-2.3v-24c0-2.4 1.9-4.3 4.3-4.3h231.1c1.3 0 2.3-1 2.3-2.3V48c0-2.4 1.9-4.3 4.3-4.3h20.6c2.4 0 4.3 1.9 4.3 4.3v54.3c0 1.3 1 2.3 2.3 2.3h14.2v2h-14.2c-2.4 0-4.3-1.9-4.3-4.3V48c0-1.3-1-2.3-2.3-2.3h-20.6c-1.3 0-2.3 1.1-2.3 2.3v18.5c0 2.4-1.9 4.3-4.3 4.3H80.4c-1.3 0-2.3 1.1-2.3 2.3v24c0 2.4-1.9 4.3-4.3 4.3-1.3 0-2.3 1.1-2.3 2.3v49.8c-.1 2.5-2.1 4.5-4.5 4.5"/><path fill="#DFEAF1" d="M312 140h21.8v2H312zM10 13.6h30.6v2H10zM285.4 164h24.9v2h-24.9zm-45.9 37.6h54.7v2h-54.7zM43.7 186h54.7v2H43.7zM266.9 0h50.4v2h-50.4z"/><path fill="#F1F2F2" d="M84.8 6.6h187.6v187.6H84.8z"/><path fill="#6593AE" d="M84.8 6.6h187.6v9.1H84.8z"/><path fill="#BCBEC0" d="M187.7 19.1h-51.1l-1-9.1h51.1z"/><path fill="#D1D3D4" d="M136 14.5V10H84.8v10.9h187.6v-6.4z"/><path fill="#fff" d="M101 16.4h156.2v2.7H101z"/><path fill="#939598" d="M89.2 16.4h2.7v2.7h-2.7zm5.2 0h2.7v2.7h-2.7zm166.8 0h2.7v2.7h-2.7zm5.1 0h2.7v2.7h-2.7z"/><path fill="#58595B" d="M101 20.9h156.2v15.9H101z"/><path fill="#D1D3D4" d="M101 36.8h156.2v9.1H101z"/><path fill="#DFEAF1" d="M105.2 24.8H143V33h-37.8z"/><path fill="#fff" d="M175.8 27.3h26.7v3.1h-26.7zm31 0h26.7v3.1h-26.7z"/><path fill="#DFEAF1" d="M237.8 27.3h13.1v3.1h-13.1z"/><path fill="#58595B" d="M105.2 40.6h14.7v1.5h-14.7zm20-4.5h14.7v9.7h-14.7zm19.9 4.5h14.7v1.5h-14.7zm19.9 0h14.7v1.5H165zm20 0h14.7v1.5H185z"/><path fill="#E6E7E8" d="M101 45.8h156.2v148.3H101z"/><path fill="#fff" d="M101 53.2h156.2v52.4H101z"/><path fill="#58595B" d="M101 178.2h156.2v16.3H101zm0-117h53.9v36.4H101z"/><path fill="#C3D1D8" d="M109.6 67.1h36.7v10.1h-36.7z"/><path fill="#F1F2F2" d="M109.6 80.1h36.7v2.1h-36.7zm0 4.6h36.7v2.1h-36.7zm0 4.6h19.3v2.1h-19.3z"/><path fill="#58595B" d="M179.8 61.2h33.5v3.5h-33.5z"/><path fill="#6593AE" d="M217.2 61.2H250v24.6h-32.8z"/><path fill="#fff" d="M101 113.7h44.2V178H101z"/><path fill="#C3D1D8" d="M113.1 124.7h19.5v20.2h-19.5z"/><path fill="#58595B" d="M106.6 153.8H139v3.7h-32.4z"/><path fill="#F1F2F2" d="M106.6 159.5H139v1.8h-32.4zm0 3.7H139v1.8h-32.4zm4.1 3.6H135v1.8h-24.3z"/><path fill="#fff" d="M157 113.7h44.2V178H157z"/><path fill="#6593AE" d="M169.1 124.7h19.4v20.2h-19.4z"/><path fill="#58595B" d="M162.6 153.8H195v3.7h-32.4z"/><path fill="#F1F2F2" d="M162.6 159.5H195v1.8h-32.4zm0 3.7H195v1.8h-32.4zm4.1 3.6H191v1.8h-24.3zM122 184.2h19.1v1.1H122zm0 2.2h19.1v1.1H122zm2.4 2.3h14.2v1.1h-14.2zm29.3-4.5h19.1v1.1h-19.1zm0 2.2h19.1v1.1h-19.1zm2.4 2.3h14.2v1.1h-14.2zm29.4-4.5h19.1v1.1h-19.1zm0 2.2h19.1v1.1h-19.1zm2.4 2.3h14.2v1.1h-14.2zm29.3-4.5h19.1v1.1h-19.1zm0 2.2h19.1v1.1h-19.1zm2.4 2.3h14.2v1.1h-14.2z"/><path fill="#fff" d="M213 113.7h44.2V178H213z"/><path fill="#C3D1D8" d="M225.1 124.7h19.4v20.2h-19.4z"/><path fill="#58595B" d="M218.6 153.8H251v3.7h-32.4z"/><path fill="#F1F2F2" d="M218.6 159.5H251v1.8h-32.4zm0 3.7H251v1.8h-32.4zm4.1 3.6H247v1.8h-24.3z"/><path fill="#58595B" d="M179.8 89.3H250v8.3h-70.2z"/><path fill="#F1F2F2" d="M179.8 73.1h33.5v2.4h-33.5zm0-5.2h33.5v2.4h-33.5zm0 10.3h33.5v2.4h-33.5zm0 5.2h17.6v2.4h-17.6z"/><path fill="#325163" d="M272.9 194.7H84.3V6.1h188.6v188.6zm-187.6-1h186.6V7.1H85.3v186.6z"/></svg>