<svg xmlns="http://www.w3.org/2000/svg" width="24" height="13.6" viewBox="0 11.2 24 13.6" enable-background="new 0 11.2 24 13.6"><path fill="#fff" d="M2.3 15.8H6v.1H2.3v-.1zm2.2 5.9H2c-.2 0-.3-.1-.3-.3V19c0-.1-.1-.2-.2-.2H0v-.1h1.5c.2 0 .3.1.3.3v2.4c0 .1.1.2.2.2h2.5c.1 0 .2-.1.2-.2v-3.3c0-.2.1-.3.3-.3.1 0 .2-.1.2-.2V16c0-.2.1-.3.3-.3h15.4c.1 0 .2-.1.2-.2v-1.2c0-.2.1-.3.3-.3h1.4c.2 0 .3.1.3.3V18c0 .1.1.2.2.2h.7v.1h-1c-.2 0-.3-.1-.3-.3v-3.6c0-.1-.1-.2-.2-.2h-1.4c-.1 0-.2.1-.2.2v1.2c0 .2-.1.3-.3.3H5.4c-.1 0-.2.1-.2.2v1.6c0 .2-.1.3-.3.3-.1 0-.2.1-.2.2v3.3c.1.1-.1.2-.2.2"/><path fill="#fff" d="M20.8 20.5h1.5v.1h-1.5v-.1zM.7 12.1h2v.1h-2v-.1zM19 22.2h1.7v.1H19v-.1zm-3 2.5h3.6v.1H16v-.1zM2.9 23.6h3.6v.1H2.9v-.1zm14.9-12.4h3.4v.1h-3.4v-.1z"/><path fill="#F1F2F2" d="M5.7 11.6h12.5v12.5H5.7V11.6z"/><path fill="#6593AE" d="M5.7 11.6h12.5v.6H5.7v-.6z"/><path fill="#BCBEC0" d="M12.5 12.5H9.1l-.1-.6h3.4l.1.6z"/><path fill="#D1D3D4" d="M9.1 12.2v-.3H5.7v.7h12.5v-.4H9.1z"/><path fill="#fff" d="M6.7 12.3h10.4v.2H6.7v-.2z"/><path fill="#939598" d="M6 12.3h.2v.2H6v-.2zm.3 0h.2v.2h-.2v-.2zm11.1 0h.2v.2h-.2v-.2zm.4 0h.2v.2h-.2v-.2z"/><path fill="#58595B" d="M6.7 12.6h10.4v1.1H6.7v-1.1z"/><path fill="#D1D3D4" d="M6.7 13.7h10.4v.6H6.7v-.6z"/><path fill="#DFEAF1" d="M7 12.9h2.5v.5H7v-.5z"/><path fill="#fff" d="M11.7 13h1.8v.2h-1.8V13zm2.1 0h1.8v.2h-1.8V13z"/><path fill="#DFEAF1" d="M15.9 13h.9v.2h-.9V13z"/><path fill="#58595B" d="M7 13.9h1v.1H7v-.1zm1.4-.3h1v.6h-1v-.6zm1.3.3h1v.1h-1v-.1zm1.3 0h1v.1h-1v-.1zm1.3 0h1v.1h-1v-.1z"/><path fill="#E6E7E8" d="M6.7 14.3h10.4v9.9H6.7v-9.9z"/><path fill="#fff" d="M6.7 14.8h10.4v3.5H6.7v-3.5z"/><path fill="#58595B" d="M6.7 23.1h10.4v1.1H6.7v-1.1zm0-7.8h3.6v2.4H6.7v-2.4z"/><path fill="#C3D1D8" d="M7.3 15.7h2.4v.7H7.3v-.7z"/><path fill="#F1F2F2" d="M7.3 16.6h2.4v.1H7.3v-.1zm0 .3h2.4v.1H7.3v-.1zm0 .3h1.3v.1H7.3v-.1z"/><path fill="#58595B" d="M12 15.3h2.2v.2H12v-.2z"/><path fill="#6593AE" d="M14.5 15.3h2.2v1.6h-2.2v-1.6z"/><path fill="#fff" d="M6.7 18.8h2.9v4.3H6.7v-4.3z"/><path fill="#C3D1D8" d="M7.5 19.5h1.3v1.3H7.5v-1.3z"/><path fill="#58595B" d="M7.1 21.5h2.2v.2H7.1v-.2z"/><path fill="#F1F2F2" d="M7.1 21.8h2.2v.2H7.1v-.2zm0 .3h2.2v.1H7.1v-.1zm.3.2H9v.1H7.4v-.1z"/><path fill="#fff" d="M10.5 18.8h2.9v4.3h-2.9v-4.3z"/><path fill="#6593AE" d="M11.3 19.5h1.3v1.3h-1.3v-1.3z"/><path fill="#58595B" d="M10.8 21.5H13v.2h-2.2v-.2z"/><path fill="#F1F2F2" d="M10.8 21.8H13v.2h-2.2v-.2zm0 .3H13v.1h-2.2v-.1zm.3.2h1.6v.1h-1.6v-.1zm-3 1.2h1.3v.1l-1.3-.1zm0 .1h1.3v.1l-1.3-.1zm.2.2h.9v.1l-.9-.1zm2-.3h1.3v.1l-1.3-.1zm0 .1h1.3v.1l-1.3-.1zm.1.2h.9v.1l-.9-.1zm2-.3h1.3v.1l-1.3-.1zm0 .1h1.3v.1l-1.3-.1zm.1.2h.9v.1l-.9-.1zm2-.3h1.3v.1l-1.3-.1zm0 .1h1.3v.1l-1.3-.1zm.2.2h.9v.1l-.9-.1z"/><path fill="#fff" d="M14.2 18.8h2.9v4.3h-2.9v-4.3z"/><path fill="#C3D1D8" d="M15 19.5h1.3v1.3H15v-1.3z"/><path fill="#58595B" d="M14.6 21.5h2.2v.2h-2.2v-.2z"/><path fill="#F1F2F2" d="M14.6 21.8h2.2v.2h-2.2v-.2zm0 .3h2.2v.1h-2.2v-.1zm.3.2h1.6v.1h-1.6v-.1z"/><path fill="#58595B" d="M12 17.2h4.7v.6H12v-.6z"/><path fill="#F1F2F2" d="M12 16.1h2.2v.2H12v-.2zm0-.4h2.2v.2H12v-.2zm0 .7h2.2v.2H12v-.2zm0 .4h1.2v.2H12v-.2z"/><path fill="#325163" d="M18.2 24.2H5.6V11.6h12.6s0 12.6 0 12.6zm-12.5-.1h12.5V11.7H5.7s0 12.4 0 12.4z"/></svg>