<svg xmlns="http://www.w3.org/2000/svg" viewBox="0 0 359.7 208.3" enable-background="new 0 0 359.7 208.3"><path fill="#DFEAF1" d="M72.6 38.1c-.6 0-1.3-.1-2-.2H38c-6.3 0-11.5-5.1-11.5-11.5 0-4.2 2.2-7.9 5.8-9.9 0-.1 0-.1 0-.2 0-5.5 4.4-9.9 9.9-9.9.5 0 1 0 1.5.1C46.4 2.4 50.9 0 55.8 0c7.4 0 13.5 5.5 14.5 12.6.8-.1 1.5-.2 2.3-.2 7.1 0 12.8 5.8 12.8 12.8 0 7.1-5.8 12.9-12.8 12.9M42.2 8.4c-4.4 0-7.9 3.5-7.9 7.9 0 .2 0 .5 0 .7l.1.7-.6.3c-3.2 1.6-5.3 4.9-5.3 8.5 0 5.2 4.2 9.5 9.5 9.5h32.9c.6.1 1.2.2 1.7.2 6 0 10.8-4.9 10.8-10.8s-4.9-10.8-10.8-10.8c-1 0-1.9.1-2.9.4l-1.2.3-.1-1.2C68 7.2 62.5 2 55.8 2 51.4 2 47.3 4.3 45 8.1l-.4.6-.7-.2c-.6 0-1.1-.1-1.7-.1m265.4 120c-4.9 0-9-4-9-9 0-4.9 4-9 9-9 .4 0 .8 0 1.3.1.8-4.8 5-8.5 10-8.5 3.4 0 6.4 1.6 8.4 4.4 4.2-.5 7.8 2.8 7.8 6.9 2.4 1.5 3.9 4 3.9 6.9 0 4.4-3.6 8.1-8.1 8.1h-22c-.4 0-.8.1-1.3.1m0-16c-3.8 0-7 3.1-7 7s3.1 7 7 7c.3 0 .7 0 1.1-.1H331c3.3 0 6.1-2.7 6.1-6.1 0-2.3-1.3-4.4-3.4-5.4l-.6-.3.1-.7c0-.1 0-.3 0-.4 0-3.1-2.9-5.6-6.1-4.9l-.7.2-.4-.6c-1.5-2.5-4.1-4-7-4-4.3 0-7.9 3.4-8.2 7.7l-.1 1.2-1.2-.3c-.6-.2-1.3-.3-1.9-.3M41.5 157H20.9c-2.4 0-4.3-1.9-4.3-4.3V98.4c0-1.3-1.1-2.3-2.3-2.3H0v-2h14.2c2.4 0 4.3 1.9 4.3 4.3v54.3c0 1.3 1 2.3 2.3 2.3h20.6c1.3 0 2.3-1.1 2.3-2.3v-18.5c0-2.4 1.9-4.3 4.3-4.3h231.1c1.3 0 2.3-1 2.3-2.3v-24c0-2.4 1.9-4.3 4.3-4.3 1.3 0 2.3-1 2.3-2.3V47.1c0-2.4 1.9-4.3 4.3-4.3h37.6c2.4 0 4.3 1.9 4.3 4.3v36c0 1.3 1 2.3 2.3 2.3h22.7v2h-22.7c-2.4 0-4.3-1.9-4.3-4.3v-36c0-1.3-1-2.3-2.3-2.3h-37.6c-1.3 0-2.3 1.1-2.3 2.3v49.8c0 2.4-1.9 4.3-4.3 4.3-1.3 0-2.3 1.1-2.3 2.3v24c0 2.4-1.9 4.3-4.3 4.3H48.2c-1.3 0-2.3 1.1-2.3 2.3v18.5c0 2.5-2 4.4-4.4 4.4m71.3-118.3c-1.4 0-2.8-.5-3.8-1.5-1.1-1-1.6-2.4-1.6-3.9V10.2c0-1.9-1.5-3.4-3.4-3.4H93.2v-2H104c3 0 5.4 2.4 5.4 5.4v23.1c0 .9.4 1.8 1 2.4.7.6 1.5 1 2.5 1l21.6-.5v2l-21.6.5s-.1 0-.1 0"/><path fill="#DFEAF1" d="M290.8 11.7h37.8v2h-37.8zM57.6 88h21.8v2H57.6zM9.4 61.4h24.9v2H9.4zM161.3 4.8H216v2h-54.7zm162 165.5h21.8v2h-21.8zM249.4 33.6h21.8v2h-21.8zm-60.8 75.9H238v2h-49.4zm-83.7 38h49.4v2h-49.4zm-9.1 58.8h55.8v2H95.8zm95.4-23.9h30.1v2h-30.1zm-173 3.2H40v2H18.2zm277.8 3.1h32.8v2H296z"/><path fill="#6593AE" d="M178.6 82.1v84.5"/><path fill="#325163" d="M177.1 82.1h3v84.5h-3z"/><path fill="#6593AE" d="M80 124.3v42.3"/><path fill="#325163" d="M78.5 124.3h3v42.3h-3z"/><path fill="#6593AE" d="M277.3 124.3v42.3"/><path fill="#325163" d="M275.8 124.3h3v42.3h-3z"/><path fill="#6593AE" d="M85.4 124.8h186.4"/><path fill="#325163" d="M85.4 123.3h186.4v3H85.4z"/><path fill="#6593AE" d="M74.5 119.4h10.9v10.9H74.5z"/><path fill="#325163" d="M85.9 130.8H74v-11.9h11.9v11.9zm-10.9-1h9.9v-9.9H75v9.9z"/><path fill="#6593AE" d="M173.2 119.4h10.9v10.9h-10.9z"/><path fill="#325163" d="M184.6 130.8h-11.9v-11.9h11.9v11.9zm-10.9-1h9.9v-9.9h-9.9v9.9z"/><path fill="#6593AE" d="M271.8 119.4h10.9v10.9h-10.9z"/><path fill="#325163" d="M283.2 130.8h-11.9v-11.9h11.9v11.9zm-10.9-1h9.9v-9.9h-9.9v9.9z"/><path fill="#6593AE" d="M222.9 90h-88.6V27.9H210l12.9 12.9z"/><path fill="#325163" d="M223.4 90.5h-89.6V27.4h76.4l13.2 13.2v49.9zm-88.6-1h87.6V41l-12.6-12.6h-75v61.1z"/><path fill="#fff" d="M222.3 40.6h-12.1V28.5z"/><path fill="#325163" d="M223.5 41.1h-13.8V27.3l13.8 13.8zm-12.8-1h10.4l-10.4-10.4v10.4z"/><path fill="#fff" d="M146.2 42.8h45.9v3h-45.9zm0 9.8h64.9v3h-64.9zm0 9.8h64.9v3h-64.9zm0 9.8h64.9v3h-64.9z"/><path fill="#F1F2F2" d="M51.1 159.8h57.7v37.5H51.1z"/><path fill="#325163" d="M109.3 197.8H50.6v-38.5h58.7v38.5zm-57.7-1h56.7v-36.5H51.6v36.5z"/><path fill="#F1F2F2" d="M149.8 159.8h57.7v37.5h-57.7z"/><path fill="#325163" d="M208 197.8h-58.7v-38.5H208v38.5zm-57.7-1H207v-36.5h-56.7v36.5z"/><path fill="#F1F2F2" d="M248.4 159.8h57.7v37.5h-57.7z"/><path fill="#325163" d="M306.7 197.8H248v-38.5h58.7v38.5zm-57.8-1h56.7v-36.5h-56.7v36.5z"/></svg>