<svg xmlns="http://www.w3.org/2000/svg" width="24" height="13.9" viewBox="0 11.1 24 13.9" enable-background="new 0 11.1 24 13.9"><g fill="#fff"><path d="M7.2 11.7v1.5c0 .1 0 .2.1.3.1.1.2.1.3.1H9v-.1H7.6c-.1 0-.1 0-.2-.1 0 0-.1-.1-.1-.2v-1.5c0-.2-.2-.4-.4-.4h-.7v.1h.7c.2.1.3.2.3.3zM2.5 13.6h2.2s.1 0 .1 0c.5 0 .9-.4.9-.9s-.4-.9-.9-.9c-.1 0-.1 0-.2 0-.1-.5-.5-.8-1-.8-.3 0-.6.2-.8.4 0 0-.1 0-.1 0-.4 0-.7.3-.7.7-.2.1-.4.4-.4.7.2.4.5.8.9.8zm-.2-1.3c0-.1 0-.1 0-.1 0-.3.2-.5.5-.5 0 0 .1 0 .1 0 .2-.3.4-.4.7-.4.4 0 .8.3.8.8v.1h.1c.1 0 .1 0 .2 0 .4 0 .7.3.7.7 0 .4-.3.7-.7.7 0 0-.1 0-.1 0H2.5c-.4 0-.6-.3-.6-.6 0-.4.1-.6.4-.7zM20.6 19.6h1.5c.3 0 .5-.2.5-.5 0-.2-.1-.4-.3-.5 0-.3-.2-.5-.5-.5-.1-.2-.3-.3-.6-.3s-.6.2-.7.6c0 0-.1 0-.1 0-.3 0-.6.3-.6.6.1.4.4.6.8.6zm-.5-.6c0-.3.2-.5.5-.5 0 0 .1 0 .1 0h.1v-.1c0-.3.3-.5.5-.5s.4.1.5.3c.2 0 .4.1.4.3.1.1.2.2.2.4s-.2.4-.4.4h-1.5s-.1 0-.1 0c-.1.2-.3 0-.3-.3zM22.5 16.7c-.1 0-.2-.1-.2-.2v-2.4c0-.2-.1-.3-.3-.3h-2.5c-.2 0-.3.1-.3.3v3.3c0 .1-.1.2-.2.2-.2 0-.3.1-.3.3v1.6c0 .1-.1.2-.2.2H3.2c-.2 0-.3.1-.3.3v1.2c0 .1-.1.2-.2.2H1.4c-.1 0-.2-.1-.2-.2v-3.6c0-.2-.1-.3-.3-.3H0v.1h1c.1 0 .2.1.2.2v3.6c0 .2.1.3.3.3h1.4c.2 0 .3-.1.3-.3V20c0-.1.1-.2.2-.2h15.4c.2 0 .3-.1.3-.3V18c0-.1.1-.2.2-.2.2 0 .3-.1.3-.3v-3.3c0-.1.1-.2.2-.2H22c.1 0 .2.1.2.2v2.4c0 .2.1.3.3.3H24v-.1h-1.5zM12.6 18.4h3.3v.1h-3.3zM10.8 11.4h3.6v.1h-3.6zM21.6 22.4h1.5v.1h-1.5zM19.4 11.8h2.5v.1h-2.5zM16.6 13.3h1.5v.1h-1.5zM12.8 23.2h2v.1h-2zM7 20.9h3.3v.1H7zM6.4 24.8h3.7v.1H6.4zM19.7 23.6h2.2v.1h-2.2zM1.2 23.4h1.5v.1H1.2zM3.8 16.9h1.5v.1H3.8zM.6 15.1h1.7v.1H.6z"/></g><path fill="#6593AE" d="M11.9 16.5v5.6"/><path fill="#325163" d="M11.8 16.5h.2v5.6h-.2v-5.6z"/><path fill="#6593AE" d="M5.3 19.3v2.8"/><path fill="#325163" d="M5.2 19.3h.2v2.8h-.2v-2.8z"/><path fill="#6593AE" d="M18.5 19.3v2.8"/><path fill="#325163" d="M18.4 19.3h.2v2.8h-.2v-2.8z"/><path fill="#6593AE" d="M5.7 19.4h12.4"/><path fill="#325163" d="M5.7 19.3h12.4v.2H5.7v-.2z"/><path fill="#6593AE" d="M5 19h.7v.7H5V19z"/><path fill="#325163" d="M5.7 19.8h-.8V19h.8v.8zm-.7-.1h.7V19H5v.7z"/><path fill="#6593AE" d="M11.6 19h.7v.7h-.7V19z"/><path fill="#325163" d="M12.3 19.8h-.8V19h.8v.8zm-.7-.1h.7V19h-.7v.7z"/><path fill="#6593AE" d="M18.1 19h.7v.7h-.7V19z"/><path fill="#325163" d="M18.9 19.8h-.8V19h.8v.8zm-.7-.1h.7V19h-.7v.7z"/><path fill="#6593AE" d="M14.9 17.1H9V13h5l.9.9v3.2z"/><path fill="#325163" d="M14.9 17.1h-6v-4.2H14l.9.9s0 3.3 0 3.3zM9 17h5.8v-3.2l-.8-.9H9V17z"/><path fill="#fff" d="M14.8 13.8H14V13l.8.8z"/><path fill="#325163" d="M14.9 13.8H14v-.9l.9.9zm-.8-.1h.7l-.7-.7v.7z"/><path fill="#fff" d="M9.8 13.9h3.1v.2H9.8v-.2zm0 .7h4.3v.2H9.8v-.2zm0 .6h4.3v.2H9.8v-.2zm0 .7h4.3v.2H9.8v-.2z"/><path fill="#F1F2F2" d="M3.4 21.7h3.8v2.5H3.4v-2.5z"/><path fill="#325163" d="M7.3 24.2H3.4v-2.6h3.9v2.6zm-3.9 0h3.8v-2.4H3.4c0-.1 0 2.4 0 2.4z"/><path fill="#F1F2F2" d="M10 21.7h3.8v2.5H10v-2.5z"/><path fill="#325163" d="M13.9 24.2H10v-2.6h3.9v2.6zm-3.9 0h3.8v-2.4H10v2.4z"/><path fill="#F1F2F2" d="M16.6 21.7h3.8v2.5h-3.8v-2.5z"/><path fill="#325163" d="M20.5 24.2h-3.9v-2.6h3.9v2.6zm-3.9 0h3.8v-2.4h-3.8v2.4z"/></svg>