<svg xmlns="http://www.w3.org/2000/svg" viewBox="0 0 359.7 202.3" enable-background="new 0 0 359.7 202.3"><path fill="#DFEAF1" d="M268.6 202.3c-1.4 0-2.8-.5-3.8-1.5-1.1-1-1.6-2.4-1.6-3.9v-23.1c0-1.9-1.5-3.4-3.4-3.4h-10.7v-2h10.7c3 0 5.4 2.4 5.4 5.4v23.1c0 .9.4 1.8 1 2.4.7.6 1.5 1 2.5 1l21.6-.5v2l-21.6.5s0 0-.1 0M67 150.6H29.4c-2.4 0-4.3-1.9-4.3-4.3v-36c0-1.3-1-2.3-2.3-2.3H0v-2h22.7c2.4 0 4.3 1.9 4.3 4.3v36c0 1.3 1 2.3 2.3 2.3H67c1.3 0 2.3-1 2.3-2.3V96.5c0-2.4 1.9-4.3 4.3-4.3 1.3 0 2.3-1 2.3-2.3v-24c0-2.4 1.9-4.3 4.3-4.3h231.1c1.3 0 2.3-1.1 2.3-2.3V40.6c0-2.4 1.9-4.3 4.3-4.3h20.6c2.4 0 4.3 1.9 4.3 4.3v54.3c0 1.3 1 2.3 2.3 2.3h14.2v2h-14.2c-2.4 0-4.3-1.9-4.3-4.3V40.6c0-1.3-1.1-2.3-2.3-2.3h-20.6c-1.3 0-2.3 1-2.3 2.3v18.5c0 2.4-1.9 4.3-4.3 4.3H80.4c-1.3 0-2.3 1-2.3 2.3v24c0 2.4-1.9 4.3-4.3 4.3-1.3 0-2.3 1.1-2.3 2.3v49.8c-.1 2.6-2.1 4.5-4.5 4.5"/><path fill="#DFEAF1" d="M26.2 63.6H48v2H26.2zm47.6 106.8h24.9v2H73.8zM211.2 0h54.7v2h-54.7zm-198 2h54.7v2H13.2zm277.9 105h21.8v2h-21.8zM48.8 196.1h50.4v2H48.8zm261.8-37.8h32.8v2h-32.8z"/><path fill="#C3D1D8" d="M240.8 189.7H117c-3.4 0-6.2-2.8-6.2-6.2V18.6c0-3.4 2.8-6.2 6.2-6.2h123.8c3.4 0 6.2 2.8 6.2 6.2v164.8c0 3.5-2.7 6.3-6.2 6.3"/><path fill="#325163" d="M240.8 190.2H117c-3.7 0-6.7-3-6.7-6.7V18.6c0-3.7 3-6.7 6.7-6.7h123.8c3.7 0 6.7 3 6.7 6.7v164.8c0 3.8-3 6.8-6.7 6.8M117 12.9c-3.2 0-5.7 2.6-5.7 5.7v164.8c0 3.1 2.6 5.7 5.7 5.7h123.8c3.2 0 5.7-2.6 5.7-5.7V18.6c0-3.2-2.6-5.7-5.7-5.7H117z"/><path fill="#fff" d="M125.8 29H232v146.3h-90.7l-15.5-15.4z"/><path fill="#325163" d="M232.5 175.8h-91.4L125.3 160V28.5h107.2v147.3zm-91-1h90V29.5H126.3v130.2l15.2 15.1z"/><path fill="#E6E7E8" d="M126.6 160.1h14.5v14.5z"/><path fill="#325163" d="M141.6 175.8l-16.2-16.2h16.2v16.2zm-13.8-15.2l12.8 12.8v-12.8h-12.8z"/><path fill="#E6E7E8" d="M163.5 63.1h50.6v4.4h-50.6zm0 18.7h50.6v4.4h-50.6zm0 18.7h50.6v4.4h-50.6zm0 18.6h50.6v4.4h-50.6z"/><path fill="#325163" d="M189.5 11.7c0-5.9-4.8-10.7-10.7-10.7-6 0-10.8 4.8-10.8 10.7h-13v7.7h47.6v-7.7h-13.1zm-10.7 2.9c-1.6 0-2.8-1.3-2.8-2.8 0-1.6 1.3-2.8 2.8-2.8 1.6 0 2.8 1.3 2.8 2.8 0 1.5-1.3 2.8-2.8 2.8m24.2 5.3h-48.5v-8.7h13c.3-6 5.2-10.7 11.2-10.7 6 0 11 4.8 11.2 10.7h13v8.7zm-47.5-1H202v-6.7h-13v-.5c0-5.7-4.6-10.2-10.2-10.2-5.7 0-10.2 4.6-10.2 10.2v.5h-13v6.7zm23.3-3.8c-1.8 0-3.3-1.5-3.3-3.3 0-1.8 1.5-3.3 3.3-3.3 1.8 0 3.3 1.5 3.3 3.3 0 1.8-1.5 3.3-3.3 3.3m0-5.7c-1.3 0-2.3 1-2.3 2.3 0 1.3 1 2.3 2.3 2.3 1.3 0 2.3-1 2.3-2.3 0-1.2-1-2.3-2.3-2.3"/><path fill="#BAC1C6" d="M155 19.4h47.5v13.4H155z"/><path fill="#325163" d="M203 33.4h-48.5V18.9H203v14.5zm-47.5-1H202V19.9h-46.5v12.5zm-.5-10.1h47.5v3H155z"/><path fill="#6593AE" d="M144.2 71.7l-6.4-6.5 2.1-2.1 4 4.1 7.4-9.6 2.4 1.8zm0 18.3l-6.4-6.6 2.1-2.1 4 4.1 7.4-9.6 2.4 1.8zm0 18.2l-6.4-6.6 2.1-2.1 4 4.1 7.4-9.6 2.4 1.9zm0 18.2l-6.4-6.6 2.1-2 4 4.1 7.4-9.6 2.4 1.8z"/><path fill="#BCBEC0" d="M247 116.7l9.86-6.68 35.45 52.32-9.83 6.68z"/><path fill="#325163" d="M282.3 169.7l-36-53.2 10.7-7.3 36 53.2-10.7 7.3zm-34.6-52.9l34.9 51.5 9-6.1-34.9-51.5-9 6.1z"/><path fill="#97999C" d="M251.97 113.3l4.97-3.35 35.45 52.32-5 3.37z"/><path fill="#325163" d="M282.3 169.7l-36-53.2 10.7-7.3 36 53.2-10.7 7.3zm-34.6-52.9l34.9 51.5 9-6.1-34.9-51.5-9 6.1z"/><path fill="#6593AE" d="M282.5 169.05l9.86-6.68 5.9 8.7-9.86 6.67z"/><path fill="#325163" d="M288.2 178.4l-6.4-9.5 10.7-7.2 6.4 9.5-10.7 7.2zm-5-9.3l5.3 7.8 9-6.1-5.3-7.8-9 6.1z"/><path fill="#486B7F" d="M287.4 165.7l4.96-3.37 5.88 8.7-4.96 3.35z"/><path fill="#325163" d="M288.2 178.4l-6.4-9.5 10.7-7.2 6.4 9.5-10.7 7.2zm-5-9.3l5.3 7.8 9-6.1-5.3-7.8-9 6.1z"/><path fill="#fff" d="M240 95.6l16.8 14.5-9.7 6.5z"/><path fill="#325163" d="M246.9 117.4L239 94.1l18.7 16-10.8 7.3zM241 97.2l6.3 18.6 8.6-5.8L241 97.2z"/><path fill="#DCDDDE" d="M240 95.6l16.8 14.5-4.9 3.3z"/><path fill="#325163" d="M239.8 95.4l5.8 4.9-3.3 2.3z"/><path fill="#1D3645" d="M239.9 95.3l5.8 5-1.8 1.2z"/><path fill="#325163" d="M246.9 117.4L239 94.1l18.7 16-10.8 7.3zM241 97.2l6.3 18.6 8.6-5.8L241 97.2z"/></svg>