<svg xmlns="http://www.w3.org/2000/svg" width="24" height="13.5" viewBox="0 11.3 24 13.5" enable-background="new 0 11.3 24 13.5"><path fill="#fff" d="M17.9 24.7c-.1 0-.2 0-.3-.1-.1-.1-.1-.2-.1-.3v-1.5c0-.1-.1-.2-.2-.2h-.7v-.1h.7c.2 0 .4.2.4.4v1.5c0 .1 0 .1.1.2 0 0 .1.1.2.1h1.4v.1l-1.5-.1M4.5 21.3H2c-.2 0-.3-.1-.3-.3v-2.4c0-.1-.1-.2-.2-.2H0v-.1h1.5c.2 0 .3.1.3.3V21c0 .1.1.2.2.2h2.5c.1 0 .2-.1.2-.2v-3.3c0-.2.1-.3.3-.3.1 0 .2-.1.2-.2v-1.6c0-.2.1-.3.3-.3h15.4c.1 0 .2-.1.2-.2V14c0-.2.1-.3.3-.3h1.4c.2 0 .3.1.3.3v3.6c0 .1.1.2.2.2h.7v.1h-1c-.2 0-.3-.1-.3-.3V14c0-.1-.1-.2-.2-.2h-1.4c-.1 0-.2.1-.2.2v1.2c0 .2-.1.3-.3.3H5.4c-.1 0-.2.1-.2.2v1.6c0 .2-.1.3-.3.3-.1 0-.2.1-.2.2V21c.1.2-.1.3-.2.3"/><path fill="#fff" d="M1.7 15.5h1.5v.1H1.7v-.1zm3.2 7.1h1.7v.1H4.9v-.1zm9.2-11.3h3.6v.1h-3.6v-.1zm-13.2.1h3.6v.1H.9v-.1zm18.5 7h1.5v.1h-1.5v-.1zM3.3 24.3h3.4v.1H3.3v-.1zm17.4-2.5h2.2v.1h-2.2v-.1z"/><path fill="#C3D1D8" d="M16.1 23.9H7.8c-.2 0-.4-.2-.4-.4v-11c0-.2.2-.4.4-.4h8.3c.2 0 .4.2.4.4v11c0 .2-.2.4-.4.4"/><path fill="#325163" d="M16.1 23.9H7.8c-.2 0-.4-.2-.4-.4v-11c0-.2.2-.4.4-.4h8.3c.2 0 .4.2.4.4v11c0 .2-.2.4-.4.4M7.8 12.1c-.2 0-.4.2-.4.4v11c0 .2.2.4.4.4h8.3c.2 0 .4-.2.4-.4v-11c0-.2-.2-.4-.4-.4 0 0-8.3 0-8.3 0z"/><path fill="#fff" d="M8.4 13.2h7.1V23H9.4l-1-1v-8.8z"/><path fill="#325163" d="M15.5 23H9.4l-1.1-1.1v-8.8h7.2V23zm-6.1-.1h6v-9.7h-7v8.7l1 1z"/><path fill="#E6E7E8" d="M8.4 21.9h1v1l-1-1z"/><path fill="#325163" d="M9.4 23l-1.1-1.1h1.1V23zm-.9-1l.9.9V22h-.9z"/><path fill="#E6E7E8" d="M10.9 15.5h3.4v.3h-3.4v-.3zm0 1.2h3.4v.3h-3.4v-.3zm0 1.3h3.4v.3h-3.4V18zm0 1.2h3.4v.3h-3.4v-.3z"/><path fill="#325163" d="M12.6 12c0-.4-.3-.7-.7-.7-.4 0-.7.3-.7.7h-.9v.5h3.2V12h-.9zm-.7.2c-.1 0-.2-.1-.2-.2s.1-.2.2-.2.2.1.2.2-.1.2-.2.2m1.6.4h-3.2V12h.9c0-.4.3-.7.7-.7.4 0 .7.3.7.7h.9v.6zm-3.1-.1h3.1v-.4h-.9c0-.4-.3-.7-.7-.7-.4 0-.7.3-.7.7h-.9l.1.4zm1.5-.2c-.1 0-.2-.1-.2-.2s.1-.2.2-.2.2.1.2.2 0 .2-.2.2m0-.4c-.1 0-.2.1-.2.2s.1.2.2.2.2-.1.2-.2-.1-.2-.2-.2"/><path fill="#BAC1C6" d="M10.3 12.5h3.2v.9h-3.2v-.9z"/><path fill="#325163" d="M13.5 13.5h-3.2v-1h3.2v1zm-3.1-.1h3.1v-.8h-3.1v.8zm-.1-.7h3.2v.2h-3.2v-.2z"/><path fill="#6593AE" d="M9.6 16l-.4-.4.1-.1.3.3.5-.6.2.1-.7.7zm0 1.3l-.4-.4.1-.1.3.3.5-.6.2.1-.7.7zm0 1.2l-.4-.5.1-.1.3.3.5-.6.2.1-.7.8zm0 1.2l-.4-.4.1-.1.3.3.5-.6.2.1-.7.7z"/><path fill="#BCBEC0" d="M16.5 19l.7-.4 2.4 3.5-.7.4-2.4-3.5z"/><path fill="#325163" d="M18.8 22.6L16.4 19l.7-.5 2.4 3.5-.7.6zM16.5 19l2.3 3.4.6-.4-2.3-3.4s-.6.4-.6.4z"/><path fill="#97999C" d="M16.8 18.8l.3-.2 2.4 3.5-.3.2-2.4-3.5z"/><path fill="#325163" d="M18.8 22.6L16.4 19l.7-.5 2.4 3.5-.7.6zM16.5 19l2.3 3.4.6-.4-2.3-3.4s-.6.4-.6.4z"/><path fill="#6593AE" d="M18.8 22.5l.7-.4.4.6-.7.4-.4-.6z"/><path fill="#325163" d="M19.2 23.2l-.4-.6.7-.5.4.6-.7.5zm-.3-.7l.4.5.6-.4-.4-.5-.6.4z"/><path fill="#486B7F" d="M19.2 22.3l.3-.2.4.6-.3.2-.4-.6z"/><path fill="#325163" d="M19.2 23.2l-.4-.6.7-.5.4.6-.7.5zm-.3-.7l.4.5.6-.4-.4-.5-.6.4z"/><path fill="#fff" d="M16 17.6l1.1 1-.6.4-.5-1.4z"/><path fill="#325163" d="M16.5 19.1l-.5-1.6 1.2 1.1s-.7.5-.7.5zm-.4-1.4l.4 1.2.6-.4-1-.8z"/><path fill="#DCDDDE" d="M16 17.6l1.1 1-.3.2-.8-1.2z"/><path fill="#325163" d="M16 17.6l.4.3-.2.2-.2-.5z"/><path fill="#1D3645" d="M16 17.6l.4.3-.1.1-.3-.4z"/><path fill="#325163" d="M16.5 19.1l-.5-1.6 1.2 1.1s-.7.5-.7.5zm-.4-1.4l.4 1.2.6-.4-1-.8z"/></svg>