<svg xmlns="http://www.w3.org/2000/svg" width="171.8" height="106.5"><path fill="#DFE9F1" d="M59.5 55.8h-22c-1.7 0-3.2-1.4-3.2-3.2v-8.8c0-1.2-1-2.2-2.2-2.2H20.4v-1h11.7c1.7 0 3.2 1.4 3.2 3.2v8.8c0 1.2 1 2.2 2.2 2.2h21.9v1zM35 78.2h-7.6v-1H35c1.2 0 2.2-1 2.2-2.2v-2c0-1.7 1.4-3.2 3.2-3.2h5.3c1.2 0 2.2-1 2.2-2.2V55.4h1v12.3c0 1.7-1.4 3.2-3.2 3.2h-5.3c-1.2 0-2.2 1-2.2 2.2v2c0 1.7-1.4 3.1-3.2 3.1zM125.8 59.9h-19.4v-1h19.4c1.2 0 2.2-1 2.2-2.2V44.6c0-1.7 1.4-3.2 3.2-3.2h17c1.6 0 2.8 1.3 2.8 2.8v7.2h-1v-7.2c0-1-.8-1.9-1.9-1.9h-17c-1.2 0-2.2 1-2.2 2.2v12.2c.1 1.8-1.3 3.2-3.1 3.2zM65 45.1h-1V22.6c0-.8-.7-1.5-1.5-1.5h-9.7c-1.4 0-2.5-1.1-2.5-2.5V13c0-.8-.7-1.5-1.5-1.5H32.5v-1h16.3c1.4 0 2.5 1.1 2.5 2.5v5.5c0 .8.7 1.5 1.5 1.5h9.7c1.4 0 2.5 1.1 2.5 2.5v22.6z"/><path fill="#fff" d="M105.3 17.1c0-.1 0-.1 0-.2 0-1.4 1.1-2.5 2.5-2.5.2 0 .4 0 .5.1.7-1.1 1.9-1.9 3.3-1.9 2 0 3.7 1.6 3.8 3.6.3-.1.6-.1.9-.1 1.8 0 3.3 1.5 3.3 3.3 0 1.8-1.5 3.3-3.3 3.3-.2 0-.4 0-.5 0h-9.1c-1.6 0-2.9-1.3-2.9-2.9-.1-1.2.6-2.2 1.5-2.7z"/><path fill="#DFE9F1" d="M116.3 23.2c-.2 0-.4 0-.6 0h-9.1c-1.9 0-3.4-1.5-3.4-3.4 0-1.2.6-2.3 1.6-2.9 0-1.7 1.5-3.1 3.3-2.9.8-1.1 2.1-1.8 3.5-1.8 2.1 0 3.8 1.5 4.2 3.5.2 0 .3 0 .5 0 2.1 0 3.8 1.7 3.8 3.8s-1.7 3.7-3.8 3.7zm-8.5-8.3c-1.1 0-2 .9-2 2 0 .1 0 .1 0 .2v.3l-.3.1c-.8.4-1.4 1.3-1.4 2.2 0 1.3 1.1 2.4 2.4 2.4h9.2c.2 0 .3 0 .5 0 1.6 0 2.8-1.3 2.8-2.8 0-1.6-1.3-2.8-2.8-2.8-.2 0-.5 0-.8.1l-.6.2v-.6c-.1-1.8-1.6-3.1-3.3-3.1-1.2 0-2.2.6-2.9 1.6l-.2.3-.3-.1s-.1 0-.3 0z"/><path fill="#fff" d="M17.9 61.2c0-.1 0-.1 0-.2 0-1.4 1.1-2.5 2.5-2.5.2 0 .4 0 .5.1.7-1.1 1.9-1.9 3.3-1.9 2 0 3.7 1.6 3.8 3.6.3-.1.6-.1.9-.1 1.8 0 3.3 1.5 3.3 3.3 0 1.8-1.5 3.3-3.3 3.3-.2 0-.4 0-.5 0h-9.1c-1.6 0-2.9-1.3-2.9-2.9-.1-1.2.5-2.2 1.5-2.7z"/><path fill="#DFE9F1" d="M28.9 67.3c-.2 0-.4 0-.6 0h-9.1c-1.9 0-3.4-1.5-3.4-3.4 0-1.2.6-2.3 1.6-2.9 0-1.7 1.5-3.1 3.3-2.9.8-1.1 2.1-1.8 3.5-1.8 2.1 0 3.8 1.5 4.2 3.5.2 0 .3 0 .5 0 2.1 0 3.8 1.7 3.8 3.8-.1 2-1.8 3.7-3.8 3.7zM20.4 59c-1.1 0-2 .9-2 2 0 .1 0 .1 0 .2v.3l-.3.1c-.8.4-1.4 1.3-1.4 2.2 0 1.3 1.1 2.4 2.4 2.4h9.2c.2 0 .3 0 .5 0 1.6 0 2.8-1.3 2.8-2.8s-1.3-2.8-2.8-2.8c-.2 0-.5 0-.8.1l-.6.2v-.6c-.1-1.8-1.6-3.1-3.3-3.1-1.2 0-2.2.6-2.9 1.6l-.2.3-.3-.1s-.2 0-.3 0z"/><path fill="#fff" d="M122.3 92.4c0-.1 0-.2 0-.3 0-2.2 1.8-4 4-4 .3 0 .6 0 .9.1 1.1-1.8 3-3 5.3-3 3.3 0 6 2.6 6.1 5.8.5-.1.9-.2 1.4-.2 3 0 5.3 2.4 5.3 5.3s-2.4 5.3-5.3 5.3c-.3 0-.6 0-.9-.1h-14.8c-2.6 0-4.7-2.1-4.7-4.7.1-1.9 1.1-3.5 2.7-4.2z"/><path fill="#DFE9F1" d="M140 101.9c-.3 0-.6 0-.9-.1h-14.8c-2.9 0-5.2-2.3-5.2-5.2 0-1.9 1-3.6 2.6-4.5 0 0 0 0 0-.1 0-2.7 2.4-4.9 5.2-4.5 1.2-1.9 3.3-2.9 5.5-2.9 3.3 0 6.1 2.5 6.6 5.7.3-.1.7-.1 1-.1 3.2 0 5.8 2.6 5.8 5.8.1 3.3-2.5 5.9-5.8 5.9zm-13.7-13.4c-2 0-3.5 1.6-3.5 3.5 0 .1 0 .2 0 .3v.3l-.3.1c-1.5.7-2.4 2.2-2.4 3.8 0 2.3 1.9 4.3 4.3 4.3h14.9c.3 0 .5.1.8.1 2.7 0 4.9-2.2 4.9-4.9s-2.2-4.9-4.9-4.9c-.4 0-.9.1-1.3.2l-.6.2v-.6c-.2-3-2.7-5.4-5.7-5.4-2 0-3.8 1-4.9 2.8l-.2.3-.3-.1c-.3 0-.5 0-.8 0zM119.8 3.1h10.4v1h-10.4zM161.4 37.1h10.4v1h-10.4zM0 22.7h10.4v1H0zM23.6 100.9H34v1H23.6zM151.2 92.1h10.4v1h-10.4z"/><path fill="#F1F2F2" fill-rule="evenodd" d="M104.9 90.8H66.6c-.5 0-.9-.4-.9-.9V74.2c0-.5.4-.9.9-.9h38.3c.5 0 .9.4.9.9V90c0 .4-.4.8-.9.8z" clip-rule="evenodd"/><path fill="#325163" d="M104.9 91.1H66.6c-.6 0-1.1-.5-1.1-1.1V74.2c0-.6.5-1.1 1.1-1.1h38.3c.6 0 1.1.5 1.1 1.1V90c0 .6-.5 1.1-1.1 1.1zM66.6 73.6c-.3 0-.6.3-.6.6V90c0 .3.3.6.6.6h38.3c.3 0 .6-.3.6-.6V74.2c0-.3-.3-.6-.6-.6H66.6z"/><path fill="#ABB5B9" fill-rule="evenodd" d="M101.9 75.9h1.2c.1 0 .3.1.3.3v.9c0 .1-.1.3-.3.3h-1.2c-.1 0-.3-.1-.3-.3v-.9c.1-.2.2-.3.3-.3zM102 77.7h1.1c.2 0 .3.1.3.3v1.2c0 .2-.1.3-.3.3H102c-.2 0-.3-.1-.3-.3V78c0-.2.1-.3.3-.3zM102 79.9h1.1c.2 0 .3.1.3.3v1.2c0 .2-.1.3-.3.3H102c-.2 0-.3-.1-.3-.3v-1.2c0-.2.1-.3.3-.3zM102 82.1h1.1c.2 0 .3.1.3.3v1.2c0 .2-.1.3-.3.3H102c-.2 0-.3-.1-.3-.3v-1.2c0-.2.1-.3.3-.3zM102 84.3h1.1c.2 0 .3.1.3.3v1.2c0 .2-.1.3-.3.3H102c-.2 0-.3-.1-.3-.3v-1.2c0-.2.1-.3.3-.3zM102 86.4h1.1c.2 0 .3.1.3.3v1.2c0 .2-.1.3-.3.3H102c-.2 0-.3-.1-.3-.3v-1.2c0-.1.1-.3.3-.3zM99.8 75.9h1.2c.1 0 .3.1.3.3v.9c0 .1-.1.3-.3.3h-1.2c-.1 0-.3-.1-.3-.3v-.9c0-.2.1-.3.3-.3zM97.8 77.7h3.1c.2 0 .3.1.3.3v1.2c0 .2-.1.3-.3.3h-3.1c-.2 0-.3-.1-.3-.3V78c0-.2.1-.3.3-.3zM99.2 79.9h1.7c.2 0 .3.1.3.3v1.2c0 .2-.1.3-.3.3h-1.7c-.2 0-.3-.1-.3-.3v-1.2c0-.2.2-.3.3-.3zM97.6 82.1h3.3c.2 0 .3.1.3.3v1.2c0 .2-.1.3-.3.3h-3.3c-.2 0-.3-.1-.3-.3v-1.2c-.1-.2.1-.3.3-.3zM99.8 84.3h1.1c.2 0 .3.1.3.3v1.2c0 .2-.1.3-.3.3h-1.1c-.2 0-.3-.1-.3-.3v-1.2c0-.2.1-.3.3-.3zM99.8 86.4h1.1c.2 0 .3.1.3.3v1.2c0 .2-.1.3-.3.3h-1.1c-.2 0-.3-.1-.3-.3v-1.2c0-.1.2-.3.3-.3zM97.7 75.9h1.1c.1 0 .3.1.3.3v.9c0 .1-.1.3-.3.3h-1.1c-.1 0-.3-.1-.3-.3v-.9c.1-.1.2-.3.3-.3zM95.7 75.9h1.1c.1 0 .3.1.3.3v.9c0 .1-.1.3-.3.3h-1.1c-.1 0-.3-.1-.3-.3v-.9c0-.1.1-.3.3-.3zM93.6 75.9h1.1c.1 0 .3.1.3.3v.9c0 .1-.1.3-.3.3h-1.1c-.1 0-.3-.1-.3-.3v-.9c.1-.1.2-.3.3-.3zM91.6 75.9h1.1c.1 0 .3.1.3.3v.9c0 .1-.1.3-.3.3h-1.1c-.1 0-.3-.1-.3-.3v-.9c0-.1.1-.3.3-.3zM89.5 75.9h1.1c.1 0 .3.1.3.3v.9c0 .1-.1.3-.3.3h-1.1c-.1 0-.3-.1-.3-.3v-.9c.1-.1.2-.3.3-.3zM87.5 76h1.1c.1 0 .3.1.3.3v.9c0 .1-.1.3-.3.3h-1.1c-.1 0-.3-.1-.3-.3v-.9c0-.2.1-.3.3-.3zM85.4 76h1.1c.1 0 .3.1.3.3v.9c0 .1-.1.3-.3.3h-1.1c-.1 0-.3-.1-.3-.3v-.9c.1-.2.2-.3.3-.3zM83.4 76h1.1c.1 0 .3.1.3.3v.9c0 .1-.1.3-.3.3h-1.1c-.1 0-.3-.1-.3-.3v-.9c0-.2.2-.3.3-.3zM81.3 76h1.1c.1 0 .3.1.3.3v.9c0 .1-.1.3-.3.3h-1.1c-.1 0-.3-.1-.3-.3v-.9c.1-.2.2-.3.3-.3zM79.3 76h1.1c.1 0 .3.1.3.3v.9c0 .1-.1.3-.3.3h-1.1c-.1 0-.3-.1-.3-.3v-.9c0-.2.2-.3.3-.3zM77.2 76h1.1c.1 0 .3.1.3.3v.9c0 .1-.1.3-.3.3h-1.1c-.1 0-.3-.1-.3-.3v-.9c.1-.2.2-.3.3-.3zM75.2 76h1.1c.1 0 .3.1.3.3v.9c0 .1-.1.3-.3.3h-1.1c-.1 0-.3-.1-.3-.3v-.9c0-.2.2-.3.3-.3zM73.1 76h1.1c.1 0 .3.1.3.3v.9c0 .1-.1.3-.3.3h-1.1c-.1 0-.3-.1-.3-.3v-.9c.1-.2.2-.3.3-.3zM71.1 76h1.1c.1 0 .3.1.3.3v.9c0 .1-.1.3-.3.3h-1.1c-.1 0-.3-.1-.3-.3v-.9c0-.2.2-.3.3-.3zM68.8 76H70c.1 0 .3.1.3.3v.9c0 .1-.1.3-.3.3h-1.2c-.1 0-.3-.1-.3-.3v-.9c0-.2.2-.3.3-.3zM95.6 77.7h1.1c.2 0 .3.1.3.3v1.3c0 .2-.1.3-.3.3h-1.1c-.2 0-.3-.1-.3-.3V78c0-.2.1-.3.3-.3zM93.4 77.7h1.1c.2 0 .3.1.3.3v1.3c0 .2-.1.3-.3.3h-1.1c-.2 0-.3-.1-.3-.3V78c0-.2.1-.3.3-.3zM91.2 77.7h1.1c.2 0 .3.1.3.3v1.3c0 .2-.1.3-.3.3h-1.1c-.2 0-.3-.1-.3-.3V78c0-.2.1-.3.3-.3zM88.9 77.7H90c.2 0 .3.1.3.3v1.3c0 .2-.1.3-.3.3h-1.1c-.2 0-.3-.1-.3-.3V78c0-.2.2-.3.3-.3zM86.7 77.7h1.1c.2 0 .3.1.3.3v1.3c0 .2-.1.3-.3.3h-1.1c-.2 0-.3-.1-.3-.3V78c0-.2.1-.3.3-.3zM84.5 77.7h1.1c.2 0 .3.1.3.3v1.3c0 .2-.1.3-.3.3h-1.1c-.2 0-.3-.1-.3-.3V78c0-.2.1-.3.3-.3zM82.3 77.7h1.1c.2 0 .3.1.3.3v1.3c0 .2-.1.3-.3.3h-1.1c-.2 0-.3-.1-.3-.3V78c0-.1.1-.3.3-.3zM80 77.7h1.1c.2 0 .3.1.3.3v1.3c0 .2-.1.3-.3.3H80c-.2 0-.3-.1-.3-.3V78c0-.1.2-.3.3-.3zM77.8 77.7h1.1c.2 0 .3.1.3.3v1.3c0 .2-.1.3-.3.3h-1.1c-.2 0-.3-.1-.3-.3V78c0-.1.2-.3.3-.3zM75.6 77.7h1.1c.2 0 .3.1.3.3v1.3c0 .2-.1.3-.3.3h-1.1c-.2 0-.3-.1-.3-.3V78c0-.1.1-.3.3-.3zM73.4 77.7h1.1c.2 0 .3.1.3.3v1.3c0 .2-.1.3-.3.3h-1.1c-.2 0-.3-.1-.3-.3V78c0-.1.1-.3.3-.3zM71.2 77.7h1.1c.2 0 .3.1.3.3v1.3c0 .2-.1.3-.3.3h-1.1c-.2 0-.3-.1-.3-.3V78c-.1-.1.1-.3.3-.3zM68.9 77.7H70c.2 0 .3.1.3.3v1.2c0 .2-.1.3-.3.3h-1.1c-.2 0-.3-.1-.3-.3V78c-.1-.1.1-.3.3-.3zM68.9 79.9h2.3c.2 0 .3.1.3.3v1.2c0 .2-.1.3-.3.3h-2.3c-.2 0-.3-.1-.3-.3v-1.2c-.1-.1.1-.3.3-.3zM68.9 82.1h2.7c.2 0 .3.1.3.3v1.2c0 .2-.1.3-.3.3h-2.7c-.2 0-.3-.1-.3-.3v-1.2c0-.1.1-.3.3-.3zM68.9 84.3h3.9c.2 0 .3.1.3.3v1.2c0 .2-.1.3-.3.3h-3.9c-.2 0-.3-.1-.3-.3v-1.2c0-.1.1-.3.3-.3zM68.9 86.5h1.6c.2 0 .3.1.3.3V88c0 .2-.1.3-.3.3h-1.6c-.2 0-.3-.1-.3-.3v-1.2c0-.1.1-.3.3-.3zM72.1 79.9h1.2c.2 0 .3.1.3.3v1.2c0 .2-.1.3-.3.3h-1.2c-.2 0-.3-.1-.3-.3v-1.2c0-.1.1-.3.3-.3zM74.4 79.9h1.2c.2 0 .3.1.3.3v1.2c0 .2-.1.3-.3.3h-1.2c-.2 0-.3-.1-.3-.3v-1.2c0-.1.1-.3.3-.3zM76.7 79.9h1.2c.2 0 .3.1.3.3v1.2c0 .2-.1.3-.3.3h-1.2c-.2 0-.3-.1-.3-.3v-1.2c-.1-.1.1-.3.3-.3zM78.9 79.9h1.2c.2 0 .3.1.3.3v1.2c0 .2-.1.3-.3.3h-1.2c-.2 0-.3-.1-.3-.3v-1.2c0-.1.1-.3.3-.3zM81.2 79.9h1.2c.2 0 .3.1.3.3v1.2c0 .2-.1.3-.3.3h-1.2c-.2 0-.3-.1-.3-.3v-1.2c0-.1.1-.3.3-.3zM83.5 79.9h1.2c.2 0 .3.1.3.3v1.2c0 .2-.1.3-.3.3h-1.2c-.2 0-.3-.1-.3-.3v-1.2c-.1-.1.1-.3.3-.3zM85.7 79.9h1.2c.2 0 .3.1.3.3v1.2c0 .2-.1.3-.3.3h-1.2c-.2 0-.3-.1-.3-.3v-1.2c0-.2.1-.3.3-.3zM88 79.9h1.2c.2 0 .3.1.3.3v1.2c0 .2-.1.3-.3.3H88c-.2 0-.3-.1-.3-.3v-1.2c0-.2.1-.3.3-.3zM90.2 79.9h1.2c.2 0 .3.1.3.3v1.2c0 .2-.1.3-.3.3h-1.2c-.2 0-.3-.1-.3-.3v-1.2c0-.2.2-.3.3-.3zM92.5 79.9h1.2c.2 0 .3.1.3.3v1.2c0 .2-.1.3-.3.3h-1.2c-.2 0-.3-.1-.3-.3v-1.2c0-.2.1-.3.3-.3zM94.8 79.9H96c.2 0 .3.1.3.3v1.2c0 .2-.1.3-.3.3h-1.2c-.2 0-.3-.1-.3-.3v-1.2c-.1-.2.1-.3.3-.3zM97 79.9h1.2c.2 0 .3.1.3.3v1.2c0 .2-.1.3-.3.3H97c-.2 0-.3-.1-.3-.3v-1.2c0-.2.2-.3.3-.3zM72.8 82.1H74c.2 0 .3.1.3.3v1.2c0 .2-.1.3-.3.3h-1.2c-.2 0-.3-.1-.3-.3v-1.2c-.1-.1.1-.3.3-.3zM75 82.1h1.2c.2 0 .3.1.3.3v1.2c0 .2-.1.3-.3.3L75 84c-.2 0-.3-.1-.3-.3v-1.2c0-.2.1-.4.3-.4zM77.3 82.1h1.2c.2 0 .3.1.3.3v1.2c0 .2-.1.3-.3.3h-1.2c-.2 0-.3-.1-.3-.3v-1.2c0-.1.1-.3.3-.3zM79.6 82.1h1.2c.2 0 .3.1.3.3v1.2c0 .2-.1.3-.3.3h-1.2c-.2 0-.3-.1-.3-.3v-1.2c-.1-.2.1-.3.3-.3zM81.8 82.1H83c.2 0 .3.1.3.3v1.2c0 .2-.1.3-.3.3h-1.2c-.2 0-.3-.1-.3-.3v-1.2c0-.2.1-.3.3-.3zM84.1 82.1h1.2c.2 0 .3.1.3.3v1.2c0 .2-.1.3-.3.3h-1.2c-.2 0-.3-.1-.3-.3v-1.2c0-.2.1-.3.3-.3zM86.4 82.1h1.2c.2 0 .3.1.3.3v1.2c0 .2-.1.3-.3.3h-1.2c-.2 0-.3-.1-.3-.3v-1.2c-.1-.2.1-.3.3-.3zM88.6 82.1h1.2c.2 0 .3.1.3.3v1.2c0 .2-.1.3-.3.3h-1.2c-.2 0-.3-.1-.3-.3v-1.2c0-.2.1-.3.3-.3zM90.9 82.1h1.2c.2 0 .3.1.3.3v1.2c0 .2-.1.3-.3.3h-1.2c-.2 0-.3-.1-.3-.3v-1.2c0-.2.1-.3.3-.3zM93.1 82.1h1.2c.2 0 .3.1.3.3v1.2c0 .2-.1.3-.3.3h-1.2c-.2 0-.3-.1-.3-.3v-1.2c0-.2.2-.3.3-.3zM95.4 82.1h1.2c.2 0 .3.1.3.3v1.2c0 .2-.1.3-.3.3h-1.2c-.2 0-.3-.1-.3-.3v-1.2c0-.2.1-.3.3-.3zM74 84.3h1.2c.2 0 .3.1.3.3v1.2c0 .2-.1.3-.3.3H74c-.2 0-.3-.1-.3-.3v-1.2c-.1-.2.1-.3.3-.3zM76.2 84.3h1.2c.2 0 .3.1.3.3v1.2c0 .2-.1.3-.3.3h-1.2c-.2 0-.3-.1-.3-.3v-1.2c0-.2.1-.3.3-.3zM78.5 84.3h1.2c.2 0 .3.1.3.3v1.2c0 .2-.1.3-.3.3h-1.2c-.2 0-.3-.1-.3-.3v-1.2c0-.2.1-.3.3-.3zM80.7 84.3h1.2c.2 0 .3.1.3.3v1.2c0 .2-.1.3-.3.3h-1.2c-.2 0-.3-.1-.3-.3v-1.2c0-.2.2-.3.3-.3zM83 84.3h1.2c.2 0 .3.1.3.3v1.2c0 .2-.1.3-.3.3H83c-.2 0-.3-.1-.3-.3v-1.2c0-.2.1-.3.3-.3zM85.3 84.3h1.2c.2 0 .3.1.3.3v1.2c0 .2-.1.3-.3.3h-1.2c-.2 0-.3-.1-.3-.3v-1.2c-.1-.2.1-.3.3-.3zM87.5 84.3h1.2c.2 0 .3.1.3.3v1.2c0 .2-.1.3-.3.3h-1.2c-.2 0-.3-.1-.3-.3v-1.2c0-.2.2-.3.3-.3zM89.8 84.3H91c.2 0 .3.1.3.3v1.2c0 .2-.1.3-.3.3h-1.2c-.2 0-.3-.1-.3-.3v-1.2c0-.2.1-.3.3-.3zM92.1 84.3h1.2c.2 0 .3.1.3.3v1.2c0 .2-.1.3-.3.3h-1.2c-.2 0-.3-.1-.3-.3v-1.2c-.1-.2.1-.3.3-.3zM94.3 84.3h1.2c.2 0 .3.1.3.3v1.2c0 .2-.1.3-.3.3h-1.2c-.2 0-.3-.1-.3-.3v-1.2c0-.2.2-.3.3-.3zM96.6 84.3h2.1c.2 0 .3.1.3.3v1.2c0 .2-.1.3-.3.3h-2.1c-.2 0-.3-.1-.3-.3v-1.2c0-.2.1-.3.3-.3zM71.7 86.5h1.2c.2 0 .3.1.3.3V88c0 .2-.1.3-.3.3h-1.2c-.2 0-.3-.1-.3-.3v-1.2c-.1-.2.1-.3.3-.3zM73.9 86.5h1.2c.2 0 .3.1.3.3V88c0 .2-.1.3-.3.3h-1.2c-.2 0-.3-.1-.3-.3v-1.2c0-.2.1-.3.3-.3zM76.2 86.5h1.2c.2 0 .3.1.3.3V88c0 .2-.1.3-.3.3h-1.2c-.2 0-.3-.1-.3-.3v-1.2c0-.2.1-.3.3-.3zM78.4 86.5h1.2c.2 0 .3.1.3.3V88c0 .2-.1.3-.3.3h-1.2c-.2 0-.3-.1-.3-.3v-1.2c0-.2.2-.3.3-.3zM80.7 86.5h10.2c.2 0 .3.1.3.3V88c0 .2-.1.3-.3.3H80.7c-.2 0-.3-.1-.3-.3v-1.2c0-.2.1-.3.3-.3zM92 86.5h1.2c.2 0 .3.1.3.3V88c0 .2-.1.3-.3.3H92c-.2 0-.3-.1-.3-.3v-1.2c0-.2.2-.3.3-.3zM94.3 86.5h2.1c.2 0 .3.1.3.3V88c0 .2-.1.3-.3.3h-2.1c-.2 0-.3-.1-.3-.3v-1.2c0-.2.1-.3.3-.3zM97.6 86.4h1.1c.2 0 .3.1.3.3v1.2c0 .2-.1.3-.3.3h-1.1c-.2 0-.3-.1-.3-.3v-1.2c0-.1.2-.3.3-.3z" clip-rule="evenodd"/><path fill="#fff" d="M101.1 97.5l-.6.1-5.8.2h-.6l.1 2.2h.6l5.2-.2.6-.1h.6z"/><path fill="#325163" d="M94 100.3l-.1-2.6 7.5-.3.1 2.6-7.5.3zm.3-2.2l.1 1.7 6.6-.3-.1-1.7-6.6.3z"/><path fill="#F9B85D" d="M100 99.8l-5.2.2 2.9-.1z"/><path fill="#F79B1D" d="M101 99.7h.9-.7zM100.6 99.7H101.2h-.6zM100.6 99.7l-.6.1.6-.1zM101 99.7h-.4zM100.6 99.7l-.6.1-2.3.1z"/><path fill="#fff" d="M76.6 99.4l-6.3-.5h-.7l-.1 2 .7.1 6.2.5h.7l.2-2z"/><path fill="#325163" d="M77.4 101.8l-8.1-.7.2-2.5 8.1.6-.2 2.6zm-7.7-1.1l7.2.6.1-1.6-7.2-.6-.1 1.6z"/><path fill="#E6E7E8" d="M101.3 83.1l-.7 4.7c-.1-.1-.2-.1-.2-.2l.3-6.3c.1-1.4-1.9-1.4-2-.2l-.4 5.9c-.1 0-.2 0-.2 0l-.2-6.6c0-1.3-2-1.3-2 .1l.2 7.1c-.1.1-.2.1-.3.2l-.8-7c-.2-1.3-2.2-1.1-2 .3l1 7.8c0 .7.1 1.5.1 2.5l-2-2.7c-.9-1.2-2.1-.7-2.5 0l4.1 6.7c.2.3.6.6 1 .8l.1 1.8 5.7-.3-.1-2c1.3-1 1.9-2.9 1.8-5.5l1-6.6c.3-1.6-1.7-1.9-1.9-.5z"/><path fill="#325163" d="M94.5 98.1l-.1-1.9c-.4-.2-.8-.5-1-.9l-4.2-6.8.1-.1c.2-.4.7-.8 1.4-.8.6 0 1.1.3 1.5.8l1.5 2.1v-.2c0-.6-.1-1.1-.1-1.5l-1-7.7c-.1-.8.5-1.3 1.1-1.4.6-.1 1.3.3 1.4 1.1l.6 4.7-.1-5.1c0-.8.6-1.3 1.2-1.3s1.3.4 1.3 1.2l.1 3.7.2-2.8c0-.8.7-1.2 1.4-1.1.6 0 1.2.5 1.1 1.3l-.2 4 .3-2.3c.1-.5.4-.9.8-1.1.4-.2.9-.1 1.3.2.3.3.5.7.4 1.2l-1 6.6c.1 2.6-.5 4.5-1.8 5.6l.1 2.1-6.3.4zm-4.6-9.5l4 6.5c.2.3.5.5.9.7l.1.1.1 1.7 5.3-.2-.1-1.9.1-.1c1.2-1 1.8-2.8 1.8-5.3l1-6.7c.1-.3 0-.6-.3-.8-.2-.2-.5-.2-.8-.1-.3.1-.4.3-.5.7l-.8 5.2-.3-.4s-.1-.1-.2-.2l-.1-.1.3-6.4c0-.6-.3-.8-.7-.8-.4 0-.8.2-.8.7l-.4 6h-.3s-.1 0-.2 0h-.2V87l-.2-6.6c0-.5-.4-.8-.8-.7-.4 0-.8.3-.8.8l.2 7.2-.1.1c-.1 0-.2.1-.2.2l-.3.2-.9-7.2c-.1-.5-.5-.7-.9-.7s-.7.3-.7.9l1 7.8c0 .5.1 1 .1 1.5l.1 1.8-2.5-3.4c-.3-.4-.7-.6-1.1-.6-.3-.2-.7 0-.8.3z"/><path fill="#E6E7E8" d="M80.2 89l-2.3 3c.1-1.1.2-2 .2-2.7l1.4-8.4c.2-1.5-1.9-1.8-2.2-.4L76.1 88c-.1-.1-.2-.1-.3-.2l.2-3.7c.1-1.4-2.1-1.6-2.2-.1l-.2 3.2s-.2 0-.2 0l-.1-2.5c0-1.3-2.2-1.5-2.2.1v3.1c-.1.1-.2.1-.3.2l-.2-1.5c-.2-1.6-2.4-1.3-2.2.2l.5 3.7c-.2 2.7.4 4.7 1.5 5.9l-.2 2.7 6.3.5.2-2.1c.6-.2 1.1-.5 1.4-1l4.8-7.2c-.4-.9-1.7-1.6-2.7-.3z"/><path fill="#325163" d="M76.8 99.7l-6.7-.5.2-2.9c-1.2-1.3-1.7-3.3-1.5-6l-.5-3.6c-.1-.5.1-1 .5-1.3.4-.3.9-.3 1.4-.1.4.2.6.5.7.9v-1.4c0-.9.7-1.4 1.3-1.4.6 0 1.3.4 1.4 1.1V84c0-.5.3-.9.7-1.1.4-.2 1-.2 1.4.1.4.3.6.7.6 1.2l-.1 2.1.9-5.6c.1-.5.4-.9.8-1 .5-.2 1-.1 1.4.2.4.3.5.7.4 1.2l-1.4 8.4c0 .5-.1 1-.2 1.7v.2L80 89c.5-.7 1.1-.8 1.5-.8.7 0 1.3.5 1.6.9l.1.1-4.9 7.4c-.3.4-.7.8-1.4 1l-.1 2.1zm-6.2-1l5.8.4.2-2 .1-.1c.6-.2 1-.5 1.3-.9l4.7-7.1c-.3-.3-.7-.6-1.1-.6-.4 0-.8.2-1.1.6l-2.9 3.7.2-1.8c.1-.6.1-1.2.2-1.7l1.4-8.4c.1-.4-.1-.7-.3-.8-.2-.2-.6-.3-.9-.1-.2.1-.4.2-.5.7l-1.3 7.8-.4-.2c-.1-.1-.2-.1-.3-.2l-.1-.1.2-3.9c0-.4-.2-.6-.3-.8-.3-.2-.7-.2-.9-.1-.2.1-.4.3-.4.7l-.2 3.5h-.2c-.1 0-.2 0-.2 0h-.3l-.1-2.8c0-.5-.5-.8-.9-.8s-.8.2-.8.9v3.2l-.1.1c-.1.1-.2.1-.2.2l-.4.4-.2-2.1c0-.4-.2-.7-.5-.8-.3-.1-.6-.1-.9.1-.2.2-.4.5-.3.9l.5 3.7c-.2 2.6.3 4.6 1.5 5.8l.1.1-.4 2.5z"/><path fill="#C3D0D8" d="M97.8 102.2l-.1-2.3-2.9.1H93.5l.3 6.3H98z"/><path fill="#325163" d="M98.2 106.5h-4.7l-.3-6.7 4.5-.2v.2h.2l.3 6.7zm-4.2-.4h3.7l-.3-6-3.7.2.3 5.8z"/><path fill="#6593AE" d="M97.8 102.2l.2 4.1h4.2l-.3-6.6h-1.3l-2.9.2z"/><path fill="#325163" d="M102.5 106.5h-4.7l-.3-6.9 4.7-.2.3 7.1zm-4.3-.4h3.7l-.3-6.1-3.7.2.3 5.9z"/><path fill="#C3D0D8" d="M73.3 104.1l.2-2.6v-.3l2.9.3-6.2-.5-.7-.1-.6-.1-.4 5.5h4.6z"/><path fill="#325163" d="M73.3 106.5h-5.1l.5-6 7.8.7v.5l-2.7-.2-.5 5zm-4.6-.4h4.1l.2-1.9h.2-.2l.2-2.7-4.1-.3-.4 4.9z"/><path fill="#6593AE" d="M73.5 101.2v.3l-.2 2.6-.2 2.2h4.6l.4-4.7-1-.1h-.7z"/><path fill="#325163" d="M77.9 106.5h-5.1l.5-5.6 5.1.4-.5 5.2zm-4.5-.4h4.1l.4-4.2-4.1-.3-.4 4.5z"/><path fill="#DFE9F1" d="M136.5 19.3h1v22.6h-1zM81.4 29.2h-19v-1h19c1.2 0 2.2-1 2.2-2.2v-7.8h1V26c-.1 1.8-1.5 3.2-3.2 3.2z"/><path fill="#fff" d="M5.6 32.6h18.6v18.6H5.6z"/><path fill="#325163" d="M24.4 51.4h-19v-19h19v19zm-18.5-.5H24v-18H5.9v18z"/><path fill="#fff" d="M5.6 32.6h18.6v2.3H5.6z"/><path fill="#325163" d="M24.4 35.1h-19v-2.8h19v2.8zm-18.5-.4H24v-1.8H5.9v1.8zM10.1 33.5c.1.1.1.2.1.3 0 .1 0 .2-.1.3-.1.1-.2.1-.3.1-.1 0-.2 0-.3-.1-.1-.1-.1-.2-.1-.3 0-.1 0-.2.1-.3.1-.1.2-.1.3-.1.1 0 .2 0 .3.1zM8.8 33.5c.1.1.1.2.1.3 0 .1 0 .2-.1.3-.1.1-.2.1-.3.1-.1 0-.2 0-.3-.1-.1-.1-.1-.2-.1-.3s0-.2.1-.3c.1-.1.2-.1.3-.1.1 0 .2 0 .3.1zM7.5 33.5c.1.1.1.2.1.3 0 .1 0 .2-.1.3-.1.1-.2.1-.3.1-.1 0-.2 0-.3-.1-.1-.1-.1-.2-.1-.3 0-.1 0-.2.1-.3.1-.1.2-.1.3-.1.1 0 .2 0 .3.1z"/><path fill="#fff" d="M8 72.4h20.9v20.9H8z"/><path fill="#325163" d="M29.1 93.5H7.8V72.1h21.3v21.4zM8.2 93h20.4V72.6H8.2V93z"/><path fill="#fff" d="M8 72.4h20.9V75H8z"/><path fill="#325163" d="M29.1 75.2H7.8v-3.1h21.3v3.1zm-20.9-.5h20.4v-2.1H8.2v2.1zM13 73.4c.1.1.1.2.1.3 0 .1 0 .2-.1.3-.1.1-.2.1-.3.1-.1 0-.2 0-.3-.1-.1-.1-.1-.2-.1-.3 0-.1 0-.2.1-.3.1-.1.2-.1.3-.1.1-.1.2 0 .3.1zM11.5 73.4c.1.1.1.2.1.3 0 .1 0 .2-.1.3-.1.1-.2.1-.3.1-.1 0-.2 0-.3-.1-.1-.1-.1-.2-.1-.3s0-.2.1-.3c.1-.1.2-.1.3-.1.2-.1.3 0 .3.1zM10.1 73.4c.1.1.1.2.1.3 0 .1 0 .2-.1.3-.1 0-.2.1-.3.1-.1 0-.2 0-.3-.1-.1-.1-.1-.2-.1-.3 0-.1 0-.2.1-.3.1-.1.2-.1.3-.1.1-.1.2 0 .3.1z"/><path fill="#fff" d="M14.6.2h29.9v24.9H14.6z"/><path fill="#325163" d="M44.8 25.4H14.4V0h30.4v25.4zm-29.9-.5h29.4V.5H14.9v24.4z"/><path fill="#fff" d="M14.6.2h29.9v3.7H14.6z"/><path fill="#325163" d="M44.8 4.2H14.4V0h30.4v4.2zm-29.9-.5h29.4V.5H14.9v3.2zM21.8 1.6c.1.2.2.3.2.5s-.1.3-.2.4c-.1.1-.3.2-.4.2-.2 0-.3-.1-.4-.2-.1-.1-.2-.3-.2-.4 0-.2.1-.3.2-.4.1-.1.3-.2.4-.2.2 0 .3 0 .4.1zM19.7 1.6c.1.1.2.3.2.4 0 .2-.1.3-.2.4-.1.1-.3.2-.4.2-.2 0-.3-.1-.4-.2-.1-.1-.2-.3-.2-.4s.1-.3.2-.4c.1-.1.3-.2.4-.2.2.1.3.1.4.2zM17.6 1.6c.1.1.2.3.2.4 0 .2-.1.3-.2.4-.1.1-.3.2-.4.2-.2 0-.3-.1-.4-.2-.1-.1-.2-.3-.2-.4 0-.2.1-.3.2-.4.1-.1.3-.2.4-.2.1.1.3.1.4.2z"/><path fill="#fff" d="M75.6 2h17.6v17.6H75.6z"/><path fill="#325163" d="M93.4 19.8h-18v-18h18.1v18zm-17.6-.5h17.1V2.2H75.8v17.1z"/><path fill="#fff" d="M75.6 2h17.6v2.2H75.6z"/><path fill="#325163" d="M93.4 4.4h-18V1.8h18.1v2.6zm-17.6-.5h17.1V2.2H75.8v1.7zM79.8 2.8c.1.1.1.2.1.3 0 .1 0 .2-.1.3-.1.1-.2.1-.3.1-.1 0-.2 0-.3-.1-.1-.1-.1-.2-.1-.3 0-.1 0-.2.1-.3.1-.1.2-.1.3-.1.2 0 .3.1.3.1zM78.6 2.8c.1.1.1.2.1.3 0 .1 0 .2-.1.3-.1.1-.2.1-.3.1-.1 0-.2 0-.3-.1 0-.1 0-.2 0-.3 0-.1 0-.2.1-.3.1-.1.2-.1.3-.1 0 0 .1.1.2.1zM77.4 2.8c.1.1.1.2.1.3 0 .1 0 .2-.1.3-.1.1-.2.1-.3.1-.1 0-.2 0-.3-.1-.1-.1-.1-.2-.1-.3 0-.1 0-.2.1-.3.1-.1.2-.1.3-.1.1 0 .2.1.3.1z"/><path fill="#fff" d="M131 8.6h23v23h-23z"/><path fill="#325163" d="M154.3 31.9h-23.5V8.3h23.5v23.6zm-23-.5h22.6V8.8h-22.6v22.6z"/><path fill="#fff" d="M131 8.6h23v2.8h-23z"/><path fill="#325163" d="M154.3 11.7h-23.5V8.3h23.5v3.4zm-23-.5h22.6V8.8h-22.6v2.4zM136.6 9.7c.1.1.1.2.1.3 0 .1-.1.2-.1.3-.1.1-.2.1-.3.1-.1 0-.2-.1-.3-.1-.1-.1-.1-.2-.1-.3 0-.1.1-.2.1-.3.1-.1.2-.1.3-.1.1-.1.2 0 .3.1zM135 9.7c.1.1.1.2.1.3 0 .1-.1.2-.1.3-.1.1-.2.1-.3.1-.1 0-.2-.1-.3-.1-.1-.1-.1-.2-.1-.3s.1-.2.1-.3c.1-.1.2-.1.3-.1 0-.1.2 0 .3.1zM133.3 9.7c.1.1.1.2.1.3 0 .1-.1.2-.1.3-.1.1-.2.1-.3.1-.1 0-.2-.1-.3-.1-.1-.1-.1-.2-.1-.3 0-.1.1-.2.1-.3.1-.1.2-.1.3-.1.1-.1.2 0 .3.1z"/><path fill="#fff" d="M136.3 51.4h29.1v29.1h-29.1z"/><path fill="#325163" d="M165.6 80.8H136V51.2h29.6v29.6zm-29.1-.5h28.7V51.6h-28.7v28.7z"/><path fill="#fff" d="M136.3 51.4h29.1V55h-29.1z"/><path fill="#325163" d="M165.6 55.2H136v-4.1h29.6v4.1zm-29.1-.4h28.7v-3.1h-28.7v3.1zM143.3 52.8c.1.1.2.3.2.4 0 .2-.1.3-.2.4-.1.1-.3.2-.4.2-.2 0-.3-.1-.4-.2-.1-.1-.2-.3-.2-.4 0-.2.1-.3.2-.4.1-.1.3-.2.4-.2.1 0 .2.1.4.2zM141.2 52.8c.1.1.2.3.2.4 0 .2-.1.3-.2.4-.1.1-.3.2-.4.2-.2 0-.3-.1-.4-.2-.1-.1-.2-.3-.2-.4s.1-.3.2-.4c.1-.1.3-.2.4-.2.1 0 .3.1.4.2zM139.2 52.8c.1.1.2.3.2.4 0 .2-.1.3-.2.4-.1.1-.3.2-.4.2-.2 0-.3-.1-.4-.2-.1-.1-.2-.3-.2-.4 0-.2.1-.3.2-.4.1-.1.3-.2.4-.2.1 0 .2.1.4.2zM157 65.4c.1 0 .3.1.3.3 0 .1-.1.3-.3.3h-1.4c-.1 0-.3-.1-.3-.3 0-.1.1-.3.3-.3h1.4zM156.4 62.5c.1.1 0 .3-.1.3l-1.2.7s-.1 0-.1 0c-.1 0-.2 0-.2-.1-.1-.1 0-.3.1-.3l1.2-.7c0-.1.2 0 .3.1zM156.3 68.5c.1.1.2.2.1.3 0 .1-.1.1-.2.1 0 0-.1 0-.1 0l-1.2-.7c-.1-.1-.2-.2-.1-.3.1-.1.2-.2.3-.1l1.2.7zM154.8 65.7c0 .9-.3 1.7-.8 2.4-.9 1.2-1.4 2.5-1.4 4v1.5c0 .7-.6 1.2-1.2 1.2h-1.1c-.7 0-1.2-.6-1.2-1.2V72c0-1.4-.5-2.8-1.4-4-.5-.7-.8-1.6-.8-2.4 0-1 .4-2 1.2-2.8.7-.7 1.7-1.2 2.8-1.2 1.1 0 2.1.4 2.8 1.1.7.9 1.1 1.9 1.1 3zm-1.2 2c.5-.6.7-1.3.7-2.1 0-.9-.4-1.8-1-2.5-.7-.7-1.5-1-2.5-1-1.9 0-3.4 1.6-3.4 3.4 0 .8.2 1.5.7 2.1.9 1.2 1.4 2.7 1.5 4.2h2.6c-.1-1.4.5-2.8 1.4-4.1zm-1.5 5.9l-2.6-.4v.2l2.6.3c0-.1 0-.1 0-.1zm0-.6v-.5h-2.6v.2l2.6.3zm-.3 1.2l-2.2-.3c.1.2.4.4.6.4h1.1c.3 0 .4-.1.5-.1zM154 60.2c.1.1.2.2.1.3l-.7 1.2c0 .1-.1.1-.2.1 0 0-.1 0-.1 0-.1-.1-.2-.2-.1-.3l.7-1.2c0-.2.2-.2.3-.1zM153.9 65.7c0 .1 0 .2 0 .3 0 .1-.1.2-.3.2-.1 0-.2-.1-.2-.3 0-.1 0-.2 0-.2 0-1.4-1.1-2.5-2.5-2.5-.1 0-.3-.1-.3-.3 0-.1.1-.3.3-.3 1.6 0 3 1.4 3 3.1zM153.5 66.5c.1.1.2.2.1.3-.1.2-.2.4-.4.6 0 .1-.1.1-.2.1s-.1 0-.2-.1-.1-.2 0-.4.2-.3.3-.5c.1 0 .3 0 .4 0zM151.1 59.6V61c0 .1-.1.3-.3.3-.1 0-.3-.1-.3-.3v-1.4c0-.1.1-.3.3-.3.2 0 .3.1.3.3zM150 69.6c0 .1 0 .3-.2.3 0 0-.1 0-.1 0-.1 0-.2-.1-.2-.2-.3-.8-.7-1.6-1.2-2.2-.1-.1-.2-.3-.3-.5-.1-.1 0-.3.1-.3.1-.1.3 0 .3.1.1.1.1.3.2.4.7.7 1.2 1.5 1.4 2.4zM148.7 61.5c.1.1 0 .3-.1.3 0 0-.1 0-.1 0-.1 0-.2 0-.2-.1l-.7-1.2c-.1-.1 0-.3.1-.3.1-.1.3 0 .3.1l.7 1.2zM148.3 66c0 .1-.1.3-.2.3s-.2-.1-.3-.2c0-.2 0-.3 0-.5 0-.1.1-.3.3-.3.1 0 .3.1.3.3-.1.2-.1.3-.1.4zM146.9 63.1c.1.1.2.2.1.3 0 .1-.1.1-.2.1 0 0-.1 0-.1 0l-1.2-.7c-.1-.1-.2-.2-.1-.3.1-.1.2-.2.3-.1l1.2.7zM147 67.9c.1.1 0 .3-.1.3l-1.2.7s-.1 0-.1 0c-.1 0-.2 0-.2-.1-.1-.1 0-.3.1-.3l1.2-.7s.2 0 .3.1zM146.1 65.4c.1 0 .3.1.3.3 0 .1-.1.3-.3.3h-1.4c-.1 0-.3-.1-.3-.3 0-.1.1-.3.3-.3h1.4zM87.2 11.3v5.2c0 .2-.2.4-.4.4h-5.2c-.2 0-.4-.2-.4-.4v-5.2c0-.2.2-.4.4-.4h4v-2c0-.8-.6-1.4-1.4-1.4-.8 0-1.4.6-1.4 1.4v1c0 .2-.2.4-.4.4s-.4-.2-.4-.4v-1c0-1.2.9-2.1 2.1-2.1 1.2 0 2.1.9 2.1 2.1v2h.5c.4 0 .5.1.5.4zm-.7 4.8v-4.4h-4.4v4.4h4.4zM149.9 20.2v7.2c0 .1-.1.2-.2.2h-13.6c-.1 0-.2-.1-.2-.2v-7.2c0-.1 0-.2.1-.2l1.8-1.2v-4c0-.1.1-.2.2-.2h9.8c.1 0 .2.1.2.2v4l1.8 1.2c.1 0 .1.1.1.2zm-.4 6.8v-6.4l-5.4 2.8 5.4 3.6zm-1.5-7.1h.9l-.9-.6v.6zm-11.1 7.3H149l-6-4-6.1 4zm11.1-6.4l.7-.4h-.7v.4zm-.4.2v-6h-9.3v6l3.9 2.1.6-.4c.1-.1.2-.1.3 0l.6.4 3.9-2.1zm-11.3 6l5.4-3.6-5.4-2.8V27zm1.4-6.2v-.4h-.7l.7.4zm0-.9v-.6l-.9.6h.9z"/><path fill="#6593AE" d="M149.5 20.6V27l-5.4-3.6zM148.9 19.9h-.9v-.5zM148.9 27.2h-12l6-4zM148.8 20.4l-.8.4v-.4z"/><path fill="#fff" d="M147.6 15v6l-3.9 2.1-.6-.4c-.1-.1-.2-.1-.3 0l-.6.4-3.9-2.1v-6h9.3zm-2.6 3.7v-.2c0-1.2-.9-2.1-2.1-2.1-1.2 0-2.1.9-2.1 2.1v.1c0 1.2.9 2.1 2.1 2.1h1.9c.1 0 .2-.1.2-.2s-.1-.2-.2-.2h-1.9c-.9 0-1.6-.7-1.6-1.6v-.1c0-.9.7-1.6 1.6-1.6.9 0 1.6.7 1.6 1.6v.2c0 .2-.2.4-.4.4s-.4-.2-.4-.4v-.3c0-.6-.5-1-1-1-.6 0-1 .5-1 1 0 .6.5 1 1 1 .3 0 .5-.1.7-.3.1.2.4.4.7.4.5-.1.9-.4.9-.9z"/><path fill="#325163" d="M145 18.5v.2c0 .5-.4.8-.8.8-.3 0-.6-.2-.7-.4-.2.2-.4.3-.7.3-.6 0-1-.5-1-1 0-.6.5-1 1-1 .6 0 1 .5 1 1v.3c0 .2.2.4.4.4s.4-.2.4-.4v-.2c0-.9-.7-1.6-1.6-1.6-.9 0-1.6.7-1.6 1.6v.1c0 .9.7 1.6 1.6 1.6h1.9c.1 0 .2.1.2.2s-.1.2-.2.2H143c-1.2 0-2.1-.9-2.1-2.1v-.1c0-1.2.9-2.1 2.1-2.1 1 .2 2 1.1 2 2.2zm-1.7-.1c0-.3-.2-.5-.5-.5s-.5.2-.5.5.2.5.5.5.5-.2.5-.5z"/><circle cx="142.8" cy="18.4" r=".5" fill="#fff"/><path fill="#6593AE" d="M141.7 23.4l-5.4 3.6v-6.4zM137.7 20.4v.4l-.7-.4zM137.7 19.4v.5h-.8z"/><path fill="#325163" d="M25.7 78.5v2.8c0 .7-.5 1.2-1.2 1.2h-.7v.7c0 .1 0 .2-.1.2 0 0-.1 0-.1 0s-.1 0-.1 0l-1.9-.9h-1c-.7 0-1.2-.5-1.2-1.2v-2.8c0-.7.5-1.2 1.2-1.2h4c.6 0 1.1.5 1.1 1.2zm-.5 2.8v-2.8c0-.4-.3-.7-.7-.7h-4c-.4 0-.7.3-.7.7v2.8c0 .4.3.7.7.7h1.1s.1 0 .1 0l1.6.8v-.5c0-.1.1-.2.2-.2h1c.4 0 .7-.4.7-.8zM23.5 79.3c0 .4-.2.7-.5.9-.2.1-.3.3-.3.6 0 .1-.1.2-.2.2s-.2-.1-.2-.2c0-.4.2-.8.6-1 .2-.1.3-.3.3-.5 0-.3-.2-.6-.6-.6-.3 0-.6.2-.6.6 0 .1-.1.2-.2.2s-.2-.1-.2-.2c0-.6.5-1 1-1s.9.5.9 1zM22.9 84.6v4.9c0 .7-.5 1.2-1.2 1.2h-6l-2.2 1s-.1 0-.1 0c-.1 0-.1 0-.2-.1s-.1-.2-.1-.2l.2-.7h-.6c-.7 0-1.2-.5-1.2-1.2v-4.9c0-.7.5-1.2 1.2-1.2h8.9c.8 0 1.3.5 1.3 1.2zm-.5 4.8v-4.9c0-.4-.3-.7-.7-.7h-8.9c-.4 0-.7.3-.7.7v4.9c0 .4.3.7.7.7h.9c.1 0 .1 0 .2.1 0 .1.1.1 0 .2l-.1.6 1.8-.8s.1 0 .1 0h6c.4 0 .7-.4.7-.8zM22.6 81.4s.1.1.1.2 0 .1-.1.2c0 0-.1.1-.2.1s-.1 0-.2-.1c0 0-.1-.1-.1-.2s0-.1.1-.2c0 0 .1-.1.2-.1s.2 0 .2.1z"/><path fill="#6593AE" d="M22.4 84.6v4.9c0 .4-.3.7-.7.7h-6s-.1 0-.1 0l-1.8.8.1-.6c0-.1 0-.1 0-.2s-.1-.1-.2-.1h-.9c-.4 0-.7-.3-.7-.7v-4.9c0-.4.3-.7.7-.7h8.9c.4 0 .7.4.7.8zm-1 .4c0-.1-.1-.2-.2-.2h-7.7c-.1 0-.2.1-.2.2s.1.2.2.2h7.7s.2-.1.2-.2zm0 1.3c0-.1-.1-.2-.2-.2h-7.7c-.1 0-.2.1-.2.2s.1.2.2.2h7.7c0 .1.2-.1.2-.2zm0 1.3c0-.1-.1-.2-.2-.2h-7.7c-.1 0-.2.1-.2.2s.1.2.2.2h7.7c0 .1.2 0 .2-.2zm0 1.3c0-.1-.1-.2-.2-.2h-7.7c-.1 0-.2.1-.2.2s.1.2.2.2h7.7c0 .1.2 0 .2-.2z"/><path fill="#325163" d="M21.1 84.8c.1 0 .2.1.2.2s-.1.2-.2.2h-7.7c-.1 0-.2-.1-.2-.2s.1-.2.2-.2h7.7zM21.1 86.1c.1 0 .2.1.2.2s-.1.2-.2.2h-7.7c-.1 0-.2-.1-.2-.2s.1-.2.2-.2h7.7zM21.1 87.4c.1 0 .2.1.2.2s-.1.2-.2.2h-7.7c-.1 0-.2-.1-.2-.2s.1-.2.2-.2h7.7zM21.1 88.7c.1 0 .2.1.2.2s-.1.2-.2.2h-7.7c-.1 0-.2-.1-.2-.2s.1-.2.2-.2h7.7zM41.5 6.1V23c0 .2-.2.4-.4.4h-23c-.2 0-.4-.2-.4-.4V6.1c0-.2.2-.4.4-.4h23c.2 0 .4.2.4.4zm-.8 16.5V10.1H18.5v12.5h22.2zm0-13.3V6.5H18.5v2.8h22.2z"/><path fill="#6593AE" d="M40.7 6.5v2.8H18.5V6.5h22.2zm-.8 2.1V7.2c0-.2-.2-.4-.4-.4H23.2c-.2 0-.4.2-.4.4v1.4c0 .3.2.4.4.4h16.4c.2 0 .3-.1.3-.4zm-17.7-.7c0-.1 0-.2-.1-.3-.1-.1-.2-.1-.3-.1-.1 0-.2 0-.3.1-.1.1-.1.2-.1.3 0 .1 0 .2.1.3.1.1.2.1.3.1.1 0 .2 0 .3-.1.1-.1.1-.2.1-.3zm-1.2 0c0-.1 0-.2-.1-.3-.1-.1-.2-.1-.3-.1-.1 0-.2 0-.3.1-.1.1-.1.2-.1.3 0 .1 0 .2.1.3.1.1.2.1.3.1.1 0 .2 0 .3-.1.1-.1.1-.2.1-.3zm-1.2 0c0-.1 0-.2-.1-.3-.1-.1-.2-.1-.3-.1-.1 0-.2 0-.3.1-.1.1-.1.2-.1.3 0 .1 0 .2.1.3.1.1.2.1.3.1.1 0 .2 0 .3-.1 0-.1.1-.2.1-.3z"/><path fill="#325163" d="M39.9 7.2v1.4c0 .2-.2.4-.4.4H23.2c-.2 0-.4-.2-.4-.4V7.2c0-.2.2-.4.4-.4h16.4c.2 0 .3.2.3.4zm-.7 1.1v-.7H23.5v.7h15.7zM38.8 17.3V21c0 .2-.2.4-.4.4h-4.5c-.2 0-.4-.2-.4-.4v-3.7c0-.2.2-.4.4-.4h4.5c.2 0 .4.2.4.4zm-.8 3.3v-2.9h-3.7v2.9H38zM38.4 11.4c.2 0 .4.2.4.4s-.2.4-.4.4h-4.5c-.2 0-.4-.2-.4-.4s.2-.4.4-.4h4.5zM38.4 13.2c.2 0 .4.2.4.4s-.2.4-.4.4h-4.5c-.2 0-.4-.2-.4-.4s.2-.4.4-.4h4.5zM38.4 15.1c.2 0 .4.2.4.4s-.2.4-.4.4h-4.5c-.2 0-.4-.2-.4-.4s.2-.4.4-.4h4.5z"/><path fill="#C3D0D8" d="M34.3 17.7H38v2.9h-3.7z"/><path fill="#325163" d="M32.2 11.8v3.7c0 .2-.2.4-.4.4h-4.5c-.2 0-.4-.2-.4-.4v-3.7c0-.2.2-.4.4-.4h4.5c.3 0 .4.2.4.4zm-.7 3.3v-2.9h-3.7v2.9h3.7zM31.9 16.9c.2 0 .4.2.4.4s-.2.4-.4.4h-4.5c-.2 0-.4-.2-.4-.4s.2-.4.4-.4h4.5zM31.9 18.7c.2 0 .4.2.4.4s-.2.4-.4.4h-4.5c-.2 0-.4-.2-.4-.4s.2-.4.4-.4h4.5zM31.9 20.6c.2 0 .4.2.4.4s-.2.4-.4.4h-4.5c-.2 0-.4-.2-.4-.4s.2-.4.4-.4h4.5z"/><path fill="#C3D0D8" d="M27.7 12.2h3.7v2.9h-3.7z"/><path fill="#325163" d="M25.3 11.4c.2 0 .4.2.4.4s-.2.4-.4.4h-4.5c-.2 0-.4-.2-.4-.4s.2-.4.4-.4h4.5zM25.3 13.2c.2 0 .4.2.4.4s-.2.4-.4.4h-4.5c-.2 0-.4-.2-.4-.4s.2-.4.4-.4h4.5zM25.3 15.1c.2 0 .4.2.4.4s-.2.4-.4.4h-4.5c-.2 0-.4-.2-.4-.4s.2-.4.4-.4h4.5zM25.3 16.9c.2 0 .4.2.4.4s-.2.4-.4.4h-4.5c-.2 0-.4-.2-.4-.4s.2-.4.4-.4h4.5zM25.3 18.7c.2 0 .4.2.4.4s-.2.4-.4.4h-4.5c-.2 0-.4-.2-.4-.4s.2-.4.4-.4h4.5zM25.3 20.6c.2 0 .4.2.4.4s-.2.4-.4.4h-4.5c-.2 0-.4-.2-.4-.4s.2-.4.4-.4h4.5z"/><path fill="#010101" d="M22.1 7.6c.1.1.1.2.1.3 0 .1 0 .2-.1.3-.1.1-.2.1-.3.1-.1 0-.2 0-.3-.1-.1-.1-.1-.2-.1-.3 0-.1 0-.2.1-.3.1-.1.2-.1.3-.1.2 0 .3.1.3.1zM20.9 7.6c.1.1.1.2.1.3 0 .1 0 .2-.1.3-.1.1-.2.1-.3.1-.1 0-.2 0-.3-.1-.1-.1-.1-.2-.1-.3 0-.1 0-.2.1-.3.1-.1.2-.1.3-.1.1 0 .2.1.3.1zM19.6 7.6c.1.1.1.2.1.3 0 .1 0 .2-.1.3-.1.1-.2.1-.3.1-.1 0-.2 0-.3-.1 0-.1 0-.2 0-.3 0-.1 0-.2.1-.3.1-.1.2-.1.3-.1.1 0 .2.1.2.1z"/><path fill="#325163" d="M20.8 47.8c.2.2.3.5.3.7 0 .3-.1.5-.3.7-.2.2-.5.3-.7.3-.3 0-.5-.1-.7-.3l-2.9-2.9s-.1-.1-.1-.2 0-.1.1-.2l.1-.1-.3-.3c-.8.6-1.8 1-2.8 1-1.2 0-2.4-.5-3.3-1.4-1.8-1.8-1.8-4.8 0-6.6 1.8-1.8 4.8-1.8 6.6 0 1.7 1.7 1.8 4.3.4 6.1l.3.3.1-.1c.1-.1.2-.1.3 0l2.9 3zm-.3 1.1c.2-.2.2-.5 0-.7l-2.8-2.8-.7.7 2.8 2.8c.1.2.4.2.7 0zm-2.9-7c0-1.1-.4-2.2-1.2-2.9-.8-.8-1.8-1.2-2.9-1.2-1.1 0-2.2.4-2.9 1.2-.8.8-1.2 1.8-1.2 2.9 0 1.1.4 2.2 1.2 2.9.8.8 1.8 1.2 2.9 1.2 1.1 0 2.2-.4 2.9-1.2.7-.8 1.2-1.8 1.2-2.9zm-.7 3.6l.2-.2-.3-.3s-.1.1-.1.1-.1.1-.1.1l.3.3z"/><path fill="#C3D0D8" d="M20.5 48.2c.2.2.2.5 0 .7-.2.2-.5.2-.7 0L17 46.1l.7-.7 2.8 2.8z"/><path fill="#325163" d="M16 39.3c.7.7 1.1 1.6 1.1 2.6s-.4 1.9-1.1 2.6c-.7.7-1.6 1.1-2.6 1.1s-1.9-.4-2.6-1.1c-.7-.7-1.1-1.6-1.1-2.6s.4-1.9 1.1-2.6c.7-.7 1.6-1.1 2.6-1.1s1.9.4 2.6 1.1zm-.3 4.8c1.2-1.2 1.2-3.2 0-4.5-.6-.6-1.4-.9-2.2-.9-.8 0-1.6.3-2.2.9-1.2 1.2-1.2 3.2 0 4.5.6.6 1.4.9 2.2.9.8.1 1.6-.3 2.2-.9zM15.4 39.9c.1.1.1.2 0 .3 0 0-.1.1-.2.1s-.1 0-.2-.1-.3-.3-.4-.3c-.1-.1-.2-.2-.1-.3.1-.1.2-.2.3-.1.3.1.5.2.6.4zM15.4 43.6c.1.1.1.2 0 .3-.5.5-1.3.8-2 .8-.1 0-.2 0-.3 0-.1 0-.2-.1-.2-.3 0-.1.1-.2.3-.2.7.1 1.4-.2 2-.7 0 0 .1 0 .2.1zM13.9 39.1c.1 0 .2.1.2.3 0 .1-.1.2-.3.2-.7-.1-1.5.1-2 .7 0 0-.1.1-.2.1s-.1 0-.2-.1-.1-.2 0-.3c.6-.8 1.6-1.1 2.5-.9zM12.2 43.9c.1.1.1.2.1.3 0 .1-.1.1-.2.1 0 0-.1 0-.1 0-.2-.1-.4-.3-.5-.4-.1-.1-.1-.2 0-.3.1-.1.2-.1.3 0 .1.1.2.2.4.3z"/><path fill="#F1F2F2" d="M91.2 63.2H80.4c-.4 2.8-.5 5.9-2.8 7H94c-2.3-1.1-2.4-4.2-2.8-7z"/><path fill="#325163" d="M95 70.5H76.6l.9-.5c2-1 2.3-3.4 2.6-5.9 0-.3.1-.7.1-1v-.2h11.2v.2c0 .3.1.7.1 1 .3 2.5.6 4.9 2.6 5.9l.9.5zM78.4 70h14.8c-1.6-1.3-1.8-3.6-2.1-5.8 0-.3-.1-.5-.1-.8H80.6c0 .3-.1.5-.1.8-.2 2.2-.5 4.5-2.1 5.8z"/><path fill="#F1F2F2" d="M110 63.3H61.5c-1 0-1.9-.8-1.9-1.9V28c0-1 .8-1.9 1.9-1.9H110c1 0 1.9.8 1.9 1.9v33.4c0 1-.9 1.9-1.9 1.9z"/><path fill="#325163" d="M110 63.5H61.5c-1.2 0-2.1-.9-2.1-2.1V28c0-1.2.9-2.1 2.1-2.1H110c1.2 0 2.1.9 2.1 2.1v33.4c0 1.2-.9 2.1-2.1 2.1zM61.5 26.3c-.9 0-1.6.7-1.6 1.6v33.4c0 .9.7 1.6 1.6 1.6H110c.9 0 1.6-.7 1.6-1.6V28c0-.9-.7-1.6-1.6-1.6H61.5z"/><path fill="#fff" d="M108.6 57.5H63c-.5 0-.9-.4-.9-.9V29.5c0-.5.4-.9.9-.9h45.6c.5 0 .9.4.9.9v27.1c0 .5-.4.9-.9.9z"/><path fill="#325163" d="M108.6 57.7H63c-.7 0-1.2-.5-1.2-1.2v-27c0-.7.5-1.2 1.2-1.2h45.6c.7 0 1.2.5 1.2 1.2v27.1c0 .6-.6 1.1-1.2 1.1zM63 28.7c-.4 0-.7.3-.7.7v27.1c0 .4.3.7.7.7h45.6c.4 0 .7-.3.7-.7v-27c0-.4-.3-.7-.7-.7H63zM64.5 30.9h12.7v2.8H64.5z"/><path fill="#F1F2F2" d="M79.5 30.9h27.8v2.8H79.5z"/><path fill="#BAC6CE" d="M94 70.2c-2.3-1.2-2.4-4.2-2.8-7H80.8l7.6 7H94z" opacity=".35"/><path fill="#DFE9F1" d="M64.5 35.7h42.8v7.5H64.5z"/><path fill="#6593AE" d="M64.5 45.1h12.7V51H64.5zM79.5 45.1h12.7V51H79.5zM94.6 45.1h12.7V51H94.6z"/><path fill="#BCBEC0" d="M64.5 52.4h42.8v.9H64.5zM64.5 54.1h42.8v.9H64.5z"/></svg>