<svg xmlns="http://www.w3.org/2000/svg" xmlns:xlink="http://www.w3.org/1999/xlink" viewBox="0 0 359.5 222.9" enable-background="new 0 0 359.5 222.9"><path fill="#fff" d="M124.5 116.8H78.6c-3.7 0-6.6-3-6.6-6.6V91.8c0-2.6-2.1-4.6-4.6-4.6H42.8v-2h24.6c3.7 0 6.6 3 6.6 6.6v18.5c0 2.6 2.1 4.6 4.6 4.6h45.9v1.9zm-51.2 46.9H57.4v-2h15.9c2.6 0 4.6-2.1 4.6-4.6v-4.2c0-3.7 3-6.6 6.6-6.6h11c2.6 0 4.6-2.1 4.6-4.6V116h2v25.7c0 3.7-3 6.6-6.6 6.6h-11c-2.6 0-4.6 2.1-4.6 4.6v4.2c0 3.6-3 6.6-6.6 6.6m190-38.3h-40.6v-2h40.6c2.6 0 4.6-2.1 4.6-4.6V93.3c0-3.7 3-6.6 6.6-6.6H310c3.2 0 5.9 2.6 5.9 5.9v15.1h-2V92.5c0-2.1-1.7-3.9-3.9-3.9h-35.5c-2.6 0-4.6 2.1-4.6 4.6v25.5c0 3.7-3 6.7-6.6 6.7M136 94.4h-2V47.2c0-1.8-1.4-3.2-3.2-3.2h-20.3c-2.9 0-5.2-2.3-5.2-5.2V27.2c0-1.8-1.4-3.2-3.2-3.2h-34v-2h34.1c2.9 0 5.2 2.3 5.2 5.2v11.6c0 1.8 1.4 3.2 3.2 3.2h20.3c2.9 0 5.2 2.3 5.2 5.2v47.2zm84.4-58.6c0-.1 0-.3 0-.4 0-2.9 2.3-5.2 5.2-5.2.4 0 .8 0 1.1.1 1.4-2.3 3.9-3.9 6.8-3.9 4.2 0 7.7 3.3 7.9 7.5.6-.2 1.2-.3 1.8-.3 3.8 0 6.9 3.1 6.9 6.9 0 3.8-3.1 6.9-6.9 6.9-.4 0-.7 0-1.1-.1H223c-3.4 0-6.1-2.7-6.1-6.1.1-2.3 1.5-4.4 3.5-5.4"/><path fill="#DFEAF1" d="M243.4 48.5c-.4 0-.8 0-1.2-.1h-19c-3.9 0-7.1-3.2-7.1-7.1 0-2.5 1.3-4.8 3.4-6 .1-3.6 3.2-6.4 6.9-6 1.7-2.4 4.4-3.8 7.3-3.8 4.4 0 8 3.1 8.8 7.3.3 0 .7-.1 1-.1 4.4 0 7.9 3.5 7.9 7.9-.1 4.4-3.7 7.9-8 7.9m-17.8-17.3c-2.3 0-4.2 1.9-4.2 4.2 0 .1 0 .2 0 .4l.1.7-.6.3c-1.8.9-2.8 2.6-2.8 4.6 0 2.8 2.3 5.1 5.1 5.1h19.3c.3.1.7.1.9.1 3.3 0 5.9-2.6 5.9-5.9 0-3.3-2.6-5.9-5.9-5.9-.5 0-1 .1-1.6.2l-1.2.3-.1-1.2c-.2-3.7-3.3-6.6-6.9-6.6-2.5 0-4.7 1.3-6 3.4l-.4.6-.7-.2c-.3-.1-.6-.1-.9-.1"/><path fill="#fff" d="M37.5 128.1c0-.1 0-.3 0-.4 0-2.9 2.3-5.2 5.2-5.2.4 0 .8 0 1.1.1 1.4-2.3 3.9-3.9 6.8-3.9 4.2 0 7.7 3.3 7.9 7.5.6-.2 1.2-.3 1.8-.3 3.8 0 6.9 3.1 6.9 6.9 0 3.8-3.1 6.9-6.9 6.9-.4 0-.7 0-1.1-.1h-19c-3.4 0-6.1-2.7-6.1-6.1 0-2.3 1.3-4.4 3.4-5.4"/><path fill="#DFEAF1" d="M60.4 140.8c-.4 0-.8 0-1.2-.1h-19c-3.9 0-7.1-3.2-7.1-7.1 0-2.5 1.3-4.8 3.4-6 .1-3.6 3.2-6.4 6.9-6 1.7-2.4 4.4-3.8 7.3-3.8 4.4 0 8 3.1 8.8 7.3.3 0 .7-.1 1-.1 4.4 0 7.9 3.5 7.9 7.9s-3.7 7.9-8 7.9m-17.8-17.3c-2.3 0-4.2 1.9-4.2 4.2 0 .1 0 .2 0 .4l.1.7-.6.3c-1.8.9-2.8 2.6-2.8 4.6 0 2.8 2.3 5.1 5.1 5.1h19.3c.3.1.7.1.9.1 3.3 0 5.9-2.6 5.9-5.9s-2.6-5.9-5.9-5.9c-.5 0-1 .1-1.6.2l-1.2.3-.1-1.2c-.2-3.7-3.3-6.6-6.9-6.6-2.5 0-4.7 1.3-6 3.4l-.4.6-.7-.2c-.3-.1-.6-.1-.9-.1"/><path fill="#fff" d="M255.9 193.2c0-.2 0-.5 0-.7 0-4.7 3.8-8.4 8.4-8.4.6 0 1.3.1 1.8.2 2.3-3.8 6.4-6.3 11.1-6.3 6.9 0 12.5 5.4 12.9 12.2 1-.3 1.9-.4 3-.4 6.2 0 11.2 5 11.2 11.2 0 6.2-5 11.2-11.2 11.2-.6 0-1.2-.1-1.8-.2h-31c-5.5 0-9.9-4.4-9.9-9.9 0-3.9 2.2-7.2 5.5-8.9"/><path fill="#DFEAF1" d="M293 213.2c-.6 0-1.2-.1-1.9-.2h-30.9c-6 0-10.9-4.9-10.9-10.9 0-3.9 2.1-7.5 5.5-9.4 0 0 0-.1 0-.1 0-5.6 5-10.2 10.8-9.3 2.6-3.9 6.9-6.2 11.5-6.2 7 0 12.8 5.2 13.7 11.9.7-.1 1.4-.2 2.1-.2 6.7 0 12.2 5.5 12.2 12.2.1 6.7-5.4 12.2-12.1 12.2m-28.7-28.1c-4.1 0-7.4 3.3-7.4 7.4 0 .2 0 .4 0 .6l.1.7-.6.3c-3.1 1.5-5 4.6-5 8 0 4.9 4 8.9 8.9 8.9h31.1c.6.1 1.1.1 1.6.1 5.6 0 10.2-4.6 10.2-10.2s-4.6-10.2-10.2-10.2c-.9 0-1.8.1-2.7.4l-1.2.3-.1-1.2c-.4-6.3-5.6-11.2-11.9-11.2-4.2 0-8 2.2-10.2 5.8l-.4.6-.7-.2c-.5 0-1-.1-1.5-.1"/><path fill="#fff" d="M250.8 6.6h21.8v2h-21.8zm86.8 71h21.8v2h-21.8zM0 47.5h21.8v2H0zm49.5 163.7h21.8v2H49.5zm266.8-18.6h21.8v2h-21.8z"/><path fill="#F1F2F2" fill-rule="evenodd" d="M219.5 190h-80.1c-1 0-1.8-.8-1.8-1.8v-32.9c0-1 .8-1.8 1.8-1.8h80.1c1 0 1.8.8 1.8 1.8v32.9c0 1-.8 1.8-1.8 1.8" clip-rule="evenodd"/><path fill="#325163" d="M219.5 190.5h-80.1c-1.3 0-2.3-1-2.3-2.3v-32.9c0-1.3 1-2.3 2.3-2.3h80.1c1.3 0 2.3 1 2.3 2.3v32.9c0 1.3-1 2.3-2.3 2.3M139.4 154c-.7 0-1.3.6-1.3 1.3v32.9c0 .7.6 1.3 1.3 1.3h80.1c.7 0 1.3-.6 1.3-1.3v-32.9c0-.7-.6-1.3-1.3-1.3h-80.1z"/><path fill="#ABB5B9" fill-rule="evenodd" d="M213.3 158.9h2.6c.3 0 .5.2.5.5v1.9c0 .3-.2.5-.5.5h-2.6c-.3 0-.5-.2-.5-.5v-1.9c-.1-.3.2-.5.5-.5m.1 3.6h2.3c.4 0 .7.3.7.7v2.6c0 .4-.3.7-.7.7h-2.3c-.4 0-.7-.3-.7-.7v-2.6c.1-.4.3-.7.7-.7m0 4.6h2.3c.4 0 .7.3.7.7v2.6c0 .4-.3.7-.7.7h-2.3c-.4 0-.7-.3-.7-.6v-2.6c.1-.5.4-.8.7-.8m0 4.6h2.3c.4 0 .7.3.7.7v2.6c0 .4-.3.7-.7.7h-2.3c-.4 0-.7-.3-.7-.7v-2.6c.1-.4.4-.7.7-.7m0 4.6h2.3c.4 0 .7.3.7.7v2.6c0 .4-.3.7-.7.7h-2.3c-.4 0-.7-.3-.7-.7V177c.1-.4.4-.7.7-.7m0 4.6h2.3c.4 0 .7.3.7.7v2.6c0 .4-.3.7-.7.7h-2.3c-.4 0-.7-.3-.7-.6v-2.6c.1-.5.4-.8.7-.8m-4.7-22h2.6c.3 0 .5.2.5.5v1.9c0 .3-.2.5-.5.5h-2.6c-.3 0-.5-.2-.5-.5v-1.9c0-.3.2-.5.5-.5m-4 3.6h6.5c.4 0 .7.3.7.7v2.5c0 .4-.3.7-.7.7h-6.5c-.4 0-.7-.3-.7-.7v-2.5c0-.3.3-.6.7-.7m2.9 4.6h3.5c.4 0 .7.3.7.7v2.5c0 .4-.3.7-.7.7h-3.5c-.4 0-.7-.3-.7-.7v-2.5c0-.4.4-.7.7-.7m-3.4 4.6h7c.4 0 .7.3.7.7v2.5c0 .4-.3.7-.7.7h-7c-.4 0-.7-.3-.7-.7v-2.5c0-.4.3-.7.7-.7m4.7 4.6h2.3c.4 0 .7.3.7.7v2.6c0 .4-.3.7-.7.7h-2.3c-.4 0-.7-.3-.7-.7V177c0-.4.3-.7.7-.7m0 4.6h2.3c.4 0 .7.3.7.7v2.6c0 .4-.3.7-.7.7h-2.3c-.4 0-.7-.3-.7-.7v-2.6c0-.4.3-.7.7-.7m-4.4-22h2.2c.3 0 .5.2.5.5v1.9c0 .3-.2.5-.5.5h-2.2c-.3 0-.5-.2-.5-.5v-1.9c0-.3.2-.5.5-.5m-4.3 0h2.2c.3 0 .5.2.5.5v1.9c0 .3-.2.5-.5.5h-2.2c-.3 0-.5-.2-.5-.5v-1.9c0-.3.2-.5.5-.5m-4.3 0h2.2c.3 0 .5.2.5.5v1.9c0 .3-.2.5-.5.5h-2.2c-.3 0-.5-.2-.5-.5v-1.9c0-.3.2-.5.5-.5m-4.3 0h2.2c.3 0 .5.2.5.5v1.9c0 .3-.2.5-.5.5h-2.2c-.3 0-.5-.2-.5-.5v-1.9c0-.3.2-.5.5-.5m-4.3 0h2.2c.3 0 .5.2.5.5v1.9c0 .3-.2.5-.5.5h-2.2c-.3 0-.5-.2-.5-.5v-1.9c0-.2.3-.5.5-.5m-4.2 0h2.2c.3 0 .5.2.5.5v1.9c0 .3-.2.5-.5.5h-2.2c-.3 0-.5-.2-.5-.5v-1.9c-.1-.2.2-.5.5-.5m-4.3 0h2.2c.3 0 .5.2.5.5v1.9c0 .3-.2.5-.5.5h-2.2c-.3 0-.5-.2-.5-.5v-1.9c-.1-.2.2-.5.5-.5m-4.3 0h2.2c.3 0 .5.2.5.5v1.9c0 .3-.2.5-.5.5h-2.2c-.3 0-.5-.2-.5-.5v-1.9c0-.2.2-.5.5-.5m-4.3 0h2.2c.3 0 .5.2.5.5v1.9c0 .3-.2.5-.5.5h-2.2c-.3 0-.5-.2-.5-.5v-1.9c0-.2.2-.5.5-.5m-4.3.1h2.2c.3 0 .5.2.5.5v1.9c0 .3-.2.5-.5.5h-2.2c-.3 0-.5-.2-.5-.5v-1.9c0-.3.2-.5.5-.5m-4.3 0h2.2c.3 0 .5.2.5.5v1.9c0 .3-.2.5-.5.5h-2.2c-.3 0-.5-.2-.5-.5v-1.9c0-.3.2-.5.5-.5m-4.3 0h2.2c.3 0 .5.2.5.5v1.9c0 .3-.2.5-.5.5h-2.2c-.3 0-.5-.2-.5-.5v-1.9c0-.3.2-.5.5-.5m-4.3 0h2.2c.3 0 .5.2.5.5v1.9c0 .3-.2.5-.5.5H153c-.3 0-.5-.2-.5-.5v-1.9c0-.3.3-.5.5-.5m-4.2 0h2.2c.3 0 .5.2.5.5v1.9c0 .3-.2.5-.5.5h-2.2c-.3 0-.5-.2-.5-.5v-1.9c-.1-.3.2-.5.5-.5m-4.9 0h2.6c.3 0 .5.2.5.5v1.9c0 .3-.2.5-.5.5h-2.6c-.3 0-.5-.2-.5-.5v-1.9c0-.3.3-.5.5-.5m56.1 3.6h2.3c.4 0 .6.3.6.6v2.6c0 .4-.3.6-.6.6H200c-.4 0-.6-.3-.6-.6v-2.6c0-.4.3-.6.6-.6m-4.6 0h2.3c.4 0 .6.3.6.6v2.6c0 .4-.3.6-.6.6h-2.3c-.4 0-.6-.3-.6-.6v-2.6c-.1-.3.2-.6.6-.6m-4.7 0h2.3c.4 0 .6.3.6.6v2.6c0 .4-.3.6-.6.6h-2.3c-.4 0-.6-.3-.6-.6v-2.6c0-.3.3-.6.6-.6m-4.6 0h2.3c.4 0 .6.3.6.6v2.6c0 .4-.3.6-.6.6h-2.3c-.4 0-.6-.3-.6-.6v-2.6c-.1-.3.2-.6.6-.6m-4.7 0h2.3c.4 0 .6.3.6.6v2.6c0 .4-.3.6-.6.6h-2.3c-.4 0-.6-.3-.6-.6v-2.6c0-.3.3-.6.6-.6m-4.6 0h2.3c.4 0 .6.3.6.6v2.6c0 .4-.3.6-.6.6h-2.3c-.4 0-.6-.3-.6-.6v-2.6c-.1-.3.2-.6.6-.6m-4.7 0h2.3c.4 0 .6.3.6.6v2.6c0 .4-.3.6-.6.6h-2.3c-.4 0-.6-.3-.6-.6v-2.6c0-.3.3-.6.6-.6m-4.6 0h2.3c.4 0 .6.3.6.6v2.6c0 .4-.3.6-.6.6h-2.3c-.4 0-.6-.3-.6-.6v-2.6c-.1-.3.2-.6.6-.6m-4.7 0h2.3c.4 0 .6.3.6.6v2.6c0 .4-.3.6-.6.6h-2.3c-.4 0-.6-.3-.6-.6v-2.6c0-.3.3-.6.6-.6m-4.6 0h2.3c.4 0 .6.3.6.6v2.6c0 .4-.3.6-.6.6h-2.3c-.4 0-.6-.3-.6-.6v-2.6c-.1-.3.2-.6.6-.6m-4.7 0h2.3c.4 0 .6.3.6.6v2.6c0 .4-.3.6-.6.6h-2.3c-.4 0-.6-.3-.6-.6v-2.6c0-.3.3-.6.6-.6m-4.6 0h2.3c.4 0 .6.3.6.6v2.6c0 .4-.3.6-.6.6h-2.3c-.4 0-.6-.3-.6-.6v-2.6c-.1-.3.2-.6.6-.6m-4.8.1h2.3c.4 0 .7.3.7.7v2.6c0 .4-.3.7-.7.7h-2.3c-.4 0-.7-.3-.7-.7v-2.6c0-.4.3-.7.7-.7m0 4.5h4.8c.4 0 .7.3.7.7v2.5c0 .4-.3.7-.7.7h-4.8c-.4 0-.7-.3-.7-.7v-2.5c0-.3.3-.7.7-.7m0 4.6h5.7c.4 0 .7.3.7.7v2.5c0 .4-.3.7-.7.7h-5.7c-.4 0-.7-.3-.7-.7v-2.5c0-.4.3-.7.7-.7m0 4.6h8.2c.4 0 .7.3.7.7v2.5c0 .4-.3.7-.7.7h-8.2c-.4 0-.7-.3-.7-.7v-2.5c0-.4.4-.7.7-.7m.1 4.6h3.4c.4 0 .7.3.7.7v2.5c0 .4-.3.7-.7.7h-3.4c-.4 0-.7-.3-.7-.7v-2.5c0-.4.3-.7.7-.7m6.7-13.8h2.5c.4 0 .7.3.7.7v2.5c0 .4-.3.7-.7.7h-2.5c-.4 0-.7-.3-.7-.7v-2.5c0-.4.3-.7.7-.7m4.8 0h2.5c.4 0 .7.3.7.7v2.5c0 .4-.3.7-.7.7h-2.5c-.4 0-.7-.3-.7-.7v-2.5c0-.4.3-.7.7-.7m4.7 0h2.5c.4 0 .7.3.7.7v2.5c0 .4-.3.7-.7.7h-2.5c-.4 0-.7-.3-.7-.7v-2.5c0-.4.3-.7.7-.7m4.7 0h2.5c.4 0 .7.3.7.7v2.5c0 .4-.3.7-.7.7h-2.5c-.4 0-.7-.3-.7-.7v-2.5c.1-.4.4-.7.7-.7m4.8 0h2.5c.4 0 .7.3.7.7v2.5c0 .4-.3.7-.7.7h-2.5c-.4 0-.7-.3-.7-.7v-2.5c0-.4.3-.7.7-.7m4.7 0h2.5c.4 0 .7.3.7.7v2.5c0 .4-.3.7-.7.7h-2.5c-.4 0-.7-.3-.7-.7v-2.5c0-.4.3-.7.7-.7m4.8 0h2.5c.4 0 .7.3.7.7v2.5c0 .4-.3.7-.7.7h-2.5c-.4 0-.7-.3-.7-.7v-2.5c0-.4.3-.7.7-.7m4.7 0h2.5c.4 0 .7.3.7.7v2.5c0 .4-.3.7-.7.7h-2.5c-.4 0-.7-.3-.7-.7v-2.5c0-.4.3-.7.7-.7m4.7 0h2.5c.4 0 .7.3.7.7v2.5c0 .4-.3.7-.7.7h-2.5c-.4 0-.7-.3-.7-.7v-2.5c0-.4.4-.7.7-.7m4.8 0h2.5c.4 0 .7.3.7.7v2.5c0 .4-.3.7-.7.7h-2.5c-.4 0-.7-.3-.7-.7v-2.5c0-.4.3-.7.7-.7m4.7-.1h2.5c.4 0 .7.3.7.7v2.5c0 .4-.3.7-.7.7h-2.5c-.4 0-.7-.3-.7-.7v-2.5c0-.3.3-.7.7-.7m4.7 0h2.5c.4 0 .7.3.7.7v2.5c0 .4-.3.7-.7.7H203c-.4 0-.7-.3-.7-.7v-2.5c.1-.4.4-.7.7-.7m-50.8 4.7h2.5c.4 0 .7.3.7.7v2.5c0 .4-.3.7-.7.7h-2.5c-.4 0-.7-.3-.7-.7v-2.5c.1-.4.4-.7.7-.7m4.8 0h2.5c.4 0 .7.3.7.7v2.5c0 .4-.3.7-.7.7H157c-.4 0-.7-.3-.7-.7v-2.5c0-.4.3-.7.7-.7m4.7 0h2.5c.4 0 .7.3.7.7v2.5c0 .4-.3.7-.7.7h-2.5c-.4 0-.7-.3-.7-.7v-2.5c0-.4.3-.7.7-.7m4.8 0h2.5c.4 0 .7.3.7.7v2.5c0 .4-.3.7-.7.7h-2.5c-.4 0-.7-.3-.7-.7v-2.5c0-.4.3-.7.7-.7m4.7 0h2.5c.4 0 .7.3.7.7v2.5c0 .4-.3.7-.7.7h-2.5c-.4 0-.7-.3-.7-.7v-2.5c0-.4.3-.7.7-.7m4.7 0h2.5c.4 0 .7.3.7.7v2.5c0 .4-.3.7-.7.7h-2.5c-.4 0-.7-.3-.7-.7v-2.5c.1-.4.4-.7.7-.7m4.8 0h2.5c.4 0 .7.3.7.7v2.5c0 .4-.3.7-.7.7h-2.5c-.4 0-.7-.3-.7-.7v-2.5c0-.4.3-.7.7-.7m4.7 0h2.5c.4 0 .7.3.7.7v2.5c0 .4-.3.7-.7.7h-2.5c-.4 0-.7-.3-.7-.7v-2.5c0-.4.3-.7.7-.7m4.8-.1h2.5c.4 0 .7.3.7.7v2.5c0 .4-.3.7-.7.7h-2.5c-.4 0-.7-.3-.7-.7v-2.5c0-.3.3-.7.7-.7m4.7 0h2.5c.4 0 .7.3.7.7v2.5c0 .4-.3.7-.7.7h-2.5c-.4 0-.7-.3-.7-.7v-2.5c0-.4.3-.7.7-.7m4.7 0h2.5c.4 0 .7.3.7.7v2.5c0 .4-.3.7-.7.7h-2.5c-.4 0-.7-.3-.7-.7v-2.5c0-.4.4-.7.7-.7m-44.9 4.7h2.5c.4 0 .7.3.7.7v2.5c0 .4-.3.7-.7.7h-2.5c-.4 0-.7-.3-.7-.7v-2.5c.1-.4.4-.7.7-.7m4.8 0h2.5c.4 0 .7.3.7.7v2.5c0 .4-.3.7-.7.7h-2.5c-.4 0-.7-.3-.7-.7v-2.5c0-.4.3-.7.7-.7m4.7 0h2.5c.4 0 .7.3.7.7v2.5c0 .4-.3.7-.7.7h-2.5c-.4 0-.7-.3-.7-.7v-2.5c0-.4.3-.7.7-.7m4.8 0h2.5c.4 0 .7.3.7.7v2.5c0 .4-.3.7-.7.7H169c-.4 0-.7-.3-.7-.7v-2.5c0-.4.3-.7.7-.7m4.7 0h2.5c.4 0 .7.3.7.7v2.5c0 .4-.3.7-.7.7h-2.5c-.4 0-.7-.3-.7-.7v-2.5c0-.4.3-.7.7-.7m4.7-.1h2.5c.4 0 .7.3.7.7v2.5c0 .4-.3.7-.7.7h-2.5c-.4 0-.7-.3-.7-.7V177c0-.3.4-.7.7-.7m4.8 0h2.5c.4 0 .7.3.7.7v2.5c0 .4-.3.7-.7.7h-2.5c-.4 0-.7-.3-.7-.7V177c0-.4.3-.7.7-.7m4.7 0h2.5c.4 0 .7.3.7.7v2.5c0 .4-.3.7-.7.7h-2.5c-.4 0-.7-.3-.7-.7V177c0-.4.3-.7.7-.7m4.7 0h2.5c.4 0 .7.3.7.7v2.5c0 .4-.3.7-.7.7h-2.5c-.4 0-.7-.3-.7-.7V177c.1-.4.4-.7.7-.7m4.8 0h2.5c.4 0 .7.3.7.7v2.5c0 .4-.3.7-.7.7h-2.5c-.4 0-.7-.3-.7-.7V177c0-.4.3-.7.7-.7m4.7 0h4.5c.4 0 .7.3.7.7v2.5c0 .4-.3.7-.7.7h-4.5c-.4 0-.7-.3-.7-.7V177c0-.4.4-.7.7-.7m-52.2 4.7h2.5c.4 0 .7.3.7.7v2.5c0 .4-.3.7-.7.7h-2.5c-.4 0-.7-.3-.7-.7v-2.5c0-.4.4-.7.7-.7m4.8 0h2.5c.4 0 .7.3.7.7v2.5c0 .4-.3.7-.7.7h-2.5c-.4 0-.7-.3-.7-.7v-2.5c0-.4.3-.7.7-.7m4.7 0h2.5c.4 0 .7.3.7.7v2.5c0 .4-.3.7-.7.7h-2.5c-.4 0-.7-.3-.7-.7v-2.5c0-.4.3-.7.7-.7m4.7 0h2.5c.4 0 .7.3.7.7v2.5c0 .4-.3.7-.7.7h-2.5c-.4 0-.7-.3-.7-.7v-2.5c.1-.4.4-.7.7-.7m4.8-.1h21.4c.4 0 .7.3.7.7v2.5c0 .4-.3.7-.7.7h-21.4c-.4 0-.7-.3-.7-.7v-2.5c0-.3.3-.7.7-.7m23.7 0h2.5c.4 0 .7.3.7.7v2.5c0 .4-.3.7-.7.7h-2.5c-.4 0-.7-.3-.7-.7v-2.5c0-.4.3-.7.7-.7m4.7 0h4.5c.4 0 .7.3.7.7v2.5c0 .4-.3.7-.7.7h-4.5c-.4 0-.7-.3-.7-.7v-2.5c0-.4.3-.7.7-.7m7 0h2.3c.4 0 .7.3.7.6v2.6c0 .4-.3.7-.7.7h-2.3c-.4 0-.7-.3-.7-.7v-2.6c.1-.3.3-.6.7-.6" clip-rule="evenodd"/><path fill="#fff" d="M211.6 204.1h-1.4l-12 .6h-1.3l.2 4.6 1.3-.1 10.8-.5h1.2l1.4-.1z"/><path fill="#325163" d="M196.6 209.8l-.2-5.5 15.7-.7.2 5.5-15.7.7zm.8-4.6l.2 3.5 13.7-.6-.2-3.5-13.7.6z"/><path fill="#F9B85D" d="M209.2 208.7l-10.8.5 6.1-.3z"/><path fill="#F79B1D" d="M211.3 208.6h2-1.5zm-.9.1l.9-.1h.5zm0 0l-1.2.1 1.2-.1zm.9-.1h-.8.8zm-.9.1h-1.2l-4.7.2z"/><path fill="#fff" d="M160.3 208l-13.1-1-1.5-.1-.3 4.2 1.5.1 13 1.1 1.5.2.4-4.4z"/><path fill="#325163" d="M161.9 213l-17-1.4.4-5.2 17 1.3-.4 5.3zm-16-2.4l15 1.3.3-3.4-15-1.2-.3 3.3z"/><path fill="#E6E7E8" d="M211.9 173.9l-1.4 9.8c-.1-.1-.3-.3-.5-.4l.7-13.1c.2-3-4-2.9-4.2-.3l-.7 12.1c-.1 0-.4 0-.5 0l-.3-13.9c-.1-2.8-4.3-2.7-4.2.1l.2 14.8c-.2.1-.4.2-.5.3l-1.8-14.3c-.3-2.7-4.5-2.3-4.2.5l2 16.2c.1 1.4.2 3.1.3 5.2l-4.2-5.7c-1.8-2.5-4.5-1.4-5.2-.1l8.5 13.9c.4.7 1.2 1.3 2.1 1.7l.2 3.7 12-.5-.2-4.2c2.6-2.2 4-6 3.8-11.6l2.2-13.9c.5-2.7-3.7-3.3-4.1-.3"/><path fill="#325163" d="M197.8 205.2l-.2-3.9c-.9-.5-1.6-1.1-2.1-1.8l-8.7-14.2.1-.3c.4-.8 1.5-1.6 2.9-1.7 1.2-.1 2.4.5 3.2 1.7l3.2 4.3v-.3c-.1-1.2-.1-2.2-.2-3.2l-2-16.2c-.2-1.7 1-2.7 2.2-2.9 1.3-.2 2.7.6 2.9 2.2l1.2 9.9-.3-10.7c0-1.7 1.3-2.6 2.6-2.7 1.3-.1 2.6.8 2.7 2.5l.2 7.6.4-5.9c.1-1.7 1.5-2.5 2.8-2.4 1.2.1 2.5 1 2.4 2.8l-.4 8.3.7-4.7c.2-1.1.8-1.9 1.6-2.2.9-.3 1.9-.2 2.6.4.7.6 1.1 1.5.9 2.6l-2.2 13.9c.2 5.4-1.1 9.3-3.8 11.7l.2 4.5-12.9.7zm-9.8-19.9l8.4 13.7c.4.6 1 1.1 1.9 1.6l.3.1.2 3.5 11-.5-.2-4 .2-.2c2.6-2.1 3.8-5.9 3.7-11.2l2.2-14c.1-.7-.1-1.3-.5-1.6-.5-.4-1.1-.5-1.6-.2-.6.2-.9.7-1 1.4l-1.6 10.9-.7-.8c-.1-.1-.2-.2-.4-.3l-.2-.2.7-13.4c.1-1.2-.7-1.7-1.4-1.7-.8 0-1.7.4-1.8 1.5l-.8 12.6-.6-.1c-.1 0-.2 0-.3 0h-.5l-.1-.5-.3-13.9c0-1.1-.8-1.6-1.6-1.5-.8 0-1.6.5-1.6 1.6l.4 15.2-.3.1c-.2.1-.3.2-.5.3l-.7.5-1.9-15.1c-.1-1.1-1-1.5-1.8-1.4-.8.1-1.5.7-1.4 1.8l2 16.2c.1 1 .1 2 .2 3.2l.2 3.7-5.2-7c-.7-.9-1.5-1.3-2.4-1.3-.9.1-1.6.5-2 1"/><path fill="#E6E7E8" d="M167.9 186.2l-5 6.4c.2-2.2.4-4.1.5-5.7l2.9-17.6c.5-3.1-4-3.7-4.5-.8l-2.6 15.5c-.2-.1-.4-.3-.6-.4l.5-7.8c.2-3-4.4-3.3-4.6-.3l-.4 6.8c-.1 0-.4 0-.5 0l-.1-5.3c-.1-2.8-4.6-3.1-4.6.2v6.4c-.2.1-.4.3-.6.4l-.3-3.2c-.4-3.3-5-2.8-4.6.5l1 7.7c-.4 5.7.8 9.8 3.2 12.3l-.4 5.7 13.1 1 .3-4.4c1.3-.4 2.3-1.1 2.9-2l10-15.1c-.9-1.4-3.5-3-5.6-.3"/><path fill="#325163" d="M160.7 208.5l-14.1-1.1.5-6c-2.5-2.7-3.6-6.9-3.2-12.6l-1-7.6c-.1-1.1.3-2.1 1.1-2.7.8-.6 1.9-.7 2.8-.3.8.3 1.3 1 1.6 1.9v-3c0-1.9 1.4-2.9 2.7-2.9 1.3 0 2.7.8 2.9 2.3l.1-1.1c.1-1.1.6-1.9 1.5-2.3.9-.5 2.1-.4 3 .2.8.5 1.2 1.4 1.2 2.5l-.3 4.4 2-11.8c.2-1 .8-1.8 1.7-2.1 1-.4 2.1-.2 2.9.5.8.6 1.1 1.5.9 2.6l-2.9 17.6c-.1 1-.2 2.2-.3 3.5v.4l3.9-5c1.1-1.4 2.3-1.7 3.1-1.7 1.4 0 2.7 1 3.3 2l.2.3-10.2 15.4c-.6.9-1.5 1.6-2.8 2.1l-.6 4.5zm-13-2l12.1.9.3-4.2.3-.1c1.3-.4 2.1-1.1 2.7-1.8l9.8-14.8c-.5-.6-1.4-1.2-2.3-1.3-.8-.1-1.6.4-2.3 1.3l-6 7.8.3-3.8c.1-1.3.2-2.5.3-3.5l2.9-17.7c.1-.9-.2-1.4-.5-1.7-.5-.4-1.3-.5-1.9-.3-.4.2-.9.5-1.1 1.4l-2.7 16.3-.7-.5c-.2-.1-.4-.3-.5-.4l-.3-.2.5-8.1c.1-.9-.4-1.3-.7-1.6-.6-.4-1.4-.4-2-.1-.4.2-.8.6-.9 1.5l-.4 7.3h-.5c-.3 0-.4 0-.4 0l-.6.1-.1-6c0-1.1-1-1.7-1.9-1.7-.8 0-1.7.5-1.7 1.9v6.7l-.2.1c-.2.1-.4.2-.5.3l-.7.8-.5-4.3c-.1-.8-.5-1.4-1.1-1.6-.6-.3-1.3-.2-1.8.2s-.8 1-.7 1.8l1 7.7c-.4 5.5.7 9.5 3.1 12l.2.2-.5 5.4z"/><path fill="#C3D1D8" d="M204.7 213.9l-.3-5h.1l-6.1.3-1.3.1h-1.5l.6 13.1h8.8z"/><path fill="#325163" d="M205.6 222.9h-9.8l-.6-14.1 9.4-.4v.5h.5l.5 14zm-8.9-1h7.8l-.6-12.5-7.8.3.6 12.2z"/><path fill="#6593AE" d="M204.7 213.9l.3 8.5h8.9l-.6-13.8h-2l-.9.1-5.9.2h-.1z"/><path fill="#325163" d="M214.4 222.9h-9.8l-.6-14.5 9.8-.4.6 14.9zm-8.9-1h7.8l-.6-12.9-7.8.3.6 12.6z"/><path fill="#C3D1D8" d="M153.3 217.9l.5-5.4v-.7l6.1.5-13-1.1-1.5-.1-1.2-.1-.9 11.4h9.6z"/><path fill="#325163" d="M153.4 222.9h-10.7l1.1-12.5 16.2 1.4-.1 1-5.6-.5-.9 10.6zm-9.6-1h8.7l.3-4.1h.5-.5l.5-5.6-8.6-.7-.9 10.4z"/><path fill="#6593AE" d="M153.8 211.8v.7l-.5 5.4-.4 4.5h9.7l.9-9.8-2.1-.1-1.5-.2z"/><path fill="#325163" d="M163.1 222.9h-10.7l1-11.7 10.6.9-.9 10.8zm-9.6-1h8.7l.7-8.8-8.6-.7-.8 9.5z"/><path fill="#fff" d="M285.6 40.5h2v47.2h-2zM170.2 61.2h-39.7v-2h39.7c2.6 0 4.6-2.1 4.6-4.6V38.2h2v16.4c.1 3.6-2.9 6.6-6.6 6.6"/><path fill="#fff" d="M11.8 68.2h38.8V107H11.8z"/><path fill="#325163" d="M51.2 107.6H11.3V67.7h39.8v39.9zm-38.9-1h37.8V68.7H12.3v37.9z"/><path fill="#fff" d="M11.8 68.2h38.8V73H11.8z"/><path fill="#325163" d="M51.2 73.5H11.3v-5.8h39.8v5.8zm-38.9-1h37.8v-3.8H12.3v3.8zm8.9-2.4c.1.1.2.4.2.6s-.1.4-.2.6c-.1.1-.4.2-.6.2-.2 0-.4-.1-.6-.2-.1-.2-.2-.4-.2-.6s.1-.4.2-.6c.1-.1.4-.2.6-.2.2-.1.4 0 .6.2m-2.8 0c.1.1.2.4.2.6s-.1.4-.2.6c-.1.1-.4.2-.6.2-.2 0-.4-.1-.6-.2-.1-.2-.2-.4-.2-.6 0-.2.1-.4.2-.6.1-.1.4-.2.6-.2.3-.1.5 0 .6.2m-2.7 0c.1.1.2.4.2.6s-.1.4-.2.6c-.1.1-.4.2-.6.2-.2 0-.4-.1-.6-.2-.1-.2-.2-.4-.2-.6s.1-.4.2-.6c.1-.1.4-.2.6-.2.2-.1.4 0 .6.2"/><path fill="#fff" d="M16.7 151.4h43.7v43.7H16.7z"/><path fill="#325163" d="M60.9 195.6H16.2v-44.7h44.7v44.7zm-43.7-1h42.7v-42.7H17.2v42.7z"/><path fill="#fff" d="M16.7 151.4h43.7v5.4H16.7z"/><path fill="#325163" d="M60.9 157.3H16.2v-6.4h44.7v6.4zm-43.7-1h42.7v-4.4H17.2v4.4zm10-2.8c.2.2.3.4.3.6 0 .2-.1.5-.3.6-.2.2-.4.3-.6.3-.2 0-.5-.1-.6-.3-.2-.2-.3-.4-.3-.6 0-.2.1-.5.3-.6.2-.2.4-.3.6-.3.2 0 .5.1.6.3m-3 0c.2.2.3.4.3.6 0 .2-.1.5-.3.6-.2.2-.4.3-.6.3-.2 0-.5-.1-.6-.3-.2-.2-.3-.4-.3-.6 0-.2.1-.5.3-.6.2-.2.4-.3.6-.3.2 0 .4.1.6.3m-3.1 0c.2.2.3.4.3.6 0 .2-.1.5-.3.6-.2.2-.4.3-.6.3-.2 0-.5-.1-.6-.3-.2-.2-.3-.4-.3-.6 0-.2.1-.5.3-.6.2-.2.4-.3.6-.3.2 0 .4.1.6.3"/><path fill="#fff" d="M30.6.5h62.6v52.2H30.6z"/><path fill="#325163" d="M93.7 53.2H30.1V0h63.6v53.2zm-62.6-1h61.6V1H31.1v51.2z"/><path fill="#fff" d="M30.6.5h62.6v7.7H30.6z"/><path fill="#325163" d="M93.7 8.7H30.1V0h63.6v8.7zm-62.6-1h61.6V1H31.1v6.7zm14.6-4.3c.2.3.3.6.3 1 0 .3-.1.7-.4.9-.2.2-.6.4-.9.4-.3 0-.7-.1-.9-.4-.2-.2-.4-.6-.4-.9 0-.3.1-.7.4-.9.2-.2.6-.4.9-.4.4 0 .7.1 1 .3m-4.4 0c.2.2.4.6.4.9 0 .3-.1.7-.4.9-.2.2-.6.4-.9.4-.3 0-.7-.1-.9-.4-.2-.2-.4-.6-.4-.9 0-.3.1-.7.4-.9.2-.2.6-.4.9-.4.3.1.6.2.9.4m-4.4 0c.2.2.4.6.4.9 0 .3-.1.7-.4.9-.2.2-.6.4-.9.4-.3 0-.7-.1-.9-.4-.2-.2-.4-.6-.4-.9 0-.3.1-.7.4-.9.2-.2.6-.4.9-.4.3.1.6.2.9.4"/><path fill="#fff" d="M158.2 4.2H195V41h-36.8z"/><path fill="#325163" d="M195.5 41.5h-37.8V3.7h37.8v37.8zm-36.8-1h35.8V4.7h-35.8v35.8z"/><path fill="#fff" d="M158.2 4.2H195v4.5h-36.8z"/><path fill="#325163" d="M195.5 9.2h-37.8V3.7h37.8v5.5zm-36.8-1h35.8V4.7h-35.8v3.5zm8.3-2.3c.1.1.2.3.2.5s-.1.4-.2.5c-.1.1-.3.2-.5.2s-.4-.1-.5-.2c-.1-.1-.2-.3-.2-.5s.1-.4.2-.5c.1-.1.3-.2.5-.2s.4.1.5.2m-2.6 0c.1.1.2.3.2.5s-.1.4-.2.5c-.1.1-.3.2-.5.2s-.4-.1-.5-.2c-.1-.1-.2-.3-.2-.5s.1-.4.2-.5c.1-.1.3-.2.5-.2s.4.1.5.2m-2.5 0c.1.1.2.3.2.5s-.1.4-.2.5c-.1.1-.3.2-.5.2s-.4-.1-.5-.2c-.1-.1-.2-.3-.2-.5s.1-.4.2-.5c.1-.1.3-.2.5-.2.1 0 .3.1.5.2"/><path fill="#fff" d="M274.2 17.9h48.2v48.2h-48.2z"/><path fill="#325163" d="M322.9 66.7h-49.2V17.4h49.2v49.3zm-48.2-1h47.2V18.4h-47.2v47.3z"/><path fill="#fff" d="M274.2 17.9h48.2v5.9h-48.2z"/><path fill="#325163" d="M322.9 24.4h-49.2v-6.9h49.2v6.9zm-48.2-1h47.2v-4.9h-47.2v4.9zm11.1-3.2c.2.2.3.4.3.7 0 .3-.1.5-.3.7-.2.2-.4.3-.7.3-.3 0-.5-.1-.7-.3-.2-.2-.3-.4-.3-.7 0-.3.1-.5.3-.7.2-.2.4-.3.7-.3.2 0 .5.1.7.3m-3.4 0c.2.2.3.4.3.7 0 .3-.1.5-.3.7-.2.2-.4.3-.7.3-.3 0-.5-.1-.7-.3-.2-.2-.3-.4-.3-.7s.1-.5.3-.7c.2-.2.4-.3.7-.3.2 0 .5.1.7.3m-3.4 0c.2.2.3.4.3.7 0 .3-.1.5-.3.7-.2.2-.4.3-.7.3-.3 0-.5-.1-.7-.3-.2-.2-.3-.4-.3-.7 0-.3.1-.5.3-.7.2-.2.4-.3.7-.3.2 0 .5.1.7.3"/><path fill="#fff" d="M285.1 107.6h61v61h-61z"/><path fill="#325163" d="M346.6 169h-62v-62h62v62zm-61-1h60v-60h-60v60z"/><path fill="#fff" d="M285.1 107.6h61v7.5h-61z"/><path fill="#325163" d="M346.6 115.6h-62v-8.5h62v8.5zm-61-1h60v-6.5h-60v6.5zm14.2-4.2c.2.2.4.6.4.9 0 .3-.1.7-.4.9-.2.2-.6.4-.9.4-.3 0-.7-.1-.9-.4-.2-.2-.4-.6-.4-.9 0-.3.1-.7.4-.9.2-.2.6-.4.9-.4.3.1.6.2.9.4m-4.3 0c.2.2.4.6.4.9 0 .3-.1.7-.4.9-.2.2-.6.4-.9.4-.3 0-.7-.1-.9-.4-.2-.2-.4-.6-.4-.9 0-.3.1-.7.4-.9.2-.2.6-.4.9-.4.3.1.6.2.9.4m-4.3 0c.2.2.4.6.4.9 0 .3-.1.7-.4.9-.2.2-.6.4-.9.4-.3 0-.7-.1-.9-.4-.2-.2-.4-.6-.4-.9 0-.3.1-.7.4-.9.2-.2.6-.4.9-.4.3.1.6.2.9.4M328.4 136.9c.3 0 .5.2.5.5s-.2.5-.5.5h-3c-.3 0-.5-.2-.5-.5s.2-.5.5-.5h3zm-1.2-6.1c.1.3.1.6-.2.7l-2.6 1.5c-.1 0-.2.1-.3.1-.2 0-.4-.1-.5-.3-.1-.3-.1-.6.2-.7l2.6-1.5c.3-.2.6-.1.8.2M327 143.4c.3.1.3.5.2.7-.1.2-.3.3-.5.3-.1 0-.2 0-.3-.1l-2.6-1.5c-.3-.1-.3-.5-.2-.7.1-.3.5-.3.7-.2l2.7 1.5zm-3.1-6c0 1.8-.6 3.6-1.7 5-1.9 2.5-2.8 5.3-2.8 8.3v3.2c0 1.4-1.2 2.6-2.6 2.6h-2.4c-1.4 0-2.6-1.2-2.6-2.6v-3.2c0-2.9-1-5.9-2.8-8.3-1.1-1.5-1.7-3.2-1.7-5.1 0-2.2.9-4.2 2.4-5.8 1.5-1.6 3.6-2.4 5.8-2.5 2.2 0 4.4.8 6 2.4 1.5 1.6 2.4 3.7 2.4 6m-2.5 4.4c1-1.3 1.5-2.8 1.5-4.4 0-2-.8-3.8-2.2-5.2-1.4-1.4-3.2-2.1-5.2-2.1-3.9.1-7.1 3.3-7.1 7.2 0 1.6.5 3.2 1.5 4.5 1.9 2.5 3 5.6 3.1 8.7h5.4c-.1-3.1 1-6.2 3-8.7m-3.1 12.1v-.2l-5.4-.6v.4l5.4.6s0-.1 0-.2m0-1.2v-1.1h-5.4v.5l5.4.6zm-.7 2.5l-4.6-.5c.3.5.8.8 1.3.8h2.4c.4-.1.7-.2.9-.3m4.7-29.3c.3.1.3.5.2.7l-1.5 2.6c-.1.2-.3.3-.5.3-.1 0-.2 0-.3-.1-.3-.1-.3-.5-.2-.7l1.5-2.6c.2-.3.5-.4.8-.2m-.3 11.5c0 .2 0 .4 0 .6 0 .3-.3.5-.5.5 0 0 0 0-.1 0-.3 0-.5-.3-.5-.6 0-.2 0-.3 0-.5 0-2.9-2.4-5.3-5.3-5.3-.3 0-.5-.2-.5-.5s.2-.5.5-.5c3.5-.1 6.4 2.8 6.4 6.3m-.8 1.8c.3.1.4.4.3.7-.2.5-.5.9-.8 1.3-.1.1-.3.2-.4.2-.1 0-.2 0-.3-.1-.2-.2-.3-.5-.1-.7.3-.3.5-.7.6-1.1.1-.3.4-.4.7-.3m-5.1-14.6v3c0 .3-.2.5-.5.5s-.5-.2-.5-.5v-3c0-.3.2-.5.5-.5s.5.2.5.5m-2.1 21c.1.3-.1.6-.3.7-.1 0-.1 0-.2 0-.2 0-.4-.1-.5-.4-.6-1.7-1.4-3.3-2.5-4.7-.2-.3-.4-.6-.6-.9-.1-.3 0-.6.2-.7.3-.1.6 0 .7.2.1.3.3.5.5.8 1.2 1.5 2.1 3.2 2.7 5M311.1 128.7c.1.3.1.6-.2.7-.1 0-.2.1-.3.1-.2 0-.4-.1-.5-.3l-1.5-2.6c-.1-.3-.1-.6.2-.7.3-.1.6-.1.7.2l1.6 2.6zm-.8 9.5c0 .3-.2.6-.4.6 0 0-.1 0-.1 0-.3 0-.5-.2-.5-.5s-.1-.7-.1-1c0-.3.2-.5.5-.5s.5.2.5.5c.1.3.1.6.1.9M307.3 132.1c.3.1.3.5.2.7-.1.2-.3.3-.5.3-.1 0-.2 0-.3-.1l-2.6-1.5c-.3-.1-.3-.5-.2-.7s.5-.3.7-.2l2.7 1.5zm.2 10c.1.3.1.6-.2.7l-2.6 1.5c-.1 0-.2.1-.3.1-.2 0-.4-.1-.5-.3-.1-.3-.1-.6.2-.7l2.6-1.5c.3-.1.7 0 .8.2"/><path fill="#325163" d="M305.7 136.9c.3 0 .5.2.5.5s-.2.5-.5.5h-3c-.3 0-.5-.2-.5-.5s.2-.5.5-.5h3zM182.5 23.5v10.8c0 .4-.4.8-.8.8h-10.8c-.4 0-.8-.4-.8-.8V23.5c0-.4.4-.8.8-.8h8.3v-4.2c0-1.6-1.3-2.9-2.9-2.9-1.6 0-2.9 1.3-2.9 2.9v2c0 .4-.4.8-.8.8s-.8-.4-.8-.8v-2c0-2.4 2-4.4 4.4-4.4 2.4 0 4.4 2 4.4 4.4v4.2h1c.6.1.9.4.9.8m-1.5.8h-9.3v9.3h9.3v-9.3zm132.7 17.9v15.1c0 .3-.2.5-.5.5h-28.5c-.3 0-.5-.2-.5-.5V42.2c0-.2.1-.3.2-.4l3.8-2.5V31c0-.3.2-.5.5-.5h20.5c.3 0 .5.2.5.5v8.3l3.8 2.5c.1.1.2.3.2.4m-1 14.2V43l-11.2 6 11.2 7.4zm-3-14.7h1.9l-1.9-1.2v1.2zm-23.4 15.1h25.2L299 48.5l-12.7 8.3zm23.4-13.3l1.5-.8h-1.5v.8zm-1 .5V31.5h-19.5V44l8.2 4.3 1.3-.9c.2-.1.4-.1.5 0l1.3.9 8.2-4.3zm-23.5 12.4l11.2-7.4-11.2-6v13.4zm3-12.9v-.8h-1.5l1.5.8zm0-1.8v-1.2l-1.9 1.2h1.9z"/><path fill="#6593AE" d="M312.7 43v13.4L301.5 49zm-1.1-1.3h-1.9v-1.2zm0 15.1h-25.3l12.7-8.3zm-.3-14.1l-1.6.8v-.8z"/><path fill="#fff" d="M308.7 31.5V44l-8.2 4.3-1.3-.9c-.2-.1-.4-.1-.5 0l-1.3.9-8.2-4.3V31.5h19.5zm-5.4 7.7v-.4c0-2.4-2-4.4-4.4-4.4s-4.4 2-4.4 4.4v.2c0 2.4 2 4.4 4.4 4.4h3.9c.3 0 .5-.2.5-.5s-.2-.5-.5-.5H299c-1.9 0-3.4-1.5-3.4-3.4v-.1c0-1.9 1.5-3.4 3.4-3.4s3.4 1.5 3.4 3.4v.4c0 .4-.3.7-.7.7-.4 0-.7-.3-.7-.7v-.7c0-1.2-.9-2.1-2.1-2.1-1.2 0-2.1.9-2.1 2.1s.9 2.1 2.1 2.1c.5 0 1-.2 1.4-.5.3.5.8.8 1.5.8.8-.1 1.5-.9 1.5-1.8"/><path fill="#325163" d="M303.3 38.8v.4c0 .9-.8 1.7-1.7 1.7-.6 0-1.2-.3-1.5-.8-.4.3-.9.5-1.4.5-1.2 0-2.1-.9-2.1-2.1 0-1.2.9-2.1 2.1-2.1 1.2 0 2.1.9 2.1 2.1v.7c0 .4.3.7.7.7.4 0 .7-.3.7-.7v-.4c0-1.9-1.5-3.4-3.4-3.4s-3.4 1.5-3.4 3.4v.2c0 1.9 1.5 3.4 3.4 3.4h3.9c.3 0 .5.2.5.5s-.2.5-.5.5H299c-2.4 0-4.4-2-4.4-4.4v-.1c0-2.4 2-4.4 4.4-4.4 2.4-.1 4.3 1.9 4.3 4.3m-3.4-.3c0-.6-.5-1.1-1.1-1.1-.6 0-1.1.5-1.1 1.1 0 .6.5 1.1 1.1 1.1.6 0 1.1-.5 1.1-1.1"/><path fill="#fff" d="M298.8 37.4c.6 0 1.1.5 1.1 1.1 0 .6-.5 1.1-1.1 1.1-.6 0-1.1-.5-1.1-1.1 0-.6.5-1.1 1.1-1.1"/><path fill="#6593AE" d="M296.4 49l-11.2 7.4V43zm-8.2-6.3v.8l-1.5-.8zm0-2.2v1.2h-1.9z"/><path fill="#325163" d="M53.8 164.2v6c0 1.4-1.1 2.5-2.5 2.5h-1.5v1.4c0 .2-.1.3-.2.4-.1.1-.2.1-.3.1-.1 0-.1 0-.2 0l-4-1.9H43c-1.4 0-2.5-1.1-2.5-2.5v-6c0-1.4 1.1-2.5 2.5-2.5h8.4c1.2 0 2.4 1.1 2.4 2.5m-1 6v-6c0-.8-.7-1.5-1.5-1.5h-8.4c-.8 0-1.5.7-1.5 1.5v6c0 .8.7 1.5 1.5 1.5h2.2c.1 0 .1 0 .2 0l3.4 1.6v-1.1c0-.3.2-.5.5-.5h2c.9 0 1.6-.7 1.6-1.5m-3.6-4.2c0 .8-.4 1.4-1 1.8-.4.3-.7.7-.7 1.2 0 .3-.2.5-.5.5s-.5-.2-.5-.5c0-.9.4-1.7 1.2-2.1.3-.2.5-.6.5-1 0-.6-.5-1.2-1.2-1.2-.6 0-1.2.5-1.2 1.2 0 .3-.2.5-.5.5s-.5-.2-.5-.5c0-1.2 1-2.2 2.2-2.2 1.3.2 2.2 1.1 2.2 2.3m-1.3 11v10.2c0 1.4-1.1 2.5-2.5 2.5H32.9l-4.6 2.1c-.1 0-.1 0-.2 0s-.2 0-.3-.1c-.1-.1-.2-.3-.2-.5l.4-1.5h-1.2c-1.4 0-2.5-1.1-2.5-2.5V177c0-1.4 1.1-2.5 2.5-2.5h18.5c1.5-.1 2.6 1.1 2.6 2.5m-1 10.1V177c0-.8-.7-1.5-1.5-1.5H26.9c-.8 0-1.5.7-1.5 1.5v10.2c0 .8.7 1.5 1.5 1.5h1.8c.2 0 .3.1.4.2.1.1.1.3.1.4l-.3 1.2 3.7-1.7c.1 0 .1 0 .2 0h12.6c.8-.2 1.5-.8 1.5-1.7m.5-16.9c.1.1.1.2.1.4 0 .1-.1.3-.1.4-.1.1-.2.1-.4.1-.1 0-.3-.1-.4-.1-.1-.1-.1-.2-.1-.4 0-.1.1-.3.1-.4.1-.1.2-.1.4-.1s.3 0 .4.1"/><path fill="#6593AE" d="M46.9 177v10.2c0 .8-.7 1.5-1.5 1.5H32.8c-.1 0-.1 0-.2 0l-3.7 1.7.3-1.2c0-.1 0-.3-.1-.4-.1-.1-.2-.2-.4-.2h-1.8c-.8 0-1.5-.7-1.5-1.5V177c0-.8.7-1.5 1.5-1.5h18.5c.8-.1 1.5.6 1.5 1.5m-2.2.9c0-.3-.2-.5-.5-.5H28.1c-.3 0-.5.2-.5.5s.2.5.5.5h16.1c.3 0 .5-.3.5-.5m0 2.7c0-.3-.2-.5-.5-.5H28.1c-.3 0-.5.2-.5.5s.2.5.5.5h16.1c.3 0 .5-.2.5-.5m0 2.7c0-.3-.2-.5-.5-.5H28.1c-.3 0-.5.2-.5.5s.2.5.5.5h16.1c.3 0 .5-.2.5-.5m0 2.8c0-.3-.2-.5-.5-.5H28.1c-.3 0-.5.2-.5.5s.2.5.5.5h16.1c.3 0 .5-.2.5-.5"/><path fill="#325163" d="M44.2 177.4c.3 0 .5.2.5.5s-.2.5-.5.5H28.1c-.3 0-.5-.2-.5-.5s.2-.5.5-.5h16.1zm0 2.7c.3 0 .5.2.5.5s-.2.5-.5.5H28.1c-.3 0-.5-.2-.5-.5s.2-.5.5-.5h16.1zm0 2.7c.3 0 .5.2.5.5s-.2.5-.5.5H28.1c-.3 0-.5-.2-.5-.5s.2-.5.5-.5h16.1zm0 2.8c.3 0 .5.2.5.5s-.2.5-.5.5H28.1c-.3 0-.5-.2-.5-.5s.2-.5.5-.5h16.1zM86.8 12.8v35.4c0 .4-.4.8-.8.8H37.9c-.4 0-.8-.4-.8-.8V12.8c0-.4.4-.8.8-.8H86c.4 0 .8.4.8.8m-1.6 8.3H38.7v26.2h46.5V21.1zm0-7.5H38.7v5.9h46.5v-5.9z"/><path fill="#6593AE" d="M85.2 19.5H38.7v-5.9h46.5v5.9zm-1.7-1.4v-3c0-.4-.4-.8-.8-.8H48.5c-.4 0-.8.4-.8.8v3c0 .4.4.8.8.8h34.3c.4 0 .7-.4.7-.8m-37-1.5c0-.2-.1-.4-.2-.6-.1-.1-.4-.2-.6-.2-.2 0-.4.1-.6.2-.1.1-.2.4-.2.6 0 .2.1.4.2.6.2.2.4.2.6.2.2 0 .4-.1.6-.2.2-.2.2-.4.2-.6m-2.6 0c0-.2-.1-.4-.2-.6-.2-.1-.4-.2-.6-.2-.2 0-.4.1-.6.2-.1.1-.2.4-.2.6 0 .2.1.4.2.6.2.2.4.2.6.2.2 0 .4-.1.6-.2.2-.2.2-.4.2-.6m-2.6 0c0-.2-.1-.4-.2-.6-.2-.1-.4-.2-.6-.2-.2 0-.4.1-.6.2-.2.1-.2.4-.2.6 0 .2.1.4.2.6.1.2.4.2.6.2.2 0 .4-.1.6-.2.2-.2.2-.4.2-.6"/><path fill="#325163" d="M83.5 15.1v3c0 .4-.4.8-.8.8H48.5c-.4 0-.8-.4-.8-.8v-3c0-.4.4-.8.8-.8h34.3c.4 0 .7.3.7.8m-1.6.8H49.3v1.4H82v-1.4zm-.7 20.3v7.7c0 .4-.4.8-.8.8H71c-.4 0-.8-.4-.8-.8v-7.7c0-.4.4-.8.8-.8h9.5c.4 0 .7.3.7.8m-1.6.8h-7.8v6h7.8v-6zm.8-13.1c.4 0 .8.4.8.8s-.4.8-.8.8H71c-.4 0-.8-.4-.8-.8s.4-.8.8-.8h9.4zm0 3.8c.4 0 .8.4.8.8s-.4.8-.8.8H71c-.4 0-.8-.4-.8-.8s.4-.8.8-.8h9.4zm0 3.8c.4 0 .8.4.8.8s-.4.8-.8.8H71c-.4 0-.8-.4-.8-.8s.4-.8.8-.8h9.4z"/><path fill="#C3D1D8" d="M71.8 37h7.8v6.1h-7.8z"/><path fill="#325163" d="M67.5 24.7v7.7c0 .4-.4.8-.8.8h-9.5c-.4 0-.8-.4-.8-.8v-7.7c0-.4.4-.8.8-.8h9.5c.4 0 .8.3.8.8m-1.7.8H58v6.1h7.8v-6.1zm.9 9.9c.4 0 .8.4.8.8s-.4.8-.8.8h-9.5c-.4 0-.8-.4-.8-.8s.4-.8.8-.8h9.5zm0 3.8c.4 0 .8.4.8.8s-.4.8-.8.8h-9.5c-.4 0-.8-.4-.8-.8s.4-.8.8-.8h9.5zm0 3.8c.4 0 .8.4.8.8s-.4.8-.8.8h-9.5c-.4 0-.8-.4-.8-.8s.4-.8.8-.8h9.5z"/><path fill="#C3D1D8" d="M58 25.5h7.8v6.1H58z"/><path fill="#325163" d="M52.9 23.9c.4 0 .8.4.8.8s-.4.8-.8.8h-9.5c-.4 0-.8-.4-.8-.8s.4-.8.8-.8h9.5zm0 3.8c.4 0 .8.4.8.8s-.4.8-.8.8h-9.5c-.4 0-.8-.4-.8-.8s.4-.8.8-.8h9.5zm0 3.8c.4 0 .8.4.8.8s-.4.8-.8.8h-9.5c-.4 0-.8-.4-.8-.8s.4-.8.8-.8h9.5zm0 3.9c.4 0 .8.4.8.8s-.4.8-.8.8h-9.5c-.4 0-.8-.4-.8-.8s.4-.8.8-.8h9.5zm0 3.8c.4 0 .8.4.8.8s-.4.8-.8.8h-9.5c-.4 0-.8-.4-.8-.8s.4-.8.8-.8h9.5zm0 3.8c.4 0 .8.4.8.8s-.4.8-.8.8h-9.5c-.4 0-.8-.4-.8-.8s.4-.8.8-.8h9.5z"/><path fill="#010101" d="M46.3 16c.1.2.2.4.2.6s-.1.4-.2.6c-.1.1-.4.2-.6.2-.2 0-.4-.1-.6-.2-.1-.2-.2-.4-.2-.6s.1-.4.2-.6c.2-.1.4-.2.6-.2.3 0 .5.1.6.2m-2.6 0c.1.2.2.4.2.6s-.1.4-.2.6c-.1.1-.4.2-.6.2-.2 0-.4-.1-.6-.2-.1-.1-.2-.4-.2-.6s.1-.4.2-.6c.2-.1.4-.2.6-.2.3 0 .5.1.6.2m-2.6 0c.1.2.2.4.2.6 0 .2-.1.4-.2.6-.2.1-.4.2-.6.2-.2 0-.4-.1-.6-.2-.1-.1-.2-.4-.2-.6s.1-.4.2-.6c.2-.1.4-.2.6-.2.2 0 .5.1.6.2"/><path fill="#325163" d="M43.5 100.1c.4.4.6 1 .6 1.5s-.2 1.1-.6 1.5c-.4.4-1 .6-1.5.6s-1.1-.2-1.5-.6l-6.2-6.2c-.1-.1-.1-.2-.1-.4s.1-.3.1-.4l.2-.2-.5-.5c-1.7 1.3-3.8 2-5.9 2-2.5 0-5-.9-6.9-2.8-3.8-3.8-3.8-10 0-13.8 3.8-3.8 10-3.8 13.8 0 3.5 3.5 3.8 9 .8 12.8l.6.6.2-.2c.2-.2.5-.2.7 0l6.2 6.1zm-.7 2.3c.4-.4.4-1.1 0-1.5L37 95l-1.5 1.5 5.8 5.8c.4.5 1.1.5 1.5.1m-6-14.8c0-2.3-.9-4.5-2.6-6.2-1.6-1.6-3.8-2.6-6.2-2.6s-4.5.9-6.2 2.6c-1.6 1.6-2.6 3.8-2.6 6.2 0 2.3.9 4.5 2.6 6.2 1.6 1.6 3.8 2.6 6.2 2.6s4.5-.9 6.2-2.6c1.7-1.6 2.6-3.8 2.6-6.2m-1.5 7.6l.3-.3-.5-.6c-.1.1-.1.1-.2.2s-.1.1-.2.2l.6.5z"/><path fill="#C3D1D8" d="M42.8 100.8c.4.4.4 1.1 0 1.5-.4.4-1.1.4-1.5 0l-5.8-5.8L37 95l5.8 5.8z"/><path fill="#325163" d="M33.5 82.2c1.4 1.4 2.2 3.4 2.2 5.4 0 2-.8 4-2.2 5.4-1.4 1.4-3.4 2.2-5.4 2.2-2 0-4-.8-5.4-2.2-1.4-1.4-2.2-3.4-2.2-5.4 0-2 .8-4 2.2-5.4 1.4-1.4 3.4-2.2 5.4-2.2 2 0 3.9.8 5.4 2.2m-.7 10.1c2.6-2.6 2.6-6.8 0-9.4-1.3-1.3-2.9-1.9-4.7-1.9-1.8 0-3.4.7-4.7 1.9-2.6 2.6-2.6 6.8 0 9.4 1.3 1.3 2.9 1.9 4.7 1.9 1.7.1 3.4-.6 4.7-1.9m-.5-8.9c.2.2.2.5 0 .7-.1.1-.2.1-.4.1-.1 0-.3 0-.4-.1-.3-.3-.6-.5-.9-.7-.2-.1-.3-.5-.2-.7.1-.2.5-.3.7-.2.5.3.9.6 1.2.9m0 7.7c.2.2.2.5 0 .7-1.1 1.1-2.6 1.7-4.2 1.7-.2 0-.5 0-.7 0-.3 0-.5-.3-.4-.6 0-.3.3-.5.6-.4 1.5.2 3-.3 4.1-1.4.1-.2.4-.2.6 0M29 81.8c.3 0 .5.3.4.6 0 .3-.3.5-.6.4-1.6-.2-3.1.3-4.3 1.4-.1.1-.2.1-.4.1-.1 0-.3 0-.4-.1-.2-.2-.2-.5 0-.7 1.5-1.4 3.4-2 5.3-1.7m-3.5 10c.2.1.3.5.2.7-.1.2-.3.2-.4.2-.1 0-.2 0-.3-.1-.4-.2-.7-.5-1.1-.8-.2-.2-.2-.5 0-.7.2-.2.5-.2.7 0 .2.3.5.5.9.7"/><path fill="#F1F2F2" d="M190.8 132.2h-22.6c-.8 5.9-1 12.3-5.9 14.8h34.4c-4.9-2.5-5.1-8.9-5.9-14.8"/><path fill="#325163" d="M198.9 147.4h-38.6l1.9-.9c4.1-2 4.7-7 5.4-12.3.1-.7.2-1.4.3-2.1l.1-.4h23.4l.1.4c.1.7.2 1.4.3 2.1.7 5.3 1.3 10.2 5.4 12.3l1.7.9zm-34.8-1h31c-3.3-2.6-3.9-7.4-4.4-12.1-.1-.5-.1-1.1-.2-1.6h-21.7c-.1.5-.1 1.1-.2 1.6-.7 4.7-1.3 9.5-4.5 12.1"/><path fill="#F1F2F2" d="M230.2 132.4H128.8c-2.2 0-3.9-1.8-3.9-3.9v-70c0-2.2 1.8-3.9 3.9-3.9h101.4c2.2 0 3.9 1.8 3.9 3.9v69.9c0 2.2-1.7 4-3.9 4"/><path fill="#325163" d="M230.2 132.9H128.8c-2.4 0-4.4-2-4.4-4.4v-70c0-2.4 2-4.4 4.4-4.4h101.4c2.4 0 4.4 2 4.4 4.4v69.9c0 2.5-2 4.5-4.4 4.5M128.8 55.1c-1.9 0-3.4 1.5-3.4 3.4v69.9c0 1.9 1.5 3.4 3.4 3.4h101.4c1.9 0 3.4-1.5 3.4-3.4V58.5c0-1.9-1.5-3.4-3.4-3.4H128.8z"/><path fill="#fff" d="M227.2 120.3h-95.4c-1.1 0-2-.9-2-2V61.6c0-1.1.9-2 2-2h95.4c1.1 0 2 .9 2 2v56.7c-.1 1.1-1 2-2 2"/><path fill="#325163" d="M227.2 120.8h-95.4c-1.4 0-2.5-1.1-2.5-2.5V61.6c0-1.4 1.1-2.5 2.5-2.5h95.4c1.4 0 2.5 1.1 2.5 2.5v56.7c-.1 1.4-1.2 2.5-2.5 2.5m-95.4-60.7c-.8 0-1.5.7-1.5 1.5v56.7c0 .8.7 1.5 1.5 1.5h95.4c.8 0 1.5-.7 1.5-1.5V61.6c0-.8-.7-1.5-1.5-1.5h-95.4zm3.2 4.6h26.6v5.8H135z"/><path fill="#F1F2F2" d="M166.4 64.7h58.1v5.8h-58.1z"/><g opacity=".35"><defs><path id="a" d="M169.1 132.2h27.6V147h-27.6z"/></defs><clipPath id="b"><use xlink:href="#a" overflow="visible"/></clipPath><path fill="#BAC6CE" d="M196.7 146.9c-4.9-2.5-5.1-8.9-5.9-14.8h-21.7l15.8 14.8h11.8z" clip-path="url(#b)"/></g><path fill="#DFEAF1" d="M135 74.6h89.6v15.6H135z"/><path fill="#6593AE" d="M135 94.4h26.6v12.3H135zm31.4 0H193v12.3h-26.6zm31.5 0h26.6v12.3h-26.6z"/><path fill="#BCBEC0" d="M135 109.7h89.6v1.9H135zm0 3.4h89.6v1.9H135z"/></svg>