<svg xmlns="http://www.w3.org/2000/svg" width="171.9" height="101"><path fill="#DFE9F1" d="M119.9 14.4h-11.6c-1.8 0-3.3-1.6-3.3-3.6V3.6c0-1.5-1-2.7-2.3-2.7H84.4c-1.3 0-2.3 1.2-2.3 2.7V5c0 2-1.5 3.6-3.3 3.6h-7.7v-1h7.7c1.3 0 2.3-1.2 2.3-2.7V3.6c0-2 1.5-3.6 3.3-3.6h18.3c1.8 0 3.3 1.6 3.3 3.6v7.2c0 1.5 1 2.7 2.3 2.7h11.6v.9zM116.6 28.7h18v1h-18zM133.8 3.2h34.9v1h-34.9zM13.6 12.8h22.9v1H13.6zM101.7 66.7h22.9v1h-22.9z"/><path fill="#6593AE" d="M147.3 98.4l-.1-.5c1.6-.2 3.1-.7 4.5-1.3l.2.4c-1.5.7-3 1.1-4.6 1.4zm-4.9 0c-1.6-.2-3.2-.7-4.6-1.4l.2-.4c1.4.7 2.9 1.1 4.5 1.3l-.1.5zm13.6-4l-.3-.4c1.2-1 2.2-2.2 3.1-3.5l.4.3c-.9 1.3-2 2.6-3.2 3.6zm-22.3 0c-1.2-1.1-2.3-2.3-3.1-3.7l.4-.3c.8 1.3 1.9 2.5 3.1 3.6l-.4.4zm27.4-8l-.5-.1c.4-1.5.7-3.1.7-4.6h.5c0 1.5-.2 3.1-.7 4.7zm-32.5-.1c-.4-1.5-.7-3.1-.7-4.7v-.1h.5v.1c0 1.5.2 3.1.6 4.6l-.4.1zm32.1-9.2c-.4-1.5-1.1-3-1.9-4.3l.4-.3c.9 1.4 1.5 2.9 2 4.4l-.5.2zm-31.6-.2l-.5-.1c.5-1.5 1.2-3 2-4.4l.4.3c-.8 1.2-1.4 2.7-1.9 4.2zm26.7-7.6c-1.2-1-2.5-1.9-3.9-2.6l.2-.4c1.5.7 2.8 1.6 4 2.7l-.3.3zm-21.6-.2l-.3-.4c1.2-1.1 2.6-1.9 4.1-2.6l.2.4c-1.5.7-2.8 1.6-4 2.6zm13.2-3.8c-1.5-.2-3.2-.2-4.7 0l-.1-.5c1.6-.2 3.2-.2 4.8 0v.5z"/><path fill="#DFE9F1" d="M32 86.4H14c-1.1 0-2.1-.9-2.1-2.1V67.1c0-.6-.5-1.1-1.1-1.1H0v-1h10.9c1.1 0 2.1.9 2.1 2.1v17.2c0 .6.5 1.1 1.1 1.1h18c.6 0 1.1-.5 1.1-1.1V60.5c0-1.1.9-2.1 2.1-2.1.6 0 1.1-.5 1.1-1.1V45.9c0-1.1.9-2.1 2.1-2.1h110.4c.6 0 1.1-.5 1.1-1.1v-8.9c0-1.1.9-2.1 2.1-2.1h9.9c1.1 0 2.1.9 2.1 2.1v25.9c0 .6.5 1.1 1.1 1.1h6.8v1h-6.8c-1.1 0-2.1-.9-2.1-2.1V33.8c0-.6-.5-1.1-1.1-1.1h-10c-.6 0-1.1.5-1.1 1.1v8.9c0 1.1-.9 2.1-2.1 2.1H38.4c-.6 0-1.1.5-1.1 1.1v11.5c0 1.1-.9 2.1-2.1 2.1-.6 0-1.1.5-1.1 1.1v23.8c0 1-.9 2-2.1 2zM84 101H72.4c-1.8 0-3.3-1.4-3.3-3.1V92c0-1.2-1-2.1-2.3-2.1H48.5c-1.3 0-2.3.9-2.3 2.1v1.1c0 1.7-1.5 3.1-3.3 3.1h-7.7v-1h7.7c1.3 0 2.3-.9 2.3-2.1V92c0-1.7 1.5-3.1 3.3-3.1h18.3c1.8 0 3.3 1.4 3.3 3.1v5.9c0 1.2 1 2.1 2.3 2.1H84v1zM1.8 46.9h18v1h-18zM144.4 81.6h18v1h-18zM103.6 96.5h19v1h-19zM2.4 98.6h16.8v1H2.4zM19.9 28.7h15.3v1H19.9z"/><path fill="#6593AE" d="M36 22.6c-1.7-.1-3.2-.7-4.5-1.7l.3-.4c1.2 1 2.7 1.5 4.3 1.6l-.1.5zm4.7-1.2l-.3-.4c1.3-.8 2.4-2 3.1-3.4l.4.2c-.7 1.6-1.8 2.8-3.2 3.6zm-12.1-4.5c-.3-.8-.4-1.7-.4-2.6 0-1.7.5-3.3 1.4-4.6l.4.3c-.9 1.3-1.3 2.8-1.3 4.4 0 .8.1 1.6.4 2.4l-.5.1zm15.5-3.8c-.2-1.5-.9-3-2-4.1l.3-.3c1.1 1.2 1.9 2.7 2.1 4.4h-.4zm-10.5-6l-.2-.4c1-.4 2-.6 3-.6.6 0 1.2.1 1.8.2l-.1.5c-.6-.1-1.1-.2-1.7-.2-.9 0-1.9.2-2.8.5z"/><g><path fill="#6593AE" d="M74.8 28.7c1.6-1.1 3.4-1.8 5.4-2.2l.9-3.9h4.1l.9 3.9c2 .4 3.8 1.2 5.4 2.2l3.4-2.1 2.9 2.9-2.1 3.4c1.1 1.6 1.9 3.4 2.3 5.4l3.8.9v4.1l-3.8.9c-.4 2-1.2 3.8-2.2 5.4l2.1 3.3-2.9 2.9-3.4-2.1c-1.6 1.1-3.4 1.9-5.4 2.2l-.9 3.8h-4.1l-.9-3.8c-2-.4-3.8-1.2-5.4-2.2l-3.4 2.1-2.9-2.9 2.1-3.4c-1.1-1.6-1.8-3.4-2.2-5.4l-3.9-.9v-4.1l3.9-.9c.4-2 1.2-3.8 2.2-5.4l-2.1-3.4 2.9-2.9 3.3 2.2zm13.9 12.4c0-3.1-2.5-5.6-5.6-5.6-3.1 0-5.6 2.5-5.6 5.6s2.5 5.6 5.6 5.6c3.1 0 5.6-2.5 5.6-5.6z"/><path fill="#325163" d="M74.8 28.9v-.2h-.2.2v-.3.3h.2zM85.4 59.9H81l-1-3.8c-1.9-.4-3.6-1.1-5.2-2.2L71.4 56l-3.1-3.1 2.1-3.4c-1-1.6-1.8-3.3-2.2-5.2l-3.9-.9v-4.5l3.9-.9c.4-1.9 1.1-3.6 2.2-5.2l-2.1-3.4 3.1-3.2 3.4 2.1c1.6-1 3.4-1.8 5.2-2.1l.9-3.9h4.5l.9 3.9c1.9.4 3.6 1.1 5.2 2.1l3.4-2.1 3.1 3.1-2.1 3.4c1 1.6 1.8 3.3 2.2 5.2l3.9.9v4.5l-3.9.9c-.4 1.9-1.1 3.6-2.2 5.2l2.1 3.4-3.1 3.2-3.4-2.1c-1.6 1-3.3 1.8-5.2 2.2l-.9 3.8zm-4.1-.5H85l.9-3.8h.2c1.9-.4 3.7-1.1 5.3-2.2l.1-.1 3.3 2.1 2.6-2.6-2.1-3.3.1-.1c1.1-1.6 1.8-3.4 2.2-5.3v-.2l3.8-.9v-3.7l-3.8-.9v-.2c-.4-1.9-1.1-3.7-2.2-5.3l-.1-.1 2.1-3.3-2.6-2.6-3.3 2.1-.1-.1c-1.6-1.1-3.4-1.8-5.3-2.2v-.2h-.2l-.9-3.7h-3.7l-.9 3.7h-.2v.2c-1.9.4-3.7 1.1-5.3 2.2l-.1.1-3.3-2.1-2.6 2.6 2.1 3.3-.1.1c-1.1 1.6-1.8 3.4-2.2 5.3v.2l-3.8.9V43l3.8.9v.2c.4 1.9 1.1 3.7 2.2 5.3l.1.1-2.1 3.3 2.6 2.6 3.3-2.1.1.1c1.6 1.1 3.4 1.8 5.3 2.2h.2l.9 3.8zM83.1 46.9c-3.2 0-5.8-2.6-5.8-5.8 0-3.2 2.6-5.8 5.8-5.8 3.2 0 5.8 2.6 5.8 5.8 0 3.2-2.6 5.8-5.8 5.8zm0-11.1c-2.9 0-5.3 2.4-5.3 5.3s2.4 5.3 5.3 5.3 5.3-2.4 5.3-5.3c.1-2.9-2.3-5.3-5.3-5.3zM72.7 41.1h-.5c0-2.9 1.1-5.6 3.2-7.7 2-2.1 4.8-3.2 7.7-3.2v.5c-2.8 0-5.4 1.1-7.3 3-2 2-3.1 4.7-3.1 7.4z"/></g><circle cx="83.1" cy="41.1" r="3.3" fill="#6593AE"/><path fill="#C3D0D8" d="M106.5 65.6l-44.8 12-5.5-34h50.4c1.6 0 2.8 1.3 2.8 2.8v15.3c.1 1.9-1.1 3.5-2.9 3.9z"/><path fill="#325163" d="M61.6 77.9v-.3L56 43.3h50.7c1.7 0 3.1 1.4 3.1 3.1v15.3c0 1.9-1.3 3.6-3.2 4.1l-45 12.1zm-5.1-34.1L62 77.3l44.5-11.9c1.7-.4 2.8-2 2.8-3.7V46.4c0-1.4-1.2-2.6-2.6-2.6H56.5zM55.5 43.7l-1.4-9.4c-.2-1.1-1.1-1.9-2.2-1.9h-7.5V31H52c1.8 0 3.4 1.3 3.6 3.1l1.4 9.4-1.5.2zM59.8 86.3c-1.1 0-2.2-.4-3-1.2-.8-.8-1.3-1.9-1.3-3v-.2c0-1.9 1.3-3.6 3.1-4.1l2.9-.8.4 1.4-2.9.7c-1.2.3-2.1 1.5-2.1 2.7v.2c0 .8.3 1.5.8 2s1.2.8 2 .8l49.7-.1v1.4l-49.6.2z"/><path fill="#DAE8EE" d="M106.7 43.6H56.2l2.1 13.2h51.2V46.4c0-1.6-1.2-2.8-2.8-2.8z"/><path fill="#325163" d="M61.2 78.5l-5.8-35.7h51.3c2 0 3.6 1.6 3.6 3.6v15.3c0 2.1-1.5 4-3.5 4.6l-.2-.7.2.7-45.6 12.2zm-4.1-34.2l5.3 32.4 44-11.8c1.5-.4 2.5-1.7 2.5-3.2V46.4c0-1.2-1-2.1-2.1-2.1H57.1z"/><path fill="#F1F2F2" d="M61.3 83.8h4.4v3.4h-4.4z"/><path fill="#325163" d="M66 87.4h-4.9v-3.9H66v3.9zm-4.5-.5h3.9V84h-3.9v2.9z"/><circle cx="63.5" cy="90.8" r="4.1" fill="#F1F2F2"/><path fill="#325163" d="M63.5 95.1c-2.4 0-4.4-2-4.4-4.4s2-4.4 4.4-4.4 4.4 2 4.4 4.4-2 4.4-4.4 4.4zm0-8.2c-2.1 0-3.9 1.7-3.9 3.9s1.7 3.9 3.9 3.9 3.9-1.7 3.9-3.9-1.8-3.9-3.9-3.9z"/><circle cx="63.5" cy="90.8" r="1.4" fill="#6593AE"/><path fill="#F1F2F2" d="M101 83.8h4.4v3.4H101z"/><path fill="#325163" d="M105.7 87.4h-4.9v-3.9h4.9v3.9zm-4.4-.5h3.9V84h-3.9v2.9z"/><circle cx="103.2" cy="90.8" r="4.1" fill="#F1F2F2"/><path fill="#325163" d="M103.2 95.1c-2.4 0-4.4-2-4.4-4.4s2-4.4 4.4-4.4c2.4 0 4.4 2 4.4 4.4s-2 4.4-4.4 4.4zm0-8.2c-2.1 0-3.9 1.7-3.9 3.9s1.7 3.9 3.9 3.9c2.1 0 3.9-1.7 3.9-3.9s-1.7-3.9-3.9-3.9z"/><circle cx="103.2" cy="90.8" r="1.4" fill="#6593AE"/></svg>