<svg xmlns="http://www.w3.org/2000/svg" viewBox="0 0 359.7 211.3" enable-background="new 0 0 359.7 211.3"><path fill="#fff" d="M250.9 30.1h-24.4c-3.8 0-6.9-3.4-6.9-7.6v-15c0-3.1-2.2-5.6-4.9-5.6h-38.3c-2.7 0-4.9 2.5-4.9 5.6v2.8c0 4.2-3.1 7.6-6.9 7.6h-16v-2h16c2.7 0 4.9-2.5 4.9-5.6V7.6c0-4.2 3.1-7.6 6.9-7.6h38.3c3.8 0 6.9 3.4 6.9 7.6v15c0 3.1 2.2 5.6 4.9 5.6h24.4v1.9zM244 60h37.8v2H244zm35.9-53.2h72.9v2h-72.9zM28.4 26.7h47.9v2H28.4zm184.3 112.8h47.9v2h-47.9z"/><path fill="#6593AE" d="M308.1 205.8l-.1-1c3.3-.5 6.4-1.4 9.4-2.7l.4.9c-3.1 1.4-6.3 2.4-9.7 2.8m-10.1 0c-3.4-.5-6.6-1.5-9.7-2.9l.4-.9c3 1.4 6.2 2.3 9.4 2.8l-.1 1zm28.3-8.2l-.7-.8c2.5-2.2 4.7-4.6 6.4-7.4l.8.5c-1.7 2.9-3.9 5.4-6.5 7.7m-46.5-.2c-2.6-2.2-4.8-4.8-6.6-7.7l.8-.5c1.8 2.8 3.9 5.3 6.4 7.5l-.6.7zm57.4-16.7l-1-.3c.9-3.1 1.4-6.4 1.4-9.7h1c0 3.4-.5 6.8-1.4 10m-68.1-.2c-.9-3.2-1.4-6.5-1.4-9.8v-.2h1v.2c0 3.2.4 6.4 1.3 9.5l-.9.3zm67.2-19.1c-.9-3.2-2.2-6.2-4-9l.8-.5c1.8 2.9 3.2 6 4.1 9.2l-.9.3zm-66.1-.6l-1-.3c1-3.2 2.4-6.3 4.3-9.2l.8.5c-1.8 2.9-3.2 5.9-4.1 9m55.8-15.9c-2.5-2.2-5.2-4-8.2-5.4l.4-.9c3.1 1.4 5.9 3.3 8.4 5.6l-.6.7zm-45.2-.4l-.7-.8c2.6-2.2 5.5-4 8.5-5.4l.4.9c-2.9 1.4-5.7 3.2-8.2 5.3m27.6-7.8c-3.2-.5-6.6-.5-9.8-.1l-.1-1c3.3-.4 6.8-.4 10.1.1l-.2 1z"/><path fill="#fff" d="M67 180.7H29.4c-2.4 0-4.3-1.9-4.3-4.3v-36c0-1.3-1-2.3-2.3-2.3H0v-2h22.7c2.4 0 4.3 1.9 4.3 4.3v36c0 1.3 1 2.3 2.3 2.3H67c1.3 0 2.3-1.1 2.3-2.3v-49.8c0-2.4 1.9-4.3 4.3-4.3 1.3 0 2.3-1.1 2.3-2.3V96c0-2.4 1.9-4.3 4.3-4.3h231.1c1.3 0 2.3-1 2.3-2.3V70.8c0-2.4 1.9-4.3 4.3-4.3h20.6c2.4 0 4.3 1.9 4.3 4.3V125c0 1.3 1 2.3 2.3 2.3h14.2v2h-14.2c-2.4 0-4.3-1.9-4.3-4.3V70.8c0-1.3-1.1-2.3-2.3-2.3h-20.6c-1.3 0-2.3 1.1-2.3 2.3v18.5c0 2.4-1.9 4.3-4.3 4.3H80.4c-1.3 0-2.3 1-2.3 2.3v24c0 2.4-1.9 4.3-4.3 4.3-1.3 0-2.3 1.1-2.3 2.3v49.8c-.1 2.5-2.1 4.4-4.5 4.4"/><path fill="#fff" d="M175.8 211.3h-24.4c-3.8 0-6.9-2.9-6.9-6.4v-12.3c0-2.4-2.2-4.4-4.9-4.4h-38.3c-2.7 0-4.9 2-4.9 4.4v2.3c0 3.5-3.1 6.4-6.9 6.4h-16v-2h16c2.7 0 4.9-2 4.9-4.4v-2.3c0-3.5 3.1-6.4 6.9-6.4h38.3c3.8 0 6.9 2.9 6.9 6.4v12.3c0 2.4 2.2 4.4 4.9 4.4h24.4v2zM3.8 98h37.8v2H3.8zm298.3 72.7h37.8v2h-37.8zm-85.3 31.1h39.7v2h-39.7zM5.1 206.4h35.2v2H5.1zM41.6 60h32v2h-32z"/><path fill="#6593AE" d="M75.2 47.2c-3.5-.2-6.7-1.5-9.5-3.6l.6-.8c2.6 2 5.7 3.2 8.9 3.4v1zm9.9-2.3l-.5-.9c2.8-1.7 5-4.1 6.4-7.1l.9.4c-1.4 3.2-3.8 5.8-6.8 7.6m-25.2-9.5c-.6-1.7-.8-3.5-.8-5.3 0-3.5 1-6.8 3-9.7l.8.6c-1.8 2.7-2.8 5.9-2.8 9.1 0 1.7.3 3.4.8 5l-1 .3zm32.5-7.9c-.5-3.2-2-6.2-4.2-8.6l.7-.7c2.4 2.5 3.9 5.7 4.5 9.1l-1 .2zM70.3 14.9L70 14c2-.8 4.2-1.2 6.3-1.2 1.3 0 2.5.1 3.8.4l-.2 1c-1.2-.3-2.3-.4-3.5-.4-2.1 0-4.2.4-6.1 1.1M156.5 60c3.4-2.2 7.2-3.9 11.3-4.7h-.1l1.9-8.1h8.5l1.9 8.1c4.1.8 8 2.4 11.3 4.7l7-4.4 6 6-4.4 7c2.3 3.4 3.9 7.2 4.7 11.3l8 1.9v8.5l-8 1.9c-.8 4.1-2.4 7.9-4.7 11.3l4.4 7-6 6-7-4.4c-3.4 2.2-7.2 3.9-11.3 4.7l-1.9 8h-8.5l-1.9-8c-4.1-.8-8-2.4-11.3-4.7l-7 4.4-6-6 4.4-7c-2.3-3.4-3.9-7.2-4.7-11.3l-8.1-1.9v-8.5l8.1-1.9c.8-4.1 2.4-7.9 4.7-11.3l-4.4-7 6-6 7.1 4.4zm29.1 26.1c0-6.4-5.2-11.6-11.6-11.6-6.4 0-11.6 5.2-11.6 11.6 0 6.4 5.2 11.6 11.6 11.6 6.4 0 11.6-5.2 11.6-11.6"/><path fill="#325163" d="M156.5 60.5V60h-.5.5v-.5.5h.5zm22.1 64.9h-9.3l-1.9-8.1c-3.9-.8-7.6-2.3-10.9-4.5l-7.1 4.4-6.6-6.6 4.4-7.1c-2.2-3.3-3.7-7-4.5-10.9l-8.1-1.9v-9.3l8.1-1.9c.8-3.9 2.3-7.5 4.5-10.9l-4.4-7.1 6.6-6.6 7.1 4.4c3.4-2.2 7-3.7 10.9-4.5l1.9-8.2h9.3l1.9 8.2c3.9.8 7.6 2.3 10.9 4.5l7.1-4.4 6.6 6.6-4.4 7.1c2.2 3.3 3.7 7 4.5 10.9l8.1 1.9v9.3l-8.1 1.9c-.8 3.9-2.3 7.6-4.5 10.9l4.4 7.1-6.6 6.6-7.1-4.4c-3.3 2.2-7 3.7-10.9 4.5l-1.9 8.1zm-8.5-1h7.7l1.9-8 .3-.1c4-.8 7.7-2.4 11.1-4.6l.3-.2 7 4.3 5.5-5.5-4.4-6.9.2-.3c2.3-3.4 3.8-7.2 4.6-11.1l.1-.3 8-1.8v-7.7l-8-1.8-.1-.3c-.8-4-2.4-7.8-4.6-11.1l-.2-.3 4.3-7-5.5-5.5-7 4.3-.3-.2c-3.4-2.3-7.1-3.8-11.2-4.6v-.5l-.4.1-1.8-7.7h-7.7l-1.8 7.7-.4-.1.1.5c-4 .8-7.7 2.3-11.2 4.6l-.3.2-7-4.4-5.5 5.5 4.4 7-.2.3c-2.3 3.4-3.8 7.1-4.6 11.1l-.1.3-8 1.8v7.7l8 1.8.1.3c.8 4 2.4 7.8 4.6 11.1l.2.3-4.4 7 5.5 5.5 7-4.3.3.2c3.4 2.3 7.1 3.8 11.1 4.6l.3.1 2.1 8zm3.8-26.2c-6.7 0-12.1-5.4-12.1-12.1 0-6.7 5.4-12.1 12.1-12.1 6.7 0 12.1 5.4 12.1 12.1.1 6.7-5.4 12.1-12.1 12.1m0-23.3c-6.1 0-11.1 5-11.1 11.1s5 11.1 11.1 11.1S185 92.1 185 86c.1-6.1-4.9-11.1-11.1-11.1m-21.7 11.2h-1c0-6.1 2.4-11.8 6.7-16.1 4.3-4.3 10-6.7 16.1-6.7v1c-5.8 0-11.3 2.3-15.4 6.4-4.1 4.1-6.4 9.6-6.4 15.4"/><path fill="#6593AE" d="M180.8 86.1c0 3.8-3.1 6.8-6.8 6.8-3.8 0-6.8-3.1-6.8-6.8 0-3.8 3.1-6.8 6.8-6.8 3.7-.1 6.8 3 6.8 6.8"/><path fill="#C3D1D8" d="M222.9 137.4l-93.7 25-11.5-71.2h105.6c3.3 0 5.9 2.7 5.9 5.9v32.1c0 3.8-2.6 7.2-6.3 8.2"/><path fill="#325163" d="M128.8 163l-.1-.5-11.6-71.8h106.1c3.6 0 6.4 2.9 6.4 6.4v32.1c0 4-2.7 7.6-6.6 8.6L128.8 163zm-10.5-71.4l11.4 70.1 93.2-24.9c3.5-.9 5.9-4.1 5.9-7.7v-32c0-3-2.4-5.4-5.4-5.4H118.3zm-2.1-.2l-2.8-19.7c-.3-2.3-2.3-4-4.6-4H93.1v-3h15.7c3.8 0 7 2.8 7.6 6.6l2.8 19.7-3 .4zm8.9 89.2c-2.4 0-4.6-.9-6.3-2.6-1.7-1.7-2.6-3.9-2.6-6.3v-.4c0-4 2.7-7.5 6.5-8.6l6.1-1.7.8 2.9-6.1 1.7c-2.5.7-4.3 3.1-4.3 5.7v.4c0 1.6.6 3.1 1.7 4.2s2.6 1.7 4.2 1.7l104.1-.2v3l-104.1.2z"/><path fill="#DAE8EE" d="M223.2 91.1H117.7l4.5 27.6h107V97.1c0-3.3-2.7-6-6-6"/><path fill="#325163" d="M128 164.3l-12.1-74.6h107.3c4.1 0 7.4 3.3 7.4 7.4v32.1c0 4.5-3 8.4-7.4 9.6l-.4-1.4.4 1.4-95.2 25.5zm-8.5-71.7l11 67.9 92.1-24.6c3-.8 5.2-3.6 5.2-6.7V97.1c0-2.5-2-4.4-4.4-4.4H119.5z"/><path fill="#F1F2F2" d="M128.2 175.3h9.3v7.1h-9.3z"/><path fill="#325163" d="M138 182.9h-10.3v-8.1H138v8.1zm-9.3-1h8.3v-6.1h-8.3v6.1z"/><path fill="#F1F2F2" d="M141.5 189.9c0 4.8-3.9 8.6-8.6 8.6-4.8 0-8.6-3.9-8.6-8.6s3.9-8.6 8.6-8.6c4.7 0 8.6 3.8 8.6 8.6"/><path fill="#325163" d="M132.9 199c-5 0-9.1-4.1-9.1-9.1s4.1-9.1 9.1-9.1 9.1 4.1 9.1 9.1-4.1 9.1-9.1 9.1m0-17.2c-4.5 0-8.1 3.6-8.1 8.1s3.6 8.1 8.1 8.1 8.1-3.6 8.1-8.1-3.6-8.1-8.1-8.1"/><path fill="#6593AE" d="M135.8 189.9c0 1.6-1.3 2.9-2.9 2.9s-2.9-1.3-2.9-2.9c0-1.6 1.3-2.9 2.9-2.9s2.9 1.3 2.9 2.9"/><path fill="#F1F2F2" d="M211.4 175.3h9.3v7.1h-9.3z"/><path fill="#325163" d="M221.1 182.9h-10.3v-8.1h10.3v8.1zm-9.2-1h8.3v-6.1h-8.3v6.1z"/><path fill="#F1F2F2" d="M224.6 189.9c0 4.8-3.9 8.6-8.6 8.6-4.8 0-8.6-3.9-8.6-8.6s3.9-8.6 8.6-8.6c4.8 0 8.6 3.8 8.6 8.6"/><path fill="#325163" d="M216 199c-5 0-9.1-4.1-9.1-9.1s4.1-9.1 9.1-9.1 9.1 4.1 9.1 9.1-4.1 9.1-9.1 9.1m0-17.2c-4.5 0-8.1 3.6-8.1 8.1s3.6 8.1 8.1 8.1 8.1-3.6 8.1-8.1-3.6-8.1-8.1-8.1"/><path fill="#6593AE" d="M218.9 189.9c0 1.6-1.3 2.9-2.9 2.9-1.6 0-2.9-1.3-2.9-2.9 0-1.6 1.3-2.9 2.9-2.9 1.6 0 2.9 1.3 2.9 2.9"/></svg>