<svg xmlns="http://www.w3.org/2000/svg" width="171.9" height="105.2"><path fill="#DFE9F1" d="M149 98.9h-5.1c-1.4 0-2.6-1.2-2.6-2.6v-11c0-.4-.2-.9-.5-1.2-.3-.3-.7-.5-1.2-.5l-10.3.2v-1l10.3-.2c.7 0 1.4.2 1.9.7.5.5.8 1.1.8 1.8v11c0 .9.7 1.6 1.6 1.6h5.1v1.2zM32 83.3H14c-1.1 0-2.1-.9-2.1-2.1V64c0-.6-.5-1.1-1.1-1.1H0v-1h10.9c1.1 0 2.1.9 2.1 2.1v17.2c0 .6.5 1.1 1.1 1.1h18c.6 0 1.1-.5 1.1-1.1V57.5c0-1.1.9-2.1 2.1-2.1.6 0 1.1-.5 1.1-1.1V42.8c0-1.1.9-2.1 2.1-2.1h110.4c.6 0 1.1-.5 1.1-1.1v-8.9c0-1.1.9-2.1 2.1-2.1h9.9c1.1 0 2.1.9 2.1 2.1v25.9c0 .6.5 1.1 1.1 1.1h6.8v1h-6.8c-1.1 0-2.1-.9-2.1-2.1V30.8c0-.6-.5-1.1-1.1-1.1h-10c-.6 0-1.1.5-1.1 1.1v8.9c0 1.1-.9 2.1-2.1 2.1H38.4c-.6 0-1.1.5-1.1 1.1v11.5c0 1.1-.9 2.1-2.1 2.1-.6 0-1.1.5-1.1 1.1v23.8c0 1-.9 1.9-2.1 1.9zM149.1 74.8h10.4v1h-10.4zM144.4 6.8h11.9v1h-11.9zM114.5 104.2h26.1v1h-26.1zM5.7 19.9h24.1v1H5.7zM31.5 96.8h10.4v1H31.5zM69 100.7h10.4v1H69z"/><path fill="#6593AE" d="M19.2 51.9h3.7l4.2 13.5h-3.2l-.9-3.3h-4.1l-.8 3.2H15l4.2-13.4zm.3 7.8h2.9l-.3-1.2c-.4-1.3-.7-2.9-1.1-4.3h-.1c-.3 1.4-.7 3-1.1 4.3l-.3 1.2z"/><path fill="#808285" d="M150.7 51.9h4.6c2.8 0 5 .8 5 3.3 0 1.2-.7 2.5-1.8 2.9v.1c1.4.4 2.4 1.4 2.4 3.2 0 2.7-2.3 4-5.2 4h-5V51.9zm4.4 5.3c1.5 0 2.1-.6 2.1-1.6 0-1.1-.7-1.4-2.1-1.4h-1.4v3h1.4zm.3 5.8c1.7 0 2.5-.6 2.5-1.8 0-1.2-.8-1.7-2.5-1.7h-1.7V63h1.7z"/><path fill="#6593AE" d="M46.8 0H50v15.9h-3.2zM51.6 2.2h3.2v13.7h-3.2zM56.4.6h3.2v15.3h-3.2zM61.2 3.1h3.2v12.8h-3.2zM46.8 15.9h35.5V17H46.8z"/><path fill="#D1D3D4" d="M67.8 6.7h14.5V8H67.8zM67.8 8.9h14.5v1.3H67.8zM67.8 11.1h7.6v1.3h-7.6z"/><path fill="#6593AE" d="M63.5 30.5l-4.3-4.4 1-1 3.1 3.3 5.6-7.2 1.1.9z"/><path fill="#808285" d="M94.2 16h35.5v1.1H94.2zM94.2 8.1h3.2V16h-3.2zM99 9.2h3.2V16H99zM103.8 8.4h3.2V16h-3.2zM108.6 9.6h3.2V16h-3.2z"/><path fill="#D1D3D4" d="M115.2 9h14.5v1.3h-14.5zM115.2 11.2h7.6v1.3h-7.6z"/><path fill="#808285" d="M109.2 23.14l6.57 6.57-1 1-6.57-6.57zM114.7 23.14l1 1-6.58 6.56-1-1z"/><path fill="#F1F2F2" d="M46.5 34.9h83.2v53.8H46.5z"/><path fill="#6593AE" d="M46.5 35.2h83.2v4H46.5z"/><path fill="#BCBEC0" d="M92.2 40.8H69.5l-.4-4.1h22.6z"/><path fill="#D1D3D4" d="M69.2 38.7v-2H46.5V41.6h83.2v-2.9z"/><path fill="#fff" d="M53.7 39.6H123v1.2H53.7z"/><path fill="#939598" d="M48.5 39.6h1.2v1.2h-1.2zM50.8 39.6H52v1.2h-1.2zM124.7 39.6h1.2v1.2h-1.2zM127 39.6h1.2v1.2H127z"/><path fill="#58595B" d="M53.7 41.6H123v7H53.7z"/><path fill="#D1D3D4" d="M53.7 48.6H123v4H53.7z"/><path fill="#DFE9F1" d="M55.6 43.3h16.7v3.6H55.6z"/><path fill="#fff" d="M86.9 44.4h11.8v1.4H86.9z"/><path fill="#D1D3D4" d="M123 41.6h-16.3l-4.1 7H123z"/><path fill="#fff" d="M100.6 44.4h11.8v1.4h-11.8z"/><path fill="#DFE9F1" d="M114.3 44.4h5.8v1.4h-5.8z"/><path fill="#58595B" d="M55.6 50.3h6.5v.7h-6.5zM64.4 48.3h6.5v4.3h-6.5zM73.3 50.3h6.5v.7h-6.5zM82.1 50.3h6.5v.7h-6.5zM90.9 50.3h6.5v.7h-6.5z"/><path fill="#E6E7E8" d="M53.7 46.1H123v42.6H53.7z"/><path fill="#58595B" d="M53.8 81.4h69.3v7.2H53.8z"/><path fill="#BCBEC0" d="M123.1 81.4H78.3l-4.1 7.2h48.9z"/><path fill="#F1F2F2" d="M63.1 84.1h8.4v.5h-8.4zM63.1 85.1h8.4v.5h-8.4zM64.2 86.1h6.3v.5h-6.3zM77.2 84.1h8.4v.5h-8.4zM77.2 85.1h8.4v.5h-8.4zM78.2 86.1h6.3v.5h-6.3zM91.3 84.1h8.4v.5h-8.4zM91.3 85.1h8.4v.5h-8.4zM92.3 86.1h6.3v.5h-6.3zM105.3 84.1h8.4v.5h-8.4zM105.3 85.1h8.4v.5h-8.4zM106.4 86.1h6.3v.5h-6.3z"/><path fill="#325163" d="M129.9 88.9H46.3V34.6h83.6v54.3zm-83.1-.5h82.7V35.1H46.8v53.3z"/><path fill="#fff" d="M53.7 50.8h69.2v27H53.7z"/><ellipse cx="57.5" cy="56" fill="#D3E7EF" rx="2.7" ry="2.7"/><path fill="#EAF7FE" d="M65.7 57.3l-4 6.8h4z"/><path fill="#CBDEE7" d="M69.7 64.1l-4-6.8v6.8z"/><path fill="#6593AE" d="M61.7 64.1l-8 13.7h12V64.1z"/><path fill="#4F798E" d="M69.7 64.1h-4v13.7h11.9z"/><path fill="#EFF9FE" d="M73.7 64.1L71 68.7h2.7z"/><path fill="#D8E2E5" d="M76.3 68.7l-2.6-4.6v4.6z"/><path fill="#99C9E2" d="M71 68.7l-5.3 9.1h8v-9.1z"/><path fill="#89B5CB" d="M76.3 68.7h-2.6v9.1h7.9z"/><path fill="#EFF9FE" d="M116.8 67.7l-2 3.4h2z"/><path fill="#D8E2E5" d="M118.8 71.1l-2-3.4v3.4z"/><path fill="#808285" d="M114.8 71.1l-3.9 6.7h5.9v-6.7z"/><path fill="#58595B" d="M118.8 71.1h-2v6.7h5.9z"/><path fill="#EFF9FE" d="M112.9 71.1l-1.3 2.2h1.3z"/><path fill="#D8E2E5" d="M114.2 73.3l-1.3-2.2v2.2z"/><path fill="#99C9E2" d="M111.6 73.3l-2.6 4.5h3.9v-4.5z"/><path fill="#89B5CB" d="M114.2 73.3h-1.3v4.5h3.9z"/><path fill="#EFF9FE" d="M88.7 70.2l-1.5 2.5h1.5z"/><path fill="#D8E2E5" d="M90.1 72.7l-1.4-2.5v2.5z"/><path fill="#D1D3D4" d="M87.2 72.7l-3 5.1h4.5v-5.1z"/><path fill="#939598" d="M90.1 72.7h-1.4v5.1h4.4z"/><path fill="#EFF9FE" d="M92.1 72.2l-1 1.8h1z"/><path fill="#D8E2E5" d="M93.2 74l-1.1-1.8V74z"/><path fill="#99C9E2" d="M91.1 74l-2.2 3.8h3.2V74z"/><path fill="#89B5CB" d="M93.2 74h-1.1v3.8h3.3z"/><path fill="#CBDEE7" d="M79.4 56h11.9v1.9H79.4z"/><path fill="#EBEAE8" d="M99.1 56h7.8v1.9h-7.8zM79.4 59.2h11.9v.5H79.4zM97.1 59.2H109v.5H97.1zM97.1 60.4H109v.5H97.1zM97.1 61.7H109v.5H97.1zM97.1 62.9H109v.5H97.1zM97.1 64.1H109v.5H97.1zM99.8 65.3h6.4v.5h-6.4zM79.4 60.4v.5h11l.2-.5zM79.4 62.1h10.5l.2-.4H79.4zM79.4 63.3h9.9l.2-.4H79.4zM79.4 64.6h9.4l.2-.5h-9.6zM79.4 65.8h8.8l.2-.5h-9z"/><ellipse cx="120.2" cy="66.1" fill="#B1B3B6" rx="1.6" ry="1.6"/><path fill="#fff" d="M110.77 31.94l2.42 1.6-38.25 58.02-2.42-1.6z"/></svg>