<svg xmlns="http://www.w3.org/2000/svg" viewBox="0 0 359.7 220" enable-background="new 0 0 359.7 220"><path fill="#fff" d="M311.8 206.9H301c-3 0-5.4-2.4-5.4-5.4v-23.1c0-.9-.4-1.8-1-2.4-.7-.6-1.5-1-2.5-1l-21.6.5v-2l21.6-.5c1.5-.1 2.9.5 3.9 1.5 1.1 1 1.6 2.4 1.6 3.9v23.1c0 1.9 1.5 3.4 3.4 3.4h10.8v2zM67 174.3H29.4c-2.4 0-4.3-1.9-4.3-4.3v-36c0-1.3-1-2.3-2.3-2.3H0v-2h22.7c2.4 0 4.3 1.9 4.3 4.3v36c0 1.3 1 2.3 2.3 2.3H67c1.3 0 2.3-1.1 2.3-2.3v-49.8c0-2.4 1.9-4.3 4.3-4.3 1.3 0 2.3-1 2.3-2.3v-24c0-2.4 1.9-4.3 4.3-4.3h231.1c1.3 0 2.3-1.1 2.3-2.3V64.4c0-2.4 1.9-4.3 4.3-4.3h20.6c2.4 0 4.3 1.9 4.3 4.3v54.3c0 1.3 1 2.3 2.3 2.3h14.2v2h-14.2c-2.4 0-4.3-1.9-4.3-4.3V64.4c0-1.3-1.1-2.3-2.3-2.3h-20.6c-1.3 0-2.3 1.1-2.3 2.3v18.5c0 2.4-1.9 4.3-4.3 4.3H80.4c-1.3 0-2.3 1-2.3 2.3v24c0 2.4-1.9 4.3-4.3 4.3-1.3 0-2.3 1-2.3 2.3V170c-.1 2.4-2.1 4.3-4.5 4.3"/><path fill="#fff" d="M312 156.4h21.8v2H312zm-9.9-142.1H327v2h-24.9zM239.5 218h54.7v2h-54.7zM11.9 41.6h50.4v2H11.9zm53.9 161h21.8v2H65.8zm78.6 8.2h21.8v2h-21.8z"/><path fill="#6593AE" d="M40.2 108.5h7.6l8.8 28.1h-6.7l-1.7-6.7h-8.6l-1.7 6.7h-6.5l8.8-28.1zm.7 16.5h6l-.6-2.6c-.8-2.8-1.6-6.1-2.3-9.1h-.2c-.7 3-1.4 6.3-2.2 9.1l-.7 2.6z"/><path fill="#808285" d="M315.3 108.5h9.6c5.8 0 10.4 1.6 10.4 7 0 2.5-1.4 5.2-3.7 6.1v.2c2.8.7 5 2.9 5 6.6 0 5.7-4.8 8.3-10.9 8.3h-10.4v-28.2zm9.3 11.3c3.1 0 4.4-1.3 4.4-3.3 0-2.2-1.4-3-4.4-3h-3v6.3h3zm.6 11.9c3.5 0 5.2-1.2 5.2-3.8 0-2.5-1.7-3.5-5.2-3.5h-3.6v7.3h3.6z"/><path fill="#6593AE" d="M97.9 0h6.7v33.2h-6.7zm10 4.6h6.7v28.6h-6.7zM118 1.2h6.7v32H118zm10 5.3h6.7v26.7H128zM97.9 33.2h74.3v2.3H97.9z"/><path fill="#D1D3D4" d="M141.9 14h30.4v2.7h-30.4zm0 4.6h30.4v2.7h-30.4zm0 4.6h15.8v2.7h-15.8z"/><path fill="#6593AE" d="M132.8 63.9l-9-9.2 2.1-2.1 6.6 6.7 11.6-15 2.4 1.8z"/><path fill="#808285" d="M197.1 33.5h74.3v2.3h-74.3zm0-16.6h6.7v16.6h-6.7zm10 2.3h6.7v14.3h-6.7zm10-1.7h6.7v16h-6.7zm10 2.6h6.7v13.4h-6.7z"/><path fill="#D1D3D4" d="M241 18.8h30.4v2.7H241zm0 4.6h15.8v2.7H241z"/><path fill="#808285" d="M228.4 48.46l13.8 13.8-2.13 2.1-13.8-13.78zm11.67-.06l2.12 2.1-13.8 13.8-2.13-2.12z"/><path fill="#F1F2F2" d="M97.4 73h174v112.6h-174z"/><path fill="#6593AE" d="M97.4 73.7h174v8.4h-174z"/><path fill="#BCBEC0" d="M192.8 85.3h-47.4l-.9-8.4h47.4z"/><path fill="#D1D3D4" d="M144.8 81.1v-4.2H97.4V87h174v-5.9z"/><path fill="#fff" d="M112.4 82.8h144.9v2.5H112.4z"/><path fill="#939598" d="M101.5 82.8h2.5v2.5h-2.5zm4.7 0h2.5v2.5h-2.5zm154.8 0h2.5v2.5H261zm4.7 0h2.5v2.5h-2.5z"/><path fill="#58595B" d="M112.4 87h144.9v14.7H112.4z"/><path fill="#D1D3D4" d="M112.4 101.7h144.9v8.4H112.4z"/><path fill="#DFEAF1" d="M116.3 90.6h35v7.6h-35z"/><path fill="#fff" d="M181.8 93h24.8v2.8h-24.8z"/><path fill="#D1D3D4" d="M257.3 87h-34.1l-8.4 14.7h42.5z"/><path fill="#fff" d="M210.5 93h24.8v2.8h-24.8z"/><path fill="#DFEAF1" d="M239.3 93h12.2v2.8h-12.2z"/><path fill="#58595B" d="M116.3 105.2H130v1.4h-13.7zm18.5-4.1h13.7v9h-13.7zm18.5 4.1H167v1.4h-13.7zm18.5 0h13.7v1.4h-13.7zm18.5 0H204v1.4h-13.7z"/><path fill="#E6E7E8" d="M112.4 96.5h144.9v89H112.4z"/><path fill="#58595B" d="M112.6 170.4h144.9v15.1H112.6z"/><path fill="#BCBEC0" d="M257.5 170.4h-93.6l-8.6 15.1h102.2z"/><path fill="#F1F2F2" d="M132 176h17.7v1.1H132zm0 2.1h17.7v1.1H132zm2.2 2.1h13.2v1.1h-13.2zm27.3-4.2h17.7v1.1h-17.7zm0 2.1h17.7v1.1h-17.7zm2.2 2.1h13.2v1.1h-13.2zm27.2-4.2h17.7v1.1h-17.7zm0 2.1h17.7v1.1h-17.7zm2.3 2.1h13.2v1.1h-13.2zm27.2-4.2h17.7v1.1h-17.7zm0 2.1h17.7v1.1h-17.7zm2.2 2.1h13.2v1.1h-13.2z"/><path fill="#325163" d="M271.9 186.1h-175V72.5h175v113.6zm-174-1h173V73.5h-173v111.6z"/><path fill="#fff" d="M112.4 106.3h144.8v56.4H112.4z"/><path fill="#D3E7EF" d="M126.1 117.1c0 3.1-2.5 5.6-5.7 5.6-3.1 0-5.7-2.5-5.7-5.6 0-3.1 2.5-5.6 5.7-5.6 3.1 0 5.7 2.5 5.7 5.6"/><path fill="#EAF7FE" d="M137.4 119.8l-8.3 14.3h8.3z"/><path fill="#CBDEE6" d="M145.8 134.1l-8.4-14.3v14.3z"/><path fill="#6593AE" d="M129.1 134.1l-16.7 28.6h25v-28.6z"/><path fill="#50798F" d="M145.8 134.1h-8.4v28.6h25.1z"/><path fill="#EFF9FE" d="M154.1 134.1l-5.5 9.5h5.5z"/><path fill="#D8E2E5" d="M159.7 143.6l-5.6-9.5v9.5z"/><path fill="#99C9E2" d="M148.6 143.6l-11.2 19.1h16.7v-19.1z"/><path fill="#89B5CB" d="M159.7 143.6h-5.6v19.1h16.7z"/><path fill="#EFF9FE" d="M244.4 141.7l-4.1 7h4.1z"/><path fill="#D8E2E5" d="M248.5 148.7l-4.1-7v7z"/><path fill="#808285" d="M240.3 148.7l-8.2 14h12.3v-14z"/><path fill="#58595B" d="M248.5 148.7h-4.1v14h12.3z"/><path fill="#EFF9FE" d="M236.2 148.7l-2.7 4.7h2.7z"/><path fill="#D8E2E5" d="M238.9 153.4l-2.7-4.7v4.7z"/><path fill="#99C9E2" d="M233.5 153.4l-5.5 9.3h8.2v-9.3z"/><path fill="#89B5CB" d="M238.9 153.4h-2.7v9.3h8.2z"/><path fill="#EFF9FE" d="M185.5 146.8l-3.1 5.3h3.1z"/><path fill="#D8E2E5" d="M188.6 152.1l-3.1-5.3v5.3z"/><path fill="#D1D3D4" d="M182.4 152.1l-6.1 10.6h9.2v-10.6z"/><path fill="#939598" d="M188.6 152.1h-3.1v10.6h9.3z"/><path fill="#EFF9FE" d="M192.8 151l-2.3 3.9h2.3z"/><path fill="#D8E2E5" d="M195.1 154.9l-2.3-3.9v3.9z"/><path fill="#99C9E2" d="M190.5 154.9l-4.5 7.8h6.8v-7.8z"/><path fill="#89B5CB" d="M195.1 154.9h-2.3v7.8h6.8z"/><path fill="#CBDEE6" d="M166.2 117.1h25v3.9h-25z"/><path fill="#EBEAE8" d="M207.4 117.1h16.3v3.9h-16.3zm-41.2 6.8h25v1h-25zm36.9 0h25v1h-25zm0 2.6h25v1h-25zm0 2.5h25v1h-25zm0 2.6h25v1h-25zm0 2.5h25v1h-25zm5.8 2.5h13.4v1h-13.4zm-42.7-10.1v1h23l.4-1zm0 3.5H188l.5-1h-22.3zm0 2.5h20.7l.4-.9h-21.1zm0 2.6h19.5l.5-1h-20zm0 2.5h18.4l.4-1h-18.8z"/><path fill="#B1B3B6" d="M254.9 138.4c0 1.8-1.5 3.3-3.3 3.3-1.8 0-3.3-1.5-3.3-3.3s1.5-3.3 3.3-3.3c1.8 0 3.3 1.5 3.3 3.3"/><path fill="#DFEAF1" d="M231.76 66.94l5 3.3-80 121.4-5-3.3z"/></svg>