<svg xmlns="http://www.w3.org/2000/svg" width="475.3" height="54"><style type="text/css">.st0{fill:#585461;} .st1{fill:#6492AF;} .st2{fill:#6B6777;} .st3{fill:#84ADC9;} .st4{fill:#30ACBC;}</style><path d="M0 36.7h9.7v16.2H0zM57.5 47c-5.5 0-7.4-4.8-8-10.4h-9.7c1.1 11.7 7.4 17.4 17 17.4 9.3 0 16.7-5.5 18.3-17.4h-9.6c-.6 6.3-3.1 10.4-8 10.4zM107.2 40.9c-2.4 1.9-7.6 5.5-12.1 5.6-3.3.1-4.3-1.8-4.3-6.8v-3.2h-9.5v5.1c0 6 .6 12.2 11.4 12.2 3.1 0 10.6-1.4 14.5-4.6v3.4h9.5V36.7h-9.5v4.2zM138 36.7c3 1 5.2 2.2 5.2 5.3 0 3.6-2.7 5.1-6 5.1-4.1 0-8.7-2.1-11.4-3.8L123 50c2.1 1.6 7.7 4.1 14.5 4.1 8.9 0 15-4.4 15-12.7 0-1.8-.3-3.4-.9-4.7H138zM183 36.7h9.5v16.2H183zM159.5 36.7h9.5v16.2h-9.5zM271.5 45.1v-8.4h-9.4v3.8c0 3.1-3 6.6-7.9 6.6-5.5 0-7.6-4.6-8.1-10.4h-9.4c0 .7.1 1.5.2 2.2-1.9 1.4-12.7 8-17.4 8-6.7 0-9.7-5-10-10.1h-9.4C201 47 206.6 54 218.6 54c6.5 0 17.1-5.5 20.5-7.7 2.2 4.5 6.3 7.7 13.4 7.7 4.4 0 8.3-1.9 10.8-5.6l.3.1.6 5.5h8.1l-.8-8.9z" class="st0"/><path d="M282 36.7h9.7v17.4H282zM325.1 36.7h9.5v17.4h-9.5zM473.9 36.7h-13.6c3 1 5.2 2.2 5.2 5.3 0 3.6-2.7 5.1-6 5.1-4.1 0-8.7-2.1-11.4-3.8-1.7.7-6.4 3.3-8 3.3-3.3 0-4.3-1.8-4.3-6.8v-3.2h-9.5v1c-1.9 1.4-16.2 9.1-20.9 9.1-6.7 0-9.7-5-10-10.1H386c.9 10.4 6.4 17.4 18.4 17.4 6.3 0 18-5 22.3-7.3.8 4 3.3 7.3 11 7.3 2.3 0 6.7-1.3 10-2.6 2.8 1.3 7.1 2.6 12.1 2.6 8.9 0 15-4.4 15-12.7 0-1.8-.4-3.3-.9-4.6zM375.6 44.5v-7.8h-24.8v7.8h-8v9.4h9.2V46h8v-8.5h6.4V46h7.5v7.9h9.2v-9.4z" class="st1"/><path d="M16.4 34.3c12 0 20.6-6 20.6-18.1C37 5.6 29.9 0 18.2 0H0v36.6h9.7v-2.3h6.7zM9.7 7.7h4.8C22.3 7.7 27 9 27 17.2c0 7.1-4.7 9.5-11.6 9.5H9.7v-19zM58.1 11.7c-8.2 0-18.5 4.6-18.5 21.1 0 1.4.1 2.6.2 3.8h9.7c-.2-1.6-.2-3.3-.2-4.9 0-7.6 2.6-13 8.4-13 6 0 8.1 5.5 8.1 14.4 0 1.3-.1 2.5-.2 3.6h9.6c.2-1.5.3-3.1.3-4.9-.1-18.3-11.5-20.1-17.4-20.1zM90.9 0h-9.5v36.7h9.5zM107.2 11.7h9.5v24.9h-9.5zM140.3 29c-3.7-1.1-7.1-2.1-7.1-5.8 0-3.2 2.7-4.6 5.6-4.6 3.3 0 6.7 1.7 9.7 4.3l4.5-5.6c-3.3-3.3-8.4-5.6-14.4-5.6-7.7 0-14.5 4.4-14.5 12.6 0 8.3 6.5 10.2 12.3 11.8.5.2 1.1.3 1.6.5h13.6c-1.9-4.5-6.8-6.2-11.3-7.6zM179.6 11.7c-4.1 0-8 1.4-10.7 4.5V0h-9.5v36.6h9.5v-9.8c0-4.1 3.4-7.9 7.9-7.9 5.2 0 6.1 3.7 6.1 8.3v9.3h9.5v-11c0-9.2-4.4-13.8-12.8-13.8zM209.6 36.6c7.3-.1 22.5-1.7 22.5-13.9 0-7.1-4.8-11-12.6-11-12.6 0-19.4 10.3-19.4 22 0 1 .1 2 .1 3l9.4-.1zm9.3-18.2c2.9 0 4.8 1.7 4.8 4.7 0 6.1-10.1 7.5-14.4 7.4.2-5.9 3.2-12.1 9.6-12.1zM262.2 0v12.6c-1.8-.6-3.7-1-6.2-1-12.2 0-19.2 9.1-19.2 22.7 0 .8 0 1.5.1 2.2h9.4c-.1-1-.1-2.1-.1-3.1 0-7.8 2.5-14.9 10.1-14.9 2.5 0 4.5.6 6 1.3v16.8h9.4V0h-9.5z" class="st2"/><path d="M298.4 34.3c12 0 20.6-6 20.6-18.1C319 5.6 311.9 0 300.2 0H282v36.6h9.7v-2.3h6.7zm-6.7-26.6h4.8c7.8 0 12.5 1.3 12.5 9.5 0 7.1-4.7 9.5-11.6 9.5h-5.7v-19zM325.1 11.7h9.5v25h-9.5zM395.4 36.6c7.3-.1 22.5-1.7 22.5-13.9 0-7.1-4.8-11-12.6-11-12.6 0-19.4 10.3-19.4 22 0 1 .1 2 .1 3l9.4-.1zm9.3-18.2c2.9 0 4.8 1.7 4.8 4.7 0 6.1-10.1 7.5-14.4 7.4.3-5.9 3.3-12.1 9.6-12.1zM426.3 0h9.5v36.6h-9.5zM462.6 29c-3.7-1.1-7.1-2.1-7.1-5.8 0-3.2 2.7-4.6 5.6-4.6 3.3 0 6.7 1.7 9.7 4.3l4.5-5.6c-3.3-3.3-8.4-5.6-14.4-5.6-7.7 0-14.5 4.4-14.5 12.6 0 8.3 6.5 10.2 12.3 11.8.5.2 1.1.3 1.6.5h13.6c-2-4.5-6.8-6.2-11.3-7.6zM325.3 0h9.2v7.4h-9.2z" class="st3"/><path d="M107.3 0h9.2v7.4h-9.2z" class="st1"/><path d="M373.9 11.7v8h-7.5v8.4H360v-8.4h-8v-8h-9.2v9.4h8V29h7.5v7.7H367.6V29h8v-7.9h7.5v-9.4z" class="st3"/></svg>