<svg xmlns="http://www.w3.org/2000/svg" width="60.8" height="60.8"><path fill="#3D8CBD" fill-rule="evenodd" d="M30.4 0c16.8 0 30.4 13.6 30.4 30.4S47.2 60.8 30.4 60.8C13.6 60.8 0 47.2 0 30.4S13.6 0 30.4 0z" opacity=".3" clip-rule="evenodd"/><path fill="#3E8CBD" fill-rule="evenodd" d="M30.4 13.1c9.5 0 17.3 7.7 17.3 17.3 0 9.5-7.7 17.3-17.3 17.3S13.1 40 13.1 30.4c0-9.6 7.7-17.3 17.3-17.3z" opacity=".4" clip-rule="evenodd"/><path fill="#3D8BBC" fill-rule="evenodd" d="M30.4 25.9c2.5 0 4.5 2 4.5 4.5s-2 4.5-4.5 4.5-4.5-2-4.5-4.5 2-4.5 4.5-4.5z" clip-rule="evenodd"/></svg>