<svg xmlns="http://www.w3.org/2000/svg" viewBox="0 0 103.5 143.1" enable-background="new 0 0 103.5 143.1"><path fill="#325163" d="M98.4 142.7H5.1c-2.6 0-4.7-2.1-4.7-4.7V13.7C.4 11.1 2.5 9 5.1 9h93.4c2.6 0 4.7 2.1 4.7 4.7V138c-.1 2.6-2.2 4.7-4.8 4.7"/><path fill="#325163" d="M98.4 143.1H5.1c-2.8 0-5.1-2.3-5.1-5.1V13.7c0-2.8 2.3-5.1 5.1-5.1h93.4c2.8 0 5.1 2.3 5.1 5.1V138c-.1 2.8-2.4 5.1-5.2 5.1M5.1 9.4C2.7 9.4.8 11.3.8 13.7V138c0 2.4 1.9 4.3 4.3 4.3h93.4c2.4 0 4.3-1.9 4.3-4.3V13.7c0-2.4-1.9-4.3-4.3-4.3H5.1z"/><path fill="#fff" d="M11.7 21.5h80.1v110.4H23.4l-11.7-11.7z"/><path fill="#325163" d="M92.2 132.2h-69l-11.9-11.9V21.1h80.8v111.1zm-68.7-.7h67.9V21.9H12.1V120l11.4 11.5z"/><path fill="#fff" d="M12.3 120.4h10.9v10.9z"/><path fill="#325163" d="M23.6 132.2L11.4 120h12.2v12.2zm-10.4-11.4l9.6 9.6v-9.6h-9.6z"/><path fill="#656668" d="M40.1 47.3h38.2v3.3H40.1zm0 14h38.2v3.3H40.1zm0 14.1h38.2v3.3H40.1zm0 14.1h38.2v3.3H40.1zm19.6-81C59.7 4 56.1.4 51.6.4S43.5 4 43.5 8.5h-9.8v5.8h35.9V8.5h-9.9zm-8.1 2.1c-1.2 0-2.1-1-2.1-2.1 0-1.2.9-2.1 2.1-2.1 1.2 0 2.1 1 2.1 2.1.1 1.2-.9 2.1-2.1 2.1m18.3 4.1H33.3V8.1h9.8c.3-4.5 4-8.1 8.5-8.1s8.3 3.6 8.5 8.1h9.8v6.6zm-35.8-.8h35.1v-5h-9.8v-.4c0-4.3-3.5-7.7-7.7-7.7S44 4.3 44 8.5v.4h-9.8v5zM51.6 11c-1.4 0-2.5-1.1-2.5-2.5S50.2 6 51.6 6s2.5 1.1 2.5 2.5S53 11 51.6 11m0-4.3c-1 0-1.7.8-1.7 1.7 0 1 .8 1.7 1.7 1.7 1 0 1.7-.8 1.7-1.7.1-.9-.7-1.7-1.7-1.7"/><path fill="#656668" d="M33.7 14.3h35.8v10.1H33.7zm36.2 10.5H33.3V13.9h36.6v10.9zM34.1 24h35.1v-9.4H34.1V24zm-.4-7.6h35.8v2.2H33.7z"/><path fill="#6593AE" d="M25.6 53.7l-4.9-4.9 1.6-1.6 3.1 3.1 5.5-7.3 1.8 1.4zm0 13.8l-4.9-5 1.6-1.6 3.1 3.1 5.5-7.2 1.8 1.4zm0 13.7l-4.9-4.9 1.6-1.6 3.1 3.1 5.5-7.3 1.8 1.4zm0 13.8l-4.9-5 1.6-1.6 3.1 3.1 5.5-7.2 1.8 1.4z"/></svg>