<svg xmlns="http://www.w3.org/2000/svg" viewBox="0 0 153.3 133.3" enable-background="new 0 0 153.3 133.3"><path fill="#325163" d="M87.8 103.1H57.9c-1.1 7.8-1.3 16.3-7.8 19.5h45.6c-6.6-3.2-6.8-11.7-7.9-19.5M97 123H48.6l1.3-.6c5.6-2.8 6.5-9.8 7.3-16.5.1-.9.2-1.8.4-2.8v-.3h30.5v.3c.1.9.2 1.8.4 2.8.8 6.8 1.7 13.7 7.3 16.5l1.2.6zm-45.7-.7h43.1c-4.9-3.3-5.8-9.9-6.6-16.4-.1-.8-.2-1.6-.3-2.5H58.2c-.1.8-.2 1.6-.3 2.5-.9 6.5-1.7 13.2-6.6 16.4m88.6-18.9H5.5c-2.9 0-5.2-2.3-5.2-5.2V5.5C.3 2.6 2.6.3 5.5.3h134.4c2.9 0 5.2 2.3 5.2 5.2v92.7c0 2.9-2.3 5.2-5.2 5.2"/><path fill="#325163" d="M139.9 103.7H5.5c-3 0-5.5-2.5-5.5-5.5V5.5C0 2.5 2.5 0 5.5 0h134.4c3 0 5.5 2.5 5.5 5.5v92.7c.1 3.1-2.4 5.5-5.5 5.5M5.5.7C2.8.7.6 2.9.6 5.6v92.7c0 2.7 2.2 4.9 4.9 4.9h134.4c2.7 0 4.9-2.2 4.9-4.9V5.5c0-2.7-2.2-4.9-4.9-4.9H5.5z"/><path fill="#fff" d="M135.9 87.3H9.6c-1.4 0-2.6-1.2-2.6-2.6V9.6C6.9 8.2 8.1 7 9.6 7H136c1.4 0 2.6 1.2 2.6 2.6v75.1c-.1 1.5-1.2 2.6-2.7 2.6"/><path fill="#325163" d="M135.9 87.7H9.6c-1.6 0-3-1.3-3-3V9.6c0-1.6 1.3-3 3-3H136c1.6 0 3 1.3 3 3v75.1c-.1 1.6-1.5 3-3.1 3M9.6 7.3c-1.3 0-2.3 1-2.3 2.3v75.1c0 1.3 1 2.3 2.3 2.3H136c1.3 0 2.3-1 2.3-2.3V9.6c0-1.3-1-2.3-2.3-2.3H9.6z"/><path fill="#DFEAF1" d="M13.7 15.1h118.7v64.2H13.7z"/><path fill="#325163" d="M150.4 132.9h-29.2c-1.4 0-2.5-1.1-2.5-2.5V73c0-1.4 1.1-2.5 2.5-2.5h29.2c1.4 0 2.5 1.1 2.5 2.5v57.4c0 1.4-1.1 2.5-2.5 2.5"/><path fill="#325163" d="M150.4 133.3h-29.2c-1.6 0-2.8-1.3-2.8-2.8V73c0-1.6 1.3-2.8 2.8-2.8h29.2c1.6 0 2.8 1.3 2.8 2.8v57.4c0 1.6-1.2 2.9-2.8 2.9m-29.1-62.4c-1.2 0-2.2 1-2.2 2.2v57.4c0 1.2 1 2.2 2.2 2.2h29.2c1.2 0 2.2-1 2.2-2.2V73c0-1.2-1-2.2-2.2-2.2h-29.2z"/><path fill="#fff" d="M122 79.6h27.7v44.3H122z"/><path fill="#325163" d="M150 124.2h-28.3v-45H150v45zm-27.7-.6h27V79.9h-27v43.7z"/><path fill="#DFEAF1" d="M126.7 84.7h18.1v34.2h-18.1z"/></svg>