<svg xmlns="http://www.w3.org/2000/svg" viewBox="0 0 170.5 97.3" enable-background="new 0 0 170.5 97.3"><path fill="#fff" d="M51 16.3c0 .4-.4.8-.8.8s-.8-.4-.8-.8.4-.8.8-.8.8.4.8.8m2.5 0c0 .4-.4.8-.8.8s-.8-.4-.8-.8.4-.8.8-.8c.5 0 .8.4.8.8m2.6 0c0 .4-.4.8-.8.8s-.8-.4-.8-.8.4-.8.8-.8.8.4.8.8"/><path fill="#325163" d="M147.9 89H22.3c-2.7 0-4.9-2.2-4.9-4.9l.3-79c0-2.7 2.2-4.9 4.9-4.9h125.6c2.7 0 4.9 2.2 4.9 4.9l-.3 79c-.1 2.7-2.2 4.9-4.9 4.9"/><path fill="#325163" d="M147.9 89.4H22.3c-2.9 0-5.2-2.3-5.2-5.2l.3-79c0-2.9 2.3-5.2 5.2-5.2h125.6c2.9 0 5.2 2.3 5.2 5.2l-.3 79c0 2.9-2.3 5.2-5.2 5.2M22.6.7c-2.5 0-4.5 2-4.5 4.5l-.3 79c0 2.5 2 4.5 4.5 4.5h125.6c2.5 0 4.5-2 4.5-4.5l.3-79c0-2.5-2-4.5-4.5-4.5H22.6z"/><path fill="#fff" d="M144.3 81.7H26.2c-1.3 0-2.5-1.1-2.5-2.5V9c0-1.3 1.1-2.5 2.5-2.5h118.1c1.3 0 2.5 1.1 2.5 2.5v70.2c-.1 1.4-1.2 2.5-2.5 2.5"/><path fill="#325163" d="M144.3 82H26.2c-1.6 0-2.8-1.3-2.8-2.8V9c0-1.6 1.3-2.8 2.8-2.8h118.1c1.6 0 2.8 1.3 2.8 2.8v70.2c0 1.6-1.3 2.8-2.8 2.8M26.2 6.9c-1.2 0-2.1.9-2.1 2.1v70.2c0 1.2.9 2.1 2.1 2.1h118.1c1.2 0 2.1-.9 2.1-2.1V9c0-1.2-.9-2.1-2.1-2.1H26.2zm141.7 90H2.6c-1.2 0-2.2-1-2.2-2.2V89c0-1.2 1-2.2 2.2-2.2h165.3c1.2 0 2.2 1 2.2 2.2v5.7c0 1.2-1 2.2-2.2 2.2"/><path fill="#325163" d="M167.9 97.3H2.6c-1.4 0-2.6-1.2-2.6-2.6V89c0-1.4 1.2-2.6 2.6-2.6h165.3c1.4 0 2.6 1.2 2.6 2.6v5.7c0 1.4-1.2 2.6-2.6 2.6M2.6 87.1c-1 0-1.9.8-1.9 1.9v5.7c0 1 .8 1.9 1.9 1.9h165.3c1 0 1.9-.8 1.9-1.9V89c0-1-.8-1.9-1.9-1.9H2.6zM31.2 13h106.9v7.4H31.2z"/><path fill="#fff" d="M36.1 16.7c0 .4-.4.8-.8.8s-.8-.4-.8-.8.4-.8.8-.8c.5 0 .8.3.8.8m2.6 0c0 .4-.4.8-.8.8s-.8-.4-.8-.8.4-.8.8-.8.8.3.8.8m2.6 0c0 .4-.4.8-.8.8s-.8-.4-.8-.8.4-.8.8-.8.8.3.8.8"/><path fill="#D1D3D4" d="M31.2 20.4h106.9V73H31.2z"/><path fill="#fff" d="M40.5 30.1h87.7v13.8H40.5zm0 17.7h66.1v2.9H40.5zm0 6.3h66.1V57H40.5zm0 6.2h34.8v2.9H40.5z"/><path fill="#E6E7E8" d="M126 48.3c0 11.5-9.3 20.8-20.8 20.8s-20.8-9.3-20.8-20.8 9.3-20.8 20.8-20.8S126 36.8 126 48.3"/><path fill="#A7A9AC" d="M119.9 48.3c0 8.1-6.6 14.7-14.7 14.7s-14.7-6.6-14.7-14.7 6.6-14.7 14.7-14.7 14.7 6.6 14.7 14.7"/><path d="M113.1 48.3c0 4.4-3.5 7.9-7.9 7.9s-7.9-3.5-7.9-7.9 3.5-7.9 7.9-7.9 7.9 3.5 7.9 7.9"/><path fill="#656668" d="M138.4 76.3l-10.1-10 8.8-4.9-30.6-13.6 13.6 30.6 4.8-8.8L135 79.7z"/><path fill="none" stroke="#fff" stroke-width="2" stroke-miterlimit="10" d="M138.4 76.3l-10.1-10 8.8-4.9-30.6-13.6 13.6 30.6 4.8-8.8L135 79.7z"/></svg>