<svg xmlns="http://www.w3.org/2000/svg" viewBox="0 0 341.5 341.5" enable-background="new 0 0 341.5 341.5"><path fill="#F1F2F2" d="M341.5 170.7c0 94.3-76.4 170.7-170.7 170.7S0 265 0 170.7 76.4 0 170.7 0s170.8 76.4 170.8 170.7"/><path fill="#fff" d="M259.5 98.8H70.1c-1.9 0-3.4 1.5-3.4 3.4v112.5c0 1.9 1.5 3.4 3.4 3.4h163.2v-11.6H76.4v-96.2h178v82.6h8.6v-90.8c-.1-1.8-1.6-3.3-3.5-3.3z"/><path fill="#DFEAF1" d="M76.4 110.4v96.2h156.9v-9.3c0-2.3 1.9-4.2 4.2-4.2h16.8v-82.6H76.4z"/><path fill="#325163" d="M281.2 193.1h-7.4v-97c0-4.6-3.7-8.3-8.3-8.3H64.1c-4.6 0-8.3 3.7-8.3 8.3V235c0 4.6 3.7 8.3 8.3 8.3h77.8c-.1 1-.3 2.1-.4 3.1-1.3 10.1-2.6 20.6-10.9 24.8l-1.9.9h72.5l-1.9-.9c-8.4-4.2-9.7-14.7-10.9-24.8-.1-1.1-.3-2.1-.4-3.1h45.3v40c0 2.3 1.9 4.2 4.2 4.2h43.7c2.3 0 4.2-1.9 4.2-4.2v-86c.1-2.3-1.8-4.2-4.2-4.2zm-42 14.5h40.5V273h-40.5v-65.4zm23.7-14.5h-25.4c-2.3 0-4.2 1.9-4.2 4.2v20.9H70.1c-1.9 0-3.4-1.5-3.4-3.4V102.2c0-1.9 1.5-3.4 3.4-3.4h189.4c1.9 0 3.4 1.5 3.4 3.4v90.9z"/><path fill="#fff" d="M279.6 207.6h-40.5V273h40.5v-65.4zm-33.9 58.3v-51.2h27.1v51.2h-27.1z"/><path fill="#DFEAF1" d="M245.7 214.7h27.1v51.2h-27.1z"/></svg>