<svg xmlns="http://www.w3.org/2000/svg" viewBox="0 0 227.8 227.8" enable-background="new 0 0 227.8 227.8"><circle cx="113.9" cy="114.6" r="113.9" fill="#F1F2F2"/><path fill="#fff" d="M56.6 146.6h118.1c1.2 0 2.1-.9 2.1-2.1V74.3c0-1.2-.9-2.1-2.1-2.1H56.6c-1.2 0-2.1.9-2.1 2.1v70.2c0 1.2.9 2.1 2.1 2.1zm5-60.9v-7.4h106.9v60h-3l3.3 3.3-3.4 3.4-6.7-6.7h-5.2l-3 5.5-2.4-5.5H61.6V85.7z"/><path fill="#325163" d="M198.2 151.7H183c.3-.7.5-1.4.5-2.2l.3-79c0-2.9-2.3-5.2-5.2-5.2H53c-2.9 0-5.2 2.3-5.2 5.2l-.3 79c0 .8.2 1.6.5 2.2H33c-1.4 0-2.6 1.2-2.6 2.6v5.7c0 1.4 1.2 2.6 2.6 2.6h165.3c1.4 0 2.6-1.2 2.6-2.6v-5.7c-.1-1.4-1.2-2.6-2.7-2.6zm-143.7-7.2V74.3c0-1.2.9-2.1 2.1-2.1h118.1c1.2 0 2.1.9 2.1 2.1v70.2c0 1.2-.9 2.1-2.1 2.1H56.6c-1.2 0-2.1-.9-2.1-2.1zM168.4 78.3H61.6v7.4h106.9v-7.4zM65.7 82.8c-.4 0-.8-.4-.8-.8s.4-.8.8-.8.8.4.8.8-.3.8-.8.8zm2.6 0c-.4 0-.8-.4-.8-.8s.4-.8.8-.8.8.4.8.8-.4.8-.8.8zm2.5 0c-.4 0-.8-.4-.8-.8s.4-.8.8-.8.8.4.8.8-.3.8-.8.8z"/><circle cx="65.7" cy="82" r=".8" fill="#fff"/><circle cx="68.3" cy="82" r=".8" fill="#fff"/><circle cx="70.8" cy="82" r=".8" fill="#fff"/><path fill="#ccc" d="M153.5 138.2h5.1l-3.3-3.3zM145.3 132c-2.9 1.5-6.2 2.4-9.7 2.4-8.4 0-15.6-5-18.9-12.1H70.8v-2.9h44.7c-.3-1.1-.5-2.2-.7-3.3h-44v-2.9h43.9c0-1.3.2-2.6.4-3.9H70.8V95.4h54.5c3-1.7 6.5-2.7 10.2-2.7 3.7 0 7.2 1 10.2 2.7h12.7v13.8h-2.6c.3 1.4.5 2.8.5 4.3 0 2.7-.5 5.2-1.4 7.6l12.5 5.6-8.8 4.8 6.7 6.7h3V85.7H61.6v52.6h86.5l-2.8-6.3zm-39.7-3.5H70.8v-2.9h34.8v2.9z"/><path fill="#fff" d="M125.4 95.4H70.8v13.8h44.4c1.2-5.9 5-10.9 10.2-13.8zM155.9 109.2h2.6V95.4h-12.7c5.1 2.9 8.9 7.9 10.1 13.8zM114.8 113.1h-44v2.9h44.1c-.1-.8-.2-1.6-.2-2.5 0-.1.1-.2.1-.4zM70.8 119.3v2.9h45.8c-.4-.9-.8-1.9-1.1-2.9H70.8zM70.8 125.6h34.8v2.9H70.8z"/><path fill="#E6E6E6" d="M135.6 128.3c-8.1 0-14.7-6.6-14.7-14.7s6.6-14.7 14.7-14.7 14.7 6.6 14.7 14.7c0 1.8-.3 3.5-.9 5.1l5.6 2.5c.9-2.3 1.4-4.9 1.4-7.6 0-1.5-.2-2.9-.5-4.3-1.3-5.9-5-10.9-10.2-13.8-3-1.7-6.5-2.7-10.2-2.7-3.7 0-7.2 1-10.2 2.7-5.1 2.9-8.9 7.9-10.2 13.8-.3 1.3-.4 2.6-.4 3.9 0 .1 0 .3 0 .4 0 .8.1 1.7.2 2.5.1 1.1.4 2.2.7 3.3.3 1 .7 2 1.1 2.9 3.3 7.2 10.5 12.1 18.9 12.1 3.5 0 6.8-.9 9.7-2.4l-2.5-5.6c-2.1 1.2-4.6 1.9-7.2 1.9z"/><path fill="#999" d="M135.6 98.8c-8.1 0-14.7 6.6-14.7 14.7s6.6 14.7 14.7 14.7c2.6 0 5.1-.7 7.2-1.9L140 120c-1.3.9-2.8 1.4-4.4 1.4-4.4 0-7.9-3.5-7.9-7.9s3.5-7.9 7.9-7.9 7.9 3.5 7.9 7.9c0 .8-.1 1.6-.3 2.3l6.2 2.8c.6-1.6.9-3.3.9-5.1 0-8.1-6.6-14.7-14.7-14.7z"/><path d="M135.6 105.7c-4.4 0-7.9 3.5-7.9 7.9s3.5 7.9 7.9 7.9c1.6 0 3.2-.5 4.4-1.4l-3.1-7 6.2 2.8c.2-.7.3-1.5.3-2.3.1-4.4-3.5-7.9-7.8-7.9z"/><path fill="#424242" d="M167.5 126.7l-12.6-5.6-5.5-2.4-6.3-2.8-6.2-2.8 3.1 7 2.8 6.3 2.5 5.6 2.8 6.2 2.4 5.5 3-5.5 1.8-3.3 3.3 3.3 6.7 6.8 3.4-3.4-3.3-3.4-6.7-6.7z"/></svg>