<svg xmlns="http://www.w3.org/2000/svg" viewBox="0 0 227.8 227.8" enable-background="new 0 0 227.8 227.8"><circle cx="113.9" cy="113.9" r="113.9" fill="#F1F2F2"/><path fill="none" d="M113.9 98.5c-8.5 0-15.4 6.9-15.4 15.4s6.9 15.4 15.4 15.4 15.4-6.9 15.4-15.4c.1-8.4-6.9-15.4-15.4-15.4z"/><path fill="#fff" d="M171.7 109.4l-12.1-2.8-.3-1.7c-1.2-6-3.6-11.6-6.9-16.6l-1-1.4 6.6-10.6-6.4-6.4-10.6 6.6-1.4-1c-5-3.4-10.6-5.7-16.7-6.8l-1.3-.3V68l-.4.1-2.8-12h-9l-2.8 12-.3-.1v.4l-1.4.3c-5.9 1.1-11.5 3.5-16.7 6.9l-1.4.9-10.6-6.6-6.4 6.4 6.6 10.6-1 1.4c-3.4 5.1-5.7 10.6-6.9 16.6l-.3 1.7-12.2 2.8v9l12.2 2.8.3 1.7c1.2 6 3.5 11.6 6.9 16.6l1 1.4-6.6 10.6 6.4 6.4 10.6-6.6 1.4 1c5.1 3.4 10.7 5.7 16.6 6.9l1.7.3 2.8 12.1h9l2.8-12.1 1.7-.3c6-1.2 11.6-3.5 16.6-6.9l1.4-1 10.6 6.6 6.4-6.4-6.6-10.6 1-1.4c3.4-5.1 5.7-10.7 6.9-16.6l.3-1.7 12.1-2.8v-9zM82 114v1.5h-5.4V114c0-10 3.9-19.3 10.9-26.3s16.4-10.9 26.3-10.9h1.5V82h-1.5c-8.5 0-16.5 3.3-22.5 9.4-6 6-9.3 14-9.3 22.6zm31.9 20.7c-11.4 0-20.8-9.3-20.8-20.8 0-11.4 9.3-20.8 20.8-20.8s20.8 9.3 20.8 20.8-9.3 20.8-20.8 20.8z"/><path fill="#325163" d="M177 122.7v-17.5l-12.9-3c-1.3-5.5-3.5-10.6-6.4-15.4l7-11.3-12.4-12.4-11.3 7c-4.7-2.9-9.9-5.1-15.4-6.3l-3-13h-17.5l-3 13c-5.4 1.3-10.6 3.4-15.3 6.3L75.5 63 63.1 75.5l7.1 11.3c-3 4.8-5.1 9.9-6.4 15.4l-13 3v17.5l13 3c1.3 5.5 3.4 10.7 6.4 15.4l-7.1 11.3 12.4 12.4 11.3-7c4.8 3 9.9 5.1 15.4 6.4l3 12.9h17.5l3-12.9c5.5-1.3 10.6-3.4 15.4-6.4l11.3 7 12.4-12.4-7.1-11.3c3-4.8 5.1-10 6.4-15.4l12.9-3zm-17.4-1.5l-.3 1.7c-1.2 5.9-3.5 11.5-6.9 16.6l-1 1.4 6.6 10.6-6.4 6.4-10.6-6.6-1.4 1c-5.1 3.4-10.6 5.7-16.6 6.9l-1.7.3-2.8 12.1h-9l-2.8-12.1-1.7-.3c-6-1.2-11.6-3.5-16.6-6.9l-1.4-1-10.6 6.6-6.4-6.4 6.6-10.6-1-1.4c-3.4-5-5.7-10.6-6.9-16.6l-.3-1.7-12.2-2.8v-9l12.2-2.8.3-1.7c1.2-5.9 3.5-11.5 6.9-16.6l1-1.4L70 76.3l6.4-6.4L87 76.5l1.4-.9c5.1-3.4 10.8-5.7 16.7-6.9l1.4-.3V68l.3.1 2.8-12h9l2.8 12 .4-.1v.4l1.3.3c6 1.2 11.6 3.5 16.7 6.8l1.4 1 10.6-6.6 6.4 6.4-6.6 10.6 1 1.4c3.4 5 5.7 10.6 6.9 16.6l.3 1.7 12.1 2.8v9l-12.3 2.8zM113.9 93.2c-11.4 0-20.8 9.3-20.8 20.8s9.3 20.8 20.8 20.8 20.8-9.3 20.8-20.8-9.3-20.8-20.8-20.8zm15.5 20.8c0 8.5-6.9 15.4-15.4 15.4s-15.4-6.9-15.4-15.4 6.9-15.4 15.4-15.4c8.4-.1 15.4 6.9 15.4 15.4zM115.4 82v-5.4h-1.5c-10 0-19.3 3.9-26.3 10.9s-10.9 16.4-10.9 26.3v1.5H82V114c0-8.5 3.3-16.5 9.4-22.6 6-6 14-9.4 22.5-9.4h1.5z"/></svg>