<svg xmlns="http://www.w3.org/2000/svg" viewBox="0 0 227.9 227.9" enable-background="new 0 0 227.9 227.9"><path fill="#F1F2F2" d="M227.9 113.9c0 62.9-51 113.9-113.9 113.9S0 176.8 0 113.9 51 0 113.9 0s114 51 114 113.9"/><path fill="#fff" d="M81.9 140.2l74.1-19.8c1.6-.4 2.8-1.9 2.8-3.6v-8.6h-82l5.1 32z"/><path fill="#DAE8EE" d="M157.1 88.5H73.6l3.2 19.6h82V90.2c0-.9-.8-1.7-1.7-1.7z"/><path fill="#325163" d="M75.1 148.8l5-1.4 77.5-20.7c4.5-1.2 7.6-5.3 7.6-9.9V90.2c0-4.5-3.7-8.2-8.2-8.2H72.6l-1.9-13.6c-.6-4.1-4.1-7.1-8.2-7.1h-15v6.5h15c.9 0 1.7.7 1.8 1.6L66 82h-.1l9.7 59.8-2.3.6c-4 1.1-6.9 4.8-6.9 9v.4c0 2.5 1 4.9 2.8 6.6 1.5 1.5 3.4 2.4 5.5 2.7-1.2 1.6-2 3.6-2 5.8 0 5.3 4.3 9.6 9.6 9.6s9.6-4.3 9.6-9.6c0-2.1-.7-4.1-1.9-5.7l53.6-.1c-1.2 1.6-2 3.6-2 5.8 0 5.3 4.3 9.6 9.6 9.6s9.6-4.3 9.6-9.6c0-2.2-.7-4.2-2-5.8h5.3v-6.5l-88.1.1c-.8 0-1.5-.3-2-.8s-.9-1.3-.9-2.1v-.4c-.1-1.1.8-2.3 2-2.6zm83.7-40.7v8.6c0 1.7-1.1 3.2-2.8 3.6l-74.1 19.8-5.2-32-3.2-19.6H157c.9 0 1.7.8 1.7 1.7v17.9z"/></svg>