<svg xmlns="http://www.w3.org/2000/svg" viewBox="0 0 227.8 227.8" enable-background="new 0 0 227.8 227.8"><circle cx="113.9" cy="113.9" r="113.9" fill="#F1F2F2"/><path fill="#fff" d="M161.3 77.9l5.8-5.8 5.3 5.3v-7.2l-5.3-5.3-57.9 57.9-27.1-27.1L45.8 132v-4.4 11.7l11.1-11.1V152H45.8v4.7h126.5V152h-11V77.9zM71.4 152H59.9v-26.9l11.5-11.5V152zm14.5 0H74.4v-41.4l7.7-7.7 3.8 3.8V152zm14.4 0H88.9v-42.3l11.5 11.5V152zm14.5 0h-11.5v-27.8l5.8 5.8 5.7-5.7V152zm14.5 0h-11.5v-30.7l11.5-11.5V152zm14.5 0h-11.5v-45.2l11.5-11.5V152zm14.5 0h-11.5V92.4l11.5-11.5V152z"/><path fill="#325163" d="M45.8 156.8h126.5v5.7H45.8z"/><path fill="#7A8389" d="M56.9 128.1l-11.1 11.1-.4.4V152h11.5zM59.9 152h11.5v-38.4l-11.5 11.5zM74.4 110.6V152h11.5v-45.2l-3.8-3.8zM88.9 152h11.4v-30.7l-11.4-11.5zM103.3 124.2V152h11.5v-27.7l-5.7 5.7zM117.8 152h11.5v-42.1l-11.5 11.4zM132.3 152h11.5V95.4l-11.5 11.5zM146.8 152h11.5V80.9l-11.5 11.5zM172.8 77.9l-.5-.5-5.3-5.3-5.7 5.8V152h11.5z"/><path fill="#325163" d="M82.1 95.7l27 27.1L167 64.9l5.3 5.3V55.6l-14.7-.1 5.3 5.3-53.8 53.8-27-27.1-36.3 36.2v8.3z"/></svg>