<svg xmlns="http://www.w3.org/2000/svg" viewBox="0 0 227.8 227.8" enable-background="new 0 0 227.8 227.8"><circle cx="113.9" cy="113.9" r="113.9" fill="#F1F2F2"/><path fill="none" d="M115.5 45.7c0-1-.8-1.7-1.7-1.7s-1.7.8-1.7 1.7c0 0 0 .1 0 .1h3.5c-.1 0-.1 0-.1-.1z"/><path fill="#325163" d="M160.6 45.9h-28.5v13.3h21.5v109.6H85.7v-11.5H74.2V59.1h21.3V45.8H67.2c-2.8 0-5.1 2.3-5.1 5.1v124.3c0 2.8 2.3 5.1 5.1 5.1h93.4c2.8 0 5.1-2.3 5.1-5.1V50.9c0-2.8-2.3-5-5.1-5zM85 167.6l-9.6-9.6H85v9.6zM113.8 47.5c.9 0 1.7-.7 1.7-1.6H112c.1.9.9 1.6 1.8 1.6z"/><path fill="#fff" d="M95.5 62v-2.9H74.2v98.1h11.5v11.5h67.8V59.1H132V62H95.5zm-7.8 70.2l-4.8-5 1.6-1.6 3 3.1 5.6-7.2 1.8 1.4-7.2 9.3zm0-13.7l-4.8-5 1.6-1.6 3 3.1 5.6-7.2 1.8 1.4-7.2 9.3zm0-13.8l-4.8-5 1.6-1.6 3 3.1 5.6-7.2 1.8 1.4-7.2 9.3zm0-13.7l-4.8-5 1.6-1.6 3 3.1 5.6-7.2 1.8 1.4-7.2 9.3zm52.7 39.1h-38.2v-3.3h38.2v3.3zm0-14.1h-38.2v-3.3h38.2v3.3zm0-14.1h-38.2v-3.3h38.2v3.3zm0-14.1h-38.2v-3.3h38.2v3.3zM85 167.6V158h-9.6z"/><path fill="#424242" d="M102.3 84.5h38.2v3.3h-38.2zM102.3 98.6h38.2v3.3h-38.2zM102.3 112.7h38.2v3.3h-38.2zM102.3 126.7h38.2v3.3h-38.2zM95.5 51.2V62h36.6V45.3h-9.8c-.2-4.5-3.9-8.1-8.5-8.1s-8.3 3.6-8.5 8.1h-9.8v5.9zm16.6-5.5c0-1 .8-1.7 1.7-1.7s1.7.8 1.7 1.7c0 0 0 .1 0 .1-.1.9-.8 1.6-1.7 1.6s-1.7-.7-1.7-1.6c0 0 0 0 0-.1z"/><path fill="#6593AE" d="M87.5 87.5l-3-3.1-1.6 1.6 4.8 5 7.2-9.3-1.8-1.4zM87.5 101.3l-3-3.1-1.6 1.6 4.8 4.9 7.2-9.3-1.8-1.4zM87.5 115l-3-3.1-1.6 1.6 4.8 5 7.2-9.3-1.8-1.4zM87.5 128.8l-3-3.1-1.6 1.6 4.8 4.9 7.2-9.3-1.8-1.4z"/></svg>