<svg xmlns="http://www.w3.org/2000/svg" viewBox="0 0 227.9 227.9" enable-background="new 0 0 227.9 227.9"><path fill="#F1F2F2" d="M227.8 113.9c0 62.9-51 113.9-113.9 113.9S0 176.8 0 113.9 51 0 113.9 0s113.9 51 113.9 113.9"/><path fill="#6593AE" d="M48.5 41.5h5.1v25.1h-5.1zM56.1 44.9h5.1v21.7h-5.1zM63.7 42.4h5.1v24.2h-5.1zM71.3 46.4h5.1v20.2h-5.1zM48.5 66.6h56.2v1.7H48.5z"/><path fill="#D1D3D4" d="M81.8 52h23v2h-23zM81.8 55.5h23v2h-23zM81.8 59h12v2h-12z"/><path fill="#6593AE" d="M74.9 89.8l-6.8-7 1.6-1.6 5 5.2L83.5 75l1.8 1.4z"/><path fill="#808285" d="M123.5 66.8h56.2v1.7h-56.2zM123.5 54.2h5.1v12.6h-5.1zM131.1 56h5.1v10.8h-5.1zM138.7 54.7h5.1v12.1h-5.1zM146.3 56.7h5.1v10.1h-5.1z"/><path fill="#D1D3D4" d="M156.8 55.7h23v2h-23zM156.8 59.2h12v2h-12z"/><path fill="#808285" d="M147.17 78.08l10.47 10.46-1.63 1.63-10.46-10.47zM156.08 78.08l1.63 1.62-10.46 10.47-1.63-1.63z"/><path fill="#F1F2F2" d="M48.1 96.7h131.6v85.1H48.1z"/><path fill="#6593AE" d="M48.1 97.2h131.6v6.4H48.1z"/><path fill="#BCBEC0" d="M120.3 106H84.5l-.7-6.4h35.8z"/><path fill="#D1D3D4" d="M84 102.8v-3.2H48.1v7.7h131.6v-4.5z"/><path fill="#fff" d="M59.5 104.1h109.6v1.9H59.5z"/><path fill="#939598" d="M51.2 104.1h1.9v1.9h-1.9zM54.8 104.1h1.9v1.9h-1.9zM171.8 104.1h1.9v1.9h-1.9zM175.4 104.1h1.9v1.9h-1.9z"/><path fill="#58595B" d="M59.5 107.3h109.6v11.1H59.5z"/><path fill="#D1D3D4" d="M59.5 118.4h109.6v6.4H59.5z"/><path fill="#DFEAF1" d="M62.5 110H89v5.7H62.5z"/><path fill="#fff" d="M112 111.8h18.7v2.1H112z"/><path fill="#D1D3D4" d="M169.1 107.3h-25.8l-6.4 11.1h32.2z"/><path fill="#fff" d="M133.7 111.8h18.7v2.1h-18.7z"/><path fill="#DFEAF1" d="M155.4 111.8h9.2v2.1h-9.2z"/><path fill="#58595B" d="M62.5 121.1h10.3v1.1H62.5zM76.4 118h10.3v6.8H76.4zM90.4 121.1h10.3v1.1H90.4zM104.4 121.1h10.3v1.1h-10.3zM118.4 121.1h10.3v1.1h-10.3z"/><path fill="#E6E7E8" d="M59.5 114.5h109.6v67.3H59.5z"/><path fill="#58595B" d="M59.6 170.3h109.6v11.4H59.6z"/><path fill="#BCBEC0" d="M169.2 170.3H98.4l-6.5 11.4h77.3z"/><path fill="#F1F2F2" d="M74.3 174.6h13.4v.8H74.3zM74.3 176.1h13.4v.8H74.3zM76 177.7h10v.8H76zM96.6 174.6H110v.8H96.6zM96.6 176.1H110v.8H96.6zM98.3 177.7h10v.8h-10zM118.9 174.6h13.4v.8h-13.4zM118.9 176.1h13.4v.8h-13.4zM120.6 177.7h10v.8h-10zM141.2 174.6h13.4v.8h-13.4zM141.2 176.1h13.4v.8h-13.4zM142.8 177.7h10v.8h-10z"/><path fill="#325163" d="M180.1 182.2H47.8V96.3h132.3v85.9zm-131.6-.8h130.8V97H48.5v84.4z"/><path fill="#fff" d="M59.5 121.9H169v42.7H59.5z"/><path fill="#D3E7EF" d="M69.8 130c0 2.3-1.9 4.2-4.3 4.2s-4.3-1.9-4.3-4.2c0-2.3 1.9-4.2 4.3-4.2s4.3 1.9 4.3 4.2"/><path fill="#EAF7FE" d="M78.4 132.1l-6.3 10.8h6.3z"/><path fill="#CBDEE6" d="M84.7 142.9l-6.3-10.8v10.8z"/><path fill="#6593AE" d="M72.1 142.9l-12.6 21.7h18.9v-21.7z"/><path fill="#50798F" d="M84.7 142.9h-6.3v21.7h18.9z"/><path fill="#EFF9FE" d="M91 142.9l-4.2 7.2H91z"/><path fill="#D8E2E5" d="M95.3 150.1l-4.3-7.2v7.2z"/><path fill="#99C9E2" d="M86.8 150.1l-8.4 14.5H91v-14.5z"/><path fill="#89B5CB" d="M95.3 150.1H91v14.5h12.7z"/><path fill="#EFF9FE" d="M159.3 148.6l-3.1 5.3h3.1z"/><path fill="#D8E2E5" d="M162.4 153.9l-3.1-5.3v5.3z"/><path fill="#808285" d="M156.2 153.9l-6.2 10.7h9.3v-10.7z"/><path fill="#58595B" d="M162.4 153.9h-3.1v10.7h9.3z"/><path fill="#EFF9FE" d="M153.1 153.9l-2 3.6h2z"/><path fill="#D8E2E5" d="M155.2 157.5l-2.1-3.6v3.6z"/><path fill="#99C9E2" d="M151.1 157.5l-4.2 7.1h6.2v-7.1z"/><path fill="#89B5CB" d="M155.2 157.5h-2.1v7.1h6.2z"/><path fill="#EFF9FE" d="M114.8 152.5l-2.3 4h2.3z"/><path fill="#D8E2E5" d="M117.1 156.5l-2.3-4v4z"/><path fill="#D1D3D4" d="M112.5 156.5l-4.7 8.1h7v-8.1z"/><path fill="#939598" d="M117.1 156.5h-2.3v8.1h7z"/><path fill="#EFF9FE" d="M120.3 155.7l-1.7 2.9h1.7z"/><path fill="#D8E2E5" d="M122 158.6l-1.7-2.9v2.9z"/><path fill="#99C9E2" d="M118.6 158.6l-3.5 6h5.2v-6z"/><path fill="#89B5CB" d="M122 158.6h-1.7v6h5.2z"/><path fill="#CBDEE6" d="M100.2 130h18.9v3h-18.9z"/><path fill="#EBEAE8" d="M131.4 130h12.4v3h-12.4zM100.2 135.2h18.9v.7h-18.9zM128.1 135.2H147v.7h-18.9zM128.1 137.1H147v.7h-18.9zM128.1 139H147v.7h-18.9zM128.1 141H147v.7h-18.9zM128.1 142.9H147v.7h-18.9zM132.5 144.8h10.1v.7h-10.1zM100.2 137.1v.8h17.4l.3-.8zM100.2 139.8h16.5l.3-.8h-16.8zM100.2 141.7h15.6l.4-.7h-16zM100.2 143.6H115l.3-.7h-15.1zM100.2 145.6h13.9l.3-.8h-14.2z"/><path fill="#B1B3B6" d="M167.3 146.1c0 1.4-1.1 2.5-2.5 2.5s-2.5-1.1-2.5-2.5 1.1-2.5 2.5-2.5c1.3 0 2.5 1.2 2.5 2.5"/><path fill="#F1F2F2" d="M149.8 92.13l3.74 2.48-60.45 91.8-3.77-2.5z"/></svg>