<svg xmlns="http://www.w3.org/2000/svg" xmlns:xlink="http://www.w3.org/1999/xlink" viewBox="0 0 227.9 227.9" enable-background="new 0 0 227.9 227.9"><path fill="#F1F2F2" d="M227.8 113.9c0 62.9-51 113.9-113.9 113.9S0 176.8 0 113.9 51 0 113.9 0s113.9 51 113.9 113.9M147.6 152.6h-26c-.9 6.8-1.2 14.2-6.8 17H154.4c-5.6-2.9-5.9-10.2-6.8-17"/><path fill="#325163" d="M155.7 169.9h-42.3l1.2-.6c4.8-2.4 5.6-8.2 6.3-14.4.1-.8.2-1.6.3-2.4v-.3h26.6v.3c.1.8.2 1.6.3 2.4.8 6.1 1.5 11.9 6.3 14.4l1.3.6zm-39.8-.6h37.3c-4.2-2.9-5-8.6-5.7-14.3-.1-.7-.2-1.4-.3-2.1h-25.5c-.1.7-.2 1.4-.3 2.1-.5 5.6-1.3 11.4-5.5 14.3"/><g opacity=".35"><defs><path id="a" d="M122.6 152.6h31.9v17h-31.9z"/></defs><clipPath id="b"><use xlink:href="#a" overflow="visible"/></clipPath><path fill="#BAC6CE" d="M154.4 169.6c-5.7-2.8-5.9-10.2-6.8-17h-25l18.2 17h13.6z" clip-path="url(#b)"/></g><path fill="#F1F2F2" d="M193 152.8H76c-2.5 0-4.5-2-4.5-4.5V67.6c0-2.5 2-4.5 4.5-4.5h117c2.5 0 4.5 2 4.5 4.5v80.6c0 2.6-2 4.6-4.5 4.6"/><path fill="#325163" d="M193 153.1H76c-2.7 0-4.8-2.2-4.8-4.8V67.6c0-2.7 2.2-4.8 4.8-4.8h117c2.7 0 4.8 2.2 4.8 4.8v80.6c0 2.8-2.1 4.9-4.8 4.9M76 63.4c-2.3 0-4.2 1.9-4.2 4.2v80.6c0 2.3 1.9 4.2 4.2 4.2h117c2.3 0 4.2-1.9 4.2-4.2V67.6c0-2.3-1.9-4.2-4.2-4.2H76z"/><path fill="#fff" d="M189.5 138.8h-110c-1.3 0-2.3-1-2.3-2.3V71.2c0-1.3 1-2.3 2.3-2.3h110c1.3 0 2.3 1 2.3 2.3v65.4c0 1.2-1.1 2.2-2.3 2.2"/><path fill="#325163" d="M189.5 139.2h-110c-1.4 0-2.6-1.2-2.6-2.6V71.2c0-1.4 1.2-2.6 2.6-2.6h110c1.4 0 2.6 1.2 2.6 2.6v65.3c0 1.5-1.2 2.7-2.6 2.7m-110-70c-1.1 0-2 .9-2 2v65.3c0 1.1.9 2 2 2h110c1.1 0 2-.9 2-2V71.2c0-1.1-.9-2-2-2h-110zM81.3 74.1H112v6.7H81.3z"/><path fill="#E6E7E8" d="M119.5 74.8h67v6.7h-67z"/><path fill="#DFEAF1" d="M83.1 86.2h103.3v18H83.1z"/><path fill="#6593AE" d="M81.3 108.3H112v14.2H81.3zM165.7 55.3h3.2v.6h-3.2zM159.5 55.9h-6.2v-.6h6.2v.6zm-12.4 0H141v-.6h6.2v.6zm-12.3 0h-6.2v-.6h6.2v.6zm-12.4 0h-6.2v-.6h6.2v.6zm-12.4 0h-6.2v-.6h6.2v.6zm-12.3 0h-6.2v-.6h6.2v.6zm-12.4 0h-6.2v-.6h6.2v.6zm-12.4 0h-6.2v-.6h6.2v.6zm-12.4 0h-6.2v-.6h6.2v.6zM45 55.3h3.2v.6H45zM165.7 143.7h3.2v.6h-3.2zM159.5 144.4h-6.2v-.6h6.2v.6zm-12.4 0H141v-.6h6.2v.6zm-12.3 0h-6.2v-.6h6.2v.6zm-12.4 0h-6.2v-.6h6.2v.6zm-12.4 0h-6.2v-.6h6.2v.6zm-12.3 0h-6.2v-.6h6.2v.6zm-12.4 0h-6.2v-.6h6.2v.6zm-12.4 0h-6.2v-.6h6.2v.6zm-12.4 0h-6.2v-.6h6.2v.6zM45 143.7h3.2v.6H45zM162.4 144.5h.6v3.2h-.6zM163.1 138.5h-.6v-6h.6v6zm0-11.9h-.6v-6h.6v6zm0-11.9h-.6v-6h.6v6zm0-11.9h-.6v-6h.6v6zm0-11.9h-.6v-6h.6v6zm0-11.9h-.6v-6h.6v6zm0-11.9h-.6v-6h.6v6zM162.4 52h.6v3.2h-.6zM50.8 144.5h.6v3.2h-.6zM51.4 138.5h-.6v-6h.6v6zm0-11.9h-.6v-6h.6v6zm0-11.9h-.6v-6h.6v6zm0-11.9h-.6v-6h.6v6zm0-11.9h-.6v-6h.6v6zm0-11.9h-.6v-6h.6v6zm0-11.9h-.6v-6h.6v6zM50.8 52h.6v3.2h-.6z"/><path fill="#BAC1C6" d="M84.2 164.7H34c-2 0-3.7-1.7-3.7-3.7V88.4c0-2 1.7-3.7 3.7-3.7h50.2c2 0 3.7 1.6 3.7 3.7V161c0 2-1.7 3.7-3.7 3.7"/><path fill="#325163" d="M84.2 165H34c-2.2 0-4-1.8-4-4V88.4c0-2.2 1.8-4 4-4h50.2c2.2 0 4 1.8 4 4V161c0 2.2-1.8 4-4 4M34 85c-1.8 0-3.4 1.5-3.4 3.4V161c0 1.8 1.5 3.4 3.4 3.4h50.2c1.8 0 3.3-1.5 3.3-3.4V88.4c0-1.8-1.5-3.4-3.3-3.4H34z"/><path fill="#fff" d="M32.8 92.6h52.7v64.2H32.8z"/><path fill="#325163" d="M85.8 157.1H32.4V92.3h53.3v64.8zm-52.7-.6h52.1V92.9H33.1v63.6z"/><g opacity=".35"><defs><path id="c" d="M87.9 90.7H155v61.7H87.9z"/></defs><clipPath id="d"><use xlink:href="#c" overflow="visible"/></clipPath><path fill="#BAC6CE" d="M87.9 90.7l67.1 61.7H87.9z" clip-path="url(#d)"/></g><path fill="#325163" d="M36.6 96.1h21.5v5.4H36.6z"/><path fill="#E6E7E8" d="M60.6 98h21.5v5.4H60.6z"/><path fill="#DFEAF1" d="M36.6 103.7h21.5V116H36.6z"/><path fill="#6593AE" d="M36.6 118.5h45.5v18.6H36.6z"/><path fill="#BCBEC0" d="M36.6 139.9h45.5v2H36.6zM36.6 143.7h45.5v2H36.6zM36.6 147.5h45.5v2H36.6zM36.6 151.3h45.5v2H36.6z"/><path fill="#DFEAF1" d="M60.6 105.6h21.5v12.3H60.6z"/><path fill="#6593AE" d="M155.8 109h30.7v14.2h-30.7zM119.5 109h30.7v14.2h-30.7z"/><path fill="#BCBEC0" d="M83.1 126.6h103.3v2.2H83.1zM83.1 130.6h103.3v2.2H83.1z"/><path fill="#BAC1C6" d="M102 175.6H76.7c-1.2 0-2.2-1-2.2-2.2v-49.9c0-1.2 1-2.2 2.2-2.2H102c1.2 0 2.2 1 2.2 2.2v49.9c0 1.2-1 2.2-2.2 2.2"/><path fill="#325163" d="M102 175.9H76.7c-1.4 0-2.5-1.1-2.5-2.5v-49.9c0-1.4 1.1-2.5 2.5-2.5H102c1.4 0 2.5 1.1 2.5 2.5v49.9c0 1.4-1.1 2.5-2.5 2.5m-25.3-54.3c-1 0-1.9.8-1.9 1.9v49.9c0 1 .8 1.9 1.9 1.9H102c1 0 1.9-.8 1.9-1.9v-49.9c0-1-.8-1.9-1.9-1.9H76.7z"/><path fill="#fff" d="M77.3 129.1h24.1v38.6H77.3z"/><path fill="#325163" d="M101.7 168H77v-39.2h24.7V168zm-24.1-.6H101v-37.9H77.6v37.9zM79.2 131.1H100v3.2H79.2z"/><path fill="#BCBEC0" d="M79.2 161.1H100v1.6H79.2zM79.2 164.3H100v1.6H79.2z"/><path fill="#DFEAF1" d="M79.2 135.9H100v6.3H79.2z"/><path fill="#6593AE" d="M79.2 143.8H100v15.7H79.2z"/></svg>