<svg xmlns="http://www.w3.org/2000/svg" width="76.7" height="76.7"><path fill="#F1F2F2" d="M76.7 38.4c0 21.2-17.2 38.4-38.4 38.4S0 59.6 0 38.4 17.2 0 38.4 0s38.3 17.2 38.3 38.4z"/><path fill="#6593AE" d="M28.3 16.3h20.2c1.5 0 2.8 1.4 2.8 3.1v38c0 1.7-1.2 3.1-2.8 3.1H28.3c-1.5 0-2.8-1.4-2.8-3.1v-38c0-1.7 1.2-3.1 2.8-3.1z"/><path fill="#fff" d="M28.7 20h18.9v6.7H28.7V20zM28.2 30.5h4.3v3.7h-4.3v-3.7zM33.6 30.5h4.2v3.7h-4.2v-3.7zM38.9 30.5h4.3v3.7h-4.3v-3.7zM44.3 30.5h4.3v3.7h-4.3v-3.7zM28.2 36.9h4.3v3.8h-4.3v-3.8zM33.6 36.9h4.2v3.8h-4.2v-3.8zM38.9 36.9h4.3v3.8h-4.3v-3.8zM44.3 36.9h4.3v3.8h-4.3v-3.8zM28.2 42.1h4.3v3.7h-4.3v-3.7zM33.6 42.1h4.2v3.7h-4.2v-3.7zM38.9 42.1h4.3v3.7h-4.3v-3.7zM44.3 39h4.3v6.8h-4.3V39zM28.2 47.2h4.3V51h-4.3v-3.8zM33.6 47.2h4.2V51h-4.2v-3.8zM38.9 47.2h4.3V51h-4.3v-3.8zM44.3 47.2h4.3V51h-4.3v-3.8zM28.2 52.4h4.3v3.7h-4.3v-3.7zM33.6 52.4h4.2v3.7h-4.2v-3.7zM38.9 52.4h4.3v3.7h-4.3v-3.7zM44.3 49.3h4.3v6.8h-4.3v-6.8z"/><path fill="#325163" d="M43.7 20.9l.5.5h1.4l.5-.5H43.7zm0 .3v2.1l.5-.3v-1.3l-.5-.5zm2.6 0l-.5.5V23l.5.3v-2.1zm0 2.1l-.5.3v1.3l.5.5v-2.1zm-2.6 0v2.2l.5-.5v-1.4l-.5-.3zm.7 1.9l-.5.5H46.2l-.5-.5h-1.3zM46.7 25.3h.4v.4h-.4v-.4z"/></svg>